
<svg width="42" height="42" viewBox="0 0 42 42" fill="none" xmlns="http://www.w3.org/2000/svg">
<rect width="42" height="42" rx="14" fill="#010101"/>
<path fillRule="evenodd" clipRule="evenodd" d="M25.5 15H28.5C28.8979 15 29.2793 15.158 29.5607 15.4393C29.842 15.7206 30 16.1022 30 16.5V27C30 27.3978 29.842 27.7794 29.5607 28.0607C29.2793 28.342 28.8979 28.5 28.5 28.5H13.5C13.1021 28.5 12.7207 28.342 12.4393 28.0607C12.158 27.7794 12 27.3978 12 27V16.5C12 16.1022 12.158 15.7206 12.4393 15.4393C12.7207 15.158 13.1021 15 13.5 15H16.5L18 12.75H24L25.5 15ZM19.125 24.1812C19.68 24.5521 20.3324 24.75 21 24.75C21.895 24.75 22.7536 24.3944 23.3864 23.7615C24.0194 23.1286 24.375 22.2701 24.375 21.375C24.375 20.7075 24.1771 20.055 23.8063 19.5C23.4353 18.9449 22.9083 18.5124 22.2916 18.2569C21.6749 18.0015 20.9963 17.9346 20.3416 18.0648C19.687 18.1951 19.0854 18.5165 18.6136 18.9885C18.1415 19.4605 17.82 20.0619 17.6898 20.7166C17.5596 21.3712 17.6265 22.0499 17.8819 22.6666C18.1373 23.2833 18.57 23.8103 19.125 24.1812Z" fill="white" fillOpacity="0.1"/>
<path fillRule="evenodd" clipRule="evenodd" d="M30.091 28.591C30.091 28.591 29.432 29.25 28.5 29.25H13.5C13.5 29.25 12.568 29.25 11.909 28.591C11.909 28.591 11.25 27.932 11.25 27V16.5C11.25 16.5 11.25 15.568 11.909 14.909C11.909 14.909 12.568 14.25 13.5 14.25H16.0986L17.376 12.334C17.5151 12.1253 17.7492 12 18 12H24C24.2508 12 24.4849 12.1253 24.624 12.334L25.9014 14.25H28.5C28.5 14.25 29.432 14.25 30.091 14.909C30.091 14.909 30.75 15.568 30.75 16.5V27C30.75 27 30.75 27.932 30.091 28.591ZM29.0303 27.5303C29.0303 27.5303 29.25 27.3107 29.25 27V16.5C29.25 16.5 29.25 16.1893 29.0303 15.9697C29.0303 15.9697 28.8107 15.75 28.5 15.75H25.5C25.2492 15.75 25.0151 15.6247 24.876 15.416L23.5986 13.5H18.4014L17.124 15.416C16.9849 15.6247 16.7508 15.75 16.5 15.75H13.5C13.5 15.75 13.1893 15.75 12.9697 15.9697C12.9697 15.9697 12.75 16.1893 12.75 16.5V27C12.75 27 12.75 27.3107 12.9697 27.5303C12.9697 27.5303 13.1893 27.75 13.5 27.75H28.5C28.5 27.75 28.8107 27.75 29.0303 27.5303Z" fill="white"/>
<path fillRule="evenodd" clipRule="evenodd" d="M21 17.25C21 17.25 22.7086 17.25 23.9168 18.4582C23.9168 18.4582 25.125 19.6664 25.125 21.375C25.125 21.375 25.125 23.0836 23.9168 24.2918C23.9168 24.2918 22.7086 25.5 21 25.5C21 25.5 19.2914 25.5 18.0832 24.2918C18.0832 24.2918 16.875 23.0836 16.875 21.375C16.875 21.375 16.875 19.6664 18.0832 18.4582C18.0832 18.4582 19.2914 17.25 21 17.25ZM21 18.75C21 18.75 19.9127 18.75 19.1438 19.5188C19.1438 19.5188 18.375 20.2877 18.375 21.375C18.375 21.375 18.375 22.4623 19.1438 23.2312C19.1438 23.2312 19.9127 24 21 24C21 24 22.0873 24 22.8562 23.2312C22.8562 23.2312 23.625 22.4623 23.625 21.375C23.625 21.375 23.625 20.2877 22.8562 19.5188C22.8562 19.5188 22.0873 18.75 21 18.75Z" fill="white"/>
</svg>