<svg xmlns="http://www.w3.org/2000/svg" width="42" height="42" fill="none" viewBox="0 0 42 42">
  <rect width="42" height="42" fill="#010101" rx="14"/>
  <path fill="#fff" d="M24.142 27.144a.75.75 0 0 0 0 1.5h3.752a.75.75 0 0 0 .75-.75v-3.752a.751.751 0 0 0-1.5 0v3.002h-3.002Z"/>
  <path fill="#fff" d="m22.59 23.652 4.774 4.773a.75.75 0 0 0 1.06-1.061l-4.773-4.773a.75.75 0 1 0-1.06 1.06Zm-7.734-8.796h3.002a.75.75 0 1 0 0-1.5h-3.752a.75.75 0 0 0-.75.75v3.752a.75.75 0 1 0 1.5 0v-3.002Z"/>
  <path fill="#fff" d="m19.409 18.348-4.773-4.773a.75.75 0 1 0-1.06 1.061l4.772 4.773a.75.75 0 0 0 1.06-1.06Zm-4.554 5.784a.75.75 0 0 0-.75-.74h-.009a.751.751 0 0 0-.52.22l-.004.003a.75.75 0 0 0-.216.527v3.752c0 .415.335.75.75.75h3.751a.751.751 0 0 0 0-1.5h-3.002v-3.012Z"/>
  <path fill="#fff" d="m18.348 22.591-4.773 4.773a.75.75 0 1 0 1.06 1.06l4.774-4.772a.75.75 0 1 0-1.06-1.061Zm8.796-4.734a.751.751 0 0 0 1.5 0v-3.751a.75.75 0 0 0-.75-.75h-3.752a.75.75 0 0 0 0 1.5h3.002v3.001Z"/>
  <path fill="#fff" d="m23.651 19.409 4.773-4.773a.75.75 0 1 0-1.06-1.06l-4.773 4.772a.75.75 0 0 0 1.06 1.061Z"/>
</svg>
