<svg xmlns="http://www.w3.org/2000/svg" width="42" height="42" fill="none" viewBox="0 0 42 42">
  <rect width="42" height="42" fill="#010101" rx="14"/>
  <path fill="#fff" fillOpacity=".1" d="M23.25 21a2.25 2.25 0 1 1-4.5 0 2.25 2.25 0 0 1 4.5 0Z"/>
  <path fill="#fff" fillRule="evenodd" d="M21 18s1.243 0 2.121.879c0 0 .879.878.879 2.121 0 0 0 1.243-.879 2.121 0 0-.878.879-2.121.879 0 0-1.243 0-2.121-.879 0 0-.879-.878-.879-2.121 0 0 0-1.243.879-2.121 0 0 .878-.879 2.121-.879Zm0 1.5s-.621 0-1.06.44c0 0-.44.439-.44 1.06 0 0 0 .621.44 1.06 0 0 .439.44 1.06.44 0 0 .621 0 1.06-.44 0 0 .44-.439.44-1.06 0 0 0-.621-.44-1.06 0 0-.439-.44-1.06-.44Zm-3-8.25s1.243 0 2.121.879c0 0 .879.878.879 2.121 0 0 0 1.243-.879 2.121 0 0-.878.879-2.121.879 0 0-1.243 0-2.121-.879 0 0-.879-.878-.879-2.121 0 0 0-1.243.879-2.121 0 0 .878-.879 2.121-.879Zm0 1.5s-.621 0-1.06.44c0 0-.44.439-.44 1.06 0 0 0 .621.44 1.06 0 0 .439.44 1.06.44 0 0 .621 0 1.06-.44 0 0 .44-.439.44-1.06 0 0 0-.621-.44-1.06 0 0-.439-.44-1.06-.44Zm9.75 3s1.243 0 2.121.879c0 0 .879.878.879 2.121 0 0 0 1.243-.879 2.121 0 0-.878.879-2.121.879 0 0-1.243 0-2.121-.879 0 0-.879-.878-.879-2.121 0 0 0-1.243.879-2.121 0 0 .878-.879 2.121-.879Zm0 1.5s-.621 0-1.06.44c0 0-.44.439-.44 1.06 0 0 0 .621.44 1.06 0 0 .439.44 1.06.44 0 0 .621 0 1.06-.44 0 0 .44-.439.44-1.06 0 0 0-.621-.44-1.06 0 0-.439-.44-1.06-.44Zm0 6s1.243 0 2.121.879c0 0 .879.878.879 2.121 0 0 0 1.243-.879 2.121 0 0-.878.879-2.121.879 0 0-1.243 0-2.121-.879 0 0-.879-.878-.879-2.121 0 0 0-1.243.879-2.121 0 0 .878-.879 2.121-.879Zm0 1.5s-.621 0-1.06.44c0 0-.44.439-.44 1.06 0 0 0 .621.44 1.06 0 0 .439.44 1.06.44 0 0 .621 0 1.06-.44 0 0 .44-.439.44-1.06 0 0 0-.621-.44-1.06 0 0-.439-.44-1.06-.44ZM14.25 24s1.243 0 2.121.879c0 0 .879.878.879 2.121 0 0 0 1.243-.879 2.121 0 0-.878.879-2.121.879 0 0-1.243 0-2.121-.879 0 0-.879-.878-.879-2.121 0 0 0-1.243.879-2.121 0 0 .878-.879 2.121-.879Zm0 1.5s-.621 0-1.06.44c0 0-.44.439-.44 1.06 0 0 0 .621.44 1.06 0 0 .439.44 1.06.44 0 0 .621 0 1.06-.44 0 0 .44-.439.44-1.06 0 0 0-.621-.44-1.06 0 0-.439-.44-1.06-.44Z" clipRule="evenodd"/>
  <path fill="#fff" d="m20.775 18.64-1.18-2.643a.75.75 0 1 0-1.37.612l1.18 2.644a.75.75 0 0 0 .686.444h.02a.75.75 0 0 0 .664-1.056Zm4.6.111-2.475.825a.75.75 0 0 0-.512.712v.014a.753.753 0 0 0 .75.736h.013a.75.75 0 0 0 .224-.039l2.475-.825a.75.75 0 0 0 .512-.712v-.014a.75.75 0 0 0-.75-.736H25.6a.75.75 0 0 0-.224.039Zm-2.143 3.035 3.207 2.494a.75.75 0 0 1 .29.59v.002a.75.75 0 0 1-.735.75h-.016a.75.75 0 0 1-.46-.158L22.31 22.97a.75.75 0 1 1 .921-1.184Zm-4.409.144-3.393 3.02a.75.75 0 1 0 .997 1.12l3.393-3.018a.75.75 0 1 0-.997-1.12Z"/>
</svg>
