<svg xmlns="http://www.w3.org/2000/svg" width="42" height="42" fill="none" viewBox="0 0 42 42">
  <rect width="42" height="42" fill="#010101" rx="14"/>
  <path fill="#fff" fillOpacity=".1" d="M18 15.375a2.625 2.625 0 1 1-5.25 0 2.625 2.625 0 0 1 5.25 0Z"/>
  <path fill="#fff" fillRule="evenodd" d="M15.375 23.25s1.398 0 2.387.988c0 0 .988.989.988 2.387 0 0 0 1.398-.988 2.387 0 0-.989.988-2.387.988 0 0-1.398 0-2.386-.988 0 0-.989-.989-.989-2.387 0 0 0-1.398.989-2.387 0 0 .988-.988 2.386-.988Zm0 1.5s-.777 0-1.326.55c0 0-.549.548-.549 1.325 0 0 0 .777.55 1.326 0 0 .548.549 1.325.549 0 0 .777 0 1.326-.55 0 0 .549-.548.549-1.325 0 0 0-.777-.55-1.326 0 0-.548-.549-1.325-.549Zm0-12.75s1.398 0 2.387.989c0 0 .988.988.988 2.386 0 0 0 1.398-.988 2.387 0 0-.989.988-2.387.988 0 0-1.398 0-2.386-.988 0 0-.989-.989-.989-2.387 0 0 0-1.398.989-2.386 0 0 .988-.989 2.386-.989Zm0 1.5s-.777 0-1.326.55c0 0-.549.548-.549 1.325 0 0 0 .777.55 1.326 0 0 .548.549 1.325.549 0 0 .777 0 1.326-.55 0 0 .549-.548.549-1.325 0 0 0-.777-.55-1.326 0 0-.548-.549-1.325-.549Zm11.25 5.25s1.398 0 2.387.988c0 0 .988.989.988 2.387 0 0 0 1.398-.988 2.387 0 0-.989.988-2.387.988 0 0-1.398 0-2.387-.988 0 0-.988-.989-.988-2.387 0 0 0-1.398.988-2.387 0 0 .989-.988 2.387-.988Zm0 1.5s-.777 0-1.326.55c0 0-.549.548-.549 1.325 0 0 0 .777.55 1.326 0 0 .548.549 1.325.549 0 0 .777 0 1.326-.55 0 0 .549-.548.549-1.325 0 0 0-.777-.55-1.326 0 0-.548-.549-1.325-.549Z" clipRule="evenodd"/>
  <path fill="#fff" d="M14.625 18v6a.75.75 0 0 0 1.5 0v-3.93l1.074 1.288c.746.9 1.806 1.397 1.806 1.397 1.06.497 2.23.495 2.23.495H24a.75.75 0 0 0 0-1.5h-2.767c-.835.002-1.591-.353-1.591-.353-.757-.354-1.291-1-1.291-1l-2.4-2.877a.75.75 0 0 0-1.326.48Z"/>
</svg>
