<svg xmlns="http://www.w3.org/2000/svg" width="42" height="42" fill="none" viewBox="0 0 42 42">
  <rect width="42" height="42" fill="#010101" rx="14"/>
  <path fill="#fff" d="M28.8 16.444a.748.748 0 0 0-.356 1.003 8.25 8.25 0 1 1-2.166-2.784L24.141 16.8a5.25 5.25 0 0 0-6.853 7.912A5.25 5.25 0 0 0 26.24 20.7a.74.74 0 0 0-.788-.703.75.75 0 0 0-.712.787 3.75 3.75 0 0 1-5.813 3.347l2.25-2.25 3.534-3.534 5.822-5.813a.76.76 0 0 0-1.068-1.068l-2.12 2.128a9.75 9.75 0 0 0-13.237.515 9.732 9.732 0 0 0 0 13.782 9.73 9.73 0 0 0 13.782 0A9.75 9.75 0 0 0 29.803 16.8a.748.748 0 0 0-1.003-.356Z"/>
</svg>
