<svg xmlns="http://www.w3.org/2000/svg" width="42" height="42" fill="none" viewBox="0 0 42 42">
  <rect width="42" height="42" fill="#010101" rx="14"/>
  <path fill="#fff" fillOpacity=".1" d="M12 18.375h3.75a.75.75 0 0 1 .75.75v3.75a.75.75 0 0 1-.75.75H12a.75.75 0 0 1-.75-.75v-3.75a.75.75 0 0 1 .75-.75Zm12.75-5.625h4.5a.75.75 0 0 1 .75.75V18a.75.75 0 0 1-.75.75h-4.5A.75.75 0 0 1 24 18v-4.5a.75.75 0 0 1 .75-.75Zm0 10.5h4.5A.75.75 0 0 1 30 24v4.5a.75.75 0 0 1-.75.75h-4.5a.75.75 0 0 1-.75-.75V24a.75.75 0 0 1 .75-.75Z"/>
  <path fill="#fff" fillRule="evenodd" d="M10.5 19.125s0-.621.44-1.06c0 0 .439-.44 1.06-.44h3.75s.621 0 1.06.44c0 0 .44.439.44 1.06v3.75s0 .621-.44 1.06c0 0-.439.44-1.06.44H12s-.621 0-1.06-.44c0 0-.44-.439-.44-1.06v-3.75Zm1.5 0v3.75h3.75v-3.75H12ZM23.25 13.5s0-.621.44-1.06c0 0 .439-.44 1.06-.44h4.5s.621 0 1.06.44c0 0 .44.439.44 1.06V18s0 .621-.44 1.06c0 0-.439.44-1.06.44h-4.5s-.621 0-1.06-.44c0 0-.44-.439-.44-1.06v-4.5Zm1.5 0V18h4.5v-4.5h-4.5ZM23.25 24s0-.621.44-1.06c0 0 .439-.44 1.06-.44h4.5s.621 0 1.06.44c0 0 .44.439.44 1.06v4.5s0 .621-.44 1.06c0 0-.439.44-1.06.44h-4.5s-.621 0-1.06-.44c0 0-.44-.439-.44-1.06V24Zm1.5 0v4.5h4.5V24h-4.5Z" clipRule="evenodd"/>
  <path fill="#fff" d="M16.5 21.75h3.75a.75.75 0 0 0 0-1.5H16.5a.75.75 0 0 0 0 1.5Z"/>
  <path fill="#fff" d="M21.923 16.612c.276-.113.577-.112.577-.112H24a.75.75 0 0 0 0-1.5h-1.5c-.595-.002-1.148.225-1.148.225-.553.228-.976.65-.976.65-.423.424-.65.977-.65.977-.229.553-.226 1.151-.226 1.151V24c-.003.595.225 1.148.225 1.148.228.553.65.976.65.976.424.423.977.65.977.65.553.229 1.151.226 1.151.226H24a.75.75 0 0 0 0-1.5h-1.503a1.702 1.702 0 0 1-.574-.112 1.683 1.683 0 0 1-.486-.325 1.685 1.685 0 0 1-.325-.486C21 24.301 21 24 21 24v-6.003a1.702 1.702 0 0 1 .112-.574c.114-.276.325-.486.325-.486.21-.211.486-.325.486-.325Z"/>
</svg>
