<svg xmlns="http://www.w3.org/2000/svg" width="42" height="42" fill="none" viewBox="0 0 42 42">
  <rect width="42" height="42" fill="#010101" rx="14"/>
  <path fill="#fff" fillOpacity=".1" d="M27.75 19.875a7.875 7.875 0 1 1-15.75 0 7.875 7.875 0 0 1 15.75 0Z"/>
  <path fill="#fff" d="M16.875 20.625h6a.75.75 0 0 0 0-1.5h-6a.75.75 0 0 0 0 1.5Z"/>
  <path fill="#fff" d="M19.125 16.875v6a.75.75 0 0 0 1.5 0v-6a.75.75 0 0 0-1.5 0Z"/>
  <path fill="#fff" fillRule="evenodd" d="M19.875 11.25s1.754 0 3.358.678c0 0 1.547.655 2.74 1.848 0 0 1.194 1.194 1.849 2.741 0 0 .678 1.604.678 3.358 0 0 0 1.754-.678 3.358 0 0-.655 1.547-1.848 2.74 0 0-1.194 1.194-2.741 1.849 0 0-1.604.678-3.358.678 0 0-1.754 0-3.358-.678 0 0-1.547-.655-2.74-1.848 0 0-1.194-1.194-1.849-2.741 0 0-.678-1.604-.678-3.358 0 0 0-1.754.678-3.358 0 0 .655-1.547 1.848-2.74 0 0 1.194-1.194 2.741-1.849 0 0 1.604-.678 3.358-.678Zm0 1.5s-1.45 0-2.773.56c0 0-1.279.54-2.265 1.527 0 0-.987.986-1.527 2.265 0 0-.56 1.323-.56 2.773 0 0 0 1.45.56 2.773 0 0 .54 1.279 1.527 2.265 0 0 .986.987 2.265 1.527 0 0 1.323.56 2.773.56 0 0 1.45 0 2.773-.56 0 0 1.279-.54 2.265-1.527 0 0 .987-.986 1.527-2.265 0 0 .56-1.323.56-2.773 0 0 0-1.45-.56-2.773 0 0-.54-1.279-1.527-2.265 0 0-.986-.987-2.265-1.527 0 0-1.323-.56-2.773-.56Z" clipRule="evenodd"/>
  <path fill="#fff" d="M29.47 30.53a.75.75 0 1 0 1.06-1.06l-4.556-4.556a.75.75 0 1 0-1.06 1.06l4.555 4.556Z"/>
</svg>
