<svg width="45" height="49" viewBox="0 0 45 49" fill="none" xmlns="http://www.w3.org/2000/svg">
<path d="M44.5 25C44.5 38.0096 34.6204 48.5 22.5 48.5C10.3796 48.5 0.5 38.0096 0.5 25C0.5 11.9904 10.3796 1.5 22.5 1.5C34.6204 1.5 44.5 11.9904 44.5 25Z" fill="black" fill-opacity="0.7" stroke="black"/>
<circle cx="22.5" cy="22.5" r="22" fill="white" stroke="black"/>
<path d="M23.3439 27.8985L27.2814 30.3985C27.7892 30.7188 28.4142 30.2422 28.2658 29.6563L27.1251 25.1719C27.0943 25.0476 27.0992 24.9171 27.1393 24.7955C27.1794 24.6739 27.253 24.566 27.3517 24.4844L30.883 21.5391C31.3439 21.1563 31.1095 20.3829 30.5079 20.3438L25.8985 20.0469C25.7728 20.0396 25.6519 19.9958 25.5506 19.9209C25.4493 19.8459 25.372 19.7431 25.3282 19.625L23.6095 15.2969C23.564 15.1718 23.4811 15.0638 23.3721 14.9874C23.2631 14.9111 23.1332 14.8701 23.0001 14.8701C22.867 14.8701 22.7371 14.9111 22.6281 14.9874C22.5191 15.0638 22.4362 15.1718 22.3908 15.2969L20.672 19.625C20.6282 19.7431 20.5509 19.8459 20.4496 19.9209C20.3484 19.9958 20.2274 20.0396 20.1017 20.0469L15.4923 20.3438C14.8908 20.3829 14.6564 21.1563 15.1173 21.5391L18.6485 24.4844C18.7473 24.566 18.8209 24.6739 18.8609 24.7955C18.9011 24.9171 18.906 25.0476 18.8751 25.1719L17.8204 29.3282C17.6408 30.0313 18.3907 30.6016 18.9923 30.2188L22.6563 27.8985C22.7591 27.8331 22.8784 27.7984 23.0001 27.7984C23.1219 27.7984 23.2411 27.8331 23.3439 27.8985Z" fill="black" fill-opacity="0.1"/>
<path fill-rule="evenodd" clip-rule="evenodd" d="M23.0084 28.4259C23.0084 28.4259 23.0046 28.4234 23.0001 28.4234C23.0001 28.4234 22.9955 28.4234 22.9917 28.4259L19.3266 30.7468C19.3266 30.7468 18.9367 30.9949 18.4865 30.9635C18.4865 30.9635 18.0723 30.9345 17.7351 30.6782C17.7351 30.6782 17.4022 30.4252 17.2573 30.0357C17.2573 30.0357 17.1015 29.6169 17.2148 29.1734L18.2693 25.0182C18.2693 25.0182 18.2722 25.0061 18.2673 24.9911C18.2673 24.9911 18.2624 24.9761 18.2502 24.9661L14.7169 22.019C14.7169 22.019 14.3973 21.7536 14.2924 21.3555C14.2924 21.3555 14.1966 20.9918 14.3092 20.6277C14.3092 20.6277 14.4232 20.2596 14.7116 20.0158C14.7116 20.0158 15.029 19.7475 15.4517 19.7201L20.0614 19.4232C20.0614 19.4232 20.0723 19.4225 20.0779 19.4184C20.0779 19.4184 20.0835 19.4142 20.0859 19.4077L20.0911 19.3943L21.8069 15.0734C21.8069 15.0734 21.9449 14.7029 22.2695 14.4755C22.2695 14.4755 22.5985 14.2451 23.0001 14.2451C23.0001 14.2451 23.4016 14.2451 23.7306 14.4755C23.7306 14.4755 24.0552 14.7029 24.1932 15.0734L25.9091 19.3943L25.9142 19.4077C25.9142 19.4077 25.9166 19.4142 25.9222 19.4184C25.9222 19.4184 25.9278 19.4225 25.9348 19.4229L30.548 19.7201C30.548 19.7201 30.9711 19.7475 31.2885 20.0158C31.2885 20.0158 31.5769 20.2596 31.6909 20.6277C31.6909 20.6277 31.8035 20.9918 31.7077 21.3555C31.7077 21.3555 31.6028 21.7536 31.2822 22.0199L27.7519 24.9644C27.7519 24.9644 27.7377 24.9761 27.7328 24.9911C27.7328 24.9911 27.7279 25.0061 27.7317 25.0214L28.8714 29.5022C28.8714 29.5022 28.9732 29.904 28.8313 30.2834C28.8313 30.2834 28.6992 30.6365 28.3969 30.8655C28.3969 30.8655 28.0904 31.0976 27.7131 31.1235C27.7131 31.1235 27.304 31.1517 26.9479 30.9271L23.0093 28.4264L23.0088 28.4261L23.0084 28.4259ZM27.6147 29.8698L23.6793 27.3711L23.6788 27.3708C23.6788 27.3708 23.3682 27.1734 23.0001 27.1734C23.0001 27.1734 22.6317 27.1734 22.3209 27.3711L18.6579 29.6907C18.6579 29.6907 18.5728 29.7449 18.4916 29.6831C18.4916 29.6831 18.3937 29.6088 18.4259 29.4829L19.4809 25.3256C19.4809 25.3256 19.5723 24.9572 19.4545 24.5999C19.4545 24.5999 19.3367 24.2425 19.0468 24.0027L15.5176 21.0591C15.5176 21.0591 15.491 21.0371 15.5034 20.9973C15.5034 20.9973 15.5122 20.9688 15.5327 20.9675L20.1418 20.6706C20.1418 20.6706 20.5164 20.6488 20.8213 20.4233C20.8213 20.4233 21.1228 20.2003 21.255 19.8501L22.9716 15.5276L22.978 15.5105C22.978 15.5105 22.9806 15.5036 22.9866 15.4994C22.9866 15.4994 22.9927 15.4951 23.0001 15.4951C23.0001 15.4951 23.0074 15.4951 23.0135 15.4994C23.0135 15.4994 23.0196 15.5036 23.0221 15.5105L23.0286 15.5276L24.7451 19.8501C24.7451 19.8501 24.8773 20.2003 25.1788 20.4233C25.1788 20.4233 25.4837 20.6488 25.8622 20.6708L30.4677 20.9675C30.4677 20.9675 30.4879 20.9688 30.4967 20.9973C30.4967 20.9973 30.5091 21.0371 30.4836 21.0583L26.9513 24.0044C26.9513 24.0044 26.6634 24.2425 26.5456 24.5999C26.5456 24.5999 26.4278 24.9572 26.5184 25.3224L27.66 29.8103C27.66 29.8103 27.6696 29.8483 27.6423 29.869C27.6423 29.869 27.6291 29.8789 27.6147 29.8698Z" fill="#1C1C1C"/>
</svg>
