<svg width="220" height="160" viewBox="0 0 220 160" fill="none" xmlns="http://www.w3.org/2000/svg">
<path d="M291.557 169.905C350.267 227.6 393.68 289.71 416.418 343.471C427.788 370.353 433.979 395.124 434.345 416.198C434.711 437.27 429.255 454.606 417.377 466.692C405.5 478.778 388.263 484.535 367.188 484.537C346.11 484.538 321.235 478.78 294.159 467.881C240.009 446.083 177.152 403.76 118.442 346.065C59.7325 288.37 16.3198 226.26 -6.41887 172.499C-17.7887 145.617 -23.9795 120.846 -24.3455 99.7716C-24.7114 78.6997 -19.2551 61.3645 -7.37797 49.2785C4.49914 37.1925 21.7365 31.4348 42.8117 31.4332C63.8892 31.4316 88.7643 37.1896 115.84 48.089C169.99 69.8869 232.848 112.21 291.557 169.905Z" stroke="url(#paint0_linear_3_759)"/>
<path d="M293.081 171.429C350.775 230.14 393.097 292.998 414.894 347.148C425.793 374.224 431.551 399.099 431.549 420.177C431.547 441.252 425.789 458.489 413.702 470.366C401.616 482.243 384.281 487.699 363.209 487.333C342.135 486.967 317.364 480.775 290.482 469.405C236.721 446.665 174.612 403.252 116.918 344.541C59.2241 285.83 16.902 222.972 -4.89496 168.822C-15.7939 141.746 -21.5515 116.871 -21.5496 95.793C-21.5477 74.7179 -15.7897 57.4806 -3.70343 45.6037C8.3828 33.7268 25.7181 28.2708 46.79 28.6371C67.8644 29.0033 92.6352 35.1946 119.517 46.5649C173.278 69.3045 235.387 112.718 293.081 171.429Z" stroke="url(#paint1_linear_3_759)"/>
<path d="M294.578 172.979C351.239 232.688 392.458 296.275 413.306 350.798C423.731 378.06 429.053 403.032 428.684 424.106C428.314 445.178 422.256 462.312 409.964 473.976C397.673 485.641 380.245 490.793 359.182 490.059C338.118 489.325 313.459 482.703 286.78 470.865C233.423 447.19 172.081 402.699 115.421 342.991C58.7605 283.282 17.5419 219.695 -3.30669 165.173C-13.7314 137.91 -19.054 112.938 -18.6842 91.8641C-18.3145 70.7922 -12.2566 53.658 0.0351209 41.9938C12.3268 30.3297 29.7546 25.1771 50.817 25.911C71.8818 26.6451 96.5407 33.2677 123.22 45.1054C176.576 68.7798 237.918 113.271 294.578 172.979Z" stroke="url(#paint2_linear_3_759)"/>
<path d="M296.048 174.556C351.658 235.244 391.761 299.541 411.655 354.419C421.602 381.859 426.488 406.92 425.75 427.985C425.013 449.047 418.657 466.073 406.164 477.521C393.67 488.969 376.155 493.816 355.109 492.715C334.06 491.613 309.52 484.561 283.052 472.26C230.117 447.658 169.561 402.103 113.951 341.414C58.3413 280.726 18.2387 216.429 -1.65516 161.551C-11.6025 134.111 -16.4884 109.05 -15.7509 87.9856C-15.0135 66.9234 -8.65746 49.8975 3.83591 38.4497C16.3293 27.0018 33.8444 22.1541 54.8907 23.2556C75.9395 24.3571 100.479 31.4091 126.948 43.7106C179.882 68.3126 240.439 113.867 296.048 174.556Z" stroke="url(#paint3_linear_3_759)"/>
<path d="M297.49 176.158C352.032 237.807 391.007 302.794 409.94 358.011C419.407 385.621 423.855 410.763 422.75 431.812C421.645 452.858 414.992 469.77 402.301 480.998C389.61 492.226 372.013 496.767 350.989 495.299C329.963 493.83 305.55 486.351 279.3 473.589C226.803 448.067 167.051 401.463 112.509 339.813C57.9665 278.163 18.9922 213.176 0.0590713 157.96C-9.40787 130.35 -13.8557 105.208 -12.7507 84.159C-11.6458 63.1128 -4.99353 46.2005 7.69772 34.9724C20.389 23.7443 37.986 19.2031 59.0099 20.6717C80.0363 22.1404 104.449 29.6196 130.699 42.3811C183.196 67.9032 242.948 114.508 297.49 176.158Z" stroke="url(#paint4_linear_3_759)"/>
<path d="M298.904 177.784C352.362 240.376 390.197 306.033 408.163 361.572C417.147 389.343 421.155 414.559 419.683 435.585C418.211 456.609 411.264 473.402 398.379 484.407C385.494 495.412 367.82 499.646 346.825 497.81C325.828 495.975 301.549 488.071 275.526 474.853C223.482 448.419 164.553 400.778 111.095 338.186C57.6369 275.594 19.8027 209.937 1.83611 154.398C-7.14753 126.627 -11.1559 101.411 -9.68367 80.385C-8.21164 59.3613 -1.26526 42.5677 11.62 31.5628C24.5053 20.5579 42.1789 16.3245 63.174 18.1597C84.1715 19.9952 108.45 27.8993 134.473 41.117C186.517 67.5515 245.447 115.192 298.904 177.784Z" stroke="url(#paint5_linear_3_759)"/>
<path d="M300.29 179.435C352.647 242.951 389.33 309.258 406.324 365.102C414.822 393.025 418.39 418.308 416.551 439.305C414.712 460.3 407.474 476.969 394.398 487.748C381.323 498.526 363.578 502.45 342.618 500.249C321.656 498.047 297.519 489.721 271.731 476.051C220.156 448.712 162.067 400.051 109.71 336.535C57.3522 273.019 20.6696 206.712 3.67508 150.868C-4.82253 122.945 -8.39018 97.6624 -6.55125 76.6652C-4.71253 55.6705 2.52588 39.0006 15.6013 28.2223C28.6766 17.4439 46.4214 13.5196 67.3813 15.721C88.3436 17.9226 112.481 26.2492 138.269 39.9191C189.844 67.2578 247.933 115.919 300.29 179.435Z" stroke="url(#paint6_linear_3_759)"/>
<path d="M301.647 181.11C352.888 245.529 388.407 312.467 404.425 368.599C412.434 396.666 415.56 422.007 413.354 442.969C411.15 463.928 403.621 480.469 390.36 491.018C377.098 501.566 359.288 505.18 338.37 502.613C317.449 500.046 293.461 491.3 267.915 477.182C216.825 448.947 159.594 399.279 108.353 334.859C57.1126 270.44 21.5928 203.502 5.57547 147.37C-2.43352 119.303 -5.55939 93.9622 -3.35428 73.0003C-1.14943 52.0408 6.37881 35.4998 19.6403 24.9513C32.9018 14.4028 50.7124 10.7887 71.6306 13.3556C92.5513 15.9228 116.539 24.6693 142.085 38.7872C193.175 67.0219 250.406 116.69 301.647 181.11Z" stroke="url(#paint7_linear_3_759)"/>
<path d="M302.973 182.808C353.082 248.112 387.428 315.66 402.464 372.062C409.982 400.265 412.665 425.657 410.094 446.577C407.524 467.495 399.708 483.902 386.264 494.217C372.821 504.533 354.95 507.835 334.08 504.904C313.207 501.972 289.375 492.808 264.08 478.246C213.491 449.124 157.135 398.465 107.026 333.161C56.9176 267.857 22.5714 200.309 7.53619 143.906C0.01826 115.704 -2.66488 90.3124 -0.0942675 69.3922C2.47604 48.4743 10.2918 32.0672 23.7354 21.7518C37.179 11.4364 55.0499 8.13369 75.9202 11.0652C96.7928 13.9971 120.624 23.161 145.92 37.7226C196.509 66.8446 252.865 117.504 302.973 182.808Z" stroke="url(#paint8_linear_3_759)"/>
<path d="M304.27 184.53C353.232 250.699 386.394 318.835 400.443 375.492C407.467 403.821 409.707 429.256 406.771 450.128C403.836 470.998 395.736 487.266 382.114 497.345C368.492 507.424 350.567 510.415 329.751 507.119C308.932 503.824 285.264 494.245 260.227 479.244C210.153 449.244 154.691 397.609 105.729 331.44C56.7678 265.271 23.6057 197.135 9.55712 140.478C2.53253 112.149 0.29295 86.7141 3.22827 65.842C6.16326 44.9722 14.2642 28.704 27.8857 18.6248C41.5073 8.54552 59.4332 5.55523 80.2491 8.85057C101.067 12.1463 124.735 21.7247 149.773 36.7255C199.846 66.726 255.309 118.361 304.27 184.53Z" stroke="url(#paint9_linear_3_759)"/>
<path d="M305.537 186.274C353.336 253.287 385.304 321.991 398.362 378.885C404.891 407.333 406.686 432.802 403.387 453.62C400.088 474.435 391.705 490.56 377.909 500.4C364.114 510.24 346.139 512.917 325.383 509.259C304.626 505.6 281.128 495.61 256.356 480.174C206.814 449.305 152.261 396.71 104.462 329.696C56.6629 262.683 24.6951 193.978 11.6374 137.085C5.10831 108.637 3.31296 83.1675 6.6121 62.3498C9.91087 41.5344 18.2945 25.4101 32.0899 15.5701C45.8853 5.73012 63.8606 3.05314 84.6158 6.71127C105.373 10.3698 128.871 20.3598 153.643 35.7953C203.185 66.6651 257.738 119.26 305.537 186.274Z" stroke="url(#paint10_linear_3_759)"/>
<path d="M306.774 188.039C353.396 255.876 384.16 325.128 396.223 382.241C402.254 410.798 403.605 436.295 399.943 457.052C396.281 477.807 387.618 493.782 373.653 503.38C359.688 512.978 341.668 515.341 320.98 511.321C300.289 507.301 276.97 496.902 252.471 481.037C203.475 449.307 149.849 395.768 103.226 327.93C56.6039 260.093 25.8399 190.841 13.7772 133.728C7.74557 105.171 6.395 79.6739 10.057 58.9169C13.7185 38.1623 22.3822 22.1867 36.3473 12.589C50.3123 2.99129 68.3316 0.628422 89.0198 4.64822C109.71 8.66848 133.03 19.0671 157.529 34.9326C206.524 66.6622 260.151 120.202 306.774 188.039Z" stroke="url(#paint11_linear_3_759)"/>
<path d="M307.979 189.826C353.41 258.466 382.961 328.245 394.025 385.559C399.557 414.218 400.463 439.734 396.439 460.424C392.416 481.112 383.474 496.934 369.344 506.286C355.214 515.639 337.156 517.687 316.541 513.307C295.924 508.926 272.789 498.122 248.571 481.831C200.137 449.251 147.452 394.784 102.021 326.144C56.5896 257.503 27.0389 187.725 15.9748 130.41C10.4425 101.752 9.5371 76.2351 13.5608 55.5452C17.584 34.8576 26.5252 19.0357 40.6556 9.68314C54.786 0.330608 72.8438 -1.71742 93.4587 2.66283C114.076 7.04358 137.21 17.8476 161.429 34.1382C209.863 66.7181 262.547 121.185 307.979 189.826Z" stroke="url(#paint12_linear_3_759)"/>
<path d="M309.153 191.633C353.379 261.056 381.708 331.34 391.77 388.839C396.801 417.589 397.261 443.118 392.877 463.735C388.493 484.349 379.277 500.012 364.986 509.117C350.694 518.221 332.604 519.954 312.068 515.215C291.531 510.475 268.588 499.269 244.658 482.558C196.8 449.137 145.074 393.759 100.847 324.336C56.6209 254.913 28.2926 184.63 18.2304 127.131C13.1991 98.3803 12.7391 72.8517 17.1233 52.2351C21.5069 31.6209 30.7229 15.9574 45.0144 6.85291C59.3058 -2.25159 77.3966 -3.98414 97.932 0.755214C118.47 5.49511 141.412 16.7012 165.342 33.412C213.201 66.8323 264.926 122.211 309.153 191.633Z" stroke="url(#paint13_linear_3_759)"/>
<path d="M310.295 193.461C353.303 263.646 380.4 334.413 389.458 392.079C393.986 420.913 394.001 446.445 389.257 466.982C384.515 487.517 375.027 503.017 360.578 511.871C346.13 520.724 328.012 522.141 307.563 517.044C287.111 511.946 264.367 500.342 240.732 483.216C193.465 448.965 142.713 392.693 99.7051 322.508C56.6969 252.324 29.5995 181.557 20.5423 123.891C16.0136 95.0572 15.9993 69.5244 20.7426 48.9875C25.4853 28.4529 34.9733 12.9527 49.4214 4.09901C63.8696 -4.75468 81.9879 -6.17125 102.437 -1.07422C122.889 4.02339 145.632 15.6282 169.267 32.7541C216.535 67.0045 267.287 123.277 310.295 193.461Z" stroke="url(#paint14_linear_3_759)"/>
<path d="M311.405 195.309C353.182 266.233 379.04 337.463 387.089 395.277C391.114 424.186 390.683 449.715 385.582 470.166C380.481 490.615 370.724 505.947 356.124 514.547C341.523 523.148 323.383 524.248 303.026 518.795C282.666 513.341 260.129 501.341 236.796 483.805C190.133 448.735 140.372 391.585 98.595 320.661C56.8183 249.737 30.9601 178.507 22.9107 120.693C18.8858 91.7839 19.3171 66.2547 24.4181 45.8037C29.5185 25.3551 39.2755 10.0228 53.876 1.42258C68.4765 -7.17761 86.6168 -8.27775 106.974 -2.82461C127.334 2.62916 149.871 14.6291 173.204 32.1649C219.867 67.2351 269.628 124.385 311.405 195.309Z" stroke="url(#paint15_linear_3_759)"/>
<path d="M312.483 197.175C353.015 268.818 377.626 340.488 384.666 398.434C388.185 427.409 387.309 452.927 381.851 473.285C376.395 493.642 366.372 508.802 351.623 517.146C336.875 525.49 318.718 526.273 298.459 520.466C278.198 514.657 255.873 502.266 232.85 484.325C186.807 448.446 138.05 390.437 97.5175 318.794C56.985 247.152 32.3739 175.482 25.3347 117.535C21.815 88.5609 22.6918 63.0432 28.1489 42.6843C33.6054 22.3278 43.6285 7.16808 58.3769 -1.17598C73.1253 -9.52005 91.2819 -10.3034 111.541 -4.49583C131.803 1.31243 154.127 13.7039 177.15 31.6442C223.194 67.5234 271.95 125.533 312.483 197.175Z" stroke="url(#paint16_linear_3_759)"/>
<path d="M313.527 199.061C352.803 271.4 376.16 343.488 382.187 401.549C385.2 430.58 383.878 456.079 378.067 476.339C372.256 496.598 361.97 511.58 347.078 519.665C332.186 527.751 314.019 528.217 293.864 522.057C273.707 515.896 251.602 503.117 228.896 484.777C183.485 448.1 135.748 389.248 96.4724 316.909C57.1963 244.57 33.8398 172.482 27.813 114.421C24.7995 85.3898 26.1215 59.8913 31.9331 39.6307C37.744 19.3725 48.0302 4.39011 62.9219 -3.69529C77.8137 -11.7807 95.9813 -12.2471 116.136 -6.08679C136.293 0.0742005 158.398 12.8534 181.104 31.1928C226.515 67.8701 274.251 126.722 313.527 199.061Z" stroke="url(#paint17_linear_3_759)"/>
<path d="M314.539 200.963C352.547 273.977 374.642 346.462 379.654 404.619C382.161 433.699 380.394 459.17 374.23 479.326C368.066 499.48 357.52 514.281 342.489 522.105C327.459 529.929 309.286 530.078 289.242 523.567C269.195 517.055 247.317 503.892 224.934 485.16C180.171 447.695 133.468 388.02 95.4606 315.006C57.453 241.993 35.3581 169.508 30.3456 111.351C27.8392 82.271 29.606 56.7994 35.7703 36.6434C41.9339 16.4897 52.48 1.68908 67.5106 -6.13519C82.5412 -13.9595 100.714 -14.1087 120.758 -7.59761C140.805 -1.08577 162.683 12.0772 185.066 30.8101C229.829 68.2744 276.532 127.95 314.539 200.963Z" stroke="url(#paint18_linear_3_759)"/>
<path d="M315.518 202.884C352.245 276.549 373.072 349.409 377.069 407.645C379.067 436.764 376.856 462.201 370.341 482.246C363.827 502.289 353.024 516.903 337.859 524.464C322.694 532.025 304.521 531.857 284.594 524.997C264.664 518.136 243.019 504.593 220.966 485.473C176.863 447.233 131.21 386.751 94.4822 313.086C57.7547 239.42 36.9282 166.56 32.9314 108.325C30.9329 79.2059 33.144 53.769 39.6591 33.7236C46.1735 13.6805 56.9763 -0.933782 72.1412 -8.49454C87.306 -16.0553 105.479 -15.8874 125.406 -9.02744C145.336 -2.16673 166.981 11.3761 189.034 30.4968C233.137 68.7365 278.79 129.218 315.518 202.884Z" stroke="url(#paint19_linear_3_759)"/>
<path d="M316.463 204.821C351.899 279.117 371.451 352.329 374.43 410.625C375.92 439.775 373.266 465.169 366.402 485.098C359.539 505.024 348.482 519.447 333.188 526.742C317.893 534.037 299.726 533.552 279.922 526.346C260.115 519.138 238.709 505.22 216.994 485.717C173.565 446.713 128.974 385.444 93.5372 311.149C58.1009 236.853 38.5492 163.641 35.5693 105.345C34.0794 76.1954 36.734 50.8009 43.598 30.8723C50.4612 10.946 61.5174 -3.47754 76.8119 -10.7725C92.1064 -18.0674 110.274 -17.5824 130.078 -10.3757C149.885 -3.16821 171.291 10.7503 193.006 30.2529C236.435 69.2566 281.026 130.526 316.463 204.821Z" stroke="url(#paint20_linear_3_759)"/>
<path d="M317.373 206.774C351.508 281.677 369.779 355.219 371.741 413.559C372.722 442.73 369.624 468.074 362.414 487.88C355.204 507.683 343.897 521.912 328.478 528.939C313.058 535.965 294.903 535.163 275.227 527.612C255.549 520.06 234.389 505.77 213.017 485.891C170.276 446.136 126.761 384.098 92.6265 309.195C58.4922 234.293 40.2212 160.751 38.2592 102.411C37.2782 73.24 40.3756 47.8957 47.5864 28.0899C54.7963 8.28644 66.1025 -5.94197 81.522 -12.9689C96.9415 -19.9958 115.097 -19.1937 134.773 -11.6425C154.451 -4.09046 175.611 10.1995 196.983 30.0782C239.724 69.8338 283.239 131.872 317.373 206.774Z" stroke="url(#paint21_linear_3_759)"/>
<path d="M318.25 208.743C351.072 284.23 368.057 358.08 369 416.445C369.472 445.629 365.933 470.915 358.377 490.592C350.823 510.267 339.27 524.295 323.73 531.052C308.191 537.809 290.051 536.69 270.51 528.797C250.967 520.902 230.06 506.245 209.039 485.997C166.997 445.501 124.572 382.713 91.7498 307.226C58.928 231.739 41.9432 157.89 40.9997 99.5246C40.5279 70.3409 44.0672 45.0546 51.6226 25.3777C59.177 5.70305 70.7298 -8.32588 86.2696 -15.0826C101.809 -21.8393 119.948 -20.7205 139.49 -12.8271C159.033 -4.93275 179.94 9.72434 200.961 29.9729C243.002 70.4685 285.428 133.257 318.25 208.743Z" stroke="url(#paint22_linear_3_759)"/>
<path d="M319.092 210.727C350.592 286.776 366.285 360.911 366.21 419.283C366.172 448.471 362.192 473.691 354.295 493.233C346.398 512.773 334.602 526.598 318.947 533.083C303.291 539.567 285.175 538.132 265.774 529.899C246.372 521.665 225.724 506.645 205.059 486.032C163.731 444.809 122.407 381.29 90.9079 305.242C59.4084 229.194 43.7151 155.059 43.7904 96.6866C43.828 67.4992 47.808 42.2785 55.7056 22.7364C63.6023 3.1966 75.3982 -10.6286 91.0535 -17.1131C106.709 -23.5975 124.826 -22.1624 144.226 -13.9291C163.629 -5.69484 184.276 9.32489 204.941 29.9373C246.269 71.1604 287.593 134.679 319.092 210.727Z" stroke="url(#paint23_linear_3_759)"/>
<path d="M319.9 212.726C350.067 289.312 364.464 363.71 363.37 422.072C362.823 451.255 358.403 476.402 350.166 495.803C341.93 515.202 329.894 528.82 314.128 535.03C298.362 541.24 280.273 539.489 261.019 530.918C241.763 522.347 221.381 506.969 201.079 485.999C160.476 444.061 120.268 379.83 90.1003 303.244C59.9329 226.658 45.5358 152.26 46.6298 93.8979C47.1768 64.7155 51.5964 39.5681 59.8338 20.1669C68.0703 0.767862 80.1057 -12.8493 95.8718 -19.0596C111.638 -25.2699 129.727 -23.5187 148.981 -14.9481C168.237 -6.37653 188.619 9.00127 208.921 29.9712C249.524 71.9093 289.732 136.14 319.9 212.726Z" stroke="url(#paint24_linear_3_759)"/>
<path d="M320.672 214.738C349.498 291.839 362.595 366.477 360.482 424.811C359.426 453.979 354.568 479.046 345.993 498.3C337.42 517.553 325.148 530.958 309.276 536.892C293.404 542.826 275.349 540.76 256.247 531.854C237.144 522.948 217.033 507.217 197.1 485.896C157.236 443.255 118.154 378.333 89.3279 301.232C60.5017 224.131 47.4053 149.493 49.5176 91.1587C50.5738 61.9904 55.4317 36.924 64.0064 17.6694C72.5802 -1.5829 84.8514 -14.988 100.724 -20.9222C116.596 -26.8563 134.651 -24.7897 153.753 -15.8844C172.856 -6.97806 192.967 8.75311 212.9 30.0741C252.764 72.7145 291.846 137.637 320.672 214.738Z" stroke="url(#paint25_linear_3_759)"/>
<path d="M321.409 216.763C348.885 294.356 360.677 369.211 357.547 427.499C355.982 456.645 350.687 481.622 341.778 500.724C332.869 519.824 320.366 533.013 304.393 538.669C288.419 544.326 270.403 541.944 251.46 532.707C232.515 523.468 212.681 507.389 193.123 485.723C154.009 442.394 116.067 376.799 88.5906 299.206C61.1144 221.614 49.3225 146.759 52.4526 88.4706C54.0177 59.3251 59.3123 34.3473 68.2218 15.2453C77.1303 -3.85446 89.6336 -17.0433 105.607 -22.6996C121.58 -28.3559 139.597 -25.9745 158.54 -16.7371C177.485 -7.49874 197.318 8.58103 216.876 30.2467C255.99 73.5762 293.933 139.171 321.409 216.763Z" stroke="url(#paint26_linear_3_759)"/>
<path d="M322.111 218.801C348.229 296.861 358.712 371.911 354.566 430.136C352.492 459.249 346.762 484.131 337.521 503.075C328.28 522.016 315.549 534.985 299.479 540.361C283.41 545.738 265.437 543.042 246.658 533.476C227.877 523.908 208.328 507.485 189.151 485.481C150.799 441.475 114.007 375.229 87.8892 297.168C61.7714 219.108 51.2877 144.059 55.4346 85.834C57.5081 56.7203 63.2378 31.8386 72.4793 12.8951C81.7198 -6.04629 94.4514 -19.0149 110.521 -24.3916C126.59 -29.7682 144.563 -27.0727 163.342 -17.5062C182.123 -7.93859 201.673 8.48487 220.849 30.4886C259.201 74.4942 295.993 140.741 322.111 218.801Z" stroke="url(#paint27_linear_3_759)"/>
<path d="M322.777 220.851C347.529 299.355 356.701 374.576 351.538 432.72C348.957 461.793 342.794 486.571 333.223 505.35C323.654 524.127 310.698 536.872 294.537 541.967C278.376 547.063 260.453 544.054 241.844 534.161C223.233 524.267 203.973 507.505 185.183 485.17C147.605 440.502 111.975 373.623 87.2233 295.119C62.4718 216.615 53.2995 141.394 58.4619 83.2501C61.0432 54.177 67.2063 29.3992 76.777 10.6198C86.3466 -8.1574 99.3026 -20.9019 115.464 -25.9972C131.624 -31.0926 149.547 -28.0839 168.156 -18.1911C186.767 -8.29714 206.027 8.46501 224.817 30.8C262.395 75.4682 298.025 142.347 322.777 220.851Z" stroke="url(#paint28_linear_3_759)"/>
<path d="M323.407 222.912C346.784 301.836 354.643 377.206 348.466 435.251C345.378 464.274 338.783 488.941 328.886 507.55C318.99 526.158 305.814 538.674 289.567 543.486C273.319 548.299 255.452 544.978 237.018 534.762C218.583 524.545 199.618 507.449 181.221 484.789C144.428 439.472 109.97 371.982 86.5928 293.058C63.2151 214.133 55.357 138.764 61.5334 80.7192C64.6217 51.6955 71.2163 27.029 81.1133 8.41955C91.0092 -10.1878 104.186 -22.7042 120.433 -27.5168C136.68 -32.3293 154.548 -29.0082 172.981 -18.7922C191.417 -8.57493 210.382 8.52081 228.779 31.1804C265.572 76.4976 300.029 143.988 323.407 222.912Z" stroke="url(#paint29_linear_3_759)"/>
<path d="M324.001 224.984C345.998 304.304 352.539 379.799 345.351 437.727C341.756 466.693 334.732 491.24 324.512 509.674C314.293 528.106 300.9 540.391 284.571 544.919C268.242 549.447 250.435 545.815 232.183 535.278C213.928 524.741 195.265 507.317 177.266 484.34C141.27 438.387 107.995 370.306 85.9987 290.986C64.002 211.665 57.4605 136.17 64.6489 78.2422C68.2433 49.2769 75.2674 24.7293 85.4877 6.29534C95.7068 -12.1365 109.1 -24.421 125.429 -28.9493C141.757 -33.4775 159.564 -29.8451 177.817 -19.3089C196.071 -8.77148 214.735 8.65263 232.733 31.6298C268.73 77.5823 302.004 145.664 324.001 224.984Z" stroke="url(#paint30_linear_3_759)"/>
<path d="M324.559 227.066C345.168 306.758 350.391 382.355 342.192 440.149C338.093 469.048 330.641 493.469 320.101 511.722C309.562 529.972 295.957 542.021 279.551 546.264C263.146 550.506 245.405 546.564 227.339 535.711C209.271 524.856 190.915 507.109 173.32 483.821C138.131 437.248 106.05 368.596 85.4409 288.904C64.8318 209.212 59.6089 133.614 67.8072 75.8202C71.9066 46.9221 79.358 22.5007 89.8984 4.24798C100.438 -14.0027 114.043 -26.0516 130.448 -30.2942C146.854 -34.5368 164.594 -30.5942 182.66 -19.741C200.728 -8.88661 219.085 8.86057 236.68 32.1484C271.868 78.722 303.95 147.374 324.559 227.066Z" stroke="url(#paint31_linear_3_759)"/>
<path d="M325.08 229.157C344.295 309.197 348.198 384.874 338.992 442.516C334.389 471.338 326.513 495.626 315.655 513.692C304.799 531.756 290.986 543.566 274.509 547.521C258.032 551.477 240.363 547.225 222.489 536.058C204.613 524.89 186.569 506.825 169.383 483.234C135.013 436.053 104.135 366.852 84.9196 286.813C65.7045 206.773 61.8017 131.096 71.0075 73.4538C75.6105 44.6316 83.487 20.344 94.3444 2.27802C105.201 -15.7859 119.014 -27.5956 135.491 -31.5512C151.968 -35.5068 169.637 -31.2552 187.511 -20.0884C205.386 -8.92033 223.43 9.14451 240.616 32.7358C274.987 79.9165 305.865 149.118 325.08 229.157Z" stroke="url(#paint32_linear_3_759)"/>
<path d="M325.565 231.257C343.38 311.62 345.962 387.353 335.751 444.826C330.646 473.564 322.347 497.71 311.176 515.584C300.006 533.456 285.989 545.022 269.445 548.69C252.902 552.357 235.309 547.798 217.633 536.321C199.955 524.842 182.229 506.465 165.458 482.578C131.916 434.804 102.25 365.075 84.4348 284.712C66.6195 204.349 64.0381 128.616 74.2484 71.1429C79.3538 42.4055 87.653 18.2591 98.824 0.385276C109.994 -17.4864 124.011 -29.0532 140.555 -32.7207C157.098 -36.3882 174.691 -31.8288 192.366 -20.3518C210.044 -8.87341 227.77 9.50359 244.542 33.3913C278.084 81.1646 307.75 150.894 325.565 231.257Z" stroke="url(#paint33_linear_3_759)"/>
<path d="M326.014 233.365C342.424 314.027 343.683 389.794 332.471 447.08C326.865 475.724 318.146 499.722 306.664 517.398C295.184 535.072 280.967 546.392 264.362 549.77C247.757 553.148 230.247 548.283 212.774 536.499C195.299 524.714 177.897 506.03 161.544 481.854C128.841 433.502 100.397 363.265 83.9871 282.604C67.5771 201.943 66.3177 126.175 77.5296 68.8895C83.1357 40.2455 91.855 16.2476 103.336 -1.42847C114.816 -19.1025 129.033 -30.4229 145.638 -33.8011C162.243 -37.1793 179.753 -32.3136 197.226 -20.5298C214.701 -8.74468 232.104 9.93888 248.456 34.1156C281.159 82.4671 309.603 152.704 326.014 233.365Z" stroke="url(#paint34_linear_3_759)"/>
<path d="M326.424 235.481C341.424 316.417 341.361 392.195 329.151 449.276C323.046 477.818 313.909 501.66 302.121 519.133C290.334 536.604 275.922 547.674 259.26 550.762C242.599 553.85 225.176 548.68 207.912 536.593C190.645 524.504 173.571 505.52 157.644 481.061C125.789 432.147 98.5752 361.424 83.5754 280.489C68.5756 199.553 68.6388 123.775 80.8487 66.694C86.9539 38.1522 96.0907 14.3101 107.879 -3.16291C119.665 -20.6339 134.078 -31.7045 150.739 -34.7923C167.401 -37.8802 184.823 -32.7097 202.088 -20.6227C219.355 -8.53442 236.428 10.45 252.356 34.9085C284.21 83.8233 311.425 154.546 326.424 235.481Z" stroke="url(#paint35_linear_3_759)"/>
<path d="M326.798 237.604C340.383 318.789 338.998 394.554 325.793 451.414C319.191 479.844 309.64 503.523 297.548 520.788C285.459 538.051 270.855 548.868 254.142 551.665C237.43 554.461 220.1 548.988 203.049 536.601C185.996 524.213 169.256 504.934 153.757 480.201C122.762 430.738 96.786 359.551 83.201 278.366C69.616 197.181 71.0017 121.416 84.206 64.5565C90.8084 36.1256 100.36 12.4467 112.451 -4.81797C124.541 -22.0806 139.144 -32.8979 155.857 -35.6946C172.57 -38.4912 189.9 -33.0174 206.951 -20.631C224.004 -8.24315 240.744 11.0364 256.242 35.7691C287.238 85.2324 313.213 156.419 326.798 237.604Z" stroke="url(#paint36_linear_3_759)"/>
<path d="M327.136 239.733C339.302 321.142 336.594 396.872 322.4 453.492C315.302 481.803 305.339 505.312 292.948 522.363C280.559 539.412 265.769 549.973 249.01 552.477C232.251 554.982 215.019 549.207 198.187 536.524C181.353 523.841 164.952 504.272 149.887 479.273C119.76 429.276 95.0303 357.647 82.8642 276.237C70.6982 194.828 73.4059 119.098 87.6005 62.4777C94.6981 34.1663 104.661 10.6576 117.052 -6.39335C129.441 -23.4424 144.231 -34.0032 160.99 -36.5077C177.749 -39.0122 194.981 -33.2368 211.813 -20.5547C228.647 -7.87114 245.048 11.6976 260.113 36.697C290.24 86.6938 314.97 158.323 327.136 239.733Z" stroke="url(#paint37_linear_3_759)"/>
<path d="M327.436 241.867C338.179 323.476 334.15 399.147 318.97 455.511C311.379 483.694 301.007 507.026 288.321 523.858C275.636 540.688 260.664 550.989 243.864 553.201C227.063 555.412 209.935 549.337 193.327 536.363C176.717 523.388 160.66 503.536 146.034 478.277C116.783 427.762 93.3078 355.712 82.5644 274.103C71.821 192.493 75.85 116.823 91.0305 60.4585C98.6211 32.2753 108.993 8.94414 121.68 -7.888C134.364 -24.7182 149.337 -35.0193 166.137 -37.2309C182.937 -39.4426 200.065 -33.3673 216.673 -20.3934C233.284 -7.41796 249.341 12.434 263.966 37.6925C293.217 88.2075 316.693 160.257 327.436 241.867Z" stroke="url(#paint38_linear_3_759)"/>
<path d="M327.698 244.006C337.016 325.791 331.667 401.38 315.505 457.47C307.424 485.517 296.646 508.663 283.668 525.271C270.691 541.878 255.541 551.916 238.705 553.834C221.869 555.752 204.849 549.379 188.47 536.117C172.089 522.854 156.381 502.724 142.198 477.215C113.833 426.197 91.6189 353.748 82.3015 271.964C72.984 190.179 78.333 114.59 94.495 58.4996C102.576 30.4532 113.354 7.30657 126.332 -9.3016C139.309 -25.9079 154.458 -35.9461 171.295 -37.8642C188.131 -39.7823 205.15 -33.409 221.53 -20.1472C237.911 -6.88387 253.619 13.2453 267.802 38.7553C296.166 89.773 318.381 162.222 327.698 244.006Z" stroke="url(#paint39_linear_3_759)"/>
<path d="M327.924 246.15C335.813 328.084 329.145 403.568 312.007 459.368C303.437 487.269 292.257 510.224 278.991 526.604C265.727 542.981 250.404 552.753 233.537 554.377C216.67 556.001 199.764 549.332 183.619 535.786C167.471 522.239 152.117 501.839 138.382 476.085C110.912 424.58 89.9652 351.755 82.0765 269.82C74.1877 187.885 80.8551 112.401 97.9935 56.6014C106.563 28.7003 117.743 5.74529 131.009 -10.6338C144.274 -27.0111 159.596 -36.7834 176.463 -38.4074C193.33 -40.0313 210.236 -33.362 226.382 -19.8164C242.529 -6.26916 257.883 14.1311 271.619 39.8847C299.088 91.3897 320.035 164.215 327.924 246.15Z" stroke="url(#paint40_linear_3_759)"/>
<path d="M328.112 248.296C334.569 330.356 326.585 405.713 308.476 461.205C299.421 488.952 287.842 511.708 274.292 527.854C260.744 543.997 245.253 553.5 228.36 554.83C211.467 556.159 194.68 549.196 178.774 535.37C162.865 521.543 147.869 500.878 134.585 474.889C108.019 422.912 88.3462 349.732 81.8886 267.673C75.431 185.613 83.4148 110.256 101.524 54.7642C110.58 27.0169 122.159 4.26047 135.708 -11.8847C149.257 -28.0279 164.748 -37.5313 181.64 -38.8606C198.533 -40.19 215.32 -33.2267 231.227 -19.4013C247.135 -5.57434 262.131 15.0908 275.415 41.0802C301.982 93.0567 321.654 166.237 328.112 248.296Z" stroke="url(#paint41_linear_3_759)"/>
<path d="M328.262 250.447C333.286 332.607 323.989 407.812 304.913 462.98C295.375 490.565 283.401 513.116 269.571 529.022C255.743 544.926 240.089 554.158 223.176 555.192C206.262 556.227 189.599 548.971 173.937 534.87C158.272 520.768 143.639 499.844 130.811 473.627C105.155 421.195 86.7626 347.683 81.7382 265.523C76.7137 183.362 86.0114 108.157 105.087 52.9893C114.625 25.4043 126.599 2.85346 140.429 -13.0527C154.257 -28.9571 169.911 -38.1887 186.825 -39.223C203.738 -40.2573 220.401 -33.0021 236.064 -18.9012C251.728 -4.79871 266.361 16.125 279.19 42.3422C304.845 94.7745 323.237 168.287 328.262 250.447Z" stroke="url(#paint42_linear_3_759)"/>
<path d="M328.375 252.599C331.965 334.834 321.356 409.866 301.321 464.692C291.303 492.107 278.937 514.445 264.831 530.108C250.728 545.768 234.915 554.725 217.986 555.464C201.057 556.203 184.524 548.658 169.109 534.286C153.693 519.912 139.427 498.736 127.059 472.299C102.322 419.427 85.2154 345.605 81.6256 263.37C78.0358 181.135 88.6446 106.103 108.68 51.2767C118.698 23.8623 131.064 1.52391 145.169 -14.1385C159.272 -29.7991 175.085 -38.7561 192.015 -39.4951C208.944 -40.234 225.477 -32.6891 240.891 -18.317C256.308 -3.94328 270.573 17.2326 282.942 43.6697C307.678 96.5418 324.785 170.364 328.375 252.599Z" stroke="url(#paint43_linear_3_759)"/>
<path d="M328.45 254.753C330.604 337.039 318.688 411.874 297.699 466.342C287.204 493.578 274.45 515.697 260.073 531.111C245.699 546.523 229.732 555.202 212.792 555.646C195.853 556.089 179.454 548.257 164.293 533.618C149.13 518.977 135.236 497.556 123.33 470.907C99.5202 417.611 83.7046 343.502 81.5505 261.216C79.3965 178.931 91.3132 104.096 112.302 49.6275C122.797 22.3922 135.551 0.272965 149.927 -15.1409C164.302 -30.553 180.269 -39.2326 197.208 -39.676C214.148 -40.1194 230.547 -32.2871 245.708 -17.6482C260.871 -3.0076 274.765 18.414 286.67 45.063C310.481 98.3587 326.296 172.468 328.45 254.753Z" stroke="url(#paint44_linear_3_759)"/>
<path d="M328.487 256.908C329.205 339.219 315.984 413.835 294.048 467.928C283.079 494.976 269.941 516.87 255.298 532.03C240.656 547.189 224.54 555.589 207.596 555.737C190.651 555.884 174.391 547.767 159.488 532.866C144.583 517.963 131.065 496.302 119.626 469.449C96.7499 415.746 82.23 341.372 81.5124 259.062C80.7948 176.751 94.0157 102.135 115.952 48.0416C126.921 20.9935 140.059 -0.899716 154.702 -16.0603C169.343 -31.2192 185.459 -39.6188 202.404 -39.7665C219.348 -39.9143 235.608 -31.7969 250.512 -16.8956C265.417 -1.99265 278.935 19.6682 290.373 46.5209C313.25 100.224 327.77 174.598 328.487 256.908Z" stroke="url(#paint45_linear_3_759)"/>
<path d="M328.487 259.064C327.768 341.374 313.247 415.748 290.37 469.45C278.931 496.303 265.413 517.964 250.507 532.866C235.604 547.767 219.343 555.884 202.399 555.736C185.454 555.588 169.339 547.189 154.697 532.029C140.055 516.869 126.917 494.975 115.949 467.927C94.0131 413.833 80.7935 339.217 81.5125 256.906C82.2315 174.596 96.7526 100.222 119.63 46.5194C131.069 19.6669 144.587 -1.99372 159.492 -16.8965C174.396 -31.7975 190.656 -39.9146 207.601 -39.7666C224.545 -39.6185 240.661 -31.2186 255.302 -16.0595C269.945 -0.898679 283.083 20.9948 294.051 48.043C315.987 102.137 329.206 176.753 328.487 259.064Z" stroke="url(#paint46_linear_3_759)"/>
<path d="M328.45 261.218C326.294 343.504 310.477 417.613 286.666 470.908C274.76 497.557 260.866 518.978 245.703 533.619C230.541 548.257 214.142 556.089 197.203 555.646C180.264 555.202 164.297 546.522 149.922 531.11C135.546 515.695 122.793 493.576 112.298 466.341C91.3101 411.872 79.3946 337.036 81.5501 254.751C83.7055 172.466 99.5224 98.3569 123.333 45.0615C135.239 18.4128 149.133 -3.00865 164.297 -17.649C179.458 -32.2876 195.858 -40.1197 212.797 -39.676C229.736 -39.2323 245.703 -30.5524 260.077 -15.1401C274.453 0.27402 287.207 22.3935 297.702 49.629C318.69 104.098 330.605 178.933 328.45 261.218Z" stroke="url(#paint47_linear_3_759)"/>
<path d="M328.375 263.372C324.783 345.608 307.676 419.429 282.938 472.301C270.569 498.738 256.303 519.913 240.886 534.287C225.472 548.659 208.938 556.203 192.009 555.464C175.08 554.725 159.267 545.768 145.164 530.107C131.059 514.444 118.694 492.105 108.676 464.691C88.6418 409.864 78.0343 334.832 81.6254 252.597C85.2166 170.362 102.324 96.5404 127.062 43.6687C139.431 17.2318 153.697 -3.94386 169.114 -18.3173C184.528 -32.6891 201.062 -40.2338 217.991 -39.4945C234.92 -38.7553 250.733 -29.798 264.836 -14.1372C278.941 1.52545 291.306 23.8641 301.324 51.2786C321.358 106.105 331.966 181.137 328.375 263.372Z" stroke="url(#paint48_linear_3_759)"/>
<path d="M328.261 265.525C323.236 347.685 304.842 421.197 279.186 473.629C266.357 499.846 251.724 520.769 236.059 534.871C220.395 548.972 203.733 556.227 186.819 555.192C169.906 554.158 154.252 544.926 140.424 529.021C126.595 513.115 114.621 490.564 105.083 462.979C86.0086 407.81 76.7122 332.605 81.738 250.445C86.7638 168.285 105.157 94.7732 130.814 42.3413C143.643 16.1243 158.276 -4.79915 173.941 -18.9014C189.604 -33.002 206.267 -40.257 223.18 -39.2223C240.094 -38.1877 255.748 -28.9559 269.576 -13.0513C283.405 2.85512 295.379 25.4062 304.916 52.9914C323.991 108.159 333.287 183.365 328.261 265.525Z" stroke="url(#paint49_linear_3_759)"/>
<path d="M328.111 267.675C321.652 349.735 301.979 422.914 275.411 474.89C262.127 500.879 247.13 521.544 231.222 535.371C215.315 549.196 198.528 556.159 181.635 554.829C164.742 553.5 149.252 543.996 135.704 527.853C122.154 511.707 110.575 488.951 101.521 461.203C83.412 405.711 75.4295 330.354 81.8885 248.295C88.3474 166.235 108.021 93.0553 134.589 41.0791C147.873 15.09 162.869 -5.57487 178.778 -19.4016C194.685 -33.2267 211.472 -40.1897 228.365 -38.8601C245.257 -37.5304 260.748 -28.0268 274.296 -11.8833C287.846 4.26204 299.424 27.0186 308.479 54.7661C326.588 110.259 334.57 185.615 328.111 267.675Z" stroke="url(#paint50_linear_3_759)"/>
<path d="M327.923 269.822C320.033 351.757 299.085 424.582 271.615 476.086C257.879 501.839 242.524 522.239 226.377 535.786C210.231 549.332 193.325 556.001 176.458 554.377C159.591 552.752 144.269 542.98 131.004 526.602C117.739 510.223 106.559 487.268 97.9899 459.366C80.8525 403.566 74.1863 328.082 82.0764 246.148C89.9665 164.213 110.914 91.388 138.385 39.8835C152.121 14.1302 167.476 -6.26985 183.623 -19.8168C199.769 -33.3622 216.675 -40.0312 233.542 -38.4069C250.409 -36.7827 265.731 -27.0101 278.995 -10.6327C292.261 5.7467 303.441 28.7019 312.01 56.6031C329.147 112.403 335.814 187.887 327.923 269.822Z" stroke="url(#paint51_linear_3_759)"/>
<path d="M327.698 271.966C318.379 353.75 296.163 426.198 267.798 477.216C253.615 502.725 237.906 522.854 221.525 536.117C205.145 549.379 188.126 555.752 171.29 553.833C154.453 551.915 139.304 541.877 126.327 525.27C113.35 508.662 102.572 485.515 94.4914 457.468C78.3304 401.378 72.9827 325.789 82.3015 244.004C91.6204 162.22 113.836 89.7715 142.201 38.7542C156.385 13.2445 172.093 -6.88439 188.475 -20.1474C204.854 -33.409 221.874 -39.782 238.71 -37.8636C255.546 -35.9452 270.696 -25.9067 283.672 -9.30025C296.65 7.30814 307.427 30.455 315.508 58.5015C331.669 114.592 337.017 190.181 327.698 271.966Z" stroke="url(#paint52_linear_3_759)"/>
<path d="M327.436 274.105C316.691 355.714 293.214 427.764 263.963 478.278C249.336 503.536 233.279 523.388 216.669 536.363C200.06 549.337 182.932 555.412 166.132 553.2C149.332 550.988 134.36 540.687 121.675 523.856C108.989 507.024 98.6173 483.692 91.0271 455.509C75.8475 399.145 71.8198 323.474 82.5646 241.865C93.3093 160.255 116.786 88.2059 146.037 37.6914C160.664 12.4332 176.721 -7.41856 193.331 -20.3937C209.94 -33.3673 227.068 -39.4423 243.868 -37.2304C260.669 -35.0185 275.641 -24.7171 288.325 -7.88673C301.011 8.94563 311.383 32.277 318.973 60.4603C334.153 116.825 338.18 192.495 327.436 274.105Z" stroke="url(#paint53_linear_3_759)"/>
<path d="M327.136 276.239C314.968 357.649 290.238 429.278 260.109 479.274C245.044 504.273 228.643 523.841 211.808 536.525C194.976 549.207 177.744 554.982 160.985 552.477C144.226 549.972 129.436 539.411 117.048 522.362C104.657 505.311 94.6943 481.802 87.5972 453.49C73.4035 396.87 70.6971 321.14 82.8645 239.731C95.0319 158.321 119.762 86.6925 149.891 36.6962C164.956 11.697 181.357 -7.87143 198.192 -20.5547C215.024 -33.2365 232.256 -39.0116 249.015 -36.5068C265.774 -34.0021 280.564 -23.441 292.953 -6.39177C305.343 10.6594 315.306 34.1683 322.403 62.4797C336.596 119.1 339.303 194.83 327.136 276.239Z" stroke="url(#paint54_linear_3_759)"/>
<path d="M326.798 278.368C313.212 359.553 287.235 430.739 256.238 480.202C240.739 504.934 223.999 524.213 206.946 536.601C189.895 548.987 172.565 554.461 155.852 551.664C139.139 548.867 124.536 538.049 112.447 520.786C100.356 503.521 90.8046 479.842 84.2027 451.411C70.9994 394.552 69.615 318.786 83.2013 237.602C96.7877 156.417 122.765 85.2308 153.761 35.768C169.26 11.0356 186 -8.24367 203.053 -20.6312C220.105 -33.0173 237.434 -38.4908 254.147 -35.6939C270.86 -32.897 285.463 -22.0795 297.553 -4.81663C309.644 12.4482 319.195 36.1273 325.797 64.5584C339 121.418 340.384 197.183 326.798 278.368Z" stroke="url(#paint55_linear_3_759)"/>
<path d="M326.424 280.491C311.423 361.426 284.207 432.148 252.352 481.062C236.424 505.52 219.35 524.505 202.083 536.593C184.818 548.679 167.396 553.849 150.734 550.761C134.073 547.673 119.661 536.602 107.874 519.131C96.0866 501.658 86.9502 477.816 80.8455 449.274C68.6365 392.192 68.5746 316.414 83.5758 235.479C98.5769 154.544 125.792 83.8221 157.647 34.9077C173.575 10.4496 190.65 -8.53458 207.916 -20.6226C225.181 -32.7092 242.604 -37.8795 259.265 -34.7913C275.927 -31.7032 290.339 -20.6324 302.125 -3.1612C313.913 14.312 323.049 38.1542 329.154 66.6962C341.363 123.778 341.425 199.556 326.424 280.491Z" stroke="url(#paint56_linear_3_759)"/>
<path d="M326.013 282.606C309.601 363.267 281.156 433.503 248.452 481.854C232.099 506.031 214.697 524.714 197.221 536.499C179.748 548.282 162.238 553.148 145.633 549.769C129.028 546.391 114.811 535.07 103.332 517.396C91.8505 499.72 83.1317 475.722 77.526 447.078C66.3151 389.792 67.5757 314.024 83.9871 233.363C100.398 152.702 128.844 82.466 161.548 34.115C177.9 9.93858 195.303 -8.7447 212.778 -20.5295C230.252 -32.313 247.762 -37.1784 264.367 -33.7999C280.972 -30.4215 295.189 -19.1009 306.668 -1.42661C318.149 16.2497 326.868 40.2477 332.474 68.8918C343.685 126.178 342.424 201.945 326.013 282.606Z" stroke="url(#paint57_linear_3_759)"/>
<path d="M325.565 284.715C307.748 365.077 278.081 434.806 244.538 482.579C227.766 506.466 210.04 524.843 192.362 536.321C174.686 547.798 157.093 552.357 140.55 548.689C124.006 545.021 109.989 533.454 98.8196 515.583C87.6489 497.709 79.3501 473.562 74.2452 444.824C64.0358 387.352 66.6186 311.618 84.4352 231.255C102.252 150.893 131.919 81.1639 165.461 33.3911C182.233 9.50375 199.96 -8.87295 217.638 -20.351C235.314 -31.8278 252.907 -36.3868 269.45 -32.7191C285.993 -29.0513 300.011 -17.4843 311.18 0.387603C322.351 18.2616 330.65 42.4081 335.754 71.1457C345.964 128.619 343.381 204.352 325.565 284.715Z" stroke="url(#paint58_linear_3_759)"/>
<path d="M325.08 286.815C305.863 366.854 274.984 436.055 240.613 483.235C223.426 506.826 205.382 524.89 187.506 536.058C169.632 547.225 151.963 551.476 135.486 547.52C119.009 543.564 105.196 531.754 94.3402 513.69C83.4831 495.624 75.607 471.336 71.0044 442.514C61.7996 384.872 65.7037 309.194 84.9201 229.155C104.137 149.116 135.016 79.9152 169.387 32.7351C186.574 9.14405 204.618 -8.92049 222.494 -20.0883C240.367 -31.2548 258.037 -35.5061 274.514 -31.5502C290.991 -27.5943 304.804 -15.7844 315.66 2.27971C326.517 20.3459 334.393 44.6336 338.995 73.4559C348.2 131.098 344.296 206.775 325.08 286.815Z" stroke="url(#paint59_linear_3_759)"/>
<path d="M324.558 288.906C303.948 368.598 271.865 437.249 236.676 483.822C219.08 507.109 200.723 524.856 182.655 535.711C164.59 546.563 146.849 550.506 130.443 546.263C114.038 542.02 100.433 529.971 89.894 511.72C79.3539 493.467 71.9029 469.046 67.8041 440.147C59.6067 382.353 64.8309 306.756 85.4413 227.064C106.052 147.372 138.134 78.7211 173.324 32.148C190.919 8.86052 209.276 -8.88635 227.344 -19.7405C245.41 -30.5933 263.151 -34.5356 279.556 -30.2928C295.961 -26.0499 309.566 -14.0007 320.105 4.25011C330.645 22.503 338.096 46.9245 342.195 75.8227C350.393 133.617 345.168 209.214 324.558 288.906Z" stroke="url(#paint60_linear_3_759)"/>
<path d="M324 290.988C302.002 370.308 268.727 438.389 232.73 484.341C214.73 507.317 196.067 524.741 177.812 535.278C159.559 545.814 141.752 549.446 125.424 544.918C109.095 540.389 95.7021 528.105 85.4833 509.673C75.2634 491.238 68.2398 466.691 64.6458 437.725C57.4583 379.797 64.0011 304.302 85.9992 224.982C107.997 145.663 141.273 77.5816 177.27 31.6297C195.269 8.65288 213.933 -8.77092 232.187 -19.308C250.44 -29.844 268.247 -33.476 284.576 -28.9475C300.905 -24.419 314.297 -12.1342 324.516 6.29777C334.736 24.7319 341.76 49.2796 345.354 78.245C352.541 136.173 345.998 211.668 324 290.988Z" stroke="url(#paint61_linear_3_759)"/>
<path d="M323.406 293.06C300.027 371.983 265.569 439.473 228.775 484.79C210.378 507.449 191.413 524.544 172.977 534.761C154.543 544.977 136.676 548.298 120.428 543.485C104.181 538.672 91.005 526.156 81.1094 507.548C71.2127 488.939 64.6186 464.272 61.5307 435.248C55.3553 377.203 63.2147 301.834 86.5937 222.91C109.973 143.987 144.431 76.4967 181.225 31.1801C199.622 8.52082 218.587 -8.57459 237.023 -18.7915C255.457 -29.0073 273.324 -32.328 289.572 -27.5152C305.819 -22.7024 318.995 -10.1858 328.891 8.42174C338.787 27.0314 345.382 51.698 348.469 80.7217C354.645 138.767 346.785 214.136 323.406 293.06Z" stroke="url(#paint62_linear_3_759)"/>
<path d="M322.776 295.121C298.023 373.625 262.392 440.503 224.813 485.17C206.023 507.505 186.763 524.267 168.151 534.161C149.542 544.053 131.619 547.061 115.458 541.966C99.2976 536.87 86.3418 524.125 76.7725 505.348C67.2021 486.569 61.0395 461.791 58.4586 432.717C53.2972 374.574 62.4707 299.353 87.2236 220.849C111.976 142.346 147.608 75.4674 185.187 30.7998C203.977 8.46507 223.237 -8.29676 241.848 -18.1904C260.458 -28.0829 278.38 -31.0913 294.541 -25.9957C310.702 -20.9 323.658 -8.15533 333.227 10.6221C342.798 29.4016 348.96 54.1795 351.541 83.2527C356.702 141.397 347.529 216.617 322.776 295.121Z" stroke="url(#paint63_linear_3_759)"/>
<path d="M322.11 297.171C295.991 375.23 259.198 441.477 220.845 485.482C201.668 507.485 182.118 523.908 163.337 533.475C144.558 543.042 126.585 545.737 110.516 540.36C94.4465 534.983 81.7152 522.014 72.475 503.073C63.2339 484.129 57.5046 459.247 55.4315 430.133C51.2856 371.908 61.7705 296.859 87.8897 218.799C114.009 140.74 150.802 74.4935 189.155 30.4886C208.332 8.48521 227.882 -7.93792 246.663 -17.5052C265.442 -27.0714 283.414 -29.7666 299.484 -24.3897C315.553 -19.0128 328.285 -6.04393 337.525 12.8976C346.766 31.8413 352.495 56.723 354.568 85.8368C358.714 144.062 348.229 219.111 322.11 297.171Z" stroke="url(#paint64_linear_3_759)"/>
<path d="M321.408 299.208C293.931 376.8 255.987 442.394 216.872 485.723C197.314 507.389 177.481 523.468 158.535 532.706C139.592 541.943 121.575 544.324 105.602 538.668C89.629 533.011 77.1259 519.822 68.2178 500.722C59.3086 481.62 54.0145 456.642 52.4499 427.497C49.3207 369.208 61.1138 294.353 88.5913 216.761C116.069 139.169 154.012 73.5755 193.127 30.2466C212.685 8.58124 232.519 -7.4982 251.464 -16.7363C270.407 -25.9733 288.424 -28.3544 304.397 -22.6978C320.371 -17.0413 332.874 -3.85223 341.782 15.2477C350.691 34.3498 355.985 59.3277 357.55 88.4732C360.679 146.762 348.886 221.616 321.408 299.208Z" stroke="url(#paint65_linear_3_759)"/>
<path d="M320.671 301.234C291.844 378.334 252.761 443.256 212.896 485.896C192.963 507.216 172.851 522.947 153.748 531.853C134.646 540.758 116.591 542.824 100.719 536.89C84.8468 530.956 72.5758 517.55 64.0023 498.298C55.4279 479.043 50.5705 453.977 49.5147 424.808C47.4033 366.474 60.5011 291.837 89.3286 214.736C118.156 137.635 157.239 72.7135 197.104 30.0738C217.037 8.75312 237.148 -6.97772 256.252 -15.8837C275.353 -24.7888 293.409 -26.855 309.281 -20.9206C325.153 -14.9861 337.424 -1.58087 345.997 17.6716C354.572 36.9263 359.429 61.9928 360.485 91.1612C362.596 149.496 349.499 224.133 320.671 301.234Z" stroke="url(#paint66_linear_3_759)"/>
<path d="M319.899 303.246C289.73 379.832 249.52 444.061 208.917 485.999C188.615 506.968 168.232 522.346 148.976 530.917C129.722 539.487 111.633 541.238 95.8672 535.028C80.1012 528.817 68.066 515.2 59.8298 495.801C51.5928 476.399 47.1736 451.252 46.627 422.069C45.5341 363.707 59.9324 289.31 90.1011 212.724C120.27 136.138 160.479 71.9082 201.083 29.9708C221.385 9.00124 241.768 -6.37621 261.024 -14.9475C280.278 -23.5178 298.367 -25.2686 314.133 -19.0581C329.899 -12.8475 341.934 0.769861 350.17 20.169C358.407 39.5704 362.826 64.7179 363.373 93.9002C364.466 152.263 350.068 226.66 319.899 303.246Z" stroke="url(#paint67_linear_3_759)"/>
<path d="M319.091 305.244C287.59 381.292 246.266 444.81 204.937 486.032C184.272 506.644 163.624 521.664 144.221 529.898C124.821 538.131 106.704 539.566 91.0485 533.081C75.3933 526.596 63.5976 512.771 55.7012 493.231C47.804 473.689 43.8244 448.468 43.7872 419.28C43.713 360.908 59.4075 286.773 90.9082 210.725C122.409 134.678 163.734 71.1595 205.062 29.9371C225.728 9.32509 246.376 -5.6943 265.778 -13.9282C285.179 -22.1612 303.296 -23.596 318.951 -17.1113C334.606 -10.6265 346.402 3.19883 354.298 22.7388C362.195 42.281 366.175 67.5017 366.212 96.6892C366.286 155.062 350.592 229.196 319.091 305.244Z" stroke="url(#paint68_linear_3_759)"/>
<path d="M318.249 307.228C285.426 382.715 242.999 445.502 200.957 485.997C179.935 506.245 159.028 520.902 139.485 528.796C119.943 536.689 101.804 537.807 86.2646 531.05C70.725 524.293 59.1723 510.264 51.6182 490.59C44.0633 470.912 40.5244 445.626 40.9967 416.442C41.9412 358.078 58.9272 284.228 91.7503 208.742C124.573 133.255 167 70.468 209.042 29.9732C230.064 9.72492 250.971 -4.93182 270.514 -12.8258C290.056 -20.719 308.195 -21.8374 323.735 -15.0805C339.274 -8.32346 350.827 5.70565 358.381 25.3804C365.936 45.0575 369.475 70.3439 369.002 99.5275C368.058 157.892 351.072 231.742 318.249 307.228Z" stroke="url(#paint69_linear_3_759)"/>
<path d="M317.373 309.197C283.237 384.099 239.721 446.136 196.979 485.891C175.607 505.769 154.447 520.059 134.769 527.611C115.093 535.162 96.9369 535.963 81.5175 528.936C66.0982 521.909 54.7921 507.681 47.5826 487.877C40.3722 468.071 37.2751 442.727 38.2567 413.556C40.2196 355.216 58.4919 281.674 92.6274 206.772C126.763 131.87 170.279 69.8331 213.021 30.0782C234.393 10.1999 255.553 -4.08973 275.231 -11.6415C294.907 -19.1923 313.063 -19.9941 328.483 -12.9669C343.902 -5.93975 355.208 8.28885 362.418 28.0925C369.628 47.8984 372.725 73.2427 371.743 102.414C369.78 160.753 351.508 234.295 317.373 309.197Z" stroke="url(#paint70_linear_3_759)"/>
<path d="M316.462 311.151C281.024 385.445 236.432 446.714 193.002 485.717C171.287 505.219 149.881 519.137 130.074 526.344C110.269 533.551 92.1018 534.035 76.8075 526.74C61.5131 519.445 50.4571 505.021 43.5943 485.095C36.7306 465.166 34.0764 439.772 35.5668 410.622C38.5477 352.326 58.1006 279.114 93.5382 204.819C128.976 130.524 173.568 69.256 216.998 30.253C238.713 10.7508 260.119 -3.16739 279.926 -10.3745C299.731 -17.5809 317.898 -18.0656 333.192 -10.7704C348.487 -3.47523 359.543 10.9485 366.406 30.8749C373.269 50.8037 375.924 76.1982 374.433 105.348C371.452 163.644 351.899 236.856 316.462 311.151Z" stroke="url(#paint71_linear_3_759)"/>
<path d="M315.517 313.088C278.788 386.753 233.133 447.233 189.03 485.472C166.977 504.593 145.332 518.135 125.402 524.996C105.474 531.855 87.3013 532.023 72.1366 524.462C56.9719 516.901 46.1693 502.286 39.6552 482.243C33.1405 462.198 30.9298 436.761 32.9288 407.642C36.9266 349.406 57.7543 276.547 94.4831 202.882C131.212 129.217 176.867 68.7361 220.97 30.497C243.023 11.3767 264.668 -2.16575 284.598 -9.02612C304.526 -15.8857 322.699 -16.0533 337.863 -8.49233C353.028 -0.931311 363.831 13.6832 370.345 33.7264C376.859 53.7718 379.07 79.2088 377.071 108.328C373.073 166.563 352.246 239.423 315.517 313.088Z" stroke="url(#paint72_linear_3_759)"/>
<path d="M314.538 315.008C276.529 388.021 229.826 447.696 185.062 485.159C162.679 503.892 140.8 517.054 120.754 523.566C100.709 530.076 82.5365 529.927 67.5061 522.102C52.4756 514.278 41.9298 499.477 35.7665 479.323C29.6025 459.167 27.8362 433.695 30.343 404.616C35.3566 346.459 57.4527 273.974 95.4615 200.961C133.47 127.949 180.174 68.2738 224.938 30.8103C247.321 12.0778 269.199 -1.08487 289.246 -7.59638C309.29 -14.1071 327.463 -13.9576 342.494 -6.13306C357.524 1.69146 368.07 16.4923 374.233 36.6461C380.397 56.8022 382.164 82.2738 379.657 111.353C374.643 169.51 352.547 241.995 314.538 315.008Z" stroke="url(#paint73_linear_3_759)"/>
<path d="M313.527 316.911C274.249 389.249 226.512 448.1 181.1 484.776C158.394 503.116 136.289 515.894 116.132 522.055C95.977 528.215 77.8095 527.748 62.9178 519.663C48.0262 511.577 37.7403 496.594 31.9297 476.336C26.1185 456.075 24.7969 430.577 27.8109 401.545C33.8386 343.485 57.1964 271.397 96.4737 199.058C135.751 126.72 183.489 67.8694 228.9 31.1929C251.607 12.8538 273.711 0.075037 293.869 -6.08562C314.023 -12.2456 332.191 -11.7789 347.083 -3.69322C361.974 4.39243 372.26 19.375 378.071 39.6333C383.882 59.894 385.204 85.3926 382.19 114.424C376.162 172.484 352.804 244.573 313.527 316.911Z" stroke="url(#paint74_linear_3_759)"/>
<path d="M312.481 318.796C271.948 390.438 223.19 448.447 177.146 484.325C154.122 502.265 131.798 514.656 111.536 520.464C91.277 526.271 73.1203 525.488 58.3721 517.143C43.6239 508.799 33.601 493.639 28.1448 473.283C22.6881 452.924 21.8117 427.406 25.3319 398.431C32.372 340.485 56.9844 268.815 97.5181 197.174C138.052 125.532 186.809 67.5232 232.854 31.6448C255.877 13.7048 278.202 1.31378 298.463 -4.49415C318.722 -10.3014 336.879 -9.51772 351.627 -1.17341C366.376 7.1709 376.398 22.3307 381.855 42.6874C387.311 63.0463 388.188 88.5641 384.668 117.539C377.627 175.485 353.015 247.154 312.481 318.796Z" stroke="url(#paint75_linear_3_759)"/>
<path d="M311.404 320.663C269.626 391.586 219.863 448.735 173.2 483.804C149.867 501.34 127.33 513.339 106.97 518.793C86.6122 524.246 68.472 523.145 53.8716 514.545C39.2713 505.944 29.5145 490.612 24.4144 470.163C19.3138 449.712 18.8829 424.183 22.9083 395.274C30.9586 337.46 56.818 266.23 98.5959 195.307C140.374 124.383 190.136 67.2347 236.8 32.1653C260.133 14.6299 282.67 2.63033 303.03 -2.8231C323.387 -8.27591 341.528 -7.17546 356.128 1.42498C370.728 10.0254 380.485 25.3579 385.585 45.8066C390.686 66.2577 391.117 91.7869 387.091 120.695C379.041 178.51 353.182 249.739 311.404 320.663Z" stroke="url(#paint76_linear_3_759)"/>
<path d="M310.293 322.51C267.284 392.694 216.532 448.966 169.263 483.215C145.628 500.341 122.884 511.945 102.432 517.042C81.9828 522.139 63.8646 520.722 49.4166 511.868C34.9685 503.014 25.4808 487.514 20.7384 466.979C15.9955 446.442 16.0103 420.91 20.5395 392.076C29.5976 334.41 56.6962 263.643 99.7056 193.46C142.715 123.276 193.467 67.0045 240.736 32.7549C264.371 15.6294 287.114 4.02499 307.566 -1.07228C328.016 -6.16897 346.134 -4.75209 360.582 4.10184C375.03 12.9558 384.518 28.4562 389.26 48.9908C394.003 69.5278 393.988 95.0606 389.459 123.895C380.401 181.56 353.303 252.327 310.293 322.51Z" stroke="url(#paint77_linear_3_759)"/>
<path d="M309.152 324.338C264.924 393.76 213.197 449.138 165.338 482.557C141.408 499.268 118.465 510.473 97.9275 515.213C77.3921 519.952 59.3014 518.219 45.01 509.114C30.7187 500.009 21.503 484.346 17.1197 463.732C12.7359 443.115 13.1963 417.586 18.2281 388.836C28.2912 331.337 56.6207 261.054 100.848 191.632C145.076 122.21 196.803 66.8322 244.662 33.4127C268.592 16.7023 291.535 5.49661 312.073 0.757049C332.608 -3.98197 350.699 -2.2491 364.99 6.85564C379.281 15.9604 388.497 31.624 392.88 52.2383C397.264 72.8549 396.804 98.3836 391.772 127.134C381.709 184.633 353.379 254.916 309.152 324.338Z" stroke="url(#paint78_linear_3_759)"/>
<path d="M307.978 326.146C262.545 394.786 209.86 449.252 161.425 481.831C137.206 498.121 114.072 508.925 93.4544 513.305C72.8394 517.685 54.7817 515.637 40.6514 506.284C26.5212 496.931 17.5802 481.109 13.5574 460.421C9.53406 439.731 10.4399 414.215 15.9727 385.556C27.0378 328.242 56.5895 258.464 102.022 189.824C147.455 121.184 200.14 66.7183 248.575 34.1392C272.793 17.849 295.928 7.04538 316.545 2.66498C337.16 -1.71492 355.218 0.333403 369.348 9.68617C383.478 19.0389 392.419 34.861 396.442 55.5486C400.466 76.2387 399.56 101.755 394.027 130.414C382.962 187.728 353.41 257.506 307.978 326.146Z" stroke="url(#paint79_linear_3_759)"/>
<path d="M306.772 327.933C260.149 395.769 206.521 449.308 157.525 481.036C133.026 496.901 109.706 507.3 89.0153 511.32C68.3271 515.339 50.3078 512.976 36.3429 503.378C22.3781 493.78 13.7146 477.804 10.0534 457.05C6.39182 436.292 7.74282 410.795 13.7749 382.238C25.8386 325.126 56.6037 255.874 103.227 188.038C149.851 120.201 203.478 66.6628 252.475 34.9339C276.974 19.0689 300.293 8.67067 320.984 4.65075C341.672 0.631302 359.692 2.99447 373.656 12.5924C387.621 22.1904 396.285 38.1661 399.946 58.9208C403.608 79.6778 402.257 105.175 396.225 133.732C384.161 190.845 353.396 260.096 306.772 327.933Z" stroke="url(#paint80_linear_3_759)"/>
<path d="M305.536 329.698C257.736 396.711 203.182 449.305 153.639 480.174C128.867 495.609 105.369 505.598 84.6116 509.257C63.8563 512.914 45.8811 510.237 32.0858 500.397C18.2906 490.557 9.90727 474.432 6.60886 453.617C3.31009 432.799 5.10588 407.329 11.6354 378.882C24.6941 321.989 56.6631 253.284 104.463 186.272C152.264 119.26 206.818 66.6652 256.36 35.7963C281.132 20.3612 304.63 10.3716 325.388 6.71339C346.143 3.05561 364.118 5.73289 377.913 15.5731C391.709 25.4133 400.092 41.5378 403.39 62.3532C406.689 83.171 404.893 108.641 398.364 137.088C385.305 193.981 353.336 262.686 305.536 329.698Z" stroke="url(#paint81_linear_3_759)"/>
<path d="M304.269 331.442C255.306 397.61 199.843 449.244 149.769 479.244C124.731 494.244 101.063 503.822 80.2447 507.118C59.4287 510.413 41.5029 507.422 27.8815 497.343C14.2601 487.263 6.15946 470.995 3.22483 450.125C0.289882 429.253 2.5299 403.818 9.55496 375.489C23.6045 318.832 56.7677 250.696 105.73 184.528C154.693 118.361 210.156 66.7264 260.23 36.7268C285.268 21.7264 308.936 12.1483 329.755 8.85297C350.571 5.55798 368.496 8.54857 382.118 18.628C395.739 28.7075 403.84 44.9758 406.774 65.8457C409.709 86.7179 407.469 112.152 400.444 140.482C386.395 197.138 353.232 265.274 304.269 331.442Z" stroke="url(#paint82_linear_3_759)"/>
<path d="M302.972 333.163C252.862 398.466 196.506 449.125 145.916 478.246C120.62 492.807 96.7887 501.97 75.916 504.902C55.0456 507.833 37.1748 504.53 23.7314 494.215C10.288 483.899 2.47246 467.492 -0.0974975 446.574C-2.66773 425.654 0.0158398 400.262 7.53425 372.06C22.5704 315.657 56.9177 248.11 107.028 182.807C157.138 117.504 213.494 66.8452 264.083 37.7241C289.379 23.1629 313.211 13.9994 334.084 11.0679C354.954 8.13671 372.825 11.4397 386.268 21.7554C399.712 32.071 407.527 48.4782 410.097 69.3961C412.668 90.3164 409.984 115.708 402.466 143.91C387.429 200.313 353.082 267.86 302.972 333.163Z" stroke="url(#paint83_linear_3_759)"/>
<path d="M301.645 334.862C250.403 399.28 193.171 448.948 142.081 477.181C116.535 491.299 92.547 500.045 71.6263 502.612C50.708 505.178 32.8975 501.564 19.6362 491.015C6.37484 480.466 -1.15314 463.925 -3.35763 442.966C-5.56236 422.004 -2.43607 396.663 5.5734 368.596C21.5917 312.464 57.1126 245.528 108.355 181.109C159.597 116.69 216.828 67.0227 267.918 38.7889C293.465 24.6714 317.453 15.9253 338.373 13.3585C359.292 10.7919 377.102 14.4063 390.364 24.955C403.625 35.5037 411.153 52.0449 413.357 73.0044C415.562 93.9663 412.436 119.307 404.426 147.374C388.408 203.506 352.887 270.443 301.645 334.862Z" stroke="url(#paint84_linear_3_759)"/>
<path d="M300.289 336.537C247.93 400.051 189.84 448.712 138.265 476.05C112.477 489.719 88.3395 498.045 67.3771 500.247C46.4172 502.448 28.6725 498.523 15.5973 487.745C2.52212 476.966 -4.71602 460.296 -6.55439 439.301C-8.39295 418.304 -4.82487 393.022 3.67321 365.099C20.6687 309.255 57.3524 242.948 109.711 179.434C162.069 115.919 220.159 67.2582 271.734 39.9203C297.523 26.2509 321.66 17.9247 342.622 15.7234C363.582 13.5223 381.327 17.447 394.402 28.2255C407.477 39.0041 414.715 55.6741 416.554 76.6689C418.392 97.6661 414.824 122.948 406.326 150.871C389.331 206.715 352.647 273.022 300.289 336.537Z" stroke="url(#paint85_linear_3_759)"/>
<path d="M298.903 338.187C245.444 400.779 186.514 448.418 134.47 474.852C108.447 488.069 84.1678 495.973 63.1702 497.808C42.1751 499.643 24.5016 495.409 11.6165 484.404C-1.26861 473.399 -8.21472 456.605 -9.6864 435.581C-11.1582 414.555 -7.14945 389.339 1.83466 361.569C19.8021 306.03 57.6374 240.374 111.096 177.782C164.555 115.191 223.486 67.5516 275.53 41.1181C301.553 27.9008 325.832 19.9971 346.83 18.162C367.825 16.327 385.498 20.5608 398.383 31.5659C411.268 42.571 418.214 59.3648 419.686 80.3884C421.158 101.415 417.149 126.631 408.165 154.401C390.198 209.94 352.362 275.596 298.903 338.187Z" stroke="url(#paint86_linear_3_759)"/>
<path d="M297.49 339.814C242.947 401.463 183.194 448.066 130.696 473.588C104.446 486.349 80.0331 493.827 59.0067 495.296C37.9828 496.764 20.3858 492.223 7.69478 480.994C-4.99629 469.766 -11.6483 452.853 -12.7528 431.807C-13.8574 410.759 -9.40919 385.616 0.0582118 358.007C18.9922 302.791 57.9677 237.804 112.511 176.156C167.054 114.507 226.807 67.903 279.305 42.3818C305.555 29.6206 329.967 22.1419 350.994 20.6735C372.018 19.2053 389.615 23.7468 402.306 34.9751C414.997 46.2034 421.649 63.1159 422.753 84.162C423.858 105.211 419.41 130.353 409.942 157.962C391.008 213.179 352.033 278.165 297.49 339.814Z" stroke="url(#paint87_linear_3_759)"/>
<path d="M296.047 341.416C240.436 402.103 179.879 447.657 126.944 472.258C100.476 484.559 75.9358 491.611 54.887 492.712C33.8406 493.813 16.3256 488.965 3.83242 477.517C-8.66075 466.069 -15.0165 449.043 -15.7536 427.981C-16.4907 406.916 -11.6044 381.855 -1.65656 354.415C18.2382 299.538 58.3419 235.241 113.953 174.554C169.563 113.866 230.12 68.3127 283.056 43.7116C309.524 31.4105 334.064 24.359 355.113 23.2577C376.159 22.1567 393.674 27.0046 406.167 38.4527C418.661 49.9008 425.016 66.9267 425.753 87.989C426.491 109.054 421.604 134.115 411.656 161.554C391.762 216.432 351.658 280.728 296.047 341.416Z" stroke="url(#paint88_linear_3_759)"/>
<path d="M294.577 342.992C237.916 402.7 176.573 447.19 123.217 470.863C96.5372 482.701 71.8781 489.323 50.8132 490.057C29.7509 490.79 12.3231 485.637 0.0316632 473.973C-12.2598 462.308 -18.3175 445.174 -18.6869 424.102C-19.0562 403.028 -13.7332 378.056 -3.30806 350.794C17.5414 296.272 58.7611 232.686 115.423 172.978C172.084 113.27 233.427 68.7802 286.783 45.1067C313.463 33.2694 338.122 26.6472 359.187 25.9135C380.249 25.1799 397.677 30.3328 409.968 41.9972C422.26 53.6616 428.317 70.7959 428.687 91.8678C429.056 112.942 423.733 137.914 413.308 165.176C392.458 219.698 351.239 283.284 294.577 342.992Z" stroke="url(#paint89_linear_3_759)"/>
<path d="M293.08 344.542C235.385 403.252 173.275 446.665 119.514 469.403C92.6318 480.773 67.8609 486.964 46.7865 487.33C25.7145 487.696 8.37935 482.24 -3.70668 470.363C-15.7927 458.485 -21.5504 441.248 -21.552 420.173C-21.5535 399.095 -15.7955 374.22 -4.89612 347.144C16.9018 292.994 59.2249 230.137 116.92 171.427C174.615 112.718 236.724 69.305 290.486 46.5662C317.368 35.1964 342.139 29.0056 363.213 28.6397C384.285 28.2737 401.62 33.73 413.706 45.6071C425.792 57.4842 431.55 74.7216 431.552 95.7968C431.553 116.874 425.795 141.749 414.896 168.825C393.098 222.975 350.775 285.833 293.08 344.542Z" stroke="url(#paint90_linear_3_759)"/>
<path d="M291.556 346.067C232.845 403.76 169.987 446.083 115.837 467.879C88.7608 478.778 63.8856 484.536 42.808 484.534C21.7329 484.532 4.49559 478.774 -7.38132 466.688C-19.2582 454.602 -24.7142 437.267 -24.348 416.195C-23.9816 395.12 -17.7904 370.349 -6.42013 343.468C16.3195 289.706 59.7332 227.597 118.444 169.903C177.155 112.21 240.013 69.8875 294.163 48.0905C321.239 37.1916 346.114 31.434 367.192 31.4359C388.267 31.4378 405.504 37.1958 417.381 49.282C429.258 61.3683 434.714 78.7035 434.348 99.7755C433.982 120.85 427.79 145.621 416.42 172.502C393.68 226.264 350.267 288.373 291.556 346.067Z" stroke="url(#paint91_linear_3_759)"/>
<path d="M290.006 347.564C230.297 404.224 166.71 445.443 112.188 466.291C84.9252 476.716 59.9533 482.039 38.879 481.669C17.8071 481.299 0.672924 475.241 -10.9912 462.949C-22.6554 450.658 -27.808 433.23 -27.0741 412.168C-26.34 391.103 -19.7174 366.444 -7.87971 339.765C15.7947 286.409 60.2857 225.067 119.994 168.406C179.703 111.746 243.29 70.527 297.813 49.6784C325.075 39.2537 350.047 33.9311 371.121 34.3009C392.193 34.6706 409.327 40.7286 420.991 53.0202C432.655 65.3119 437.808 82.7397 437.074 103.802C436.34 124.867 429.717 149.526 417.88 176.205C394.205 229.561 349.714 290.903 290.006 347.564Z" stroke="url(#paint92_linear_3_759)"/>
<path d="M288.429 349.033C227.741 404.643 163.444 444.746 108.566 464.64C81.1258 474.587 56.0648 479.473 35.0001 478.736C13.9379 477.998 -3.08795 471.642 -14.5358 459.149C-25.9837 446.655 -30.8314 429.14 -29.7299 408.094C-28.6284 387.045 -21.5764 362.505 -9.27488 336.037C15.3271 283.102 60.8819 222.546 121.57 166.936C182.259 111.326 246.556 71.2238 301.434 51.3299C328.874 41.3826 353.935 36.4967 374.999 37.2342C396.061 37.9716 413.087 44.3276 424.535 56.821C435.983 69.3144 440.831 86.8295 439.729 107.876C438.628 128.925 431.576 153.464 419.274 179.933C394.672 232.868 349.117 293.424 288.429 349.033Z" stroke="url(#paint93_linear_3_759)"/>
<path d="M286.827 350.476C225.177 405.018 160.191 443.993 104.974 462.926C77.3643 472.393 52.2219 476.84 31.1733 475.735C10.1271 474.63 -6.78519 467.978 -18.0133 455.287C-29.2414 442.596 -33.7826 424.999 -32.3141 403.975C-30.8453 382.948 -23.3661 358.536 -10.6045 332.286C14.9175 279.788 61.5223 220.037 123.172 165.494C184.822 110.952 249.809 71.9779 305.025 53.0448C332.635 43.5779 357.777 39.13 378.826 40.2351C399.872 41.34 416.784 47.9922 428.012 60.6834C439.241 73.3747 443.782 90.9717 442.313 111.996C440.844 133.022 433.365 157.435 420.604 183.685C395.082 236.182 348.477 295.934 286.827 350.476Z" stroke="url(#paint94_linear_3_759)"/>
<path d="M285.2 351.89C222.608 405.348 156.951 443.182 101.412 461.149C73.6416 470.133 48.4253 474.141 27.3992 472.669C6.37554 471.197 -10.4181 464.25 -21.423 451.365C-32.4279 438.48 -36.6613 420.806 -34.8261 399.811C-32.9905 378.814 -25.0865 354.535 -11.8687 328.512C14.5657 276.468 62.2061 217.539 124.798 164.081C187.391 110.623 253.048 72.7885 308.587 54.8219C336.357 45.8383 361.573 41.83 382.599 43.3022C403.623 44.7742 420.417 51.7206 431.422 64.6059C442.426 77.4911 446.66 95.1648 444.825 116.16C442.989 137.157 435.085 161.436 421.867 187.459C395.433 239.503 347.792 298.432 285.2 351.89Z" stroke="url(#paint95_linear_3_759)"/>
<path d="M283.55 353.275C220.034 405.633 153.727 442.315 97.883 459.31C69.9599 467.807 44.6776 471.375 23.6803 469.536C2.68556 467.697 -13.9843 460.459 -24.7626 447.384C-35.5409 434.308 -39.4653 416.564 -37.2639 395.604C-35.0622 374.641 -26.7356 350.504 -13.0657 324.716C14.2729 273.141 62.9346 215.052 126.45 162.695C189.966 110.338 256.273 73.655 312.117 56.6604C340.04 48.1628 365.323 44.5952 386.32 46.4341C407.315 48.2728 423.985 55.5112 434.763 68.5866C445.541 81.662 449.466 99.4068 447.264 120.367C445.062 141.329 436.736 165.466 423.066 191.254C395.727 242.829 347.066 300.918 283.55 353.275Z" stroke="url(#paint96_linear_3_759)"/>
<path d="M281.875 354.631C217.455 405.872 150.518 441.392 94.3857 457.409C66.3186 465.418 40.9778 468.544 20.0159 466.339C-0.943602 464.134 -17.4846 456.606 -28.0331 443.345C-38.5816 430.083 -42.1956 412.273 -39.6288 391.354C-37.0616 370.434 -28.315 346.446 -14.1971 320.9C14.0375 269.81 63.7055 212.579 128.125 161.338C192.545 110.097 259.483 74.5775 315.615 58.5602C343.682 50.5512 369.022 47.4254 389.984 49.6305C410.944 51.8353 427.485 59.3635 438.033 72.625C448.582 85.8865 452.196 103.697 449.629 124.615C447.062 145.536 438.315 169.524 424.197 195.07C395.963 246.16 346.295 303.391 281.875 354.631Z" stroke="url(#paint97_linear_3_759)"/>
<path d="M280.177 355.958C214.872 406.067 147.325 440.413 90.9221 455.449C62.7195 462.966 37.328 465.65 16.4078 463.079C-4.51003 460.509 -20.9171 452.693 -31.2325 439.249C-41.548 425.806 -44.8507 407.935 -41.9191 387.065C-38.9872 366.192 -29.8233 342.36 -15.2617 317.065C13.8602 266.475 64.5195 210.12 129.824 160.011C195.128 109.902 262.675 75.5563 319.078 60.5211C347.281 53.0031 372.672 50.32 393.592 52.8906C414.51 55.4609 430.917 63.2767 441.233 76.7202C451.548 90.1638 454.851 108.035 451.919 128.905C448.987 149.778 439.824 173.609 425.262 198.905C396.14 249.494 345.481 305.85 280.177 355.958Z" stroke="url(#paint98_linear_3_759)"/>
<path d="M278.455 357.255C212.286 406.217 144.15 439.379 87.4933 453.427C59.1638 460.452 33.7293 462.692 12.8571 459.756C-8.01264 456.821 -24.2808 448.72 -34.36 435.099C-44.4393 421.477 -47.4296 403.551 -44.1343 382.736C-40.8385 361.917 -31.2601 338.249 -16.2592 313.211C13.7412 263.138 65.3763 207.676 131.545 158.714C197.714 109.753 265.85 76.5906 322.507 62.542C350.837 55.5174 376.271 53.2778 397.143 56.2131C418.013 59.1481 434.281 67.249 444.36 80.8706C454.44 94.4922 457.43 112.418 454.135 133.234C450.839 154.052 441.26 177.72 426.26 202.758C396.259 252.831 344.624 308.294 278.455 357.255Z" stroke="url(#paint99_linear_3_759)"/>
<defs>
<linearGradient id="paint0_linear_3_759" x1="154.73" y1="310.02" x2="258.107" y2="204.825" gradientUnits="userSpaceOnUse">
<stop stop-color="#FF1CF7"/>
<stop offset="1" stop-color="#00F0FF"/>
</linearGradient>
<linearGradient id="paint1_linear_3_759" x1="153.83" y1="309.134" x2="259.026" y2="205.76" gradientUnits="userSpaceOnUse">
<stop stop-color="#FF1CF7"/>
<stop offset="1" stop-color="#00F0FF"/>
</linearGradient>
<linearGradient id="paint2_linear_3_759" x1="152.945" y1="308.234" x2="259.93" y2="206.711" gradientUnits="userSpaceOnUse">
<stop stop-color="#FF1CF7"/>
<stop offset="1" stop-color="#00F0FF"/>
</linearGradient>
<linearGradient id="paint3_linear_3_759" x1="152.076" y1="307.318" x2="260.816" y2="207.677" gradientUnits="userSpaceOnUse">
<stop stop-color="#FF1CF7"/>
<stop offset="1" stop-color="#00F0FF"/>
</linearGradient>
<linearGradient id="paint4_linear_3_759" x1="151.223" y1="306.387" x2="261.685" y2="208.659" gradientUnits="userSpaceOnUse">
<stop stop-color="#FF1CF7"/>
<stop offset="1" stop-color="#00F0FF"/>
</linearGradient>
<linearGradient id="paint5_linear_3_759" x1="150.386" y1="305.441" x2="262.538" y2="209.656" gradientUnits="userSpaceOnUse">
<stop stop-color="#FF1CF7"/>
<stop offset="1" stop-color="#00F0FF"/>
</linearGradient>
<linearGradient id="paint6_linear_3_759" x1="149.567" y1="304.48" x2="263.373" y2="210.667" gradientUnits="userSpaceOnUse">
<stop stop-color="#FF1CF7"/>
<stop offset="1" stop-color="#00F0FF"/>
</linearGradient>
<linearGradient id="paint7_linear_3_759" x1="148.764" y1="303.505" x2="264.19" y2="211.693" gradientUnits="userSpaceOnUse">
<stop stop-color="#FF1CF7"/>
<stop offset="1" stop-color="#00F0FF"/>
</linearGradient>
<linearGradient id="paint8_linear_3_759" x1="147.978" y1="302.517" x2="264.989" y2="212.733" gradientUnits="userSpaceOnUse">
<stop stop-color="#FF1CF7"/>
<stop offset="1" stop-color="#00F0FF"/>
</linearGradient>
<linearGradient id="paint9_linear_3_759" x1="147.209" y1="301.515" x2="265.769" y2="213.787" gradientUnits="userSpaceOnUse">
<stop stop-color="#FF1CF7"/>
<stop offset="1" stop-color="#00F0FF"/>
</linearGradient>
<linearGradient id="paint10_linear_3_759" x1="146.458" y1="300.5" x2="266.531" y2="214.854" gradientUnits="userSpaceOnUse">
<stop stop-color="#FF1CF7"/>
<stop offset="1" stop-color="#00F0FF"/>
</linearGradient>
<linearGradient id="paint11_linear_3_759" x1="145.725" y1="299.471" x2="267.275" y2="215.934" gradientUnits="userSpaceOnUse">
<stop stop-color="#FF1CF7"/>
<stop offset="1" stop-color="#00F0FF"/>
</linearGradient>
<linearGradient id="paint12_linear_3_759" x1="145.01" y1="298.431" x2="267.999" y2="217.028" gradientUnits="userSpaceOnUse">
<stop stop-color="#FF1CF7"/>
<stop offset="1" stop-color="#00F0FF"/>
</linearGradient>
<linearGradient id="paint13_linear_3_759" x1="144.314" y1="297.378" x2="268.704" y2="218.134" gradientUnits="userSpaceOnUse">
<stop stop-color="#FF1CF7"/>
<stop offset="1" stop-color="#00F0FF"/>
</linearGradient>
<linearGradient id="paint14_linear_3_759" x1="143.635" y1="296.313" x2="269.39" y2="219.252" gradientUnits="userSpaceOnUse">
<stop stop-color="#FF1CF7"/>
<stop offset="1" stop-color="#00F0FF"/>
</linearGradient>
<linearGradient id="paint15_linear_3_759" x1="142.976" y1="295.236" x2="270.056" y2="220.381" gradientUnits="userSpaceOnUse">
<stop stop-color="#FF1CF7"/>
<stop offset="1" stop-color="#00F0FF"/>
</linearGradient>
<linearGradient id="paint16_linear_3_759" x1="142.335" y1="294.148" x2="270.703" y2="221.522" gradientUnits="userSpaceOnUse">
<stop stop-color="#FF1CF7"/>
<stop offset="1" stop-color="#00F0FF"/>
</linearGradient>
<linearGradient id="paint17_linear_3_759" x1="141.713" y1="293.049" x2="271.329" y2="222.675" gradientUnits="userSpaceOnUse">
<stop stop-color="#FF1CF7"/>
<stop offset="1" stop-color="#00F0FF"/>
</linearGradient>
<linearGradient id="paint18_linear_3_759" x1="141.111" y1="291.939" x2="271.935" y2="223.837" gradientUnits="userSpaceOnUse">
<stop stop-color="#FF1CF7"/>
<stop offset="1" stop-color="#00F0FF"/>
</linearGradient>
<linearGradient id="paint19_linear_3_759" x1="140.528" y1="290.818" x2="272.521" y2="225.011" gradientUnits="userSpaceOnUse">
<stop stop-color="#FF1CF7"/>
<stop offset="1" stop-color="#00F0FF"/>
</linearGradient>
<linearGradient id="paint20_linear_3_759" x1="139.965" y1="289.688" x2="273.086" y2="226.194" gradientUnits="userSpaceOnUse">
<stop stop-color="#FF1CF7"/>
<stop offset="1" stop-color="#00F0FF"/>
</linearGradient>
<linearGradient id="paint21_linear_3_759" x1="139.422" y1="288.548" x2="273.631" y2="227.387" gradientUnits="userSpaceOnUse">
<stop stop-color="#FF1CF7"/>
<stop offset="1" stop-color="#00F0FF"/>
</linearGradient>
<linearGradient id="paint22_linear_3_759" x1="138.898" y1="287.399" x2="274.154" y2="228.59" gradientUnits="userSpaceOnUse">
<stop stop-color="#FF1CF7"/>
<stop offset="1" stop-color="#00F0FF"/>
</linearGradient>
<linearGradient id="paint23_linear_3_759" x1="138.395" y1="286.241" x2="274.657" y2="229.801" gradientUnits="userSpaceOnUse">
<stop stop-color="#FF1CF7"/>
<stop offset="1" stop-color="#00F0FF"/>
</linearGradient>
<linearGradient id="paint24_linear_3_759" x1="137.912" y1="285.075" x2="275.138" y2="231.021" gradientUnits="userSpaceOnUse">
<stop stop-color="#FF1CF7"/>
<stop offset="1" stop-color="#00F0FF"/>
</linearGradient>
<linearGradient id="paint25_linear_3_759" x1="137.449" y1="283.9" x2="275.598" y2="232.249" gradientUnits="userSpaceOnUse">
<stop stop-color="#FF1CF7"/>
<stop offset="1" stop-color="#00F0FF"/>
</linearGradient>
<linearGradient id="paint26_linear_3_759" x1="137.007" y1="282.717" x2="276.036" y2="233.485" gradientUnits="userSpaceOnUse">
<stop stop-color="#FF1CF7"/>
<stop offset="1" stop-color="#00F0FF"/>
</linearGradient>
<linearGradient id="paint27_linear_3_759" x1="136.586" y1="281.526" x2="276.453" y2="234.729" gradientUnits="userSpaceOnUse">
<stop stop-color="#FF1CF7"/>
<stop offset="1" stop-color="#00F0FF"/>
</linearGradient>
<linearGradient id="paint28_linear_3_759" x1="136.186" y1="280.329" x2="276.848" y2="235.98" gradientUnits="userSpaceOnUse">
<stop stop-color="#FF1CF7"/>
<stop offset="1" stop-color="#00F0FF"/>
</linearGradient>
<linearGradient id="paint29_linear_3_759" x1="135.806" y1="279.124" x2="277.221" y2="237.237" gradientUnits="userSpaceOnUse">
<stop stop-color="#FF1CF7"/>
<stop offset="1" stop-color="#00F0FF"/>
</linearGradient>
<linearGradient id="paint30_linear_3_759" x1="135.448" y1="277.913" x2="277.572" y2="238.5" gradientUnits="userSpaceOnUse">
<stop stop-color="#FF1CF7"/>
<stop offset="1" stop-color="#00F0FF"/>
</linearGradient>
<linearGradient id="paint31_linear_3_759" x1="135.111" y1="276.697" x2="277.901" y2="239.77" gradientUnits="userSpaceOnUse">
<stop stop-color="#FF1CF7"/>
<stop offset="1" stop-color="#00F0FF"/>
</linearGradient>
<linearGradient id="paint32_linear_3_759" x1="134.795" y1="275.474" x2="278.208" y2="241.045" gradientUnits="userSpaceOnUse">
<stop stop-color="#FF1CF7"/>
<stop offset="1" stop-color="#00F0FF"/>
</linearGradient>
<linearGradient id="paint33_linear_3_759" x1="134.5" y1="274.246" x2="278.492" y2="242.325" gradientUnits="userSpaceOnUse">
<stop stop-color="#FF1CF7"/>
<stop offset="1" stop-color="#00F0FF"/>
</linearGradient>
<linearGradient id="paint34_linear_3_759" x1="134.228" y1="273.013" x2="278.755" y2="243.61" gradientUnits="userSpaceOnUse">
<stop stop-color="#FF1CF7"/>
<stop offset="1" stop-color="#00F0FF"/>
</linearGradient>
<linearGradient id="paint35_linear_3_759" x1="133.976" y1="271.776" x2="278.994" y2="244.9" gradientUnits="userSpaceOnUse">
<stop stop-color="#FF1CF7"/>
<stop offset="1" stop-color="#00F0FF"/>
</linearGradient>
<linearGradient id="paint36_linear_3_759" x1="133.746" y1="270.534" x2="279.211" y2="246.193" gradientUnits="userSpaceOnUse">
<stop stop-color="#FF1CF7"/>
<stop offset="1" stop-color="#00F0FF"/>
</linearGradient>
<linearGradient id="paint37_linear_3_759" x1="133.538" y1="269.289" x2="279.406" y2="247.49" gradientUnits="userSpaceOnUse">
<stop stop-color="#FF1CF7"/>
<stop offset="1" stop-color="#00F0FF"/>
</linearGradient>
<linearGradient id="paint38_linear_3_759" x1="133.351" y1="268.04" x2="279.578" y2="248.79" gradientUnits="userSpaceOnUse">
<stop stop-color="#FF1CF7"/>
<stop offset="1" stop-color="#00F0FF"/>
</linearGradient>
<linearGradient id="paint39_linear_3_759" x1="133.187" y1="266.788" x2="279.727" y2="250.093" gradientUnits="userSpaceOnUse">
<stop stop-color="#FF1CF7"/>
<stop offset="1" stop-color="#00F0FF"/>
</linearGradient>
<linearGradient id="paint40_linear_3_759" x1="133.044" y1="265.533" x2="279.853" y2="251.398" gradientUnits="userSpaceOnUse">
<stop stop-color="#FF1CF7"/>
<stop offset="1" stop-color="#00F0FF"/>
</linearGradient>
<linearGradient id="paint41_linear_3_759" x1="132.923" y1="264.276" x2="279.957" y2="252.705" gradientUnits="userSpaceOnUse">
<stop stop-color="#FF1CF7"/>
<stop offset="1" stop-color="#00F0FF"/>
</linearGradient>
<linearGradient id="paint42_linear_3_759" x1="132.824" y1="263.017" x2="280.037" y2="254.014" gradientUnits="userSpaceOnUse">
<stop stop-color="#FF1CF7"/>
<stop offset="1" stop-color="#00F0FF"/>
</linearGradient>
<linearGradient id="paint43_linear_3_759" x1="132.748" y1="261.757" x2="280.095" y2="255.325" gradientUnits="userSpaceOnUse">
<stop stop-color="#FF1CF7"/>
<stop offset="1" stop-color="#00F0FF"/>
</linearGradient>
<linearGradient id="paint44_linear_3_759" x1="132.693" y1="260.495" x2="280.131" y2="256.636" gradientUnits="userSpaceOnUse">
<stop stop-color="#FF1CF7"/>
<stop offset="1" stop-color="#00F0FF"/>
</linearGradient>
<linearGradient id="paint45_linear_3_759" x1="132.66" y1="259.233" x2="280.142" y2="257.947" gradientUnits="userSpaceOnUse">
<stop stop-color="#FF1CF7"/>
<stop offset="1" stop-color="#00F0FF"/>
</linearGradient>
<linearGradient id="paint46_linear_3_759" x1="132.649" y1="257.97" x2="280.131" y2="259.259" gradientUnits="userSpaceOnUse">
<stop stop-color="#FF1CF7"/>
<stop offset="1" stop-color="#00F0FF"/>
</linearGradient>
<linearGradient id="paint47_linear_3_759" x1="132.66" y1="256.708" x2="280.098" y2="260.57" gradientUnits="userSpaceOnUse">
<stop stop-color="#FF1CF7"/>
<stop offset="1" stop-color="#00F0FF"/>
</linearGradient>
<linearGradient id="paint48_linear_3_759" x1="132.694" y1="255.445" x2="280.041" y2="261.88" gradientUnits="userSpaceOnUse">
<stop stop-color="#FF1CF7"/>
<stop offset="1" stop-color="#00F0FF"/>
</linearGradient>
<linearGradient id="paint49_linear_3_759" x1="132.749" y1="254.184" x2="279.962" y2="263.189" gradientUnits="userSpaceOnUse">
<stop stop-color="#FF1CF7"/>
<stop offset="1" stop-color="#00F0FF"/>
</linearGradient>
<linearGradient id="paint50_linear_3_759" x1="132.826" y1="252.923" x2="279.859" y2="264.496" gradientUnits="userSpaceOnUse">
<stop stop-color="#FF1CF7"/>
<stop offset="1" stop-color="#00F0FF"/>
</linearGradient>
<linearGradient id="paint51_linear_3_759" x1="132.926" y1="251.665" x2="279.734" y2="265.802" gradientUnits="userSpaceOnUse">
<stop stop-color="#FF1CF7"/>
<stop offset="1" stop-color="#00F0FF"/>
</linearGradient>
<linearGradient id="paint52_linear_3_759" x1="133.047" y1="250.408" x2="279.586" y2="267.105" gradientUnits="userSpaceOnUse">
<stop stop-color="#FF1CF7"/>
<stop offset="1" stop-color="#00F0FF"/>
</linearGradient>
<linearGradient id="paint53_linear_3_759" x1="133.19" y1="249.153" x2="279.416" y2="268.405" gradientUnits="userSpaceOnUse">
<stop stop-color="#FF1CF7"/>
<stop offset="1" stop-color="#00F0FF"/>
</linearGradient>
<linearGradient id="paint54_linear_3_759" x1="133.355" y1="247.901" x2="279.223" y2="269.703" gradientUnits="userSpaceOnUse">
<stop stop-color="#FF1CF7"/>
<stop offset="1" stop-color="#00F0FF"/>
</linearGradient>
<linearGradient id="paint55_linear_3_759" x1="133.542" y1="246.652" x2="279.007" y2="270.996" gradientUnits="userSpaceOnUse">
<stop stop-color="#FF1CF7"/>
<stop offset="1" stop-color="#00F0FF"/>
</linearGradient>
<linearGradient id="paint56_linear_3_759" x1="133.751" y1="245.407" x2="278.769" y2="272.286" gradientUnits="userSpaceOnUse">
<stop stop-color="#FF1CF7"/>
<stop offset="1" stop-color="#00F0FF"/>
</linearGradient>
<linearGradient id="paint57_linear_3_759" x1="133.981" y1="244.165" x2="278.508" y2="273.571" gradientUnits="userSpaceOnUse">
<stop stop-color="#FF1CF7"/>
<stop offset="1" stop-color="#00F0FF"/>
</linearGradient>
<linearGradient id="paint58_linear_3_759" x1="134.233" y1="242.928" x2="278.225" y2="274.852" gradientUnits="userSpaceOnUse">
<stop stop-color="#FF1CF7"/>
<stop offset="1" stop-color="#00F0FF"/>
</linearGradient>
<linearGradient id="paint59_linear_3_759" x1="134.507" y1="241.695" x2="277.919" y2="276.127" gradientUnits="userSpaceOnUse">
<stop stop-color="#FF1CF7"/>
<stop offset="1" stop-color="#00F0FF"/>
</linearGradient>
<linearGradient id="paint60_linear_3_759" x1="134.801" y1="240.468" x2="277.591" y2="277.397" gradientUnits="userSpaceOnUse">
<stop stop-color="#FF1CF7"/>
<stop offset="1" stop-color="#00F0FF"/>
</linearGradient>
<linearGradient id="paint61_linear_3_759" x1="135.118" y1="239.245" x2="277.241" y2="278.661" gradientUnits="userSpaceOnUse">
<stop stop-color="#FF1CF7"/>
<stop offset="1" stop-color="#00F0FF"/>
</linearGradient>
<linearGradient id="paint62_linear_3_759" x1="135.456" y1="238.028" x2="276.87" y2="279.918" gradientUnits="userSpaceOnUse">
<stop stop-color="#FF1CF7"/>
<stop offset="1" stop-color="#00F0FF"/>
</linearGradient>
<linearGradient id="paint63_linear_3_759" x1="135.815" y1="236.818" x2="276.476" y2="281.17" gradientUnits="userSpaceOnUse">
<stop stop-color="#FF1CF7"/>
<stop offset="1" stop-color="#00F0FF"/>
</linearGradient>
<linearGradient id="paint64_linear_3_759" x1="136.195" y1="235.614" x2="276.061" y2="282.413" gradientUnits="userSpaceOnUse">
<stop stop-color="#FF1CF7"/>
<stop offset="1" stop-color="#00F0FF"/>
</linearGradient>
<linearGradient id="paint65_linear_3_759" x1="136.596" y1="234.416" x2="275.623" y2="283.65" gradientUnits="userSpaceOnUse">
<stop stop-color="#FF1CF7"/>
<stop offset="1" stop-color="#00F0FF"/>
</linearGradient>
<linearGradient id="paint66_linear_3_759" x1="137.017" y1="233.226" x2="275.165" y2="284.878" gradientUnits="userSpaceOnUse">
<stop stop-color="#FF1CF7"/>
<stop offset="1" stop-color="#00F0FF"/>
</linearGradient>
<linearGradient id="paint67_linear_3_759" x1="137.46" y1="232.043" x2="274.685" y2="286.099" gradientUnits="userSpaceOnUse">
<stop stop-color="#FF1CF7"/>
<stop offset="1" stop-color="#00F0FF"/>
</linearGradient>
<linearGradient id="paint68_linear_3_759" x1="137.923" y1="230.868" x2="274.183" y2="287.311" gradientUnits="userSpaceOnUse">
<stop stop-color="#FF1CF7"/>
<stop offset="1" stop-color="#00F0FF"/>
</linearGradient>
<linearGradient id="paint69_linear_3_759" x1="138.406" y1="229.702" x2="273.661" y2="288.514" gradientUnits="userSpaceOnUse">
<stop stop-color="#FF1CF7"/>
<stop offset="1" stop-color="#00F0FF"/>
</linearGradient>
<linearGradient id="paint70_linear_3_759" x1="138.91" y1="228.544" x2="273.118" y2="289.707" gradientUnits="userSpaceOnUse">
<stop stop-color="#FF1CF7"/>
<stop offset="1" stop-color="#00F0FF"/>
</linearGradient>
<linearGradient id="paint71_linear_3_759" x1="139.434" y1="227.395" x2="272.554" y2="290.891" gradientUnits="userSpaceOnUse">
<stop stop-color="#FF1CF7"/>
<stop offset="1" stop-color="#00F0FF"/>
</linearGradient>
<linearGradient id="paint72_linear_3_759" x1="139.978" y1="226.255" x2="271.969" y2="292.065" gradientUnits="userSpaceOnUse">
<stop stop-color="#FF1CF7"/>
<stop offset="1" stop-color="#00F0FF"/>
</linearGradient>
<linearGradient id="paint73_linear_3_759" x1="140.541" y1="225.125" x2="271.364" y2="293.229" gradientUnits="userSpaceOnUse">
<stop stop-color="#FF1CF7"/>
<stop offset="1" stop-color="#00F0FF"/>
</linearGradient>
<linearGradient id="paint74_linear_3_759" x1="141.125" y1="224.005" x2="270.739" y2="294.381" gradientUnits="userSpaceOnUse">
<stop stop-color="#FF1CF7"/>
<stop offset="1" stop-color="#00F0FF"/>
</linearGradient>
<linearGradient id="paint75_linear_3_759" x1="141.727" y1="222.896" x2="270.094" y2="295.524" gradientUnits="userSpaceOnUse">
<stop stop-color="#FF1CF7"/>
<stop offset="1" stop-color="#00F0FF"/>
</linearGradient>
<linearGradient id="paint76_linear_3_759" x1="142.349" y1="221.797" x2="269.429" y2="296.654" gradientUnits="userSpaceOnUse">
<stop stop-color="#FF1CF7"/>
<stop offset="1" stop-color="#00F0FF"/>
</linearGradient>
<linearGradient id="paint77_linear_3_759" x1="142.99" y1="220.709" x2="268.744" y2="297.773" gradientUnits="userSpaceOnUse">
<stop stop-color="#FF1CF7"/>
<stop offset="1" stop-color="#00F0FF"/>
</linearGradient>
<linearGradient id="paint78_linear_3_759" x1="143.651" y1="219.633" x2="268.04" y2="298.879" gradientUnits="userSpaceOnUse">
<stop stop-color="#FF1CF7"/>
<stop offset="1" stop-color="#00F0FF"/>
</linearGradient>
<linearGradient id="paint79_linear_3_759" x1="144.329" y1="218.568" x2="267.317" y2="299.973" gradientUnits="userSpaceOnUse">
<stop stop-color="#FF1CF7"/>
<stop offset="1" stop-color="#00F0FF"/>
</linearGradient>
<linearGradient id="paint80_linear_3_759" x1="145.026" y1="217.515" x2="266.574" y2="301.054" gradientUnits="userSpaceOnUse">
<stop stop-color="#FF1CF7"/>
<stop offset="1" stop-color="#00F0FF"/>
</linearGradient>
<linearGradient id="paint81_linear_3_759" x1="145.742" y1="216.474" x2="265.813" y2="302.122" gradientUnits="userSpaceOnUse">
<stop stop-color="#FF1CF7"/>
<stop offset="1" stop-color="#00F0FF"/>
</linearGradient>
<linearGradient id="paint82_linear_3_759" x1="146.475" y1="215.447" x2="265.034" y2="303.177" gradientUnits="userSpaceOnUse">
<stop stop-color="#FF1CF7"/>
<stop offset="1" stop-color="#00F0FF"/>
</linearGradient>
<linearGradient id="paint83_linear_3_759" x1="147.227" y1="214.432" x2="264.236" y2="304.218" gradientUnits="userSpaceOnUse">
<stop stop-color="#FF1CF7"/>
<stop offset="1" stop-color="#00F0FF"/>
</linearGradient>
<linearGradient id="paint84_linear_3_759" x1="147.996" y1="213.43" x2="263.42" y2="305.244" gradientUnits="userSpaceOnUse">
<stop stop-color="#FF1CF7"/>
<stop offset="1" stop-color="#00F0FF"/>
</linearGradient>
<linearGradient id="paint85_linear_3_759" x1="148.782" y1="212.442" x2="262.586" y2="306.257" gradientUnits="userSpaceOnUse">
<stop stop-color="#FF1CF7"/>
<stop offset="1" stop-color="#00F0FF"/>
</linearGradient>
<linearGradient id="paint86_linear_3_759" x1="149.585" y1="211.468" x2="261.735" y2="307.254" gradientUnits="userSpaceOnUse">
<stop stop-color="#FF1CF7"/>
<stop offset="1" stop-color="#00F0FF"/>
</linearGradient>
<linearGradient id="paint87_linear_3_759" x1="150.406" y1="210.507" x2="260.867" y2="308.237" gradientUnits="userSpaceOnUse">
<stop stop-color="#FF1CF7"/>
<stop offset="1" stop-color="#00F0FF"/>
</linearGradient>
<linearGradient id="paint88_linear_3_759" x1="151.243" y1="209.562" x2="259.981" y2="309.204" gradientUnits="userSpaceOnUse">
<stop stop-color="#FF1CF7"/>
<stop offset="1" stop-color="#00F0FF"/>
</linearGradient>
<linearGradient id="paint89_linear_3_759" x1="152.096" y1="208.631" x2="259.079" y2="310.156" gradientUnits="userSpaceOnUse">
<stop stop-color="#FF1CF7"/>
<stop offset="1" stop-color="#00F0FF"/>
</linearGradient>
<linearGradient id="paint90_linear_3_759" x1="152.965" y1="207.715" x2="258.16" y2="311.092" gradientUnits="userSpaceOnUse">
<stop stop-color="#FF1CF7"/>
<stop offset="1" stop-color="#00F0FF"/>
</linearGradient>
<linearGradient id="paint91_linear_3_759" x1="153.85" y1="206.815" x2="257.225" y2="312.012" gradientUnits="userSpaceOnUse">
<stop stop-color="#FF1CF7"/>
<stop offset="1" stop-color="#00F0FF"/>
</linearGradient>
<linearGradient id="paint92_linear_3_759" x1="154.751" y1="205.93" x2="256.274" y2="312.915" gradientUnits="userSpaceOnUse">
<stop stop-color="#FF1CF7"/>
<stop offset="1" stop-color="#00F0FF"/>
</linearGradient>
<linearGradient id="paint93_linear_3_759" x1="155.667" y1="205.061" x2="255.308" y2="313.801" gradientUnits="userSpaceOnUse">
<stop stop-color="#FF1CF7"/>
<stop offset="1" stop-color="#00F0FF"/>
</linearGradient>
<linearGradient id="paint94_linear_3_759" x1="156.598" y1="204.208" x2="254.326" y2="314.671" gradientUnits="userSpaceOnUse">
<stop stop-color="#FF1CF7"/>
<stop offset="1" stop-color="#00F0FF"/>
</linearGradient>
<linearGradient id="paint95_linear_3_759" x1="157.544" y1="203.372" x2="253.329" y2="315.524" gradientUnits="userSpaceOnUse">
<stop stop-color="#FF1CF7"/>
<stop offset="1" stop-color="#00F0FF"/>
</linearGradient>
<linearGradient id="paint96_linear_3_759" x1="158.505" y1="202.552" x2="252.318" y2="316.358" gradientUnits="userSpaceOnUse">
<stop stop-color="#FF1CF7"/>
<stop offset="1" stop-color="#00F0FF"/>
</linearGradient>
<linearGradient id="paint97_linear_3_759" x1="159.48" y1="201.749" x2="251.292" y2="317.175" gradientUnits="userSpaceOnUse">
<stop stop-color="#FF1CF7"/>
<stop offset="1" stop-color="#00F0FF"/>
</linearGradient>
<linearGradient id="paint98_linear_3_759" x1="160.468" y1="200.963" x2="250.252" y2="317.973" gradientUnits="userSpaceOnUse">
<stop stop-color="#FF1CF7"/>
<stop offset="1" stop-color="#00F0FF"/>
</linearGradient>
<linearGradient id="paint99_linear_3_759" x1="161.47" y1="200.194" x2="249.198" y2="318.754" gradientUnits="userSpaceOnUse">
<stop stop-color="#FF1CF7"/>
<stop offset="1" stop-color="#00F0FF"/>
</linearGradient>
</defs>
</svg>
