<svg
              width="23"
              height="23"
              viewBox="0 0 24 24"
              fill="none"
              xmlns="http://www.w3.org/2000/svg"
            >
              <path
                d="M5.2688 9.75009C5.26752 8.86098 5.4422 7.98033 5.78278 7.15901C6.12335 6.33765 6.62305 5.59181 7.25293 4.9644C7.883 4.33699 8.63098 3.84041 9.45367 3.50327C10.2766 3.16617 11.1578 2.99515 12.047 3.00009C15.7595 3.02824 18.7313 6.11261 18.7313 9.83446V10.5001C18.7313 13.8564 19.4344 15.8064 20.0531 16.8751C20.1188 16.9889 20.1536 17.118 20.1536 17.2495C20.1538 17.3809 20.1194 17.51 20.0538 17.6239C19.9883 17.7379 19.894 17.8326 19.7805 17.8987C19.6667 17.9647 19.5377 17.9996 19.4064 18.0001H4.59387C4.4624 17.9996 4.33331 17.9647 4.21979 17.8987C4.10608 17.8326 4.01178 17.7379 3.94623 17.6239C3.88068 17.51 3.84625 17.3809 3.84644 17.2495C3.84662 17.118 3.88123 16.9889 3.94696 16.8751C4.56567 15.8064 5.2688 13.8564 5.2688 10.5001V9.75009Z"
                fill="var(--primary-color)"
                fillOpacity="0.1"
              />
              <path
                fillRule="evenodd"
                clipRule="evenodd"
                d="M4.51879 10.5001V9.75008C4.51879 9.75008 4.51669 8.25437 5.08994 6.87174C5.08994 6.87174 5.66319 5.4891 6.72376 4.43293C6.72376 4.43293 7.78433 3.37676 9.16934 2.80926C9.16934 2.80926 10.5544 2.24176 12.0511 2.25009C12.0511 2.25009 13.573 2.26162 14.9589 2.86961C14.9589 2.86961 16.2922 3.45457 17.3187 4.50894C17.3187 4.50894 18.3411 5.55919 18.9019 6.91345C18.9019 6.91345 19.4813 8.31283 19.4813 9.83445V10.5001C19.4813 10.5001 19.4813 14.3904 20.7022 16.4993C20.7022 16.4993 20.9033 16.8475 20.9037 17.2488C20.9037 17.2488 20.904 17.65 20.704 17.9978C20.704 17.9978 20.504 18.3456 20.1571 18.5471C20.1571 18.5471 19.8102 18.7487 19.4089 18.7501L4.59379 18.7501C4.59379 18.7501 4.18993 18.7487 3.843 18.5471C3.843 18.5471 3.49607 18.3456 3.29608 17.9978C3.29608 17.9978 3.09608 17.65 3.09644 17.2488C3.09644 17.2488 3.09679 16.8475 3.2974 16.5001C3.2974 16.5001 4.51879 14.3904 4.51879 10.5001ZM6.01879 10.5001C6.01879 10.5001 6.01879 14.7933 4.59644 17.2501L19.4036 17.2501C19.4036 17.2501 17.9813 14.7926 17.9813 10.5001V9.83445C17.9813 9.83445 17.9813 7.33991 16.2439 5.55528C16.2439 5.55528 14.5046 3.76872 12.0427 3.75007C12.0427 3.75007 10.8457 3.74341 9.73807 4.19726C9.73807 4.19726 8.63041 4.65112 7.78222 5.49579C7.78222 5.49579 6.93403 6.34046 6.47557 7.44623C6.47557 7.44623 6.01711 8.55199 6.01879 9.75008V10.5001Z"
                fill="var(--primary-color)"
              />
              <path
                d="M15.75 18.75V18C15.75 17.5858 15.4142 17.25 15 17.25C14.5858 17.25 14.25 17.5858 14.25 18V18.75C14.25 19.682 13.591 20.341 13.591 20.341C12.932 21 12 21 12 21C11.068 21 10.409 20.341 10.409 20.341C9.75 19.682 9.75 18.75 9.75 18.75V18C9.75 17.5858 9.41421 17.25 9 17.25C8.58579 17.25 8.25 17.5858 8.25 18L8.25 18.75C8.25 20.3033 9.34835 21.4016 9.34835 21.4016C10.4467 22.5 12 22.5 12 22.5C13.5533 22.5 14.6516 21.4017 14.6516 21.4017C15.75 20.3033 15.75 18.75 15.75 18.75Z"
                fill="var(--primary-color)"
              />
            </svg>