 <svg
    width="23"
    height="23"
    viewBox="0 0 24 24"
    fill="none"
    xmlns="http://www.w3.org/2000/svg"
>
    <path
    d="M21.9255 12.2275C21.9255 18.0265 17.2245 22.7275 11.4255 22.7275C5.62653 22.7275 0.925537 18.0265 0.925537 12.2275C0.925537 6.42855 5.62653 1.72754 11.4255 1.72754C17.2245 1.72754 21.9255 6.42855 21.9255 12.2275Z"
    
    fillOpacity="0.1"
    />
    <path
    fillRule="evenodd"
    clipRule="evenodd"
    d="M11.4255 0.852539C11.4255 0.852539 13.7392 0.852539 15.8535 1.7468C15.8535 1.7468 17.895 2.61028 19.4689 4.1842C19.4689 4.1842 21.0428 5.75812 21.9063 7.79961C21.9063 7.79961 22.8005 9.91389 22.8005 12.2275C22.8005 12.2275 22.8005 14.5412 21.9063 16.6555C21.9063 16.6555 21.0428 18.697 19.4689 20.2709C19.4689 20.2709 17.895 21.8448 15.8535 22.7083C15.8535 22.7083 13.7392 23.6025 11.4255 23.6025C11.4255 23.6025 9.11189 23.6025 6.99761 22.7083C6.99761 22.7083 4.95612 21.8448 3.3822 20.2709C3.3822 20.2709 1.80827 18.697 0.944801 16.6555C0.944801 16.6555 0.0505371 14.5412 0.0505371 12.2275C0.0505371 12.2275 0.0505371 9.91388 0.944801 7.79961C0.944801 7.79961 1.80828 5.75812 3.3822 4.1842C3.3822 4.1842 4.95612 2.61028 6.99761 1.7468C6.99761 1.7468 9.11188 0.852539 11.4255 0.852539ZM11.4255 2.60254C11.4255 2.60254 9.46676 2.60254 7.67932 3.35856C7.67932 3.35856 5.9522 4.08907 4.61964 5.42164C4.61964 5.42164 3.28707 6.7542 2.55656 8.48132C2.55656 8.48132 1.80054 10.2688 1.80054 12.2275C1.80054 12.2275 1.80054 14.1863 2.55656 15.9738C2.55656 15.9738 3.28707 17.7009 4.61963 19.0334C4.61963 19.0334 5.9522 20.366 7.67932 21.0965C7.67932 21.0965 9.46676 21.8525 11.4255 21.8525C11.4255 21.8525 13.3843 21.8525 15.1718 21.0965C15.1718 21.0965 16.8989 20.366 18.2314 19.0334C18.2314 19.0334 19.564 17.7009 20.2945 15.9738C20.2945 15.9738 21.0505 14.1863 21.0505 12.2275C21.0505 12.2275 21.0505 10.2688 20.2945 8.48132C20.2945 8.48132 19.564 6.7542 18.2314 5.42164C18.2314 5.42164 16.8989 4.08907 15.1718 3.35856C15.1718 3.35856 13.3843 2.60254 11.4255 2.60254Z"
    
    />
    <path
    d="M12.738 17.915C12.738 18.6399 12.1504 19.2275 11.4255 19.2275C10.7007 19.2275 10.113 18.6399 10.113 17.915C10.113 17.1902 10.7007 16.6025 11.4255 16.6025C12.1504 16.6025 12.738 17.1902 12.738 17.915Z"
    
    />
    <path
    d="M8.15163 7.85258C7.48804 8.84571 7.48804 10.0401 7.48804 10.0401C7.48804 10.5234 7.87979 10.9151 8.36304 10.9151C8.84629 10.9151 9.23804 10.5234 9.23804 10.0401C9.23804 9.37656 9.6067 8.82482 9.6067 8.82482C9.97536 8.27308 10.5884 8.01915 10.5884 8.01915C11.2015 7.76521 11.8523 7.89467 11.8523 7.89467C12.5031 8.02412 12.9723 8.49334 12.9723 8.49334C13.4415 8.96255 13.571 9.61337 13.571 9.61337C13.7005 10.2642 13.4465 10.8773 13.4465 10.8773C13.1926 11.4903 12.6408 11.859 12.6408 11.859C12.0891 12.2276 11.4255 12.2276 11.4255 12.2276C10.9423 12.2276 10.5505 12.6194 10.5505 13.1026V13.9776C10.5505 14.4609 10.9423 14.8526 11.4255 14.8526C11.9088 14.8526 12.3005 14.4609 12.3005 13.9776V13.8826C12.9957 13.7266 13.6131 13.314 13.6131 13.314C14.6062 12.6505 15.0633 11.5469 15.0633 11.5469C15.5204 10.4434 15.2874 9.27196 15.2874 9.27196C15.0544 8.10049 14.2098 7.2559 14.2098 7.2559C13.3652 6.41131 12.1937 6.17829 12.1937 6.17829C11.0222 5.94527 9.91872 6.40236 9.91872 6.40236C8.81521 6.85945 8.15163 7.85258 8.15163 7.85258Z"
    
    />
</svg>