<svg width="45" height="49" viewBox="0 0 45 49" fill="none" xmlns="http://www.w3.org/2000/svg">
                            <path d="M44.5 25C44.5 38.0096 34.6204 48.5 22.5 48.5C10.3796 48.5 0.5 38.0096 0.5 25C0.5 11.9904 10.3796 1.5 22.5 1.5C34.6204 1.5 44.5 11.9904 44.5 25Z" fill="black" fill-opacity="0.7" stroke="black" />
                            <circle cx="22.5" cy="22.5" r="22" fill="white" stroke="black" />
                            <path d="M33.5 23C33.5 28.799 28.799 33.5 23 33.5C17.201 33.5 12.5 28.799 12.5 23C12.5 17.201 17.201 12.5 23 12.5C28.799 12.5 33.5 17.201 33.5 23Z" fill="black" fill-opacity="0.1" />
                            <path fill-rule="evenodd" clip-rule="evenodd" d="M23 11.625C23 11.625 25.3137 11.625 27.4279 12.5193C27.4279 12.5193 29.4694 13.3827 31.0433 14.9567C31.0433 14.9567 32.6173 16.5306 33.4807 18.5721C33.4807 18.5721 34.375 20.6863 34.375 23C34.375 23 34.375 25.3136 33.4807 27.4279C33.4807 27.4279 32.6173 29.4694 31.0433 31.0433C31.0433 31.0433 29.4694 32.6173 27.4279 33.4807C27.4279 33.4807 25.3136 34.375 23 34.375C23 34.375 20.6863 34.375 18.5721 33.4807C18.5721 33.4807 16.5306 32.6173 14.9567 31.0433C14.9567 31.0433 13.3827 29.4694 12.5193 27.4279C12.5193 27.4279 11.625 25.3137 11.625 23C11.625 23 11.625 20.6863 12.5193 18.5721C12.5193 18.5721 13.3827 16.5306 14.9567 14.9567C14.9567 14.9567 16.5306 13.3827 18.5721 12.5193C18.5721 12.5193 20.6863 11.625 23 11.625ZM23 13.375C23 13.375 21.0412 13.375 19.2538 14.131C19.2538 14.131 17.5267 14.8615 16.1941 16.1941C16.1941 16.1941 14.8615 17.5267 14.131 19.2538C14.131 19.2538 13.375 21.0412 13.375 23C13.375 23 13.375 24.9588 14.131 26.7462C14.131 26.7462 14.8615 28.4733 16.1941 29.8059C16.1941 29.8059 17.5267 31.1385 19.2538 31.869C19.2538 31.869 21.0412 32.625 23 32.625C23 32.625 24.9588 32.625 26.7462 31.869C26.7462 31.869 28.4733 31.1385 29.8059 29.8059C29.8059 29.8059 31.1385 28.4733 31.869 26.7462C31.869 26.7462 32.625 24.9588 32.625 23C32.625 23 32.625 21.0412 31.869 19.2538C31.869 19.2538 31.1385 17.5267 29.8059 16.1941C29.8059 16.1941 28.4733 14.8615 26.7462 14.131C26.7462 14.131 24.9588 13.375 23 13.375Z" fill="#1C1C1C" />
                            <path d="M24.3125 28.6875C24.3125 29.4124 23.7248 30 23 30C22.2752 30 21.6875 29.4124 21.6875 28.6875C21.6875 27.9626 22.2752 27.375 23 27.375C23.7248 27.375 24.3125 27.9626 24.3125 28.6875Z" fill="#1C1C1C" />
                            <path d="M19.7261 18.6249C19.0625 19.618 19.0625 20.8125 19.0625 20.8125C19.0625 21.2957 19.4543 21.6875 19.9375 21.6875C20.4207 21.6875 20.8125 21.2957 20.8125 20.8125C20.8125 20.1489 21.1812 19.5972 21.1812 19.5972C21.5498 19.0454 22.1629 18.7915 22.1629 18.7915C22.7759 18.5375 23.4268 18.667 23.4268 18.667C24.0776 18.7965 24.5468 19.2657 24.5468 19.2657C25.016 19.7349 25.1455 20.3857 25.1455 20.3857C25.2749 21.0365 25.021 21.6496 25.021 21.6496C24.767 22.2627 24.2153 22.6313 24.2153 22.6313C23.6636 23 23 23 23 23C22.5168 23 22.125 23.3917 22.125 23.875V24.75C22.125 25.2332 22.5168 25.625 23 25.625C23.4832 25.625 23.875 25.2332 23.875 24.75V24.655C24.5702 24.4989 25.1876 24.0864 25.1876 24.0864C26.1807 23.4228 26.6378 22.3193 26.6378 22.3193C27.0949 21.2158 26.8618 20.0443 26.8618 20.0443C26.6288 18.8728 25.7842 18.0282 25.7842 18.0282C24.9396 17.1837 23.7682 16.9506 23.7682 16.9506C22.5967 16.7176 21.4932 17.1747 21.4932 17.1747C20.3897 17.6318 19.7261 18.6249 19.7261 18.6249Z" fill="#1C1C1C" />
                        </svg>