  <svg
                  width="24"
                  height="27"
                  viewBox="0 0 24 27"
                  fill="none"
                  xmlns="http://www.w3.org/2000/svg"
                >
                  <path
                    d="M23.5 13.3332C23.5 20.1572 18.3214 25.6332 12 25.6332C5.67863 25.6332 0.5 20.1572 0.5 13.3332C0.5 6.50921 5.67863 1.0332 12 1.0332C18.3214 1.0332 23.5 6.50921 23.5 13.3332Z"
                    fill="black"
                    fill-opacity="0.7"
                    stroke="black"
                  />
                  <circle
                    cx="12"
                    cy="12"
                    r="11.5"
                    fill="white"
                    stroke="black"
                  />
                  <path
                    d="M13.1996 16.8001V8.0001C13.1996 7.89399 13.1575 7.79229 13.0825 7.71724C13.0074 7.64224 12.9057 7.6001 12.7996 7.6001H7.99961C7.89352 7.6001 7.79178 7.64224 7.71677 7.71724C7.64175 7.79229 7.59961 7.89399 7.59961 8.0001V16.8001"
                    fill="black"
                    fill-opacity="0.1"
                  />
                  <path
                    d="M6.80039 17.1999H18.0004C18.2213 17.1999 18.4004 17.0208 18.4004 16.7999C18.4004 16.579 18.2213 16.3999 18.0004 16.3999H6.80039C6.57948 16.3999 6.40039 16.579 6.40039 16.7999C6.40039 17.0208 6.57948 17.1999 6.80039 17.1999Z"
                    fill="#1C1C1C"
                  />
                  <path
                    d="M7.2002 8.0002V16.8002C7.2002 17.0211 7.37928 17.2002 7.6002 17.2002C7.82111 17.2002 8.0002 17.0211 8.0002 16.8002V8.0002H12.8002V16.8002C12.8002 17.0211 12.9793 17.2002 13.2002 17.2002C13.4211 17.2002 13.6002 17.0211 13.6002 16.8002V8.0002C13.6002 7.66882 13.3659 7.43451 13.3659 7.43451C13.1316 7.2002 12.8002 7.2002 12.8002 7.2002H8.0002C7.66882 7.2002 7.43451 7.43451 7.43451 7.43451C7.2002 7.66882 7.2002 8.0002 7.2002 8.0002Z"
                    fill="#1C1C1C"
                  />
                  <path
                    d="M16.7998 10.3999H13.1998C12.9789 10.3999 12.7998 10.579 12.7998 10.7999C12.7998 11.0208 12.9789 11.1999 13.1998 11.1999H16.7998V16.7999C16.7998 17.0208 16.9789 17.1999 17.1998 17.1999C17.4207 17.1999 17.5998 17.0208 17.5998 16.7999V11.1999C17.5998 10.8685 17.3655 10.6342 17.3655 10.6342C17.1312 10.3999 16.7998 10.3999 16.7998 10.3999Z"
                    fill="#1C1C1C"
                  />
                  <path
                    d="M9.1998 10.0002H10.7998C11.0207 10.0002 11.1998 9.82111 11.1998 9.6002C11.1998 9.37928 11.0207 9.2002 10.7998 9.2002H9.1998C8.97889 9.2002 8.7998 9.37928 8.7998 9.6002C8.7998 9.82111 8.97889 10.0002 9.1998 10.0002Z"
                    fill="#1C1C1C"
                  />
                  <path
                    d="M9.99961 13.1999H11.5996C11.8205 13.1999 11.9996 13.0208 11.9996 12.7999C11.9996 12.579 11.8205 12.3999 11.5996 12.3999H9.99961C9.7787 12.3999 9.59961 12.579 9.59961 12.7999C9.59961 13.0208 9.7787 13.1999 9.99961 13.1999Z"
                    fill="#1C1C1C"
                  />
                  <path
                    d="M9.1998 15.1999H10.7998C11.0207 15.1999 11.1998 15.0208 11.1998 14.7999C11.1998 14.579 11.0207 14.3999 10.7998 14.3999H9.1998C8.97889 14.3999 8.7998 14.579 8.7998 14.7999C8.7998 15.0208 8.97889 15.1999 9.1998 15.1999Z"
                    fill="#1C1C1C"
                  />
                  <path
                    d="M14.4004 14.7999C14.4004 15.0208 14.5795 15.1999 14.8004 15.1999H15.6004C15.8213 15.1999 16.0004 15.0208 16.0004 14.7999C16.0004 14.579 15.8213 14.3999 15.6004 14.3999H14.8004C14.5795 14.3999 14.4004 14.579 14.4004 14.7999Z"
                    fill="#1C1C1C"
                  />
                  <path
                    d="M14.4004 12.7999C14.4004 13.0208 14.5795 13.1999 14.8004 13.1999H15.6004C15.8213 13.1999 16.0004 13.0208 16.0004 12.7999C16.0004 12.579 15.8213 12.3999 15.6004 12.3999H14.8004C14.5795 12.3999 14.4004 12.579 14.4004 12.7999Z"
                    fill="#1C1C1C"
                  />
                </svg>