 <svg
      class="vector"
      width="20"
      height="20"
      viewBox="0 0 20 20"
      fill="none"
      xmlns="http://www.w3.org/2000/svg"
    >
      <path
        d="M13.6206 7.46729C13.7648 7.32303 13.8462 7.12709 13.8462 6.92308C13.8462 6.71906 13.7651 6.52341 13.6209 6.37915L13.6142 6.37259C13.4706 6.23262 13.2775 6.15385 13.0769 6.15385C12.8729 6.15385 12.6773 6.23489 12.533 6.37915L10 8.91214L7.46701 6.37915C7.32275 6.23489 7.12709 6.15385 6.92308 6.15385C6.71906 6.15385 6.52341 6.23489 6.37915 6.37915C6.23489 6.52341 6.15385 6.71906 6.15385 6.92308C6.15385 7.12709 6.23489 7.32275 6.37915 7.46701L8.91214 10L6.37944 12.5327C6.23518 12.677 6.15385 12.8729 6.15385 13.0769C6.15385 13.0785 6.15385 13.08 6.15386 13.0815C6.15392 13.0923 6.15422 13.1031 6.15473 13.1139C6.16392 13.3049 6.24393 13.4856 6.37915 13.6209C6.52341 13.7651 6.71906 13.8462 6.92308 13.8462C7.12709 13.8462 7.32275 13.7651 7.46701 13.6209L10 11.0879L12.533 13.6209C12.6773 13.7651 12.8729 13.8462 13.0769 13.8462C13.2809 13.8462 13.4766 13.7651 13.6209 13.6209C13.7651 13.4766 13.8462 13.2809 13.8462 13.0769C13.8462 12.8729 13.7651 12.6773 13.6209 12.533L11.0879 10L13.6206 7.46729Z"
        fill="#1C1C1C"
      />
      <path
        fillRule="evenodd"
        clipRule="evenodd"
        d="M10 0C10 0 12.034 0 13.8927 0.786165C13.8927 0.786165 15.6874 1.54526 17.0711 2.92893C17.0711 2.92893 18.4547 4.3126 19.2138 6.10731C19.2138 6.10731 20 7.96602 20 10C20 10 20 12.034 19.2138 13.8927C19.2138 13.8927 18.4547 15.6874 17.0711 17.0711C17.0711 17.0711 15.6874 18.4547 13.8927 19.2138C13.8927 19.2138 12.034 20 10 20C10 20 7.96602 20 6.10731 19.2138C6.10731 19.2138 4.3126 18.4547 2.92893 17.0711C2.92893 17.0711 1.54526 15.6874 0.786166 13.8927C0.786166 13.8927 0 12.034 0 10C0 10 0 7.96602 0.786166 6.10731C0.786166 6.10731 1.54527 4.3126 2.92893 2.92893C2.92893 2.92893 4.3126 1.54526 6.10731 0.786165C6.10731 0.786165 7.96602 0 10 0ZM10 1.53846C10 1.53846 8.278 1.53846 6.70662 2.20309C6.70662 2.20309 5.18828 2.8453 4.01679 4.01679C4.01679 4.01679 2.8453 5.18827 2.2031 6.70662C2.2031 6.70662 1.53846 8.27799 1.53846 10C1.53846 10 1.53846 11.722 2.2031 13.2934C2.2031 13.2934 2.8453 14.8117 4.01679 15.9832C4.01679 15.9832 5.18828 17.1547 6.70662 17.7969C6.70662 17.7969 8.278 18.4615 10 18.4615C10 18.4615 11.722 18.4615 13.2934 17.7969C13.2934 17.7969 14.8117 17.1547 15.9832 15.9832C15.9832 15.9832 17.1547 14.8117 17.7969 13.2934C17.7969 13.2934 18.4615 11.722 18.4615 10C18.4615 10 18.4615 8.278 17.7969 6.70662C17.7969 6.70662 17.1547 5.18827 15.9832 4.01679C15.9832 4.01679 14.8117 2.8453 13.2934 2.2031C13.2934 2.2031 11.722 1.53846 10 1.53846Z"
        fill="#1C1C1C"
      />
    </svg>