 <svg
                width="24"
                height="27"
                viewBox="0 0 24 27"
                fill="none"
                xmlns="http://www.w3.org/2000/svg"
              >
                <path
                  d="M23.5 13.3332C23.5 20.1572 18.3214 25.6332 12 25.6332C5.67863 25.6332 0.5 20.1572 0.5 13.3332C0.5 6.50921 5.67863 1.0332 12 1.0332C18.3214 1.0332 23.5 6.50921 23.5 13.3332Z"
                  fill="var(--primary-color)"
                  fillOpacity="0.7"
                  stroke="var(--primary-color)"
                />
                <circle
                  cx="12"
                  cy="12"
                  r="11.5"
                  fill="white"
                  stroke="var(--primary-color)"
                />
                <path
                  d="M17.0688 12.2668C17.0688 14.9178 14.9197 17.0668 12.2688 17.0668C9.61777 17.0668 7.46875 14.9178 7.46875 12.2668C7.46875 9.61583 9.61777 7.4668 12.2688 7.4668C14.9197 7.4668 17.0688 9.61583 17.0688 12.2668Z"
                  fill="black"
                  fillOpacity="0.1"
                />
                <path
                  fillRule="evenodd"
                  clipRule="evenodd"
                  d="M12.2672 9.8667C12.2672 9.8667 13.2613 9.8667 13.9642 10.5696C13.9642 10.5696 14.6672 11.2726 14.6672 12.2667C14.6672 12.2667 14.6672 13.2608 13.9642 13.9638C13.9642 13.9638 13.2613 14.6667 12.2672 14.6667C12.2672 14.6667 11.2731 14.6667 10.5701 13.9638C10.5701 13.9638 9.86719 13.2608 9.86719 12.2667C9.86719 12.2667 9.86719 11.2726 10.5701 10.5696C10.5701 10.5696 11.2731 9.8667 12.2672 9.8667ZM12.2672 10.6667C12.2672 10.6667 11.6044 10.6667 11.1358 11.1353C11.1358 11.1353 10.6672 11.604 10.6672 12.2667C10.6672 12.2667 10.6672 12.9294 11.1358 13.3981C11.1358 13.3981 11.6044 13.8667 12.2672 13.8667C12.2672 13.8667 12.9299 13.8667 13.3986 13.3981C13.3986 13.3981 13.8672 12.9294 13.8672 12.2667C13.8672 12.2667 13.8672 11.604 13.3986 11.1353C13.3986 11.1353 12.9299 10.6667 12.2672 10.6667Z"
                  fill="black"
                />
                <path
                  d="M14.6673 12.2665V10.2665C14.6673 10.0456 14.4882 9.86651 14.2673 9.86651C14.0464 9.86651 13.8673 10.0456 13.8673 10.2665V12.2665C13.8673 13.2724 14.2526 13.8921 14.2526 13.8921C14.7341 14.6665 15.6673 14.6665 15.6673 14.6665C16.6005 14.6665 17.082 13.8921 17.082 13.8921C17.4673 13.2724 17.4673 12.2665 17.4673 12.2665C17.4668 10.4787 16.3672 9.0691 16.3672 9.0691C15.2675 7.65954 13.5336 7.22418 13.5336 7.22418C11.7996 6.78883 10.1646 7.51174 10.1646 7.51174C8.52947 8.23466 7.6846 9.81018 7.6846 9.81018C6.83972 11.3857 7.14228 13.1477 7.14228 13.1477C7.44484 14.9097 8.76691 16.1131 8.76691 16.1131C10.089 17.3165 11.8716 17.4526 11.8716 17.4526C13.6539 17.5886 15.1432 16.6 15.1432 16.6L15.1435 16.5998C15.2552 16.5256 15.3223 16.4005 15.3223 16.2665L15.3223 16.2637C15.3217 16.1859 15.2985 16.11 15.2555 16.0453C15.1814 15.9336 15.0563 15.8665 14.9223 15.8665L14.9194 15.8665C14.8417 15.8671 14.7658 15.8903 14.701 15.9333C13.4408 16.77 11.9324 16.6549 11.9324 16.6549C10.4241 16.5398 9.30543 15.5215 9.30543 15.5215C8.18675 14.5032 7.93074 13.0123 7.93074 13.0123C7.67473 11.5214 8.38962 10.1883 8.38962 10.1883C9.10452 8.85512 10.488 8.24342 10.488 8.24342C11.8716 7.63172 13.3388 8.0001 13.3388 8.0001C14.8059 8.36848 15.7364 9.56118 15.7364 9.56118C16.6669 10.7539 16.6673 12.2665 16.6673 12.2665C16.6673 13.044 16.4026 13.4697 16.4026 13.4697C16.1558 13.8665 15.6673 13.8665 15.6673 13.8665C15.1787 13.8665 14.932 13.4697 14.932 13.4697C14.6673 13.044 14.6673 12.2665 14.6673 12.2665Z"
                  fill="black"
                />
              </svg>