  <svg
              width="24"
              height="27"
              viewBox="0 0 24 27"
              fill="none"
              xmlns="http://www.w3.org/2000/svg"
            >
              <path
                d="M23.5 13.3332C23.5 20.1572 18.3214 25.6332 12 25.6332C5.67863 25.6332 0.5 20.1572 0.5 13.3332C0.5 6.50921 5.67863 1.0332 12 1.0332C18.3214 1.0332 23.5 6.50921 23.5 13.3332Z"
                fill="black"
                fill-opacity="0.7"
                stroke="black"
              />
              <circle cx="12" cy="12" r="11.5" fill="white" stroke="black" />
              <path
                d="M16.2339 12.4001L14.4169 14.2171C14.3419 14.2921 14.2996 14.394 14.2996 14.5001C14.2996 14.5065 14.2998 14.5129 14.3001 14.5193C14.3048 14.6186 14.3465 14.7126 14.4168 14.7829C14.4918 14.858 14.5935 14.9001 14.6996 14.9001C14.8057 14.9001 14.9074 14.858 14.9825 14.7829L17.0825 12.6829C17.1575 12.6079 17.1996 12.5062 17.1996 12.4001C17.1996 12.294 17.1575 12.1923 17.0825 12.1173L14.9825 10.0173C14.9074 9.94224 14.8057 9.9001 14.6996 9.9001C14.5935 9.9001 14.4918 9.94224 14.4168 10.0173C14.3418 10.0923 14.2996 10.194 14.2996 10.3001C14.2996 10.4062 14.3418 10.5079 14.4168 10.5829L16.2339 12.4001Z"
                fill="#1C1C1C"
              />
              <path
                d="M11.1996 12.8001H16.7996C17.0205 12.8001 17.1996 12.621 17.1996 12.4001C17.1996 12.1792 17.0205 12.0001 16.7996 12.0001H11.1996C10.9787 12.0001 10.7996 12.1792 10.7996 12.4001C10.7996 12.621 10.9787 12.8001 11.1996 12.8001Z"
                fill="#1C1C1C"
              />
              <path
                d="M8.39961 8.4001H11.1996C11.4205 8.4001 11.5996 8.22101 11.5996 8.0001C11.5996 7.77918 11.4205 7.6001 11.1996 7.6001H8.39961C8.06824 7.6001 7.83392 7.83441 7.83392 7.83441C7.59961 8.06873 7.59961 8.4001 7.59961 8.4001V16.4001C7.59961 16.7315 7.83392 16.9658 7.83392 16.9658C8.06824 17.2001 8.39961 17.2001 8.39961 17.2001H11.1996C11.4205 17.2001 11.5996 17.021 11.5996 16.8001C11.5996 16.5792 11.4205 16.4001 11.1996 16.4001H8.39961V8.4001Z"
                fill="#1C1C1C"
              />
            </svg>