<svg xmlns="http://www.w3.org/2000/svg" width="320" height="160" fill="none" viewBox="0 0 320 160">
  <path stroke="url(#a)" d="M105.148 330.647c-48.434-66.556-81.052-134.954-94.65-191.721C3.7 110.542 1.662 85.09 4.764 64.242c3.1-20.846 11.33-37.049 25.032-47.02 13.701-9.97 31.65-12.818 52.44-9.357 20.791 3.462 44.382 13.228 69.3 28.428 49.832 30.398 104.882 82.473 153.316 149.029 48.433 66.556 81.052 134.954 94.649 191.721 6.799 28.385 8.836 53.836 5.735 74.684-3.101 20.846-11.331 37.049-25.033 47.02-13.701 9.97-31.65 12.818-52.439 9.357-20.792-3.461-44.383-13.228-69.3-28.427-49.833-30.398-104.883-82.473-153.316-149.03Z"/>
  <path stroke="url(#b)" d="M103.896 328.894c-47.265-67.392-78.685-136.349-91.29-193.344-6.302-28.499-7.894-53.982-4.43-74.773C11.641 39.988 20.152 23.93 34.026 14.2 47.899 4.47 65.895 1.937 86.621 5.76c20.727 3.823 44.144 14 68.793 29.632 49.295 31.263 103.427 84.291 150.692 151.683 47.264 67.391 78.684 136.348 91.289 193.343 6.302 28.499 7.895 53.982 4.43 74.773-3.464 20.789-11.976 36.846-25.849 46.576-13.873 9.73-31.869 12.263-52.595 8.44-20.728-3.823-44.145-14-68.793-29.632-49.295-31.263-103.428-84.291-150.692-151.682Z"/>
  <path stroke="url(#c)" d="M102.672 327.118c-46.081-68.206-76.293-137.701-87.9-194.907-5.805-28.605-6.953-54.112-3.126-74.84 3.827-20.724 12.618-36.63 26.659-46.116C52.345 1.768 70.383-.451 91.039 3.733c20.658 4.185 43.894 14.769 68.265 30.829 48.742 32.118 101.941 86.083 148.022 154.289 46.081 68.206 76.293 137.701 87.901 194.908 5.804 28.604 6.952 54.111 3.125 74.838-3.827 20.725-12.618 36.631-26.658 46.118-14.041 9.486-32.079 11.705-52.735 7.521-20.658-4.185-43.893-14.769-68.265-30.829-48.742-32.118-101.941-86.083-148.022-154.289Z"/>
  <path stroke="url(#d)" d="M101.481 325.322c-44.883-69-73.878-139.012-84.485-196.412-5.304-28.702-6.007-54.225-1.818-74.882 4.187-20.655 13.254-36.405 27.458-45.645 14.205-9.24 32.278-11.144 52.858-6.6 20.582 4.545 43.629 15.533 67.717 32.015 48.174 32.965 100.423 87.849 145.306 156.849 44.884 69 73.879 139.012 84.486 196.412 5.304 28.702 6.007 54.225 1.818 74.882-4.187 20.655-13.254 36.405-27.459 45.645-14.204 9.24-32.277 11.144-52.857 6.6-20.582-4.545-43.629-15.532-67.717-32.015-48.174-32.965-100.423-87.849-145.307-156.849Z"/>
  <path stroke="url(#e)" d="M100.323 323.505c-43.672-69.773-71.44-140.28-81.045-197.857-4.802-28.79-5.059-54.321-.51-74.902 4.547-20.579 13.887-36.168 28.25-45.159C61.383-3.403 79.487-4.992 99.984-.089c20.5 4.903 43.352 16.291 67.148 33.192 47.591 33.8 98.875 89.588 142.547 159.361 43.673 69.773 71.441 140.28 81.045 197.857 4.803 28.789 5.059 54.321.511 74.902-4.547 20.579-13.888 36.168-28.251 45.159-14.363 8.99-32.467 10.579-52.964 5.676-20.5-4.903-43.352-16.291-67.149-33.192-47.591-33.8-98.874-89.588-142.547-159.361Z"/>
  <path stroke="url(#f)" d="M99.195 321.668c-42.448-70.524-68.981-141.505-77.58-199.241-4.298-28.869-4.11-54.4.797-74.9C27.318 27.032 36.93 11.608 51.447 2.87c14.519-8.74 32.647-10.012 53.056-4.752 20.41 5.26 43.061 17.045 66.558 34.359 46.994 34.625 97.296 91.3 139.745 161.824 42.448 70.524 68.981 141.505 77.579 199.241 4.299 28.869 4.11 54.401-.796 74.9-4.906 20.496-14.517 35.92-29.035 44.659-14.519 8.738-32.648 10.01-53.056 4.751-20.41-5.26-43.061-17.046-66.559-34.359-46.993-34.626-97.295-91.3-139.744-161.825Z"/>
  <path stroke="url(#g)" d="M98.099 319.812c-41.211-71.255-66.502-142.688-74.09-200.565-3.795-28.94-3.16-54.464 2.103-74.874C31.375 23.966 41.254 8.71 55.922.228c14.668-8.484 32.817-9.44 53.13-3.825 20.316 5.616 42.757 17.795 65.949 35.516 46.383 35.44 95.688 92.984 136.899 164.238 41.211 71.255 66.501 142.688 74.09 200.565 3.795 28.94 3.16 54.464-2.103 74.874-5.263 20.408-15.142 35.662-29.81 44.146-14.669 8.483-32.817 9.439-53.131 3.824-20.315-5.616-42.756-17.795-65.949-35.515-46.382-35.441-95.687-92.985-136.898-164.239Z"/>
  <path stroke="url(#h)" d="M97.037 317.937C57.076 245.974 33.036 174.111 26.458 116.11c-3.289-29.001-2.21-54.511 3.41-74.826C35.486 20.97 45.63 5.892 60.444-2.334c14.814-8.227 32.977-8.866 53.189-2.897 20.214 5.97 42.439 18.538 65.319 36.66 45.757 36.245 94.05 94.641 134.011 166.604 39.961 71.963 64.001 143.826 70.579 201.827 3.289 29.001 2.209 54.511-3.41 74.826-5.618 20.313-15.761 35.392-30.576 43.618-14.814 8.227-32.976 8.866-53.189 2.897-20.214-5.969-42.439-18.538-65.319-36.661-45.757-36.244-94.05-94.64-134.011-166.603Z"/>
  <path stroke="url(#i)" d="M96.007 316.044c-38.7-72.649-61.481-144.921-67.046-203.028-2.782-29.055-1.257-54.542 4.715-74.756C39.648 18.05 50.053 3.15 65.01-4.818c14.956-7.966 33.126-8.288 53.231-1.968 20.108 6.322 42.11 19.276 64.67 37.796 45.117 37.037 92.384 96.267 131.083 168.916s61.481 144.922 67.046 203.028c2.782 29.055 1.257 54.542-4.716 74.756-5.971 20.211-16.377 35.111-31.332 43.078-14.956 7.966-33.127 8.288-53.232 1.968-20.107-6.322-42.109-19.276-64.669-37.796-45.117-37.037-92.384-96.267-131.083-168.916Z"/>
  <path stroke="url(#j)" d="M95.01 314.133C57.584 240.819 36.067 168.16 31.518 109.965c-2.275-29.098-.306-54.555 6.019-74.661C43.86 15.2 54.524.484 69.617-7.221c15.092-7.704 33.265-7.71 53.257-1.039 19.994 6.672 41.767 20.008 64 38.919 44.464 37.819 90.69 97.864 128.115 171.178 37.425 73.313 58.943 145.972 63.492 204.167 2.275 29.099.306 54.556-6.019 74.662-6.323 20.104-16.987 34.82-32.079 42.525-15.093 7.704-33.266 7.709-53.258 1.038-19.994-6.671-41.767-20.008-64-38.918-44.464-37.819-90.69-97.865-128.115-171.178Z"/>
  <path stroke="url(#k)" d="M94.047 312.205c-36.14-73.956-56.386-146.979-59.92-205.245-1.766-29.134.648-54.552 7.322-74.545C48.123 12.425 59.04-2.104 74.266-9.543c15.224-7.44 33.395-7.128 53.268-.11 19.874 7.02 41.411 20.734 63.31 40.03 43.798 38.59 88.969 99.432 125.109 173.388s56.386 146.979 59.919 205.244c1.767 29.134-.647 54.553-7.321 74.546-6.674 19.99-17.593 34.518-32.817 41.958-15.225 7.44-33.396 7.127-53.268.109-19.874-7.019-41.411-20.734-63.311-40.029-43.797-38.59-88.968-99.433-125.108-173.388Z"/>
  <path stroke="url(#l)" d="M93.118 310.26C58.274 235.685 39.305 162.319 36.79 104.001c-1.258-29.16 1.598-54.533 8.62-74.406 7.022-19.871 18.193-34.206 33.545-41.38 15.352-7.172 33.515-6.543 53.261.821 19.749 7.365 41.043 21.454 62.603 41.129 43.117 39.348 87.219 100.97 122.063 175.545 34.844 74.575 53.812 147.94 56.328 206.259 1.258 29.16-1.598 54.532-8.621 74.406-7.021 19.871-18.192 34.206-33.544 41.379-15.352 7.173-33.515 6.543-53.261-.821-19.749-7.365-41.044-21.453-62.603-41.128-43.117-39.348-87.219-100.97-122.063-175.545Z"/>
  <path stroke="url(#m)" d="M92.223 308.299C58.686 233.128 41 159.442 39.503 101.089c-.749-29.178 2.55-54.497 9.918-74.245C56.788 7.1 68.208-7.039 83.683-13.943c15.474-6.904 33.623-5.957 53.239 1.75 19.617 7.709 40.662 22.167 61.875 42.215 42.424 40.094 85.444 102.477 118.981 177.648 33.537 75.172 51.222 148.857 52.72 207.211.749 29.178-2.55 54.496-9.919 74.244-7.367 19.746-18.786 33.884-34.261 40.788-15.475 6.904-33.624 5.957-53.239-1.75-19.617-7.709-40.662-22.167-61.875-42.215-42.424-40.094-85.444-102.477-118.981-177.649Z"/>
  <path stroke="url(#n)" d="M91.362 306.323c-32.22-75.745-48.617-149.728-49.096-208.099-.24-29.186 3.5-54.444 11.212-74.06C61.19 4.55 72.853-9.386 88.447-16.019c15.593-6.633 33.723-5.37 53.201 2.679 19.48 8.05 40.269 22.873 61.129 43.288 41.718 40.829 83.642 103.952 115.862 179.698 32.22 75.746 48.617 149.728 49.096 208.099.239 29.186-3.501 54.444-11.213 74.06-7.71 19.614-19.375 33.55-34.968 40.183-15.593 6.633-33.722 5.37-53.2-2.679-19.48-8.049-40.269-22.872-61.129-43.288-41.718-40.828-83.642-103.952-115.862-179.698Z"/>
  <path stroke="url(#o)" d="M90.535 304.333C59.642 228.036 44.539 153.779 45.079 95.408c.27-29.186 4.45-54.374 12.503-73.853C65.634 2.08 77.539-11.652 93.246-18.01c15.706-6.36 33.811-4.78 53.145 3.606 19.337 8.389 39.864 23.573 60.365 44.349 40.998 41.55 81.815 105.396 112.708 181.693 30.894 76.296 45.996 150.554 45.457 208.924-.27 29.186-4.451 54.374-12.504 73.853-8.052 19.476-19.957 33.207-35.664 39.567-15.706 6.359-33.811 4.78-53.145-3.607-19.337-8.389-39.864-23.572-60.364-44.349-40.999-41.55-81.816-105.396-112.71-181.692Z"/>
  <path stroke="url(#p)" d="M89.744 302.328C60.187 225.504 46.382 150.994 47.94 92.642c.779-29.177 5.398-54.288 13.79-73.623C70.12-.314 82.264-13.835 98.08-19.92c15.814-6.084 33.889-4.19 53.074 4.534 19.187 8.725 39.446 24.264 59.581 45.395 40.267 42.26 79.963 106.809 109.52 183.632 29.557 76.824 43.362 151.334 41.803 209.686-.779 29.177-5.399 54.289-13.79 73.624-8.391 19.333-20.534 32.854-36.349 38.938-15.815 6.085-33.89 4.19-53.075-4.534-19.187-8.724-39.446-24.264-59.581-45.395-40.267-42.26-79.963-106.808-109.52-183.632Z"/>
  <path stroke="url(#q)" d="M88.987 300.31C60.776 222.982 48.274 148.242 50.85 89.927c1.288-29.16 6.346-54.186 15.073-73.372 8.727-19.184 21.105-32.49 37.023-38.298 15.919-5.808 33.958-3.598 52.988 5.46 19.032 9.057 39.017 24.948 58.779 46.427C254.237 73.1 292.801 138.332 321.012 215.66c28.212 77.328 40.714 152.067 38.138 210.383-1.289 29.159-6.346 54.186-15.074 73.372-8.726 19.183-21.104 32.49-37.023 38.298-15.918 5.808-33.957 3.597-52.987-5.46-19.032-9.058-39.017-24.949-58.78-46.427-39.523-42.957-78.087-108.188-106.299-185.516Z"/>
  <path stroke="url(#r)" d="M88.266 298.278C61.41 220.47 50.213 145.523 53.806 87.262c1.798-29.132 7.291-54.067 16.352-73.098 9.06-19.028 21.668-32.117 37.686-37.646 16.018-5.529 34.015-3.004 52.884 6.383 18.871 9.39 38.576 25.627 57.96 47.447 38.768 43.64 76.188 109.534 103.046 187.343 26.857 77.808 38.053 152.755 34.459 211.017-1.797 29.132-7.29 54.067-16.351 73.097-9.06 19.028-21.668 32.117-37.686 37.646-16.018 5.529-34.015 3.004-52.884-6.383-18.871-9.389-38.576-25.626-57.96-47.447-38.768-43.639-76.188-109.534-103.046-187.343Z"/>
  <path stroke="url(#s)" d="M87.58 296.235C62.084 217.97 52.198 142.84 56.808 84.649c2.306-29.096 8.233-53.931 17.625-72.8 9.39-18.868 22.225-31.735 38.337-36.983 16.112-5.249 34.062-2.41 52.765 7.305 18.704 9.717 38.122 26.295 57.123 48.451 38.001 44.31 74.264 110.847 99.76 189.112C347.914 298 357.8 373.13 353.19 431.321c-2.305 29.096-8.233 53.931-17.625 72.8-9.391 18.868-22.225 31.735-38.337 36.983-16.112 5.249-34.062 2.41-52.764-7.305-18.705-9.717-38.123-26.296-57.124-48.451-38-44.31-74.264-110.847-99.76-189.113Z"/>
  <path stroke="url(#t)" d="M86.931 294.18c-24.126-78.699-32.7-153.99-27.074-212.09 2.812-29.052 9.172-53.78 18.892-72.483 9.719-18.7 22.776-31.341 38.977-36.308 16.201-4.967 34.099-1.816 52.629 8.225 18.532 10.042 37.658 26.957 56.269 49.44 37.222 44.966 72.318 112.127 96.444 190.825 24.126 78.699 32.7 153.99 27.075 212.091-2.813 29.052-9.173 53.78-18.893 72.482-9.719 18.701-22.775 31.342-38.976 36.308-16.201 4.967-34.1 1.816-52.629-8.225-18.532-10.041-37.658-26.956-56.27-49.44-37.221-44.966-72.318-112.126-96.444-190.825Z"/>
  <path stroke="url(#u)" d="M86.318 292.114C63.57 213.006 56.311 137.577 62.95 79.583 66.269 50.585 73.06 25.97 83.103 7.44c10.044-18.528 23.319-30.939 39.605-35.622 16.285-4.683 34.125-1.22 52.477 9.143 18.354 10.363 37.182 27.61 55.398 50.415 36.431 45.608 70.35 113.371 93.099 192.478 22.749 79.108 30.007 154.538 23.369 212.531-3.319 28.999-10.11 53.612-20.155 72.142-10.044 18.528-23.319 30.939-39.604 35.622s-34.126 1.22-52.478-9.142c-18.353-10.364-37.181-27.61-55.398-50.415-36.431-45.609-70.35-113.371-93.099-192.479Z"/>
  <path stroke="url(#v)" d="M85.74 290.038C64.376 210.545 58.435 135 66.084 77.131 69.91 48.195 77.128 23.704 87.495 5.352c10.365-18.35 23.856-30.527 40.22-34.925 16.365-4.399 34.142-.625 52.31 10.056 18.17 10.683 36.694 28.255 54.51 51.375 35.629 46.237 68.361 114.581 89.725 194.074 21.365 79.493 27.306 155.037 19.656 212.907-3.824 28.935-11.044 53.426-21.41 71.778-10.366 18.35-23.856 30.528-40.22 34.926-16.365 4.398-34.142.624-52.31-10.057-18.17-10.682-36.694-28.254-54.51-51.374-35.629-46.238-68.361-114.582-89.726-194.074Z"/>
  <path stroke="url(#w)" d="M85.198 287.951c-19.974-79.853-24.595-155.49-15.937-213.217 4.33-28.864 11.975-53.226 22.66-71.394 10.684-18.166 24.385-30.107 40.824-34.219 16.438-4.111 34.147-.028 52.126 10.969 17.981 10.998 36.196 28.89 53.605 52.318 34.817 46.852 66.351 115.757 86.325 195.61 19.974 79.854 24.595 155.49 15.937 213.217-4.329 28.865-11.975 53.226-22.66 71.395-10.684 18.166-24.385 30.106-40.823 34.218-16.439 4.112-34.148.028-52.127-10.968-17.981-10.998-36.195-28.891-53.604-52.318-34.817-46.852-66.351-115.757-86.326-195.611Z"/>
  <path stroke="url(#x)" d="M84.693 285.856C66.116 205.666 62.815 129.96 72.48 72.393c4.833-28.785 12.902-53.009 23.903-70.988 11-17.977 24.907-29.676 41.415-33.5 16.507-3.825 34.142.567 51.926 11.876 17.787 11.31 35.686 29.518 52.684 53.245 33.994 47.453 64.32 116.898 82.898 197.088 18.577 80.189 21.878 155.895 12.214 213.462-4.833 28.785-12.902 53.009-23.903 70.988-11 17.977-24.906 29.677-41.414 33.501-16.508 3.824-34.143-.568-51.927-11.876-17.787-11.31-35.686-29.518-52.684-53.246-33.994-47.452-64.32-116.897-82.898-197.087Z"/>
  <path stroke="url(#y)" d="M84.225 283.752C67.05 203.25 65.071 127.498 75.74 70.108c5.334-28.696 13.825-52.775 25.138-70.56 11.311-17.782 25.42-29.237 41.992-32.772 16.573-3.536 34.128 1.163 51.712 12.78 17.586 11.62 35.165 30.137 51.746 54.157 33.161 48.039 62.271 118.002 79.446 198.504 17.175 80.502 19.154 156.254 8.486 213.644-5.333 28.696-13.824 52.775-25.137 70.56-11.312 17.782-25.421 29.237-41.993 32.772-16.572 3.536-34.128-1.163-51.712-12.78-17.586-11.619-35.165-30.137-51.746-54.157-33.161-48.039-62.271-118.002-79.446-198.504Z"/>
  <path stroke="url(#z)" d="M83.795 281.64c-15.768-80.789-16.424-156.564-4.757-213.759 5.834-28.598 14.744-52.526 26.366-70.11 11.62-17.582 25.927-28.79 42.558-32.035 16.632-3.246 34.103 1.759 51.481 13.681 17.381 11.924 34.634 30.745 50.793 55.052 32.318 48.61 60.202 119.071 75.97 199.86 15.767 80.789 16.424 156.564 4.756 213.759-5.834 28.599-14.744 52.526-26.365 70.111-11.621 17.582-25.927 28.789-42.559 32.034-16.631 3.246-34.102-1.758-51.481-13.681-17.38-11.924-34.633-30.745-50.793-55.051C127.447 432.89 99.563 362.43 83.795 281.64Z"/>
  <path stroke="url(#A)" d="M83.4 279.521c-14.356-81.052-13.69-156.827-1.026-213.81 6.333-28.492 15.659-52.26 27.586-69.639 11.925-17.377 26.425-28.332 43.111-31.287 16.685-2.955 34.066 2.354 51.234 14.578 17.17 12.225 34.092 31.345 49.824 55.93 31.464 49.166 58.115 120.103 72.47 201.155 14.355 81.052 13.689 156.827 1.025 213.81-6.332 28.492-15.658 52.26-27.585 69.639-11.925 17.377-26.425 28.332-43.111 31.287-16.685 2.956-34.066-2.353-51.234-14.577-17.17-12.226-34.092-31.345-49.825-55.93-31.464-49.167-58.114-120.104-72.47-201.156Z"/>
  <path stroke="url(#B)" d="M83.042 277.396c-12.939-81.29-10.95-157.042 2.706-213.795 6.829-28.377 16.568-51.98 28.796-69.147 12.227-17.166 26.916-27.867 43.651-30.53 16.734-2.664 34.02 2.947 50.972 15.47 16.954 12.522 33.54 31.934 48.841 56.79 30.601 49.708 56.009 121.099 68.948 202.39 12.938 81.29 10.95 157.042-2.707 213.794-6.828 28.378-16.568 51.98-28.796 69.148-12.227 17.166-26.916 27.867-43.65 30.53-16.735 2.664-34.02-2.948-50.972-15.47-16.954-12.523-33.54-31.935-48.841-56.79-30.601-49.708-56.01-121.1-68.948-202.39Z"/>
  <path stroke="url(#C)" d="M82.722 275.264c-11.518-81.504-8.208-157.209 6.437-213.715 7.323-28.254 17.473-51.682 29.999-68.634 12.524-16.95 27.398-27.393 44.176-29.764 16.779-2.371 33.964 3.541 50.695 16.357 16.732 12.817 32.977 32.516 47.842 57.634 29.729 50.235 53.887 122.059 65.405 203.563 11.518 81.504 8.208 157.209-6.437 213.715-7.323 28.254-17.473 51.682-29.999 68.634-12.524 16.95-27.398 27.393-44.176 29.764-16.779 2.371-33.964-3.541-50.695-16.357-16.732-12.817-32.977-32.516-47.842-57.634-29.729-50.235-53.888-122.059-65.405-203.563Z"/>
  <path stroke="url(#D)" d="M82.44 273.128c-10.093-81.693-5.462-157.329 10.166-213.57 7.815-28.122 18.372-51.37 31.192-68.1 12.819-16.73 27.872-26.911 44.69-28.989 16.817-2.078 33.896 4.133 50.401 17.24 16.506 13.106 32.405 33.085 46.829 58.46 28.848 50.746 51.749 122.98 61.843 204.673 10.093 81.692 5.462 157.328-10.167 213.57-7.814 28.122-18.372 51.37-31.191 68.1-12.819 16.729-27.873 26.91-44.69 28.988-16.817 2.078-33.896-4.133-50.401-17.239-16.506-13.107-32.405-33.086-46.829-58.46-28.848-50.746-51.75-122.981-61.843-204.673Z"/>
  <path stroke="url(#E)" d="M82.194 270.986c-8.666-81.856-2.716-157.4 13.892-213.36 8.304-27.98 19.266-51.041 32.375-67.545 13.109-16.503 28.338-26.42 45.189-28.204 16.851-1.784 33.819 4.724 50.092 18.116 16.276 13.393 31.823 33.647 45.802 59.269 27.958 51.242 49.595 123.865 58.261 205.721 8.667 81.856 2.716 157.4-13.891 213.36-8.305 27.981-19.266 51.041-32.376 67.546-13.109 16.502-28.338 26.42-45.189 28.204-16.851 1.784-33.819-4.725-50.092-18.117-16.275-13.393-31.823-33.646-45.802-59.268-27.958-51.242-49.595-123.865-58.261-205.722Z"/>
  <path stroke="url(#F)" d="M81.985 268.841c-7.236-81.995.032-157.423 17.614-213.085 8.791-27.832 20.153-50.697 33.549-66.97 13.395-16.271 28.795-25.921 45.674-27.411 16.88-1.49 33.732 5.314 49.769 18.988 16.039 13.675 31.23 34.197 44.76 60.059 27.059 51.722 47.426 124.711 54.662 206.706 7.237 81.995-.031 157.424-17.613 213.086-8.792 27.832-20.154 50.697-33.55 66.97-13.394 16.271-28.794 25.921-45.674 27.411-16.879 1.49-33.731-5.314-49.768-18.988-16.039-13.675-31.231-34.197-44.761-60.059-27.059-51.722-47.425-124.712-54.662-206.707Z"/>
  <path stroke="url(#G)" d="M81.815 266.693c-5.805-82.109 2.779-157.399 21.329-212.746 9.276-27.674 21.036-50.338 34.714-66.374 13.676-16.035 29.242-25.415 46.145-26.61 16.903-1.195 33.633 5.902 49.43 19.853 15.798 13.953 30.628 34.737 43.705 60.832 26.152 52.186 45.242 125.52 51.046 207.629 5.805 82.108-2.779 157.399-21.329 212.745-9.276 27.674-21.036 50.338-34.714 66.375-13.676 16.035-29.242 25.414-46.145 26.609-16.903 1.195-33.634-5.902-49.43-19.853-15.798-13.953-30.629-34.737-43.705-60.831-26.152-52.187-45.242-125.521-51.046-207.629Z"/>
  <path stroke="url(#H)" d="M81.68 264.542c-4.37-82.198 5.526-157.327 25.04-212.341 9.757-27.508 21.911-49.963 35.867-65.759 13.954-15.794 29.681-24.9 46.602-25.8 16.921-.9 33.526 6.488 49.076 20.713 15.552 14.227 30.018 35.266 42.637 61.585 25.238 52.635 43.044 126.291 47.415 208.488 4.37 82.198-5.526 157.327-25.039 212.341-9.758 27.508-21.911 49.963-35.867 65.758-13.954 15.794-29.681 24.901-46.602 25.801-16.922.899-33.526-6.488-49.076-20.713-15.552-14.227-30.018-35.266-42.637-61.585-25.238-52.635-43.045-126.291-47.415-208.488Z"/>
  <path stroke="url(#I)" d="M81.586 262.388c-2.935-82.261 8.27-157.206 28.741-211.871 10.236-27.334 22.78-49.573 37.009-65.123 14.228-15.548 30.111-24.378 47.046-24.983 16.934-.604 33.407 7.072 48.707 21.567 15.301 14.496 29.398 35.784 41.556 62.319 24.315 53.067 40.833 127.023 43.768 209.284 2.936 82.261-8.27 157.206-28.741 211.872-10.236 27.333-22.779 49.573-37.008 65.122-14.228 15.548-30.112 24.379-47.046 24.983-16.935.604-33.407-7.072-48.707-21.566-15.301-14.496-29.398-35.785-41.556-62.32-24.315-53.067-40.834-127.022-43.769-209.284Z"/>
  <path stroke="url(#J)" d="M81.529 260.234c-1.5-82.3 11.013-157.038 32.435-211.338 10.711-27.15 23.641-49.168 38.139-64.467 14.497-15.297 30.532-23.85 47.475-24.158 16.942-.308 33.278 7.654 48.323 22.413 15.046 14.761 28.769 36.293 40.462 63.036 23.385 53.483 38.61 127.716 40.109 210.016 1.499 82.3-11.012 157.037-32.434 211.337-10.712 27.151-23.641 49.168-38.14 64.467-14.497 15.297-30.532 23.85-47.474 24.158-16.943.309-33.279-7.654-48.323-22.413-15.046-14.761-28.769-36.292-40.462-63.035-23.385-53.484-38.61-127.716-40.11-210.016Z"/>
  <path stroke="url(#K)" d="M81.508 258.078c-.063-82.313 13.752-156.821 36.118-210.739 11.183-26.96 24.495-48.748 39.259-63.791 14.761-15.042 30.944-23.313 47.889-23.326 16.945-.013 33.14 8.233 47.924 23.253 14.786 15.021 28.131 36.789 39.356 63.732 22.448 53.883 36.376 128.37 36.438 210.684.063 82.313-13.752 156.821-36.118 210.739-11.184 26.96-24.495 48.748-39.259 63.791-14.761 15.042-30.944 23.313-47.889 23.326-16.945.013-33.14-8.233-47.924-23.253-14.786-15.021-28.131-36.789-39.356-63.731-22.448-53.884-36.376-128.371-36.438-210.685Z"/>
  <path stroke="url(#L)" d="M81.525 255.923c1.374-82.302 16.487-156.558 39.79-210.077 11.653-26.76 25.343-48.313 40.367-63.096 15.021-14.782 31.346-22.77 48.288-22.487 16.943.283 32.992 8.81 47.512 24.086 14.521 15.277 27.485 37.274 38.237 64.409 21.505 54.267 34.13 128.986 32.756 211.288-1.374 82.302-16.487 156.558-39.79 210.077-11.653 26.76-25.343 48.313-40.367 63.096-15.021 14.782-31.346 22.77-48.288 22.487-16.943-.283-32.992-8.811-47.512-24.086-14.521-15.277-27.485-37.274-38.237-64.409-21.505-54.267-34.13-128.986-32.756-211.288Z"/>
  <path stroke="url(#M)" d="M81.579 253.769c2.81-82.266 19.216-156.246 43.451-209.35 12.117-26.554 26.182-47.864 41.461-62.383 15.277-14.518 31.738-22.219 48.674-21.64 16.935.578 32.832 9.385 47.083 24.91 14.253 15.529 26.831 37.75 37.108 65.067 20.554 54.635 31.873 129.562 29.063 211.828-2.81 82.265-19.216 156.246-43.45 209.35-12.118 26.553-26.182 47.864-41.462 62.383-15.277 14.517-31.738 22.219-48.673 21.64-16.936-.578-32.833-9.385-47.084-24.911-14.253-15.528-26.83-37.749-37.108-65.067-20.554-54.634-31.873-129.562-29.063-211.827Z"/>
  <path stroke="url(#N)" d="M81.672 251.615c4.246-82.204 21.94-155.887 47.098-208.56 12.579-26.338 27.013-47.399 42.543-61.65 15.529-14.248 32.122-21.66 49.044-20.787 16.923.874 32.664 9.957 46.642 25.73 13.98 15.774 26.167 38.21 35.967 65.703 19.597 54.985 29.607 130.099 25.362 212.303-4.246 82.204-21.941 155.887-47.098 208.56-12.579 26.338-27.013 47.399-42.544 61.65-15.528 14.248-32.121 21.661-49.044 20.787-16.923-.874-32.664-9.957-46.642-25.729-13.979-15.775-26.167-38.211-35.966-65.704-19.597-54.985-29.608-130.099-25.362-212.303Z"/>
  <path stroke="url(#O)" d="M81.802 249.464c5.68-82.118 24.658-155.48 50.731-207.707 13.037-26.114 27.836-46.92 43.613-60.897 15.775-13.976 32.495-21.098 49.399-19.929 16.905 1.17 32.485 10.526 46.186 26.54 13.702 16.016 25.496 38.661 34.814 66.322 18.635 55.318 27.333 130.595 21.653 212.712-5.679 82.118-24.658 155.481-50.73 207.707-13.037 26.114-27.837 46.92-43.613 60.897-15.775 13.976-32.495 21.098-49.4 19.929-16.905-1.169-32.485-10.526-46.186-26.54-13.702-16.016-25.496-38.661-34.814-66.322-18.635-55.318-27.332-130.595-21.653-212.712Z"/>
  <path stroke="url(#P)" d="M81.969 247.315c7.111-82.005 27.367-155.026 54.347-206.79 13.491-25.882 28.651-46.427 44.669-60.126 16.017-13.698 32.858-20.528 49.74-19.063 16.882 1.464 32.296 11.09 45.716 27.34 13.42 16.254 24.817 39.102 33.651 66.92 17.666 55.635 25.049 131.053 17.937 213.058-7.112 82.006-27.367 155.027-54.348 206.79-13.49 25.883-28.65 46.427-44.669 60.127-16.016 13.698-32.858 20.527-49.739 19.063-16.882-1.464-32.297-11.09-45.716-27.341-13.421-16.253-24.818-39.101-33.651-66.919-17.667-55.635-25.05-131.053-17.938-213.059Z"/>
  <path stroke="url(#Q)" d="M82.174 245.17c8.542-81.869 30.069-154.525 57.949-205.81 13.94-25.643 29.457-45.92 45.712-59.338 16.253-13.416 33.211-19.95 50.065-18.192 16.853 1.758 32.097 11.652 45.231 28.135 13.135 16.484 24.131 39.528 32.478 67.496 16.693 55.935 22.758 131.47 14.216 213.339s-30.068 154.525-57.948 205.809c-13.94 25.644-29.457 45.921-45.712 59.339-16.253 13.416-33.211 19.951-50.065 18.192-16.853-1.758-32.098-11.653-45.231-28.135-13.135-16.484-24.132-39.528-32.478-67.496-16.693-55.935-22.758-131.47-14.217-213.339Z"/>
  <path stroke="url(#R)" d="M82.417 243.028c9.97-81.708 32.761-153.977 61.531-204.767 14.386-25.396 30.254-45.399 46.741-58.531 16.484-13.131 33.554-19.368 50.374-17.316 16.821 2.052 31.89 12.21 44.734 28.92 12.845 16.711 23.438 39.943 31.295 68.053 15.714 56.218 20.46 131.847 10.491 213.555-9.97 81.707-32.761 153.976-61.532 204.766-14.385 25.396-30.253 45.4-46.74 58.532-16.485 13.131-33.554 19.368-50.375 17.316-16.82-2.053-31.889-12.211-44.733-28.921-12.845-16.711-23.438-39.943-31.296-68.052-15.714-56.218-20.46-131.847-10.49-213.555Z"/>
  <path stroke="url(#S)" d="M82.695 240.891C94.09 159.37 118.14 87.509 147.791 37.229c14.827-25.141 31.042-44.864 47.755-57.707 16.711-12.84 33.887-18.78 50.669-16.434 16.782 2.346 31.672 12.766 44.222 29.697 12.552 16.933 22.738 40.346 30.103 68.588 14.731 56.484 18.156 132.184 6.762 213.705-11.394 81.522-35.443 153.382-65.096 203.662-14.826 25.141-31.041 44.865-47.754 57.707-16.712 12.841-33.888 18.78-50.67 16.434-16.782-2.345-31.671-12.766-44.221-29.696-12.552-16.933-22.738-40.346-30.103-68.589-14.731-56.484-18.156-132.184-6.763-213.705Z"/>
  <path stroke="url(#T)" d="M83.013 238.759c12.815-81.31 38.115-152.74 68.64-202.495 15.263-24.878 31.82-44.315 48.755-56.864 16.933-12.548 34.21-18.186 50.948-15.548 16.739 2.639 31.444 13.317 43.697 30.464 12.254 17.15 22.03 40.737 28.901 69.104 13.743 56.732 15.847 132.48 3.032 213.79s-38.115 152.74-68.641 202.495c-15.263 24.878-31.819 44.316-48.754 56.865-16.933 12.547-34.21 18.185-50.949 15.547-16.738-2.638-31.444-13.317-43.696-30.464-12.255-17.149-22.03-40.737-28.902-69.104-13.742-56.731-15.846-132.48-3.031-213.79Z"/>
  <path stroke="url(#U)" d="M83.367 236.633C97.6 155.559 124.142 84.582 155.531 35.367c15.695-24.608 32.588-43.753 49.74-56.005 17.149-12.25 34.522-17.585 51.212-14.655 16.69 2.93 31.206 13.863 43.158 31.221 11.953 17.36 21.316 41.115 27.691 69.598 12.75 56.963 13.532 132.737-.7 213.811-14.232 81.074-40.775 152.051-72.164 201.265-15.695 24.609-32.588 43.754-49.74 56.006-17.149 12.25-34.522 17.585-51.212 14.655-16.69-2.93-31.206-13.863-43.158-31.222-11.953-17.36-21.316-41.114-27.691-69.597-12.75-56.963-13.532-132.737.7-213.811Z"/>
  <path stroke="url(#V)" d="M83.759 234.514C99.403 153.7 127.18 83.197 159.424 34.538c16.122-24.33 33.347-43.179 50.709-55.129 17.361-11.949 34.824-16.98 51.46-13.76 16.637 3.221 30.96 14.406 42.607 31.97 11.649 17.567 20.595 41.481 26.472 70.071 11.755 57.177 11.214 132.953-4.431 213.766-15.645 80.813-43.422 151.317-75.666 199.976-16.122 24.33-33.347 43.178-50.709 55.128-17.361 11.949-34.824 16.981-51.46 13.76-16.636-3.221-30.96-14.406-42.607-31.97-11.648-17.567-20.595-41.481-26.472-70.07-11.754-57.177-11.213-132.953 4.432-213.766Z"/>
  <path stroke="url(#W)" d="M84.187 232.401c17.053-80.528 46.056-150.536 79.144-198.625 16.544-24.045 34.095-42.59 51.664-54.235 17.566-11.644 35.115-16.37 51.692-12.86 16.578 3.511 30.704 14.945 42.043 32.71 11.34 17.767 19.867 41.834 25.245 70.521 10.754 57.374 8.891 133.129-8.162 213.656-17.053 80.528-46.056 150.536-79.144 198.625-16.544 24.046-34.095 42.59-51.664 54.235-17.566 11.644-35.114 16.37-51.692 12.86-16.577-3.511-30.704-14.944-42.042-32.709-11.34-17.767-19.868-41.834-25.246-70.522-10.754-57.373-8.89-133.128 8.162-213.656Z"/>
  <path stroke="url(#X)" d="M84.651 230.296c18.456-80.218 48.677-149.708 82.598-197.213 16.962-23.753 34.834-41.988 52.603-53.325 17.767-11.336 35.395-15.755 51.909-11.955 16.514 3.799 30.438 15.477 41.465 33.437 11.028 17.963 19.135 42.174 24.011 70.952 9.751 57.552 6.566 133.263-11.89 213.481-18.455 80.218-48.676 149.709-82.598 197.213-16.962 23.753-34.834 41.988-52.603 53.325-17.766 11.336-35.395 15.755-51.908 11.956-16.514-3.8-30.439-15.478-41.466-33.438-11.028-17.962-19.134-42.174-24.01-70.951-9.752-57.553-6.567-133.264 11.89-213.482Z"/>
  <path stroke="url(#Y)" d="M85.153 228.2c19.852-79.883 51.281-148.836 86.027-195.741 17.374-23.454 35.561-41.374 53.525-52.4 17.962-11.023 35.665-15.134 52.11-11.047s30.164 16.006 40.875 34.156c10.713 18.152 18.396 42.502 22.769 71.36 8.746 57.714 4.239 133.357-15.613 213.241-19.853 79.884-51.282 148.837-86.028 195.742-17.374 23.453-35.561 41.374-53.525 52.399-17.962 11.024-35.665 15.134-52.11 11.047-16.445-4.086-30.163-16.006-40.875-34.156-10.713-18.152-18.396-42.501-22.769-71.36-8.745-57.713-4.24-133.357 15.614-213.241Z"/>
  <path stroke="url(#Z)" d="M85.692 226.113c21.243-79.525 53.871-147.919 89.43-194.21 17.78-23.147 36.278-40.747 54.432-51.457 18.151-10.709 35.923-14.51 52.294-10.137 16.371 4.374 29.88 16.53 40.273 34.865 10.395 18.336 17.651 42.816 21.52 71.746 7.737 57.858 1.911 133.411-19.332 212.936-21.244 79.525-53.872 147.919-89.431 194.211-17.78 23.146-36.278 40.747-54.432 51.457-18.151 10.708-35.923 14.509-52.294 10.136-16.371-4.373-29.88-16.53-40.273-34.864-10.395-18.337-17.651-42.817-21.52-71.747-7.737-57.857-1.911-133.411 19.333-212.936Z"/>
  <path stroke="url(#aa)" d="M86.266 224.036c22.629-79.142 56.445-146.956 92.807-192.62 18.181-22.833 36.983-40.108 55.321-50.5 18.336-10.39 36.171-13.88 52.463-9.222 16.293 4.659 29.587 17.05 39.659 35.562 10.073 18.515 16.901 43.118 20.264 72.111 6.726 57.984-.417 133.424-23.046 212.567-22.628 79.142-56.444 146.956-92.806 192.62-18.182 22.833-36.983 40.107-55.321 50.499-18.336 10.39-36.171 13.88-52.464 9.222-16.292-4.658-29.586-17.049-39.658-35.562-10.073-18.515-16.901-43.118-20.264-72.111-6.727-57.984.417-133.424 23.045-212.566Z"/>
  <path stroke="url(#ab)" d="M86.877 221.969c24.006-78.735 59.001-145.949 96.154-190.971 18.577-22.512 37.677-39.456 56.194-49.526 18.514-10.069 36.408-13.247 52.616-8.305 16.209 4.942 29.285 17.563 39.032 36.248 9.748 18.688 16.146 43.407 19.003 72.454 5.713 58.092-2.746 133.396-26.752 212.132-24.007 78.735-59.001 145.948-96.154 190.971-18.577 22.512-37.678 39.456-56.194 49.526-18.515 10.068-36.408 13.247-52.617 8.305-16.208-4.942-29.284-17.563-39.032-36.249-9.748-18.688-16.145-43.406-19.002-72.453-5.714-58.093 2.745-133.397 26.752-212.132Z"/>
  <path stroke="url(#ac)" d="M87.523 219.913c25.377-78.304 61.539-144.897 99.472-189.264 18.968-22.185 38.361-38.793 57.05-48.538 18.688-9.744 36.634-12.61 52.754-7.386 16.119 5.225 28.973 18.072 38.393 36.925 9.421 18.855 15.386 43.681 17.735 72.774 4.699 58.183-5.073 133.328-30.45 211.633-25.377 78.304-61.539 144.896-99.472 189.263-18.968 22.185-38.361 38.793-57.05 48.538-18.687 9.744-36.634 12.61-52.753 7.386-16.12-5.224-28.974-18.072-38.394-36.925-9.42-18.855-15.386-43.681-17.735-72.774-4.699-58.183 5.073-133.328 30.45-211.632Z"/>
  <path stroke="url(#ad)" d="M88.205 217.868c26.74-77.849 64.059-143.8 102.761-187.499 19.351-21.85 39.031-38.117 57.888-47.534 18.854-9.417 36.848-11.969 52.874-6.464 16.026 5.505 28.654 18.574 37.743 37.589 9.09 19.016 14.621 43.943 16.463 73.072 3.682 58.257-7.4 133.22-34.139 211.069-26.74 77.85-64.059 143.801-102.761 187.499-19.351 21.85-39.031 38.117-57.888 47.535-18.855 9.416-36.848 11.968-52.874 6.464-16.026-5.505-28.654-18.575-37.743-37.589-9.09-19.017-14.621-43.943-16.463-73.073-3.682-58.256 7.4-133.219 34.14-211.069Z"/>
  <path stroke="url(#ae)" d="M88.924 215.836c28.094-77.371 66.558-142.66 106.016-185.677 19.73-21.509 39.691-37.43 58.71-46.517 19.016-9.086 37.051-11.324 52.978-5.54 15.928 5.783 28.326 19.071 37.082 38.242 8.757 19.172 13.852 44.191 15.184 73.348 2.666 58.312-9.723 133.07-37.817 210.441-28.094 77.371-66.559 142.661-106.017 185.677-19.73 21.509-39.691 37.43-58.709 46.517-19.016 9.086-37.051 11.324-52.979 5.541-15.928-5.784-28.325-19.072-37.081-38.242-8.757-19.173-13.852-44.192-15.185-73.349-2.665-58.312 9.723-133.07 37.818-210.441Z"/>
  <path stroke="url(#af)" d="M89.676 213.817c29.44-76.869 69.038-141.478 109.241-183.799 20.102-21.161 40.338-36.731 59.512-45.485 19.172-8.753 37.243-10.675 53.067-4.615 15.825 6.06 27.989 19.563 36.409 38.883 8.421 19.323 13.078 44.427 13.902 73.603 1.647 58.349-12.044 132.88-41.484 209.749-29.441 76.869-69.039 141.477-109.242 183.798-20.102 21.162-40.338 36.732-59.512 45.486-19.171 8.753-37.243 10.675-53.067 4.614-15.825-6.06-27.989-19.563-36.408-38.883-8.421-19.322-13.08-44.426-13.903-73.602-1.647-58.35 12.044-132.88 41.485-209.749Z"/>
  <path stroke="url(#ag)" d="M90.466 211.811c30.777-76.344 71.497-140.251 112.432-181.864 20.469-20.808 40.973-36.022 60.297-44.44 19.321-8.417 37.424-10.024 53.14-3.688 15.716 6.336 27.642 20.049 35.724 39.513 8.082 19.466 12.301 44.648 12.616 73.834.628 58.369-14.362 132.649-45.139 208.993-30.777 76.343-71.497 140.251-112.433 181.864-20.468 20.807-40.973 36.022-60.296 44.439-19.322 8.417-37.424 10.024-53.14 3.688-15.716-6.336-27.643-20.048-35.724-39.512-8.083-19.467-12.302-44.649-12.616-73.834-.628-58.37 14.361-132.65 45.139-208.993Z"/>
  <path stroke="url(#ah)" d="M91.288 209.819c32.105-75.795 73.933-138.982 115.589-179.874 20.829-20.447 41.596-35.302 61.063-43.381 19.466-8.078 37.593-9.369 53.196-2.76 15.604 6.61 27.289 20.528 35.029 40.13 7.742 19.605 11.521 44.856 11.326 74.043-.391 58.371-16.675 132.379-48.78 208.173-32.105 75.795-73.933 138.982-115.589 179.875-20.828 20.446-41.595 35.301-61.063 43.38-19.465 8.079-37.593 9.369-53.196 2.76-15.603-6.609-27.289-20.528-35.03-40.13-7.74-19.604-11.52-44.856-11.324-74.043.39-58.371 16.674-132.379 48.779-208.173Z"/>
  <path stroke="url(#ai)" d="M92.146 207.842c33.423-75.223 76.348-137.67 118.711-177.83 21.182-20.08 42.205-34.57 61.811-42.308 19.603-7.738 37.751-8.712 53.236-1.831 15.485 6.88 26.926 21 34.323 40.735 7.398 19.737 10.736 45.05 10.031 74.229-1.409 58.356-18.982 132.068-52.404 207.291-33.423 75.222-76.348 137.67-118.711 177.829-21.183 20.08-42.206 34.57-61.811 42.308-19.604 7.738-37.751 8.712-53.237 1.831-15.485-6.88-26.926-21.001-34.323-40.735-7.398-19.736-10.736-45.05-10.031-74.229 1.409-58.356 18.982-132.068 52.405-207.29Z"/>
  <path stroke="url(#aj)" d="M93.038 205.88c34.73-74.628 78.739-136.317 121.796-175.731 21.53-19.708 42.802-33.828 62.54-41.223 19.736-7.394 37.897-8.051 53.26-.902 15.363 7.15 26.556 21.468 33.607 41.328 7.053 19.863 9.948 45.231 8.735 74.393-2.428 58.322-21.285 131.717-56.015 206.344-34.731 74.628-78.739 136.317-121.796 175.731-21.53 19.708-42.803 33.828-62.54 41.223-19.736 7.394-37.898 8.052-53.26.902-15.364-7.15-26.556-21.468-33.608-41.328-7.052-19.863-9.947-45.231-8.734-74.393 2.427-58.322 21.284-131.717 56.015-206.344Z"/>
  <path stroke="url(#ak)" d="M93.964 203.934C129.99 129.923 175.07 69.012 218.808 30.356c21.871-19.33 43.386-33.077 63.25-40.126 19.862-7.049 38.032-7.389 53.268.028 15.236 7.417 26.177 21.928 32.881 41.908 6.705 19.983 9.157 45.398 7.434 74.535-3.444 58.27-23.579 131.324-59.607 205.335-36.028 74.01-81.106 134.922-124.845 173.578-21.87 19.329-43.386 33.076-63.25 40.125-19.861 7.049-38.031 7.389-53.267-.028-15.236-7.416-26.177-21.928-32.881-41.908-6.705-19.983-9.157-45.398-7.435-74.534 3.445-58.271 23.58-131.325 59.608-205.335Z"/>
  <path stroke="url(#al)" d="M94.925 202.004c37.314-73.37 83.449-133.486 127.856-171.373 22.204-18.944 43.956-32.314 63.94-39.015 19.982-6.701 38.155-6.724 53.259.957 15.104 7.682 25.79 22.382 32.145 42.476 6.355 20.097 8.363 45.55 6.132 74.653-4.461 58.201-25.868 130.893-63.182 204.263-37.314 73.371-83.448 133.486-127.855 171.373-22.204 18.944-43.956 32.314-63.94 39.016-19.982 6.7-38.155 6.723-53.26-.958-15.103-7.682-25.79-22.382-32.144-42.476-6.355-20.097-8.363-45.55-6.132-74.652 4.46-58.202 25.868-130.894 63.181-204.264Z"/>
  <path stroke="url(#am)" d="M95.92 200.091c38.588-72.708 85.765-132.009 130.826-169.115C249.277 12.422 271.26-.566 291.357-6.918c20.096-6.35 38.267-6.057 53.235 1.887C359.559 2.913 369.987 17.797 375.99 38c6.003 20.205 7.567 45.69 4.828 74.749-5.476 58.115-28.148 130.422-66.737 203.13-38.588 72.708-85.765 132.009-130.826 169.115-22.531 18.554-44.514 31.542-64.612 37.894-20.095 6.351-38.266 6.057-53.234-1.887-14.968-7.944-25.396-22.829-31.398-43.031-6.004-20.204-7.567-45.689-4.829-74.748 5.476-58.115 28.149-130.422 66.737-203.13Z"/>
  <path stroke="url(#an)" d="M96.947 198.197c39.851-72.024 88.056-130.493 133.757-166.807C253.556 13.233 275.762.63 295.968-5.37c20.203-6 38.366-5.388 53.193 2.816 14.827 8.204 24.993 23.268 30.642 43.572 5.65 20.306 6.769 45.814 3.524 74.821-6.49 58.01-30.421 129.91-70.272 201.934-39.852 72.023-88.056 130.492-133.758 166.806-22.852 18.158-45.058 30.76-65.263 36.76-20.204 6-38.367 5.388-53.194-2.815-14.827-8.204-24.993-23.268-30.642-43.572-5.65-20.306-6.768-45.815-3.524-74.821 6.49-58.011 30.42-129.911 70.272-201.934Z"/>
  <path stroke="url(#ao)" d="M98.006 196.32c41.102-71.317 90.32-128.936 136.648-164.447 23.166-17.756 45.588-29.969 65.895-35.615 20.305-5.646 38.455-4.718 53.136 3.744 14.682 8.46 24.584 23.7 29.877 44.1 5.295 20.401 5.968 45.925 2.218 74.871-7.501 57.888-32.683 129.36-73.786 200.677-41.103 71.316-90.32 128.935-136.649 164.446-23.165 17.756-45.587 29.969-65.895 35.616-20.304 5.646-38.454 4.717-53.136-3.744-14.68-8.461-24.583-23.701-29.877-44.1-5.294-20.402-5.968-45.926-2.217-74.871 7.501-57.889 32.683-129.36 73.786-200.677Z"/>
  <path stroke="url(#ap)" d="M99.098 194.462c42.341-70.589 92.557-127.34 139.498-162.037 23.472-17.349 46.104-29.169 66.507-34.46 20.4-5.29 38.531-4.046 53.062 4.67 14.532 8.717 24.166 24.127 29.103 44.615 4.938 20.491 5.166 46.023.91 74.899-8.51 57.749-34.935 128.77-77.276 199.358-42.341 70.589-92.557 127.34-139.498 162.037-23.472 17.349-46.104 29.169-66.507 34.46-20.4 5.291-38.53 4.046-53.062-4.67-14.532-8.717-24.166-24.126-29.103-44.615-4.938-20.491-5.166-46.023-.91-74.898 8.51-57.749 34.935-128.77 77.276-199.359Z"/>
  <path stroke="url(#aq)" d="M100.223 192.624c43.566-69.839 94.765-125.705 142.304-159.578 23.771-16.937 46.606-28.36 67.098-33.294 20.489-4.934 38.596-3.373 52.973 5.596 14.377 8.968 23.741 24.544 28.32 45.116 4.579 20.574 4.361 46.106-.397 74.903-9.517 57.591-37.178 128.14-80.744 197.979-43.567 69.839-94.765 125.705-142.305 159.578-23.771 16.936-46.606 28.36-67.098 33.294-20.49 4.934-38.596 3.373-52.973-5.596-14.377-8.969-23.74-24.544-28.32-45.116-4.579-20.574-4.361-46.106.398-74.903 9.516-57.591 37.177-128.14 80.744-197.979Z"/>
  <path stroke="url(#ar)" d="M101.38 190.805c44.779-69.068 96.945-124.032 145.068-157.07 24.063-16.52 47.094-27.542 67.669-32.118 20.572-4.575 38.649-2.699 52.867 6.52 14.219 9.218 23.309 24.954 27.528 45.603 4.22 20.65 3.557 46.175-1.704 74.884-10.52 57.417-39.408 127.473-84.187 196.541-44.779 69.068-96.944 124.032-145.068 157.069-24.063 16.52-47.094 27.542-67.668 32.118-20.573 4.576-38.65 2.699-52.868-6.519-14.218-9.218-23.309-24.955-27.528-45.603-4.22-20.651-3.556-46.175 1.704-74.885 10.52-57.417 39.409-127.472 84.187-196.54Z"/>
  <path stroke="url(#as)" d="M102.568 189.007c45.977-68.276 99.094-122.322 147.787-154.514 24.347-16.097 47.567-26.716 68.219-30.933 20.649-4.215 38.69-2.023 52.745 7.442s22.87 25.357 26.728 46.076c3.859 20.722 2.75 46.23-3.011 74.844-11.521 57.224-41.627 126.765-87.604 195.041-45.978 68.276-99.094 122.321-147.787 154.514-24.348 16.097-47.567 26.716-68.219 30.932-20.65 4.216-38.69 2.024-52.745-7.441-14.056-9.465-22.87-25.358-26.729-46.077-3.858-20.721-2.75-46.23 3.011-74.843 11.521-57.225 41.627-126.765 87.605-195.041Z"/>
  <path stroke="url(#at)" d="M103.786 187.229C150.948 119.766 205 66.656 254.247 35.319c24.625-15.67 48.027-25.883 68.749-29.738 20.719-3.854 38.719-1.348 52.607 8.36 13.888 9.71 22.424 25.754 25.92 46.537 3.496 20.785 1.943 46.271-4.317 74.779-12.517 57.015-43.833 126.02-90.995 193.483-47.161 67.463-101.213 120.573-150.461 151.911-24.624 15.67-48.026 25.882-68.748 29.737-20.72 3.855-38.72 1.348-52.607-8.361-13.889-9.708-22.425-25.752-25.92-46.536-3.497-20.785-1.943-46.271 4.316-74.779 12.518-57.015 43.833-126.019 90.995-193.483Z"/>
  <path stroke="url(#au)" d="M105.038 185.474c48.332-66.63 103.303-118.788 153.089-149.262 24.895-15.238 48.471-25.04 69.257-28.533 20.784-3.492 38.737-.672 52.454 9.278 13.716 9.95 21.971 26.14 25.104 46.981 3.133 20.843 1.134 46.298-5.621 74.693-13.511 56.787-46.026 125.235-94.358 191.865-48.332 66.63-103.303 118.788-153.09 149.262-24.894 15.237-48.47 25.04-69.257 28.532-20.783 3.493-38.737.673-52.453-9.277-13.717-9.95-21.971-26.14-25.104-46.981-3.133-20.844-1.135-46.298 5.621-74.693 13.511-56.788 46.026-125.235 94.358-191.865Z"/>
  <path stroke="url(#av)" d="M106.319 183.74c49.487-65.776 105.36-116.967 155.671-146.567 25.156-14.8 48.9-24.19 69.744-27.32 20.842-3.129 38.743.004 52.284 10.192 13.541 10.187 21.512 26.52 24.28 47.412 2.769 20.895.326 46.311-6.924 74.583-14.5 56.543-48.204 124.413-97.692 190.189-49.487 65.777-105.36 116.968-155.671 146.568-25.157 14.801-48.9 24.19-69.744 27.32-20.842 3.129-38.743-.004-52.284-10.192-13.54-10.188-21.512-26.52-24.28-47.412-2.769-20.895-.326-46.311 6.924-74.584 14.5-56.543 48.204-124.412 97.692-190.189Z"/>
  <path stroke="url(#aw)" d="M107.629 182.03c50.628-64.903 107.385-115.111 158.205-143.829 25.411-14.36 49.315-23.333 70.21-26.098 20.893-2.765 38.737.68 52.098 11.102 13.361 10.423 21.046 26.892 23.449 47.83 2.404 20.94-.482 46.308-8.224 74.45-15.485 56.282-50.368 123.553-100.997 188.455-50.628 64.903-107.385 115.111-158.205 143.829-25.411 14.359-49.315 23.333-70.21 26.098-20.893 2.765-38.737-.68-52.098-11.103C8.496 482.342.81 465.873-1.593 444.936c-2.403-20.94.483-46.31 8.225-74.451C22.117 314.203 57.001 246.932 107.63 182.03Z"/>
  <path stroke="url(#ax)" d="M108.97 180.341c51.753-64.009 109.378-113.219 160.691-141.045 25.658-13.914 49.715-22.469 70.655-24.869 20.938-2.4 38.719 1.356 51.896 12.01s20.573 27.254 22.611 48.23c2.038 20.98-1.29 46.295-9.523 74.297-16.464 56.003-52.517 122.655-104.27 186.664-51.753 64.009-109.378 113.219-160.691 141.045-25.658 13.914-49.715 22.469-70.655 24.869-20.938 2.4-38.72-1.356-51.896-12.01C4.61 478.878-2.785 462.278-4.823 441.301c-2.038-20.979 1.29-46.294 9.523-74.296 16.464-56.002 52.517-122.655 104.27-186.664Z"/>
  <path stroke="url(#ay)" d="M110.339 178.678c52.862-63.097 111.338-111.293 163.129-138.22 25.896-13.464 50.099-21.598 71.078-23.632 20.977-2.034 38.69 2.032 51.679 12.914 12.989 10.882 20.094 27.61 21.765 48.618 1.672 21.011-2.097 46.264-10.817 74.119-17.44 55.706-54.65 121.719-107.512 184.815-52.862 63.096-111.338 111.293-163.129 138.22-25.896 13.463-50.099 21.597-71.078 23.632-20.977 2.034-38.69-2.032-51.679-12.914C.786 475.348-6.319 458.62-7.99 437.612c-1.672-21.011 2.097-46.265 10.817-74.119 17.44-55.707 54.65-121.719 107.512-184.815Z"/>
  <path stroke="url(#az)" d="M111.738 177.037C165.693 114.873 225 67.704 277.254 41.686c26.127-13.01 50.468-20.72 71.48-22.388 21.009-1.668 38.648 2.706 51.445 13.814 12.797 11.107 19.609 27.955 20.914 48.99 1.304 21.037-2.905 46.221-12.11 73.919-18.409 55.394-56.766 120.747-110.721 182.911-53.955 62.164-113.263 109.333-165.516 135.351-26.128 13.01-50.468 20.72-71.48 22.388-21.009 1.668-38.648-2.706-51.445-13.814-12.797-11.107-19.61-27.955-20.914-48.99-1.304-21.037 2.905-46.221 12.11-73.919 18.409-55.394 56.765-120.747 110.721-182.911Z"/>
  <path stroke="url(#aA)" d="M113.165 175.422c55.032-61.213 115.153-107.34 167.853-132.442 26.35-12.552 50.822-19.836 71.859-21.137 21.035-1.301 38.596 3.38 51.197 14.71 12.601 11.328 19.118 28.293 20.055 49.347.938 21.057-3.711 46.163-13.397 73.696-19.373 55.064-58.865 119.738-113.897 180.951-55.032 61.213-115.153 107.34-167.853 132.442-26.35 12.552-50.822 19.836-71.86 21.137-21.035 1.301-38.595-3.38-51.196-14.709-12.601-11.329-19.119-28.294-20.056-49.348-.937-21.057 3.712-46.163 13.398-73.696 19.373-55.064 58.865-119.738 113.897-180.951Z"/>
  <path stroke="url(#aB)" d="M114.62 173.832c56.092-60.243 117.01-105.314 170.139-129.493 26.566-12.09 51.161-18.946 72.218-19.88 21.054-.933 38.53 4.054 50.932 15.601 12.402 11.548 18.622 28.623 19.191 49.691.569 21.07-4.516 46.091-14.682 73.451-20.331 54.718-60.945 118.692-117.037 178.935-56.092 60.243-117.009 105.314-170.139 129.493-26.566 12.09-51.16 18.946-72.218 19.88-21.054.933-38.53-4.054-50.932-15.601-12.401-11.547-18.621-28.623-19.19-49.691-.57-21.07 4.515-46.091 14.681-73.451C17.914 298.05 58.528 234.075 114.62 173.832Z"/>
  <path stroke="url(#aC)" d="M116.102 172.267c57.135-59.255 118.83-103.255 172.373-126.503 26.773-11.625 51.484-18.05 72.554-18.617 21.067-.566 38.454 4.726 50.652 16.488s18.119 28.943 18.321 50.018c.202 21.076-5.32 46.005-15.962 73.183-21.283 54.355-63.007 117.611-120.142 176.866-57.135 59.255-118.829 103.255-172.373 126.503-26.772 11.625-51.483 18.051-72.553 18.617-21.068.565-38.454-4.726-50.652-16.488-12.199-11.762-18.12-28.944-18.321-50.018-.202-21.076 5.32-46.005 15.961-73.183 21.283-54.355 63.007-117.611 120.142-176.866Z"/>
  <path stroke="url(#aD)" d="M117.611 170.729c58.16-58.249 120.613-101.166 174.554-123.476 26.972-11.156 51.791-17.15 72.868-17.347 21.074-.199 38.365 5.395 50.356 17.368 11.991 11.973 17.612 29.256 17.445 50.33-.166 21.077-6.122 45.906-17.236 72.894-22.228 53.975-65.05 116.494-123.21 174.742-58.161 58.249-120.614 101.166-174.555 123.476-26.971 11.156-51.79 17.149-72.867 17.347-21.075.199-38.366-5.395-50.357-17.368-11.991-11.973-17.611-29.256-17.445-50.33.166-21.077 6.122-45.906 17.236-72.894 22.228-53.975 65.05-116.493 123.211-174.742Z"/>
  <path stroke="url(#aE)" d="M119.147 169.217c59.168-57.225 122.361-99.046 176.683-120.411 27.162-10.683 52.082-16.242 73.159-16.073 21.075.17 38.266 6.065 50.046 18.245 11.78 12.18 17.098 29.559 16.564 50.627-.534 21.071-6.922 45.792-18.506 72.582-23.167 53.578-67.073 115.34-126.241 172.565-59.168 57.225-122.361 99.045-176.683 120.411-27.162 10.683-52.082 16.242-73.16 16.072-21.074-.169-38.264-6.064-50.045-18.245-11.78-12.18-17.098-29.558-16.564-50.626.534-21.071 6.922-45.792 18.506-72.582 23.167-53.579 67.073-115.34 126.241-172.565Z"/>
  <path stroke="url(#aF)" d="M120.71 167.732c60.158-56.183 124.071-96.895 178.757-117.309 27.345-10.207 52.358-15.33 73.429-14.793 21.068.537 38.154 6.731 49.72 19.115 11.566 12.384 16.579 29.853 15.678 50.909-.902 21.058-7.721 45.663-19.77 72.247-24.098 53.167-69.076 114.152-129.234 170.336-60.158 56.183-124.071 96.895-178.757 117.309-27.345 10.207-52.358 15.331-73.429 14.793-21.068-.537-38.154-6.731-49.72-19.115-11.566-12.384-16.58-29.853-15.678-50.908.902-21.059 7.72-45.664 19.77-72.248 24.099-53.166 69.076-114.152 129.234-170.336Z"/>
  <path stroke="url(#aG)" d="M122.299 166.275C183.428 111.15 248.042 71.56 303.076 52.104c27.519-9.729 52.618-14.415 73.676-13.51 21.056.905 38.03 7.396 49.378 19.98 11.348 12.584 16.057 30.137 14.788 51.174-1.269 21.04-8.516 45.522-21.028 71.892-25.023 52.738-71.058 112.929-132.187 168.054-61.129 55.125-125.743 94.715-180.777 114.171-27.519 9.729-52.618 14.415-73.676 13.51-21.056-.905-38.03-7.396-49.379-19.98-11.348-12.584-16.056-30.137-14.787-51.174 1.27-21.04 8.516-45.522 21.028-71.892C15.135 281.592 61.17 221.4 122.299 166.275Z"/>
  <path stroke="url(#aH)" d="M123.912 164.845c62.082-54.049 127.376-92.505 182.742-110.998 27.684-9.247 52.861-13.495 73.9-12.222 21.037 1.272 37.896 8.059 49.023 20.839 11.126 12.78 15.527 30.413 13.892 51.424-1.636 21.014-9.31 45.367-22.28 71.514-25.939 52.293-73.018 111.672-135.099 165.722-62.082 54.049-127.377 92.505-182.743 110.998-27.684 9.247-52.86 13.495-73.9 12.222-21.037-1.272-37.896-8.058-49.022-20.839-11.127-12.78-15.528-30.413-13.892-51.424 1.636-21.014 9.309-45.367 22.279-71.514 25.94-52.293 73.018-111.672 135.1-165.722Z"/>
  <path stroke="url(#aI)" d="M125.549 163.445C188.564 110.486 254.52 73.175 310.2 55.652c27.841-8.762 53.089-12.57 74.103-10.93 21.011 1.639 37.749 8.719 48.651 21.691 10.902 12.972 14.994 30.68 12.992 51.659-2.003 20.982-10.1 45.197-23.524 71.114-26.848 51.832-74.956 110.381-137.971 163.339-63.016 52.958-128.972 90.268-184.652 107.792-27.841 8.763-53.089 12.57-74.102 10.931-21.012-1.64-37.75-8.719-48.651-21.692-10.902-12.972-14.995-30.679-12.993-51.659 2.003-20.982 10.1-45.197 23.524-71.114 26.848-51.832 74.956-110.38 137.972-163.338Z"/>
  <path stroke="url(#aJ)" d="M127.211 162.073c63.93-51.851 130.528-88.004 186.505-104.554 27.99-8.275 53.3-11.641 74.282-9.636 20.979 2.006 37.591 9.377 48.265 22.538 10.674 13.16 14.457 30.936 12.089 51.878-2.369 20.944-10.887 45.014-24.762 70.693-27.748 51.355-76.87 109.055-140.801 160.905-63.93 51.85-130.527 88.004-186.505 104.554-27.99 8.275-53.3 11.641-74.281 9.635-20.98-2.005-37.592-9.376-48.266-22.537s-14.456-30.936-12.088-51.878c2.368-20.944 10.886-45.014 24.761-70.693 27.748-51.355 76.87-109.055 140.801-160.905Z"/>
  <path stroke="url(#aK)" d="M128.896 160.729c64.825-50.726 132.043-85.712 188.301-101.283 28.13-7.785 53.495-10.709 74.438-8.337 20.942 2.371 37.422 10.031 47.865 23.376 10.442 13.345 13.915 31.184 11.181 52.081-2.733 20.9-11.67 44.817-25.991 70.25-28.64 50.863-78.762 107.697-143.588 158.424-64.825 50.726-132.043 85.712-188.301 101.283-28.13 7.785-53.495 10.709-74.439 8.337-20.94-2.371-37.421-10.031-47.864-23.376-10.443-13.345-13.915-31.184-11.182-52.081 2.734-20.9 11.671-44.817 25.992-70.25 28.64-50.863 78.762-107.697 143.588-158.424Z"/>
  <path stroke="url(#aL)" d="M130.606 159.416c65.701-49.588 133.519-83.395 190.04-97.98 28.262-7.294 53.674-9.775 74.573-7.038 20.896 2.736 37.241 10.683 47.449 24.208 10.208 13.525 13.368 31.422 10.271 52.268-3.098 20.849-12.451 44.607-27.214 69.786-29.523 50.355-80.63 106.306-146.33 155.893-65.701 49.588-133.52 83.395-190.04 97.981-28.262 7.294-53.674 9.775-74.573 7.038-20.897-2.737-37.242-10.683-47.45-24.208-10.208-13.526-13.368-31.422-10.27-52.269 3.097-20.848 12.45-44.606 27.213-69.785 29.524-50.356 80.63-106.306 146.331-155.894Z"/>
  <path stroke="url(#aM)" d="M132.338 158.133c66.556-48.434 134.954-81.053 191.721-94.65 28.385-6.799 53.836-8.836 74.684-5.734 20.846 3.1 37.049 11.33 47.02 25.032 9.97 13.701 12.818 31.65 9.357 52.439-3.462 20.792-13.228 44.383-28.428 69.3-30.398 49.833-82.472 104.883-149.029 153.317-66.556 48.433-134.954 81.052-191.721 94.649-28.385 6.799-53.836 8.836-74.684 5.735-20.846-3.101-37.05-11.331-47.02-25.033-9.97-13.701-12.818-31.65-9.357-52.439 3.462-20.792 13.228-44.383 28.427-69.3 30.399-49.833 82.473-104.883 149.03-153.316Z"/>
  <path stroke="url(#aN)" d="M134.091 156.879c67.392-47.264 136.349-78.684 193.344-91.288 28.499-6.303 53.982-7.896 74.773-4.43 20.789 3.463 36.846 11.975 46.575 25.848 9.73 13.874 12.264 31.87 8.441 52.595-3.824 20.728-14 44.145-29.632 68.793-31.263 49.295-84.291 103.428-151.683 150.692-67.391 47.265-136.348 78.685-193.344 91.289-28.498 6.303-53.982 7.895-74.772 4.431-20.789-3.465-36.846-11.976-46.576-25.849-9.73-13.874-12.264-31.87-8.44-52.595 3.823-20.728 14-44.145 29.632-68.794 31.263-49.294 84.29-103.427 151.682-150.692Z"/>
  <path stroke="url(#aO)" d="M135.866 155.658c68.207-46.081 137.701-76.293 194.908-87.9 28.605-5.805 54.112-6.953 74.839-3.126 20.725 3.827 36.631 12.617 46.117 26.658 9.486 14.041 11.706 32.079 7.522 52.735-4.185 20.658-14.769 43.893-30.829 68.265-32.119 48.742-86.083 101.941-154.289 148.022-68.206 46.081-137.701 76.293-194.908 87.901-28.604 5.804-54.111 6.952-74.839 3.124-20.724-3.826-36.63-12.617-46.117-26.658-9.486-14.041-11.706-32.078-7.521-52.734 4.185-20.658 14.768-43.894 30.828-68.265 32.119-48.742 86.083-101.941 154.289-148.022Z"/>
  <path stroke="url(#aP)" d="M137.663 154.467c69-44.884 139.012-73.878 196.412-84.486 28.702-5.304 54.225-6.006 74.882-1.818 20.655 4.188 36.405 13.254 45.645 27.459 9.24 14.204 11.144 32.278 6.6 52.857-4.545 20.582-15.532 43.63-32.015 67.717-32.965 48.174-87.849 100.423-156.849 145.307-69 44.884-139.012 73.878-196.412 84.486-28.702 5.304-54.225 6.006-74.882 1.818-20.655-4.188-36.405-13.255-45.645-27.459-9.24-14.205-11.144-32.278-6.6-52.858 4.545-20.581 15.533-43.629 32.015-67.717 32.965-48.174 87.85-100.423 156.849-145.306Z"/>
  <path stroke="url(#aQ)" d="M139.48 153.307c69.773-43.673 140.279-71.44 197.856-81.045 28.79-4.802 54.322-5.06 74.903-.511 20.578 4.547 36.168 13.888 45.158 28.251 8.991 14.364 10.579 32.468 5.677 52.965-4.903 20.499-16.292 43.352-33.192 67.148-33.801 47.591-89.589 98.874-159.361 142.547-69.773 43.673-140.28 71.441-197.857 81.045-28.79 4.802-54.321 5.059-74.902.511-20.579-4.548-36.169-13.888-45.159-28.251-8.99-14.364-10.58-32.468-5.676-52.965 4.903-20.499 16.291-43.352 33.192-67.148 33.8-47.591 89.588-98.874 159.361-142.547Z"/>
  <path stroke="url(#aR)" d="M141.318 152.179c70.524-42.448 141.505-68.981 199.241-77.58 28.869-4.299 54.401-4.11 74.899.797 20.497 4.906 35.921 14.517 44.659 29.035 8.739 14.518 10.011 32.647 4.751 53.055-5.26 20.411-17.045 43.061-34.359 66.559-34.625 46.994-91.3 97.296-161.824 139.744-70.524 42.448-141.505 68.982-199.241 77.58-28.87 4.299-54.401 4.11-74.9-.797-20.496-4.906-35.92-14.517-44.659-29.035-8.738-14.518-10.01-32.647-4.75-53.055 5.26-20.411 17.045-43.061 34.358-66.559 34.626-46.994 91.3-97.296 161.825-139.744Z"/>
  <path stroke="url(#aS)" d="M143.172 151.084c71.254-41.211 142.687-66.502 200.564-74.09 28.94-3.795 54.465-3.16 74.875 2.103 20.407 5.263 35.661 15.142 44.145 29.81 8.484 14.669 9.439 32.817 3.824 53.13-5.615 20.316-17.794 42.757-35.515 65.949-35.441 46.383-92.984 95.688-164.239 136.899-71.254 41.211-142.687 66.501-200.564 74.09-28.94 3.795-54.465 3.16-74.875-2.103-20.407-5.263-35.661-15.142-44.145-29.81-8.484-14.669-9.44-32.817-3.825-53.131 5.616-20.315 17.795-42.756 35.516-65.948 35.44-46.383 92.984-95.688 164.239-136.899Z"/>
  <path stroke="url(#aT)" d="M145.047 150.022c71.963-39.962 143.826-64.002 201.827-70.58 29.001-3.288 54.511-2.208 74.826 3.41 20.313 5.619 35.392 15.762 43.619 30.577 8.226 14.814 8.865 32.976 2.896 53.188-5.969 20.215-18.538 42.44-36.661 65.319-36.244 45.757-94.64 94.051-166.603 134.012-71.962 39.961-143.826 64.001-201.827 70.579-29.001 3.289-54.511 2.209-74.826-3.41-20.313-5.618-35.392-15.762-43.618-30.576-8.227-14.814-8.866-32.977-2.897-53.189 5.97-20.215 18.538-42.44 36.661-65.319 36.245-45.757 94.64-94.05 166.603-134.011Z"/>
  <path stroke="url(#aU)" d="M146.94 148.992c72.649-38.699 144.921-61.482 203.028-67.046 29.055-2.782 54.542-1.258 74.755 4.715 20.212 5.972 35.112 16.377 43.078 31.333 7.967 14.955 8.289 33.126 1.968 53.231-6.321 20.108-19.275 42.11-37.795 64.669-37.038 45.118-96.267 92.385-168.916 131.084-72.65 38.699-144.922 61.481-203.028 67.045-29.055 2.783-54.542 1.258-74.756-4.715-20.211-5.972-35.111-16.377-43.078-31.332-7.966-14.956-8.288-33.127-1.968-53.232 6.321-20.107 19.276-42.109 37.796-64.669C15.06 234.958 74.29 187.691 146.94 148.992Z"/>
  <path stroke="url(#aV)" d="M148.853 147.995c73.313-37.425 145.972-58.943 204.167-63.492 29.099-2.275 54.555-.305 74.662 6.019 20.104 6.324 34.82 16.987 42.524 32.08 7.705 15.092 7.709 33.266 1.039 53.257-6.671 19.994-20.008 41.767-38.918 64-37.82 44.464-97.865 90.69-171.179 128.116-73.313 37.425-145.972 58.942-204.167 63.492-29.099 2.275-54.555.305-74.662-6.019-20.104-6.324-34.82-16.988-42.524-32.08-7.705-15.092-7.71-33.266-1.039-53.258 6.671-19.994 20.008-41.767 38.918-63.999 37.82-44.465 97.865-90.69 171.179-128.116Z"/>
  <defs>
    <linearGradient id="a" x1="263.135" x2="143.881" y1="214.916" y2="301.698" gradientUnits="userSpaceOnUse">
      <stop stop-color="#FF1CF7"/>
      <stop offset="1" stop-color="#00F0FF"/>
    </linearGradient>
    <linearGradient id="b" x1="263.879" x2="143.128" y1="215.937" y2="300.624" gradientUnits="userSpaceOnUse">
      <stop stop-color="#FF1CF7"/>
      <stop offset="1" stop-color="#00F0FF"/>
    </linearGradient>
    <linearGradient id="c" x1="264.602" x2="142.392" y1="216.971" y2="299.538" gradientUnits="userSpaceOnUse">
      <stop stop-color="#FF1CF7"/>
      <stop offset="1" stop-color="#00F0FF"/>
    </linearGradient>
    <linearGradient id="d" x1="265.309" x2="141.676" y1="218.017" y2="298.439" gradientUnits="userSpaceOnUse">
      <stop stop-color="#FF1CF7"/>
      <stop offset="1" stop-color="#00F0FF"/>
    </linearGradient>
    <linearGradient id="e" x1="265.999" x2="140.981" y1="219.076" y2="297.327" gradientUnits="userSpaceOnUse">
      <stop stop-color="#FF1CF7"/>
      <stop offset="1" stop-color="#00F0FF"/>
    </linearGradient>
    <linearGradient id="f" x1="266.668" x2="140.304" y1="220.147" y2="296.204" gradientUnits="userSpaceOnUse">
      <stop stop-color="#FF1CF7"/>
      <stop offset="1" stop-color="#00F0FF"/>
    </linearGradient>
    <linearGradient id="g" x1="267.318" x2="139.646" y1="221.228" y2="295.069" gradientUnits="userSpaceOnUse">
      <stop stop-color="#FF1CF7"/>
      <stop offset="1" stop-color="#00F0FF"/>
    </linearGradient>
    <linearGradient id="h" x1="267.951" x2="139.009" y1="222.322" y2="293.924" gradientUnits="userSpaceOnUse">
      <stop stop-color="#FF1CF7"/>
      <stop offset="1" stop-color="#00F0FF"/>
    </linearGradient>
    <linearGradient id="i" x1="268.563" x2="138.392" y1="223.426" y2="292.766" gradientUnits="userSpaceOnUse">
      <stop stop-color="#FF1CF7"/>
      <stop offset="1" stop-color="#00F0FF"/>
    </linearGradient>
    <linearGradient id="j" x1="269.156" x2="137.795" y1="224.54" y2="291.598" gradientUnits="userSpaceOnUse">
      <stop stop-color="#FF1CF7"/>
      <stop offset="1" stop-color="#00F0FF"/>
    </linearGradient>
    <linearGradient id="k" x1="269.731" x2="137.219" y1="225.665" y2="290.42" gradientUnits="userSpaceOnUse">
      <stop stop-color="#FF1CF7"/>
      <stop offset="1" stop-color="#00F0FF"/>
    </linearGradient>
    <linearGradient id="l" x1="270.285" x2="136.663" y1="226.8" y2="289.233" gradientUnits="userSpaceOnUse">
      <stop stop-color="#FF1CF7"/>
      <stop offset="1" stop-color="#00F0FF"/>
    </linearGradient>
    <linearGradient id="m" x1="270.82" x2="136.128" y1="227.944" y2="288.035" gradientUnits="userSpaceOnUse">
      <stop stop-color="#FF1CF7"/>
      <stop offset="1" stop-color="#00F0FF"/>
    </linearGradient>
    <linearGradient id="n" x1="271.334" x2="135.614" y1="229.097" y2="286.828" gradientUnits="userSpaceOnUse">
      <stop stop-color="#FF1CF7"/>
      <stop offset="1" stop-color="#00F0FF"/>
    </linearGradient>
    <linearGradient id="o" x1="271.827" x2="135.121" y1="230.259" y2="285.613" gradientUnits="userSpaceOnUse">
      <stop stop-color="#FF1CF7"/>
      <stop offset="1" stop-color="#00F0FF"/>
    </linearGradient>
    <linearGradient id="p" x1="272.301" x2="134.65" y1="231.43" y2="284.389" gradientUnits="userSpaceOnUse">
      <stop stop-color="#FF1CF7"/>
      <stop offset="1" stop-color="#00F0FF"/>
    </linearGradient>
    <linearGradient id="q" x1="272.754" x2="134.2" y1="232.609" y2="283.158" gradientUnits="userSpaceOnUse">
      <stop stop-color="#FF1CF7"/>
      <stop offset="1" stop-color="#00F0FF"/>
    </linearGradient>
    <linearGradient id="r" x1="273.187" x2="133.771" y1="233.795" y2="281.918" gradientUnits="userSpaceOnUse">
      <stop stop-color="#FF1CF7"/>
      <stop offset="1" stop-color="#00F0FF"/>
    </linearGradient>
    <linearGradient id="s" x1="273.598" x2="133.363" y1="234.989" y2="280.672" gradientUnits="userSpaceOnUse">
      <stop stop-color="#FF1CF7"/>
      <stop offset="1" stop-color="#00F0FF"/>
    </linearGradient>
    <linearGradient id="t" x1="273.99" x2="132.979" y1="236.189" y2="279.418" gradientUnits="userSpaceOnUse">
      <stop stop-color="#FF1CF7"/>
      <stop offset="1" stop-color="#00F0FF"/>
    </linearGradient>
    <linearGradient id="u" x1="274.36" x2="132.617" y1="237.396" y2="278.157" gradientUnits="userSpaceOnUse">
      <stop stop-color="#FF1CF7"/>
      <stop offset="1" stop-color="#00F0FF"/>
    </linearGradient>
    <linearGradient id="v" x1="274.709" x2="132.276" y1="238.61" y2="276.891" gradientUnits="userSpaceOnUse">
      <stop stop-color="#FF1CF7"/>
      <stop offset="1" stop-color="#00F0FF"/>
    </linearGradient>
    <linearGradient id="w" x1="275.036" x2="131.956" y1="239.83" y2="275.619" gradientUnits="userSpaceOnUse">
      <stop stop-color="#FF1CF7"/>
      <stop offset="1" stop-color="#00F0FF"/>
    </linearGradient>
    <linearGradient id="x" x1="275.341" x2="131.659" y1="241.055" y2="274.342" gradientUnits="userSpaceOnUse">
      <stop stop-color="#FF1CF7"/>
      <stop offset="1" stop-color="#00F0FF"/>
    </linearGradient>
    <linearGradient id="y" x1="275.626" x2="131.384" y1="242.285" y2="273.059" gradientUnits="userSpaceOnUse">
      <stop stop-color="#FF1CF7"/>
      <stop offset="1" stop-color="#00F0FF"/>
    </linearGradient>
    <linearGradient id="z" x1="275.89" x2="131.134" y1="243.52" y2="271.772" gradientUnits="userSpaceOnUse">
      <stop stop-color="#FF1CF7"/>
      <stop offset="1" stop-color="#00F0FF"/>
    </linearGradient>
    <linearGradient id="A" x1="276.131" x2="130.903" y1="244.759" y2="270.481" gradientUnits="userSpaceOnUse">
      <stop stop-color="#FF1CF7"/>
      <stop offset="1" stop-color="#00F0FF"/>
    </linearGradient>
    <linearGradient id="B" x1="276.35" x2="130.696" y1="246.003" y2="269.186" gradientUnits="userSpaceOnUse">
      <stop stop-color="#FF1CF7"/>
      <stop offset="1" stop-color="#00F0FF"/>
    </linearGradient>
    <linearGradient id="C" x1="276.549" x2="130.512" y1="247.25" y2="267.887" gradientUnits="userSpaceOnUse">
      <stop stop-color="#FF1CF7"/>
      <stop offset="1" stop-color="#00F0FF"/>
    </linearGradient>
    <linearGradient id="D" x1="276.727" x2="130.352" y1="248.5" y2="266.586" gradientUnits="userSpaceOnUse">
      <stop stop-color="#FF1CF7"/>
      <stop offset="1" stop-color="#00F0FF"/>
    </linearGradient>
    <linearGradient id="E" x1="276.881" x2="130.213" y1="249.753" y2="265.282" gradientUnits="userSpaceOnUse">
      <stop stop-color="#FF1CF7"/>
      <stop offset="1" stop-color="#00F0FF"/>
    </linearGradient>
    <linearGradient id="F" x1="277.013" x2="130.096" y1="251.009" y2="263.975" gradientUnits="userSpaceOnUse">
      <stop stop-color="#FF1CF7"/>
      <stop offset="1" stop-color="#00F0FF"/>
    </linearGradient>
    <linearGradient id="G" x1="277.124" x2="130.003" y1="252.267" y2="262.667" gradientUnits="userSpaceOnUse">
      <stop stop-color="#FF1CF7"/>
      <stop offset="1" stop-color="#00F0FF"/>
    </linearGradient>
    <linearGradient id="H" x1="277.212" x2="129.932" y1="253.527" y2="261.358" gradientUnits="userSpaceOnUse">
      <stop stop-color="#FF1CF7"/>
      <stop offset="1" stop-color="#00F0FF"/>
    </linearGradient>
    <linearGradient id="I" x1="277.28" x2="129.886" y1="254.788" y2="260.047" gradientUnits="userSpaceOnUse">
      <stop stop-color="#FF1CF7"/>
      <stop offset="1" stop-color="#00F0FF"/>
    </linearGradient>
    <linearGradient id="J" x1="277.326" x2="129.862" y1="256.05" y2="258.736" gradientUnits="userSpaceOnUse">
      <stop stop-color="#FF1CF7"/>
      <stop offset="1" stop-color="#00F0FF"/>
    </linearGradient>
    <linearGradient id="K" x1="277.348" x2="129.86" y1="257.312" y2="257.424" gradientUnits="userSpaceOnUse">
      <stop stop-color="#FF1CF7"/>
      <stop offset="1" stop-color="#00F0FF"/>
    </linearGradient>
    <linearGradient id="L" x1="277.348" x2="129.881" y1="258.575" y2="256.113" gradientUnits="userSpaceOnUse">
      <stop stop-color="#FF1CF7"/>
      <stop offset="1" stop-color="#00F0FF"/>
    </linearGradient>
    <linearGradient id="M" x1="277.326" x2="129.924" y1="259.838" y2="254.802" gradientUnits="userSpaceOnUse">
      <stop stop-color="#FF1CF7"/>
      <stop offset="1" stop-color="#00F0FF"/>
    </linearGradient>
    <linearGradient id="N" x1="277.283" x2="129.992" y1="261.099" y2="253.492" gradientUnits="userSpaceOnUse">
      <stop stop-color="#FF1CF7"/>
      <stop offset="1" stop-color="#00F0FF"/>
    </linearGradient>
    <linearGradient id="O" x1="277.219" x2="130.082" y1="262.36" y2="252.184" gradientUnits="userSpaceOnUse">
      <stop stop-color="#FF1CF7"/>
      <stop offset="1" stop-color="#00F0FF"/>
    </linearGradient>
    <linearGradient id="P" x1="277.13" x2="130.193" y1="263.621" y2="250.878" gradientUnits="userSpaceOnUse">
      <stop stop-color="#FF1CF7"/>
      <stop offset="1" stop-color="#00F0FF"/>
    </linearGradient>
    <linearGradient id="Q" x1="277.022" x2="130.33" y1="264.878" y2="249.573" gradientUnits="userSpaceOnUse">
      <stop stop-color="#FF1CF7"/>
      <stop offset="1" stop-color="#00F0FF"/>
    </linearGradient>
    <linearGradient id="R" x1="276.89" x2="130.488" y1="266.134" y2="248.271" gradientUnits="userSpaceOnUse">
      <stop stop-color="#FF1CF7"/>
      <stop offset="1" stop-color="#00F0FF"/>
    </linearGradient>
    <linearGradient id="S" x1="276.736" x2="130.668" y1="267.388" y2="246.972" gradientUnits="userSpaceOnUse">
      <stop stop-color="#FF1CF7"/>
      <stop offset="1" stop-color="#00F0FF"/>
    </linearGradient>
    <linearGradient id="T" x1="276.561" x2="130.872" y1="268.638" y2="245.677" gradientUnits="userSpaceOnUse">
      <stop stop-color="#FF1CF7"/>
      <stop offset="1" stop-color="#00F0FF"/>
    </linearGradient>
    <linearGradient id="U" x1="276.365" x2="131.098" y1="269.886" y2="244.385" gradientUnits="userSpaceOnUse">
      <stop stop-color="#FF1CF7"/>
      <stop offset="1" stop-color="#00F0FF"/>
    </linearGradient>
    <linearGradient id="V" x1="276.146" x2="131.347" y1="271.129" y2="243.097" gradientUnits="userSpaceOnUse">
      <stop stop-color="#FF1CF7"/>
      <stop offset="1" stop-color="#00F0FF"/>
    </linearGradient>
    <linearGradient id="W" x1="275.907" x2="131.618" y1="272.369" y2="241.814" gradientUnits="userSpaceOnUse">
      <stop stop-color="#FF1CF7"/>
      <stop offset="1" stop-color="#00F0FF"/>
    </linearGradient>
    <linearGradient id="X" x1="275.644" x2="131.911" y1="273.604" y2="240.536" gradientUnits="userSpaceOnUse">
      <stop stop-color="#FF1CF7"/>
      <stop offset="1" stop-color="#00F0FF"/>
    </linearGradient>
    <linearGradient id="Y" x1="275.36" x2="132.226" y1="274.835" y2="239.263" gradientUnits="userSpaceOnUse">
      <stop stop-color="#FF1CF7"/>
      <stop offset="1" stop-color="#00F0FF"/>
    </linearGradient>
    <linearGradient id="Z" x1="275.057" x2="132.565" y1="276.06" y2="237.996" gradientUnits="userSpaceOnUse">
      <stop stop-color="#FF1CF7"/>
      <stop offset="1" stop-color="#00F0FF"/>
    </linearGradient>
    <linearGradient id="aa" x1="274.731" x2="132.925" y1="277.28" y2="236.735" gradientUnits="userSpaceOnUse">
      <stop stop-color="#FF1CF7"/>
      <stop offset="1" stop-color="#00F0FF"/>
    </linearGradient>
    <linearGradient id="ab" x1="274.383" x2="133.307" y1="278.494" y2="235.48" gradientUnits="userSpaceOnUse">
      <stop stop-color="#FF1CF7"/>
      <stop offset="1" stop-color="#00F0FF"/>
    </linearGradient>
    <linearGradient id="ac" x1="274.015" x2="133.711" y1="279.702" y2="234.232" gradientUnits="userSpaceOnUse">
      <stop stop-color="#FF1CF7"/>
      <stop offset="1" stop-color="#00F0FF"/>
    </linearGradient>
    <linearGradient id="ad" x1="273.625" x2="134.136" y1="280.903" y2="232.992" gradientUnits="userSpaceOnUse">
      <stop stop-color="#FF1CF7"/>
      <stop offset="1" stop-color="#00F0FF"/>
    </linearGradient>
    <linearGradient id="ae" x1="273.215" x2="134.583" y1="282.097" y2="231.759" gradientUnits="userSpaceOnUse">
      <stop stop-color="#FF1CF7"/>
      <stop offset="1" stop-color="#00F0FF"/>
    </linearGradient>
    <linearGradient id="af" x1="272.782" x2="135.051" y1="283.284" y2="230.534" gradientUnits="userSpaceOnUse">
      <stop stop-color="#FF1CF7"/>
      <stop offset="1" stop-color="#00F0FF"/>
    </linearGradient>
    <linearGradient id="ag" x1="272.332" x2="135.542" y1="284.463" y2="229.317" gradientUnits="userSpaceOnUse">
      <stop stop-color="#FF1CF7"/>
      <stop offset="1" stop-color="#00F0FF"/>
    </linearGradient>
    <linearGradient id="ah" x1="271.859" x2="136.052" y1="285.634" y2="228.109" gradientUnits="userSpaceOnUse">
      <stop stop-color="#FF1CF7"/>
      <stop offset="1" stop-color="#00F0FF"/>
    </linearGradient>
    <linearGradient id="ai" x1="271.366" x2="136.584" y1="286.797" y2="226.91" gradientUnits="userSpaceOnUse">
      <stop stop-color="#FF1CF7"/>
      <stop offset="1" stop-color="#00F0FF"/>
    </linearGradient>
    <linearGradient id="aj" x1="270.853" x2="137.136" y1="287.95" y2="225.721" gradientUnits="userSpaceOnUse">
      <stop stop-color="#FF1CF7"/>
      <stop offset="1" stop-color="#00F0FF"/>
    </linearGradient>
    <linearGradient id="ak" x1="270.319" x2="137.709" y1="289.095" y2="224.542" gradientUnits="userSpaceOnUse">
      <stop stop-color="#FF1CF7"/>
      <stop offset="1" stop-color="#00F0FF"/>
    </linearGradient>
    <linearGradient id="al" x1="269.768" x2="138.304" y1="290.231" y2="223.372" gradientUnits="userSpaceOnUse">
      <stop stop-color="#FF1CF7"/>
      <stop offset="1" stop-color="#00F0FF"/>
    </linearGradient>
    <linearGradient id="am" x1="269.195" x2="138.919" y1="291.356" y2="222.214" gradientUnits="userSpaceOnUse">
      <stop stop-color="#FF1CF7"/>
      <stop offset="1" stop-color="#00F0FF"/>
    </linearGradient>
    <linearGradient id="an" x1="268.603" x2="139.553" y1="292.471" y2="221.066" gradientUnits="userSpaceOnUse">
      <stop stop-color="#FF1CF7"/>
      <stop offset="1" stop-color="#00F0FF"/>
    </linearGradient>
    <linearGradient id="ao" x1="267.991" x2="140.207" y1="293.576" y2="219.929" gradientUnits="userSpaceOnUse">
      <stop stop-color="#FF1CF7"/>
      <stop offset="1" stop-color="#00F0FF"/>
    </linearGradient>
    <linearGradient id="ap" x1="267.36" x2="140.881" y1="294.67" y2="218.804" gradientUnits="userSpaceOnUse">
      <stop stop-color="#FF1CF7"/>
      <stop offset="1" stop-color="#00F0FF"/>
    </linearGradient>
    <linearGradient id="aq" x1="266.71" x2="141.574" y1="295.753" y2="217.691" gradientUnits="userSpaceOnUse">
      <stop stop-color="#FF1CF7"/>
      <stop offset="1" stop-color="#00F0FF"/>
    </linearGradient>
    <linearGradient id="ar" x1="266.043" x2="142.288" y1="296.824" y2="216.591" gradientUnits="userSpaceOnUse">
      <stop stop-color="#FF1CF7"/>
      <stop offset="1" stop-color="#00F0FF"/>
    </linearGradient>
    <linearGradient id="as" x1="265.355" x2="143.019" y1="297.883" y2="215.502" gradientUnits="userSpaceOnUse">
      <stop stop-color="#FF1CF7"/>
      <stop offset="1" stop-color="#00F0FF"/>
    </linearGradient>
    <linearGradient id="at" x1="264.648" x2="143.769" y1="298.931" y2="214.427" gradientUnits="userSpaceOnUse">
      <stop stop-color="#FF1CF7"/>
      <stop offset="1" stop-color="#00F0FF"/>
    </linearGradient>
    <linearGradient id="au" x1="263.926" x2="144.54" y1="299.966" y2="213.365" gradientUnits="userSpaceOnUse">
      <stop stop-color="#FF1CF7"/>
      <stop offset="1" stop-color="#00F0FF"/>
    </linearGradient>
    <linearGradient id="av" x1="263.185" x2="145.328" y1="300.988" y2="212.317" gradientUnits="userSpaceOnUse">
      <stop stop-color="#FF1CF7"/>
      <stop offset="1" stop-color="#00F0FF"/>
    </linearGradient>
    <linearGradient id="aw" x1="262.424" x2="146.133" y1="301.997" y2="211.282" gradientUnits="userSpaceOnUse">
      <stop stop-color="#FF1CF7"/>
      <stop offset="1" stop-color="#00F0FF"/>
    </linearGradient>
    <linearGradient id="ax" x1="261.648" x2="146.958" y1="302.992" y2="210.262" gradientUnits="userSpaceOnUse">
      <stop stop-color="#FF1CF7"/>
      <stop offset="1" stop-color="#00F0FF"/>
    </linearGradient>
    <linearGradient id="ay" x1="260.854" x2="147.8" y1="303.974" y2="209.256" gradientUnits="userSpaceOnUse">
      <stop stop-color="#FF1CF7"/>
      <stop offset="1" stop-color="#00F0FF"/>
    </linearGradient>
    <linearGradient id="az" x1="260.043" x2="148.659" y1="304.941" y2="208.265" gradientUnits="userSpaceOnUse">
      <stop stop-color="#FF1CF7"/>
      <stop offset="1" stop-color="#00F0FF"/>
    </linearGradient>
    <linearGradient id="aA" x1="259.215" x2="149.535" y1="305.895" y2="207.29" gradientUnits="userSpaceOnUse">
      <stop stop-color="#FF1CF7"/>
      <stop offset="1" stop-color="#00F0FF"/>
    </linearGradient>
    <linearGradient id="aB" x1="258.371" x2="150.429" y1="306.834" y2="206.329" gradientUnits="userSpaceOnUse">
      <stop stop-color="#FF1CF7"/>
      <stop offset="1" stop-color="#00F0FF"/>
    </linearGradient>
    <linearGradient id="aC" x1="257.51" x2="151.338" y1="307.758" y2="205.385" gradientUnits="userSpaceOnUse">
      <stop stop-color="#FF1CF7"/>
      <stop offset="1" stop-color="#00F0FF"/>
    </linearGradient>
    <linearGradient id="aD" x1="256.632" x2="152.263" y1="308.667" y2="204.456" gradientUnits="userSpaceOnUse">
      <stop stop-color="#FF1CF7"/>
      <stop offset="1" stop-color="#00F0FF"/>
    </linearGradient>
    <linearGradient id="aE" x1="255.74" x2="153.206" y1="309.56" y2="203.544" gradientUnits="userSpaceOnUse">
      <stop stop-color="#FF1CF7"/>
      <stop offset="1" stop-color="#00F0FF"/>
    </linearGradient>
    <linearGradient id="aF" x1="254.833" x2="154.164" y1="310.438" y2="202.648" gradientUnits="userSpaceOnUse">
      <stop stop-color="#FF1CF7"/>
      <stop offset="1" stop-color="#00F0FF"/>
    </linearGradient>
    <linearGradient id="aG" x1="253.911" x2="155.139" y1="311.299" y2="201.77" gradientUnits="userSpaceOnUse">
      <stop stop-color="#FF1CF7"/>
      <stop offset="1" stop-color="#00F0FF"/>
    </linearGradient>
    <linearGradient id="aH" x1="252.972" x2="156.127" y1="312.145" y2="200.908" gradientUnits="userSpaceOnUse">
      <stop stop-color="#FF1CF7"/>
      <stop offset="1" stop-color="#00F0FF"/>
    </linearGradient>
    <linearGradient id="aI" x1="252.019" x2="157.13" y1="312.974" y2="200.064" gradientUnits="userSpaceOnUse">
      <stop stop-color="#FF1CF7"/>
      <stop offset="1" stop-color="#00F0FF"/>
    </linearGradient>
    <linearGradient id="aJ" x1="251.053" x2="158.148" y1="313.786" y2="199.237" gradientUnits="userSpaceOnUse">
      <stop stop-color="#FF1CF7"/>
      <stop offset="1" stop-color="#00F0FF"/>
    </linearGradient>
    <linearGradient id="aK" x1="250.071" x2="159.18" y1="314.581" y2="198.428" gradientUnits="userSpaceOnUse">
      <stop stop-color="#FF1CF7"/>
      <stop offset="1" stop-color="#00F0FF"/>
    </linearGradient>
    <linearGradient id="aL" x1="249.077" x2="160.227" y1="315.359" y2="197.638" gradientUnits="userSpaceOnUse">
      <stop stop-color="#FF1CF7"/>
      <stop offset="1" stop-color="#00F0FF"/>
    </linearGradient>
    <linearGradient id="aM" x1="248.069" x2="161.288" y1="316.12" y2="196.866" gradientUnits="userSpaceOnUse">
      <stop stop-color="#FF1CF7"/>
      <stop offset="1" stop-color="#00F0FF"/>
    </linearGradient>
    <linearGradient id="aN" x1="247.048" x2="162.361" y1="316.862" y2="196.112" gradientUnits="userSpaceOnUse">
      <stop stop-color="#FF1CF7"/>
      <stop offset="1" stop-color="#00F0FF"/>
    </linearGradient>
    <linearGradient id="aO" x1="246.014" x2="163.447" y1="317.588" y2="195.378" gradientUnits="userSpaceOnUse">
      <stop stop-color="#FF1CF7"/>
      <stop offset="1" stop-color="#00F0FF"/>
    </linearGradient>
    <linearGradient id="aP" x1="244.968" x2="164.546" y1="318.294" y2="194.662" gradientUnits="userSpaceOnUse">
      <stop stop-color="#FF1CF7"/>
      <stop offset="1" stop-color="#00F0FF"/>
    </linearGradient>
    <linearGradient id="aQ" x1="243.909" x2="165.657" y1="318.982" y2="193.965" gradientUnits="userSpaceOnUse">
      <stop stop-color="#FF1CF7"/>
      <stop offset="1" stop-color="#00F0FF"/>
    </linearGradient>
    <linearGradient id="aR" x1="242.84" x2="166.782" y1="319.652" y2="193.288" gradientUnits="userSpaceOnUse">
      <stop stop-color="#FF1CF7"/>
      <stop offset="1" stop-color="#00F0FF"/>
    </linearGradient>
    <linearGradient id="aS" x1="241.755" x2="167.914" y1="320.303" y2="192.631" gradientUnits="userSpaceOnUse">
      <stop stop-color="#FF1CF7"/>
      <stop offset="1" stop-color="#00F0FF"/>
    </linearGradient>
    <linearGradient id="aT" x1="240.662" x2="169.061" y1="320.935" y2="191.994" gradientUnits="userSpaceOnUse">
      <stop stop-color="#FF1CF7"/>
      <stop offset="1" stop-color="#00F0FF"/>
    </linearGradient>
    <linearGradient id="aU" x1="239.558" x2="170.217" y1="321.548" y2="191.377" gradientUnits="userSpaceOnUse">
      <stop stop-color="#FF1CF7"/>
      <stop offset="1" stop-color="#00F0FF"/>
    </linearGradient>
    <linearGradient id="aV" x1="238.445" x2="171.387" y1="322.142" y2="190.78" gradientUnits="userSpaceOnUse">
      <stop stop-color="#FF1CF7"/>
      <stop offset="1" stop-color="#00F0FF"/>
    </linearGradient>
  </defs>
</svg>
