<svg
                    width="18"
                    height="18"
                    viewBox="0 0 32 32"
                    fill="#ffffff"
                    xmlns="http://www.w3.org/2000/svg"
                  >
                    <path
                      d="M27.0876 19.0751C25.1243 19.6256 23.0498 19.6437 21.0771 19.1273C19.1045 18.611 17.3049 17.5788 15.863 16.1371C14.4214 14.6952 13.3892 12.8957 12.8728 10.923C12.3564 8.95035 12.3745 6.87589 12.925 4.91251C10.9895 5.45132 9.22876 6.4877 7.81836 7.91885C6.40796 9.34976 5.39697 11.1254 4.88647 13.0688C4.37573 15.0119 4.38306 17.0551 4.90796 18.9945C5.43262 20.9342 6.4563 22.7023 7.87695 24.1232C9.29785 25.5439 11.0659 26.5675 13.0056 27.0922C14.9451 27.6171 16.9883 27.6244 18.9314 27.1137C20.8748 26.6032 22.6504 25.5922 24.0813 24.1818C25.5125 22.7714 26.5488 21.0107 27.0876 19.0751Z"
                      fill="#ffffff"
                      fillOpacity="1"
                    />
                    <path
                      d="M28 14V8C28 7.44772 27.5523 7 27 7C26.4477 7 26 7.44772 26 8V14C26 14.5523 26.4477 15 27 15C27.5523 15 28 14.5523 28 14Z"
                      fill="#ffffff"
                    />
                    <path
                      d="M30 10H24C23.4477 10 23 10.4477 23 11C23 11.5523 23.4477 12 24 12H30C30.5523 12 31 11.5523 31 11C31 10.4477 30.5523 10 30 10Z"
                      fill="#ffffff"
                    />
                    <path
                      d="M20 3V7C20 7.55228 20.4477 8 21 8C21.5523 8 22 7.55228 22 7V3C22 2.44772 21.5523 2 21 2C20.4477 2 20 2.44772 20 3Z"
                      fill="#ffffff"
                    />
                    <path
                      d="M23 4H19C18.4477 4 18 4.44772 18 5C18 5.55228 18.4477 6 19 6H23C23.5523 6 24 5.55228 24 5C24 4.44772 23.5523 4 23 4Z"
                      fill="#ffffff"
                    />
                    <path
                      clipRule="evenodd"
                      d="M28.0505 19.3437L28.0501 19.3453C28.0501 19.3453 27.1561 22.555 24.783 24.894C24.783 24.894 22.409 27.2338 19.1853 28.0809C19.1853 28.0809 15.9616 28.9281 12.744 28.0576C12.744 28.0576 9.52653 27.1871 7.16961 24.8302C7.16961 24.8302 4.81269 22.4733 3.94223 19.2558C3.94223 19.2558 3.07176 16.0383 3.91888 12.8145C3.91888 12.8145 4.766 9.59078 7.10577 7.21684C7.10577 7.21684 9.44554 4.8429 12.6567 3.94913C12.9122 3.87801 13.1855 3.91131 13.4164 4.04169C13.6474 4.17207 13.8171 4.38886 13.8882 4.64437C13.9372 4.82043 13.937 5.00655 13.8877 5.18251C13.8877 5.18251 13.1201 7.91966 13.8399 10.6697C13.8399 10.6697 14.5598 13.4198 16.5699 15.4299C16.5699 15.4299 18.58 17.4401 21.3301 18.1599C21.3301 18.1599 24.0802 18.8797 26.8173 18.1122C26.9877 18.0644 27.1678 18.0627 27.3391 18.1072L27.3555 18.1116C27.6923 18.2054 27.9558 18.4683 28.0502 18.805C28.098 18.9754 28.0997 19.1555 28.0551 19.3268L28.0505 19.3437ZM23.3791 23.4696C23.3791 23.4696 24.7546 22.1139 25.5385 20.4098C25.5385 20.4098 23.1851 20.7128 20.8236 20.0947C20.8236 20.0947 17.5491 19.2376 15.1557 16.8442C15.1557 16.8442 12.7622 14.4507 11.9051 11.1762C11.9051 11.1762 11.287 8.81473 11.59 6.46129C11.59 6.46129 9.88595 7.24522 8.5302 8.62076C8.5302 8.62076 6.56479 10.6149 5.85321 13.3228C5.85321 13.3228 5.14163 16.0308 5.87282 18.7335C5.87282 18.7335 6.60401 21.4362 8.58383 23.416C8.58383 23.416 10.5636 25.3958 13.2663 26.127C13.2663 26.127 15.9691 26.8582 18.677 26.1466C18.677 26.1466 21.3849 25.435 23.3791 23.4696Z"
                      fill="#ffffff"
                    />
                  </svg>