<svg width="24" height="24" viewBox="0 0 24 24" fill="none" xmlns="http://www.w3.org/2000/svg">
<path d="M21 12C21 16.9706 16.9706 21 12 21C7.02942 21 3 16.9706 3 12C3 7.02942 7.02942 3 12 3C16.9706 3 21 7.02942 21 12Z" fill="black" fill-opacity="0.1"/>
<path fill-rule="evenodd" clip-rule="evenodd" d="M12 2.25C12 2.25 13.9831 2.25 15.7954 3.01651C15.7954 3.01651 17.5452 3.75663 18.8943 5.10571C18.8943 5.10571 20.2434 6.45478 20.9835 8.20463C20.9835 8.20463 21.75 10.0169 21.75 12C21.75 12 21.75 13.9831 20.9835 15.7954C20.9835 15.7954 20.2434 17.5452 18.8943 18.8943C18.8943 18.8943 17.5452 20.2434 15.7954 20.9835C15.7954 20.9835 13.9831 21.75 12 21.75C12 21.75 10.0169 21.75 8.20463 20.9835C8.20463 20.9835 6.45478 20.2434 5.10571 18.8943C5.10571 18.8943 3.75663 17.5452 3.01651 15.7954C3.01651 15.7954 2.25 13.9831 2.25 12C2.25 12 2.25 10.0169 3.01651 8.20463C3.01651 8.20463 3.75663 6.45478 5.10571 5.10571C5.10571 5.10571 6.45478 3.75663 8.20463 3.01651C8.20463 3.01651 10.0169 2.25 12 2.25ZM12 3.75C12 3.75 10.321 3.75 8.78896 4.39802C8.78896 4.39802 7.30857 5.02417 6.16637 6.16637C6.16637 6.16637 5.02417 7.30857 4.39802 8.78896C4.39802 8.78896 3.75 10.321 3.75 12C3.75 12 3.75 13.679 4.39802 15.211C4.39802 15.211 5.02417 16.6914 6.16637 17.8336C6.16637 17.8336 7.30857 18.9758 8.78896 19.602C8.78896 19.602 10.321 20.25 12 20.25C12 20.25 13.679 20.25 15.211 19.602C15.211 19.602 16.6914 18.9758 17.8336 17.8336C17.8336 17.8336 18.9758 16.6914 19.602 15.211C19.602 15.211 20.25 13.6789 20.25 12C20.25 12 20.25 10.3211 19.602 8.78896C19.602 8.78896 18.9758 7.30857 17.8336 6.16637C17.8336 6.16637 16.6914 5.02417 15.211 4.39802C15.211 4.39802 13.679 3.75 12 3.75Z" fill="#1C1C1C"/>
<path d="M3.51562 9.75H20.4844C20.8986 9.75 21.2344 9.41421 21.2344 9C21.2344 8.58579 20.8986 8.25 20.4844 8.25H3.51562C3.10141 8.25 2.76562 8.58579 2.76562 9C2.76562 9.41421 3.10141 9.75 3.51562 9.75Z" fill="#1C1C1C"/>
<path d="M3.51562 15.75H20.4844C20.8986 15.75 21.2344 15.4142 21.2344 15C21.2344 14.5858 20.8986 14.25 20.4844 14.25H3.51562C3.10141 14.25 2.76562 14.5858 2.76562 15C2.76562 15.4142 3.10141 15.75 3.51562 15.75Z" fill="#1C1C1C"/>
<path fill-rule="evenodd" clip-rule="evenodd" d="M12 2.49365C12 2.49365 13.0709 2.49365 13.9867 3.39814C13.9867 3.39814 14.7642 4.16604 15.3411 5.51304C15.3411 5.51304 16.5 8.2191 16.5 11.9999C16.5 11.9999 16.5 15.7807 15.3411 18.4868C15.3411 18.4868 14.7642 19.8338 13.9867 20.6017C13.9867 20.6017 13.0709 21.5061 12 21.5062C12 21.5062 10.9291 21.5062 10.0133 20.6017C10.0133 20.6017 9.23578 19.8338 8.65891 18.4868C8.65891 18.4868 7.5 15.7807 7.5 11.9999C7.5 11.9999 7.5 8.2191 8.65891 5.51304C8.65891 5.51304 9.23579 4.16604 10.0133 3.39814C10.0133 3.39814 10.9291 2.49365 12 2.49365ZM12 3.99365C12 3.99365 11.545 3.99365 11.0673 4.46539C11.0673 4.46539 10.4989 5.02675 10.0378 6.10356C10.0378 6.10356 9 8.52679 9 11.9999C9 11.9999 9 15.473 10.0378 17.8962C10.0378 17.8962 10.4989 18.9731 11.0673 19.5344C11.0673 19.5344 11.545 20.0062 12 20.0062C12 20.0062 12.455 20.0062 12.9327 19.5344C12.9327 19.5344 13.5011 18.973 13.9622 17.8962C13.9622 17.8962 15 15.473 15 11.9999C15 11.9999 15 8.52679 13.9622 6.10356C13.9622 6.10356 13.5011 5.02675 12.9327 4.46538C12.9327 4.46538 12.455 3.99365 12 3.99365Z" fill="#1C1C1C"/>
</svg>
