<svg xmlns="http://www.w3.org/2000/svg" width="320" height="160" fill="none" viewBox="0 0 320 160">
  <path stroke="url(#a)" d="M185.682 136.013c81.301-12.876 157.051-10.83 213.793 2.869 28.372 6.85 51.967 16.608 69.126 28.849 17.156 12.24 27.846 26.937 30.497 43.674 2.65 16.736-2.974 34.018-15.509 50.96-12.536 16.944-31.961 33.516-56.827 48.798-49.732 30.563-121.143 55.917-202.443 68.794-81.3 12.877-157.05 10.83-213.792-2.869-28.373-6.85-51.968-16.608-69.126-28.849-17.157-12.24-27.846-26.937-30.497-43.673-2.651-16.737 2.974-34.018 15.508-50.961 12.536-16.944 31.961-33.515 56.828-48.797 49.732-30.564 121.142-55.918 202.442-68.795Z"/>
  <path stroke="url(#b)" d="M187.814 135.695c81.512-11.456 157.215-8.088 213.71 6.599 28.248 7.345 51.669 17.512 68.611 30.051 16.941 12.538 27.372 27.419 29.73 44.2 2.359 16.78-3.567 33.96-16.395 50.681-12.83 16.723-32.541 32.953-57.671 47.799-50.257 29.691-122.099 53.795-203.612 65.25-81.512 11.456-157.216 8.088-213.71-6.599-28.248-7.344-51.67-17.512-68.612-30.051-16.94-12.537-27.371-27.419-29.73-44.199-2.358-16.781 3.567-33.961 16.396-50.682 12.83-16.723 32.54-32.953 57.67-47.799 50.258-29.69 122.1-53.794 203.613-65.25Z"/>
  <path stroke="url(#c)" d="M189.949 135.413c81.7-10.031 157.333-5.343 213.563 10.329 28.115 7.836 51.355 18.411 68.076 31.244 16.719 12.831 26.889 27.892 28.954 44.711 2.066 16.819-4.159 33.893-17.277 50.388-13.12 16.496-33.111 32.38-58.496 46.785-50.768 28.809-123.02 51.655-204.72 61.687-81.7 10.031-157.333 5.343-213.562-10.329-28.116-7.836-51.356-18.411-68.077-31.243-16.719-12.831-26.89-27.893-28.954-44.712-2.065-16.819 4.159-33.893 17.277-50.388 13.12-16.496 33.111-32.379 58.496-46.785 50.768-28.809 123.02-51.655 204.72-61.687Z"/>
  <path stroke="url(#d)" d="M192.092 135.17c81.863-8.605 157.402-2.597 213.349 14.054 27.975 8.325 51.027 19.304 67.521 32.427 16.493 13.121 26.399 28.357 28.17 45.21 1.771 16.852-4.75 33.815-18.154 50.078-13.406 16.265-33.671 31.797-59.304 45.757-51.263 27.919-123.903 49.501-205.765 58.105-81.863 8.604-157.402 2.596-213.35-14.054-27.975-8.326-51.026-19.305-67.52-32.427-16.493-13.121-26.4-28.358-28.17-45.21-1.772-16.852 4.75-33.816 18.154-50.079 13.406-16.265 33.67-31.797 59.303-45.757 51.264-27.918 123.903-49.5 205.766-58.104Z"/>
  <path stroke="url(#e)" d="M194.236 134.963c82-7.174 157.423.151 213.072 17.775 27.825 8.813 50.682 20.193 66.945 33.601 16.261 13.407 25.899 28.814 27.376 45.695 1.477 16.88-5.34 33.727-19.026 49.754-13.687 16.028-34.221 31.204-60.093 44.715-51.742 27.019-124.748 47.33-206.748 54.505-82 7.174-157.423-.152-213.072-17.776-27.825-8.812-50.682-20.192-66.945-33.6-16.26-13.407-25.899-28.814-27.376-45.695-1.477-16.881 5.34-33.727 19.026-49.754 13.687-16.029 34.22-31.205 60.093-44.715 51.742-27.02 124.748-47.331 206.748-54.505Z"/>
  <path stroke="url(#f)" d="M196.386 134.794c82.113-5.742 157.397 2.898 212.729 21.491 27.667 9.297 50.322 21.074 66.348 34.764 16.025 13.688 25.393 29.261 26.575 46.165 1.182 16.904-5.928 33.629-19.891 49.415-13.965 15.787-34.76 30.602-60.864 43.659-52.207 26.113-125.555 45.147-207.668 50.888-82.113 5.742-157.397-2.898-212.73-21.491-27.667-9.297-50.321-21.073-66.348-34.764-16.024-13.688-25.392-29.261-26.574-46.165-1.182-16.904 5.927-33.629 19.89-49.415 13.966-15.787 34.76-30.602 60.865-43.659 52.206-26.113 125.555-45.146 207.668-50.888Z"/>
  <path stroke="url(#g)" d="M198.537 134.662c82.2-4.308 157.322 5.645 212.321 25.201 27.501 9.778 49.947 21.949 65.732 35.916 15.783 13.966 24.878 29.701 25.764 46.622.887 16.922-6.513 33.521-20.75 49.06-14.238 15.542-35.289 29.992-61.617 42.591-52.654 25.197-126.324 42.948-208.524 47.256-82.201 4.308-157.322-5.645-212.322-25.201-27.5-9.778-49.946-21.948-65.731-35.916-15.784-13.966-24.878-29.7-25.765-46.622-.887-16.922 6.513-33.521 20.75-49.06 14.239-15.541 35.29-29.991 61.617-42.591 52.654-25.197 126.324-42.948 208.525-47.256Z"/>
  <path stroke="url(#h)" d="M200.69 134.568c82.264-2.873 157.2 8.39 211.85 28.902 27.326 10.257 49.555 22.817 65.094 37.058 15.537 14.24 24.356 30.13 24.947 47.065.592 16.935-7.097 33.402-21.603 48.69-14.507 15.291-35.807 29.371-62.351 41.509-53.086 24.275-127.054 40.737-209.317 43.61-82.264 2.872-157.2-8.39-211.85-28.903-27.326-10.256-49.555-22.817-65.094-37.058-15.537-14.239-24.356-30.13-24.948-47.065-.59-16.934 7.098-33.401 21.604-48.69 14.507-15.29 35.807-29.371 62.35-41.508 53.087-24.275 127.055-40.737 209.318-43.61Z"/>
  <path stroke="url(#i)" d="M202.845 134.511c82.302-1.436 157.03 11.132 211.313 32.596 27.143 10.732 49.15 23.678 64.438 38.188 15.286 14.508 23.826 30.55 24.122 47.493.296 16.943-7.679 33.273-22.45 48.306-14.772 15.035-36.314 28.741-63.066 40.414-53.501 23.344-127.745 38.513-210.046 39.95-82.301 1.437-157.03-11.132-211.313-32.595-27.143-10.732-49.15-23.679-64.438-38.189-15.286-14.508-23.826-30.55-24.122-47.493-.296-16.942 7.68-33.272 22.45-48.306 14.772-15.034 36.314-28.741 63.066-40.414 53.501-23.344 127.745-38.513 210.046-39.95Z"/>
  <path stroke="url(#j)" d="M204.999 134.493c82.314 0 156.811 13.871 210.712 36.278 26.951 11.204 48.729 24.532 63.762 39.307 15.03 14.773 23.289 30.962 23.289 47.907 0 16.945-8.259 33.134-23.289 47.907-15.033 14.774-36.811 28.103-63.762 39.307-53.901 22.407-128.398 36.278-210.712 36.278-82.313 0-156.811-13.871-210.712-36.278-26.951-11.204-48.729-24.533-63.761-39.307-15.03-14.773-23.29-30.962-23.29-47.907 0-16.945 8.26-33.134 23.29-47.907 15.032-14.775 36.81-28.103 63.761-39.307C48.188 148.364 122.686 134.493 205 134.493Z"/>
  <path stroke="url(#k)" d="M207.156 134.512c82.301 1.436 156.545 16.605 210.046 39.95 26.752 11.673 48.294 25.379 63.066 40.414 14.771 15.033 22.746 31.363 22.45 48.306-.296 16.942-8.836 32.984-24.122 47.493-15.288 14.51-37.295 27.456-64.438 38.188-54.283 21.463-129.012 34.032-211.313 32.595-82.301-1.436-156.545-16.605-210.046-39.95-26.752-11.672-48.294-25.379-63.066-40.414-14.77-15.033-22.746-31.363-22.45-48.306.296-16.942 8.836-32.984 24.122-47.493 15.288-14.51 37.295-27.456 64.438-38.188 54.283-21.463 129.012-34.032 211.313-32.595Z"/>
  <path stroke="url(#l)" d="M209.31 134.568c82.264 2.873 156.232 19.335 209.317 43.61 26.544 12.138 47.844 26.218 62.351 41.508 14.506 15.289 22.195 31.756 21.604 48.691-.592 16.934-9.41 32.825-24.947 47.064-15.539 14.241-37.769 26.802-65.095 37.058-54.65 20.513-129.586 31.775-211.85 28.903-82.263-2.873-156.231-19.335-209.317-43.61-26.544-12.138-47.843-26.218-62.35-41.509-14.507-15.288-22.196-31.755-21.604-48.69.591-16.935 9.41-32.825 24.947-47.065 15.539-14.241 37.769-26.801 65.095-37.058 54.65-20.512 129.586-31.775 211.849-28.902Z"/>
  <path stroke="url(#m)" d="M211.463 134.662c82.2 4.308 155.87 22.059 208.524 47.256 26.328 12.599 47.379 27.049 61.617 42.59 14.237 15.54 21.637 32.138 20.75 49.06-.886 16.922-9.981 32.656-25.764 46.623-15.785 13.967-38.231 26.138-65.732 35.916-54.999 19.556-130.121 29.509-212.322 25.201-82.2-4.308-155.87-22.059-208.524-47.257-26.328-12.599-47.378-27.049-61.617-42.59-14.237-15.539-21.637-32.138-20.75-49.06.887-16.922 9.981-32.656 25.765-46.622 15.785-13.968 38.23-26.138 65.731-35.917 55-19.555 130.121-29.508 212.322-25.2Z"/>
  <path stroke="url(#n)" d="M213.614 134.793c82.114 5.742 155.462 24.776 207.668 50.889 26.104 13.056 46.899 27.871 60.865 43.659 13.963 15.785 21.073 32.511 19.891 49.414-1.183 16.904-10.55 32.477-26.575 46.166-16.026 13.69-38.681 25.467-66.348 34.764-55.333 18.592-130.616 27.233-212.729 21.491-82.113-5.742-155.462-24.776-207.668-50.888-26.104-13.057-46.9-27.872-60.865-43.66-13.963-15.785-21.072-32.51-19.89-49.414 1.181-16.904 10.55-32.477 26.574-46.166 16.026-13.69 38.681-25.467 66.348-34.763 55.333-18.593 130.616-27.234 212.729-21.492Z"/>
  <path stroke="url(#o)" d="M215.764 134.963c82 7.174 155.006 27.485 206.748 54.504 25.872 13.511 46.406 28.687 60.093 44.715 13.686 16.027 20.503 32.874 19.026 49.755-1.477 16.88-11.115 32.287-27.376 45.694-16.263 13.408-39.12 24.788-66.945 33.601-55.649 17.624-131.072 24.949-213.072 17.775-82.001-7.174-155.006-27.485-206.748-54.505-25.873-13.51-46.406-28.686-60.093-44.715-13.686-16.027-20.503-32.873-19.026-49.754 1.477-16.881 11.115-32.288 27.376-45.695 16.263-13.408 39.12-24.788 66.945-33.6 55.649-17.624 131.072-24.95 213.072-17.775Z"/>
  <path stroke="url(#p)" d="M217.908 135.169c81.863 8.604 154.503 30.186 205.766 58.105 25.632 13.96 45.898 29.492 59.303 45.757 13.404 16.263 19.926 33.226 18.154 50.079-1.771 16.852-11.676 32.089-28.169 45.209-16.494 13.123-39.546 24.102-67.521 32.428-55.948 16.65-131.487 22.658-213.35 14.054-81.862-8.605-154.502-30.187-205.765-58.105-25.633-13.96-45.898-29.492-59.304-45.757-13.404-16.263-19.925-33.226-18.154-50.079 1.771-16.852 11.677-32.089 28.17-45.21 16.494-13.122 39.546-24.101 67.52-32.427 55.948-16.65 131.488-22.658 213.35-14.054Z"/>
  <path stroke="url(#q)" d="M220.05 135.413c81.7 10.032 153.952 32.878 204.72 61.687 25.385 14.405 45.376 30.288 58.496 46.785 13.118 16.495 19.343 33.569 17.277 50.388-2.065 16.819-12.235 31.88-28.954 44.711-16.721 12.833-39.961 23.408-68.076 31.244-56.23 15.671-131.863 20.36-213.563 10.328-81.7-10.031-153.952-32.878-204.72-61.687-25.385-14.405-45.376-30.288-58.496-46.784-13.118-16.495-19.342-33.57-17.277-50.388 2.065-16.819 12.235-31.881 28.954-44.712 16.72-12.832 39.96-23.407 68.077-31.243 56.23-15.672 131.862-20.36 213.562-10.329Z"/>
  <path stroke="url(#r)" d="M222.186 135.695c81.513 11.455 153.355 35.559 203.612 65.25 25.13 14.846 44.841 31.076 57.671 47.799 12.828 16.721 18.754 33.901 16.395 50.682-2.358 16.78-12.789 31.661-29.73 44.199-16.942 12.539-40.363 22.706-68.611 30.051-56.495 14.687-132.198 18.055-213.71 6.599-81.513-11.456-153.355-35.56-203.613-65.25-25.13-14.846-44.84-31.076-57.67-47.799-12.829-16.721-18.754-33.901-16.396-50.682 2.359-16.78 12.79-31.662 29.73-44.199 16.943-12.539 40.364-22.707 68.612-30.051 56.495-14.687 132.198-18.055 213.71-6.599Z"/>
  <path stroke="url(#s)" d="M224.318 136.013c81.3 12.877 152.71 38.231 202.442 68.794 24.867 15.282 44.292 31.854 56.828 48.798 12.534 16.942 18.159 34.224 15.508 50.96-2.651 16.737-13.34 31.434-30.497 43.674-17.159 12.241-40.753 21.999-69.126 28.849-56.742 13.699-132.492 15.745-213.792 2.868-81.301-12.876-152.711-38.23-202.443-68.794-24.867-15.282-44.291-31.853-56.827-48.797-12.535-16.943-18.16-34.224-15.509-50.961 2.651-16.736 13.34-31.433 30.497-43.673 17.159-12.242 40.754-21.999 69.126-28.849 56.742-13.7 132.492-15.746 213.793-2.869Z"/>
  <path stroke="url(#t)" d="M226.445 136.369c81.063 14.293 152.02 40.89 201.211 72.316 24.596 15.714 43.729 32.622 55.967 49.783 12.237 17.158 17.56 34.535 14.617 51.223-2.942 16.687-13.887 31.196-31.254 43.134-17.37 11.94-41.132 21.285-69.619 27.638-56.973 12.707-132.747 13.431-213.81-.862-81.063-14.294-152.02-40.89-201.211-72.317-24.597-15.714-43.73-32.622-55.968-49.782-12.237-17.159-17.559-34.536-14.616-51.223 2.942-16.688 13.887-31.197 31.254-43.135 17.37-11.94 41.131-21.284 69.619-27.638 56.973-12.707 132.747-13.431 213.81.863Z"/>
  <path stroke="url(#u)" d="M228.564 136.762c80.801 15.706 151.283 43.537 199.918 75.817 24.318 16.141 43.153 33.38 55.09 50.751 11.936 17.37 16.954 34.837 13.72 51.471-3.233 16.633-14.429 30.949-32.002 42.582-17.575 11.635-41.496 20.563-70.09 26.419-57.186 11.711-132.962 11.112-213.763-4.594-80.801-15.706-151.284-43.537-199.918-75.817-24.319-16.141-43.153-33.38-55.09-50.752-11.936-17.369-16.954-34.836-13.72-51.47 3.233-16.634 14.428-30.949 32.002-42.583 17.575-11.635 41.496-20.563 70.09-26.419 57.186-11.71 132.961-11.112 213.763 4.595Z"/>
  <path stroke="url(#v)" d="M230.675 137.191c80.514 17.114 150.5 46.171 198.564 79.295 24.033 16.563 42.564 34.128 54.196 51.705 11.631 17.575 16.343 35.127 12.82 51.702-3.523 16.575-14.967 30.693-32.741 42.018-17.775 11.326-41.849 19.836-70.54 25.191-57.382 10.711-133.135 8.79-213.65-8.324-80.515-17.114-150.5-46.17-198.565-79.294-24.033-16.563-42.564-34.128-54.196-51.706-11.63-17.575-16.343-35.127-12.82-51.702 3.523-16.574 14.967-30.692 32.741-42.017 17.776-11.327 41.849-19.836 70.54-25.192 57.382-10.711 133.136-8.79 213.651 8.324Z"/>
  <path stroke="url(#w)" d="M232.78 137.658c80.204 18.516 149.672 48.79 197.151 82.748 23.74 16.98 41.962 34.866 53.285 52.643 11.322 17.776 15.728 35.407 11.916 51.918-3.812 16.511-15.501 30.427-33.469 41.44-17.971 11.014-42.189 19.102-70.97 23.956-57.559 9.708-133.268 6.465-213.472-12.051-80.204-18.517-149.672-48.79-197.15-82.748-23.74-16.98-41.962-34.866-53.285-52.643-11.323-17.776-15.728-35.407-11.916-51.918 3.811-16.511 15.5-30.427 33.469-41.44 17.97-11.015 42.188-19.102 70.97-23.957 57.56-9.708 133.268-6.465 213.471 12.052Z"/>
  <path stroke="url(#x)" d="M234.875 138.161c79.868 19.913 148.797 51.395 195.676 86.176 23.44 17.392 41.347 35.593 52.358 53.565 11.011 17.971 15.108 35.676 11.008 52.118-4.099 16.442-16.029 30.152-34.187 40.85-18.16 10.699-42.516 18.363-71.377 22.714-57.72 8.702-133.361 4.138-213.229-15.775-79.869-19.914-148.798-51.395-195.677-86.177-23.44-17.391-41.346-35.592-52.358-53.565-11.01-17.97-15.107-35.676-11.008-52.118 4.1-16.441 16.03-30.151 34.188-40.849 18.16-10.699 42.515-18.363 71.376-22.714 57.72-8.702 133.361-4.139 213.23 15.775Z"/>
  <path stroke="url(#y)" d="M236.962 138.701c79.509 21.304 147.878 53.984 194.143 89.578 23.133 17.798 40.719 36.309 51.415 54.471 10.695 18.159 14.482 35.934 10.097 52.302-4.386 16.368-16.553 29.867-34.895 40.246-18.344 10.381-42.83 17.619-71.763 21.466-57.863 7.693-133.412 1.81-212.921-19.495-79.51-21.304-147.878-53.984-194.143-89.578-23.133-17.798-40.719-36.309-51.415-54.471-10.695-18.159-14.483-35.934-10.097-52.302 4.386-16.367 16.553-29.867 34.895-40.246 18.344-10.381 42.83-17.619 71.763-21.465 57.863-7.694 133.412-1.811 212.921 19.494Z"/>
  <path stroke="url(#z)" d="M239.04 139.277c79.125 22.688 146.913 56.556 192.549 92.952 22.819 18.199 40.08 37.014 50.457 55.36 10.377 18.344 13.853 36.182 9.183 52.47-4.671 16.289-17.072 29.574-35.592 39.632-18.523 10.059-43.131 16.868-72.127 20.209-57.988 6.683-133.423-.518-212.548-23.207S24.049 320.137-21.588 283.74c-22.819-18.199-40.08-37.013-50.457-55.359-10.376-18.344-13.853-36.182-9.182-52.471 4.67-16.288 17.072-29.573 35.592-39.631 18.522-10.059 43.13-16.868 72.126-20.21 57.989-6.682 133.424.519 212.549 23.208Z"/>
  <path stroke="url(#A)" d="M241.105 139.889c78.717 24.066 145.904 59.112 190.898 96.299 22.498 18.594 39.428 37.708 49.483 56.232 10.055 18.522 13.22 36.418 8.266 52.622-4.955 16.205-17.586 29.272-36.279 39.005-18.695 9.734-43.418 16.113-72.468 18.947-58.096 5.67-133.394-2.847-212.111-26.913-78.717-24.066-145.904-59.112-190.898-96.299-22.498-18.594-39.427-37.708-49.483-56.232-10.055-18.522-13.22-36.418-8.266-52.622 4.955-16.205 17.586-29.272 36.279-39.005 18.695-9.734 43.418-16.113 72.468-18.947 58.096-5.669 133.394 2.847 212.111 26.913Z"/>
  <path stroke="url(#B)" d="M243.161 140.537c78.285 25.436 144.85 61.649 189.188 99.616 22.17 18.984 38.764 38.39 48.495 57.087 9.73 18.694 12.582 36.643 7.345 52.759-5.236 16.115-18.093 28.959-36.953 38.365-18.863 9.406-43.693 15.352-72.788 17.68-58.186 4.654-133.324-5.175-211.609-30.611-78.285-25.437-144.85-61.65-189.188-99.616-22.17-18.984-38.764-38.39-48.495-57.087-9.73-18.695-12.582-36.643-7.345-52.759 5.236-16.116 18.093-28.96 36.953-38.365 18.863-9.407 43.693-15.353 72.788-17.68 58.187-4.655 133.324 5.174 211.609 30.611Z"/>
  <path stroke="url(#C)" d="M245.205 141.221c77.829 26.798 143.752 64.168 187.421 102.902 21.835 19.368 38.087 39.061 47.491 57.925 9.402 18.861 11.94 36.857 6.423 52.879-5.516 16.022-18.596 28.64-37.617 37.714-19.024 9.076-43.954 14.588-73.085 16.407-58.259 3.638-133.214-7.5-211.043-34.299-77.83-26.799-143.752-64.168-187.42-102.903-21.836-19.368-38.088-39.061-47.492-57.924-9.402-18.862-11.94-36.857-6.423-52.879 5.517-16.022 18.596-28.64 37.617-37.715 19.024-9.075 43.955-14.588 73.085-16.407 58.26-3.638 133.214 7.501 211.043 34.3Z"/>
  <path stroke="url(#D)" d="M247.236 141.941c77.35 28.152 142.611 66.667 185.597 106.158 21.494 19.746 37.4 39.719 46.472 58.744 9.072 19.023 11.296 37.06 5.5 52.983-5.795 15.923-19.093 28.311-38.27 37.052-19.179 8.743-44.202 13.819-73.36 15.129-58.314 2.621-133.063-9.824-210.412-37.977-77.35-28.153-142.61-66.667-185.597-106.158-21.494-19.746-37.4-39.72-46.472-58.745-9.072-19.022-11.296-37.059-5.5-52.983 5.796-15.923 19.093-28.311 38.27-37.052 19.18-8.742 44.202-13.818 73.36-15.129 58.314-2.621 133.063 9.825 210.412 37.978Z"/>
  <path stroke="url(#E)" d="M249.256 142.695c76.846 29.499 141.425 69.146 183.716 109.381 21.146 20.118 36.701 40.366 45.44 59.547 8.738 19.178 10.647 37.251 4.574 53.071-6.073 15.819-19.584 27.973-38.911 36.378-19.329 8.406-44.436 13.045-73.613 13.847-58.35 1.602-132.871-12.146-209.717-41.644C83.898 343.776 19.32 304.129-22.971 263.894c-21.146-20.119-36.7-40.366-45.44-59.547-8.738-19.178-10.647-37.251-4.574-53.071 6.073-15.819 19.584-27.973 38.91-36.378 19.33-8.407 44.437-13.045 73.614-13.847 58.35-1.602 132.871 12.146 209.717 41.644Z"/>
  <path stroke="url(#F)" d="M251.262 143.485c76.319 30.835 140.196 71.603 181.778 112.571 20.792 20.484 35.991 41 44.394 60.33 8.402 19.328 9.995 37.432 3.647 53.143-6.347 15.711-20.069 27.627-39.539 35.694-19.473 8.068-44.658 12.267-73.844 12.559-58.369.585-132.639-14.462-208.958-45.297C82.42 341.65 18.543 300.882-23.039 259.914c-20.792-20.484-35.99-41-44.394-60.33-8.402-19.328-9.995-37.432-3.647-53.143 6.347-15.711 20.07-27.627 39.54-35.694 19.472-8.068 44.657-12.267 73.843-12.56 58.37-.584 132.639 14.463 208.959 45.298Z"/>
  <path stroke="url(#G)" d="M253.252 144.31c75.77 32.162 138.926 74.039 179.786 115.726 20.431 20.844 35.27 41.622 43.335 61.096 8.063 19.472 9.34 37.6 2.719 53.198-6.621 15.598-20.548 27.273-40.157 34.999-19.61 7.726-44.864 11.486-74.051 11.269-58.371-.435-132.366-16.775-208.136-48.938-75.77-32.162-138.926-74.039-179.786-115.726-20.431-20.844-35.27-41.622-43.335-61.096-8.063-19.471-9.34-37.6-2.72-53.198 6.622-15.598 20.55-27.273 40.158-34.999 19.61-7.726 44.864-11.486 74.051-11.269 58.371.435 132.366 16.775 208.136 48.938Z"/>
  <path stroke="url(#H)" d="M255.229 145.169c75.198 33.48 137.613 76.453 177.739 118.846 20.065 21.198 34.539 42.232 42.262 61.843 7.722 19.61 8.683 37.758 1.79 53.238-6.892 15.48-21.021 26.91-40.761 34.292-19.742 7.383-45.058 10.702-74.237 9.975-58.354-1.453-132.053-19.083-207.25-52.562-75.197-33.48-137.612-76.453-177.74-118.846-20.064-21.198-34.537-42.232-42.26-61.844-7.723-19.609-8.684-37.757-1.791-53.237 6.892-15.48 21.021-26.91 40.761-34.293C-6.516 95.198 18.8 91.88 47.98 92.607c58.354 1.453 132.053 19.082 207.25 52.562Z"/>
  <path stroke="url(#I)" d="M257.191 146.062c74.601 34.788 136.257 78.843 175.637 121.93 19.692 21.545 33.796 42.828 41.176 62.572 7.379 19.741 8.023 37.903.861 53.26-7.161 15.358-21.488 26.539-41.353 33.576-19.868 7.038-45.239 9.914-74.4 8.678-58.32-2.472-131.7-21.384-206.301-56.172-74.602-34.787-136.258-78.842-175.638-121.93-19.692-21.544-33.796-42.827-41.176-62.571-7.38-19.741-8.023-37.903-.861-53.261 7.161-15.357 21.488-26.539 41.353-33.575 19.868-7.038 45.239-9.914 74.4-8.678 58.32 2.471 131.7 21.384 206.302 56.171Z"/>
  <path stroke="url(#J)" d="M259.135 146.991c73.983 36.084 134.861 81.208 173.483 124.976 19.313 21.885 33.044 43.412 40.078 63.281 7.033 19.867 7.36 38.037-.069 53.268-7.428 15.23-21.948 26.16-41.933 32.848-19.988 6.69-45.405 9.123-74.54 7.378-58.268-3.489-131.307-23.679-205.29-59.763S16.004 287.77-22.619 244.002c-19.312-21.885-33.043-43.411-40.077-63.28-7.034-19.867-7.36-38.038.068-53.268 7.429-15.23 21.948-26.16 41.934-32.849 19.987-6.69 45.404-9.122 74.54-7.377 58.268 3.489 131.306 23.679 205.289 59.763Z"/>
  <path stroke="url(#K)" d="M261.065 147.953c73.342 37.369 133.422 83.55 171.275 127.985 18.928 22.219 32.281 43.981 38.967 63.97 6.686 19.987 6.695 38.16-.998 53.259-7.693 15.098-22.401 25.773-42.5 32.112-20.102 6.339-45.557 8.328-74.657 6.076-58.199-4.506-130.874-25.968-204.216-63.338-73.342-37.369-133.422-83.549-171.275-127.985-18.928-22.218-32.28-43.981-38.967-63.97-6.686-19.987-6.695-38.16.998-53.258 7.693-15.099 22.4-25.773 42.5-32.112 20.102-6.34 45.557-8.329 74.657-6.076 58.199 4.505 130.874 25.967 204.216 63.337Z"/>
  <path stroke="url(#L)" d="M262.977 148.948c72.678 38.644 131.944 85.865 169.016 130.955 18.536 22.545 31.508 44.538 37.844 64.64 6.336 20.1 6.028 38.271-1.927 53.233-7.956 14.962-22.848 25.378-43.054 31.365-20.21 5.988-45.696 7.533-74.752 4.772-58.111-5.52-130.401-28.247-203.079-66.891-72.679-38.644-131.944-85.866-169.016-130.955-18.537-22.545-31.508-44.538-37.845-64.64-6.335-20.101-6.028-38.272 1.928-53.233 7.955-14.962 22.847-25.378 43.054-31.366 20.209-5.988 45.695-7.532 74.752-4.772 58.111 5.52 130.4 28.248 203.079 66.892Z"/>
  <path stroke="url(#M)" d="M264.871 149.976c71.993 39.906 130.425 88.155 166.704 133.885 18.141 22.865 30.726 45.081 36.711 65.291 5.984 20.207 5.359 38.37-2.856 53.191-8.215 14.82-23.287 24.975-43.595 30.609-20.311 5.634-45.82 6.734-74.824 3.467-58.006-6.534-129.887-30.519-201.881-70.426-71.993-39.906-130.425-88.155-166.704-133.884-18.14-22.866-30.726-45.082-36.71-65.292-5.985-20.207-5.36-38.37 2.855-53.191 8.215-14.82 23.287-24.975 43.595-30.609 20.311-5.634 45.82-6.734 74.824-3.467 58.006 6.534 129.888 30.519 201.881 70.426Z"/>
  <path stroke="url(#N)" d="M266.747 151.038c71.285 41.156 128.867 90.418 164.342 136.773 17.739 23.179 29.935 45.611 35.566 65.922 5.63 20.309 4.688 38.458-3.784 53.133-8.473 14.675-23.72 24.566-44.123 29.844-20.406 5.279-45.93 5.933-74.873 2.16-57.883-7.545-129.335-32.781-200.621-73.938-71.285-41.157-128.867-90.418-164.342-136.773-17.739-23.179-29.935-45.611-35.566-65.922-5.63-20.309-4.688-38.459 3.784-53.133 8.473-14.675 23.72-24.566 44.123-29.844 20.406-5.28 45.93-5.933 74.873-2.16 57.883 7.545 129.335 32.781 200.621 73.938Z"/>
  <path stroke="url(#O)" d="M268.604 152.131c70.556 42.395 127.269 92.654 161.93 139.621 17.331 23.485 29.134 46.126 34.41 66.533 5.275 20.404 4.016 38.534-4.711 53.059-8.727 14.525-24.144 24.148-44.637 29.069-20.495 4.922-46.027 5.131-74.899.853-57.742-8.554-128.743-35.033-199.3-77.428-70.556-42.394-127.27-92.653-161.93-139.621-17.332-23.484-29.134-46.126-34.41-66.532-5.275-20.405-4.017-38.535 4.71-53.059 8.728-14.525 24.145-24.148 44.638-29.07 20.494-4.922 46.026-5.13 74.899-.853 57.742 8.554 128.743 35.034 199.3 77.428Z"/>
  <path stroke="url(#P)" d="M270.441 153.257c69.806 43.62 125.633 94.861 159.47 142.426 16.918 23.784 28.324 46.627 33.243 67.123 4.918 20.493 3.343 38.598-5.636 52.969-8.98 14.37-24.562 23.722-45.137 28.285-20.578 4.564-46.11 4.327-74.903-.454-57.584-9.56-128.112-37.275-197.918-80.894-69.806-43.62-125.633-94.861-159.47-142.426-16.918-23.784-28.324-46.627-33.243-67.123-4.918-20.493-3.343-38.598 5.636-52.969 8.98-14.37 24.562-23.722 45.138-28.285 20.577-4.564 46.109-4.327 74.902.454 57.585 9.56 128.113 37.275 197.918 80.894Z"/>
  <path stroke="url(#Q)" d="M272.258 154.415c69.034 44.832 123.958 97.039 156.959 145.188 16.501 24.075 27.507 47.114 32.067 67.693 4.56 20.576 2.669 38.651-6.56 52.862-9.229 14.211-24.972 23.29-45.624 27.494-20.654 4.203-46.177 3.521-74.883-1.762-57.409-10.564-127.442-39.505-196.476-84.336-69.034-44.831-123.959-97.039-156.96-145.187-16.5-24.076-27.506-47.115-32.066-67.693-4.56-20.576-2.67-38.651 6.56-52.863C-35.496 81.6-19.753 72.521.899 68.318c20.654-4.204 46.177-3.521 74.883 1.761 57.409 10.564 127.442 39.505 196.476 84.336Z"/>
  <path stroke="url(#R)" d="M274.055 155.605c68.241 46.029 122.246 99.187 154.402 147.904 16.078 24.36 26.68 47.588 30.88 68.243 4.2 20.652 1.994 38.691-7.481 52.739-9.476 14.049-25.375 22.851-46.097 26.694-20.724 3.842-46.232 2.714-74.841-3.068-57.216-11.565-126.734-41.724-194.975-87.753-68.24-46.029-122.246-99.187-154.401-147.904-16.079-24.36-26.68-47.588-30.88-68.243-4.2-20.652-1.995-38.691 7.48-52.74 9.476-14.047 25.376-22.85 46.098-26.693 20.724-3.842 46.232-2.714 74.84 3.068 57.216 11.565 126.734 41.724 194.975 87.753Z"/>
  <path stroke="url(#S)" d="M275.832 156.826c67.428 47.213 120.497 101.305 151.797 150.576 15.651 24.637 25.845 48.046 29.685 68.771 3.839 20.723 1.319 38.721-8.401 52.601-9.719 13.881-25.77 22.405-46.556 25.885-20.788 3.481-46.272 1.907-74.776-4.373-57.005-12.562-125.986-43.929-193.413-91.142C66.741 311.93 13.672 257.838-17.629 208.567c-15.65-24.637-25.845-48.046-29.684-68.771-3.84-20.722-1.32-38.72 8.4-52.601 9.72-13.88 25.77-22.405 46.556-25.885 20.788-3.48 46.272-1.907 74.776 4.374 57.005 12.561 125.986 43.929 193.413 91.142Z"/>
  <path stroke="url(#T)" d="M277.588 158.078c66.593 48.383 118.709 103.393 149.145 153.203 15.219 24.906 25.003 48.489 28.48 69.278 3.477 20.787.643 38.738-9.317 52.447-9.96 13.709-26.157 21.951-47 25.068-20.846 3.117-46.299 1.099-74.689-5.678-56.777-13.554-125.2-46.121-191.793-94.504C65.821 309.51 13.704 254.499-16.732 204.69c-15.218-24.906-25.003-48.49-28.48-69.279-3.476-20.786-.642-38.737 9.318-52.446 9.96-13.71 26.157-21.952 47-25.069 20.846-3.117 46.299-1.099 74.689 5.678 56.777 13.554 125.2 46.121 191.793 94.504Z"/>
  <path stroke="url(#U)" d="M279.319 159.36c65.738 49.537 116.887 105.449 146.449 155.782 14.782 25.168 24.153 48.919 27.267 69.765 3.113 20.844-.034 38.743-10.232 52.276-10.197 13.533-26.536 21.491-47.43 24.244-20.897 2.753-46.311.291-74.578-6.981-56.532-14.542-124.376-48.298-190.115-97.836S13.793 251.161-15.77 200.827c-14.78-25.167-24.152-48.918-27.266-69.764-3.113-20.844.034-38.743 10.231-52.276 10.198-13.533 26.537-21.492 47.431-24.244 20.897-2.753 46.311-.292 74.578 6.98 56.532 14.543 124.376 48.299 190.115 97.837Z"/>
  <path stroke="url(#V)" d="M281.03 160.672c64.864 50.677 115.029 107.473 143.708 158.314 14.34 25.422 23.295 49.333 26.045 70.23 2.749 20.896-.71 38.737-11.142 52.09-10.433 13.353-26.907 21.025-47.847 23.413-20.942 2.387-46.309-.518-74.445-8.282-56.269-15.527-123.514-50.462-188.378-101.139C64.107 304.621 13.942 247.825-14.737 196.983c-14.34-25.422-23.295-49.332-26.045-70.23-2.749-20.895.71-38.736 11.142-52.09C-19.207 61.312-2.733 53.64 18.207 51.252c20.942-2.388 46.309.517 74.445 8.281 56.269 15.528 123.514 50.462 188.378 101.14Z"/>
  <path stroke="url(#W)" d="M282.716 162.014c63.97 51.801 113.136 109.464 140.924 160.798 13.894 25.668 22.431 49.732 24.815 70.674 2.384 20.94-1.386 38.718-12.049 51.887-10.664 13.169-27.27 20.553-48.248 22.574-20.981 2.022-46.293-1.325-74.289-9.579-55.99-16.507-122.615-52.61-186.585-104.412-63.97-51.801-113.136-109.464-140.923-160.798-13.894-25.668-22.43-49.732-24.815-70.674-2.384-20.94 1.385-38.718 12.05-51.887 10.663-13.17 27.27-20.553 48.247-22.574 20.98-2.022 46.293 1.325 74.29 9.579 55.989 16.507 122.614 52.61 186.583 104.412Z"/>
  <path stroke="url(#X)" d="M284.379 163.385c63.056 52.91 111.208 111.422 138.095 163.233 13.444 25.907 21.56 50.116 23.578 71.097 2.019 20.978-2.061 38.688-12.953 51.668-10.892 12.981-27.624 20.074-48.634 21.729-21.013 1.655-46.263-2.133-74.111-10.874-55.693-17.482-121.678-54.742-184.734-107.652C62.564 299.675 14.412 241.164-12.475 189.352c-13.444-25.907-21.56-50.116-23.578-71.096-2.018-20.978 2.06-38.688 12.953-51.67 10.892-12.98 27.625-20.072 48.635-21.728 21.012-1.655 46.262 2.133 74.11 10.875 55.693 17.481 121.678 54.742 184.734 107.652Z"/>
  <path stroke="url(#Y)" d="M286.019 164.784c62.123 54.003 109.247 113.346 135.225 165.619 12.99 26.137 20.682 50.484 22.334 71.497 1.652 21.01-2.736 38.646-13.853 51.435-11.117 12.788-27.97 19.588-49.006 20.876-21.038 1.289-46.219-2.94-73.91-12.166-55.379-18.451-120.704-56.857-182.826-110.86C61.86 297.183 14.736 237.84-11.243 185.567c-12.99-26.138-20.682-50.485-22.334-71.497-1.651-21.01 2.736-38.647 13.853-51.435 11.117-12.789 27.97-19.588 49.007-20.877 21.038-1.288 46.218 2.94 73.909 12.166 55.38 18.451 120.704 56.857 182.827 110.86Z"/>
  <path stroke="url(#Z)" d="M287.633 166.212c61.171 55.079 107.252 115.236 132.314 167.954 12.532 26.36 19.798 50.837 21.083 71.876 1.285 21.036-3.41 38.592-14.749 51.185-11.338 12.593-28.308 19.097-49.363 20.018-21.058.921-46.16-3.746-73.686-13.454-55.049-19.414-119.693-58.955-180.864-114.034C61.197 294.679 15.116 234.522-9.947 181.804c-12.531-26.36-19.797-50.838-21.082-71.876-1.285-21.036 3.41-38.593 14.748-51.185C-4.942 46.15 12.028 39.646 33.083 38.725c21.057-.921 46.16 3.746 73.685 13.454 55.05 19.414 119.694 58.955 180.865 114.033Z"/>
  <path stroke="url(#aa)" d="M289.222 167.669c60.201 56.137 105.225 117.089 129.363 170.237 12.07 26.575 18.908 51.175 19.825 72.233.918 21.055-4.083 38.527-15.639 50.92-11.557 12.393-28.637 18.6-49.705 19.153-21.071.554-46.088-4.551-73.44-14.738-54.702-20.372-118.646-61.035-178.847-117.172-60.2-56.138-105.224-117.09-129.363-170.238-12.07-26.575-18.907-51.175-19.825-72.233-.917-21.055 4.083-38.527 15.64-50.92 11.556-12.393 28.637-18.6 49.705-19.153 21.07-.554 46.088 4.551 73.44 14.738 54.702 20.372 118.646 61.035 178.846 117.173Z"/>
  <path stroke="url(#ab)" d="M290.784 169.152c59.211 57.18 103.165 118.908 126.372 172.469 11.604 26.781 18.011 51.497 18.561 72.568.55 21.068-4.754 38.45-16.525 50.639-11.771 12.189-28.958 18.097-50.032 18.283-21.077.186-46.001-5.355-73.172-16.017-54.338-21.324-117.562-63.097-176.774-120.277C60.003 289.638 16.049 227.909-7.158 174.348c-11.604-26.781-18.011-51.497-18.561-72.567-.55-21.068 4.754-38.45 16.525-50.64 11.771-12.19 28.958-18.097 50.032-18.283 21.077-.185 46.001 5.355 73.172 16.018 54.338 21.324 117.562 63.096 176.774 120.276Z"/>
  <path stroke="url(#ac)" d="M292.321 170.663c58.205 58.204 101.074 120.69 123.344 174.648 11.135 26.98 17.109 51.804 17.292 72.881.182 21.074-5.426 38.361-17.408 50.343-11.982 11.982-29.268 17.589-50.343 17.407-21.077-.182-45.901-6.157-72.881-17.292-53.957-22.269-116.443-65.138-174.648-123.343C59.473 287.102 16.603 224.616-5.666 170.659c-11.135-26.98-17.11-51.804-17.292-72.881-.182-21.074 5.425-38.361 17.407-50.343 11.982-11.982 29.27-17.59 50.343-17.407 21.077.182 45.901 6.157 72.881 17.291 53.958 22.27 116.444 65.139 174.648 123.344Z"/>
  <path stroke="url(#ad)" d="M293.833 172.2c57.18 59.212 98.953 122.436 120.277 176.775 10.662 27.17 16.203 52.094 16.017 73.171-.186 21.074-6.094 38.261-18.283 50.032-12.189 11.771-29.572 17.076-50.639 16.526-21.071-.55-45.787-6.957-72.568-18.562-53.561-23.207-115.289-67.161-172.469-126.372-57.18-59.212-98.953-122.436-120.277-176.774-10.662-27.171-16.203-52.095-16.017-73.172.186-21.074 6.094-38.26 18.283-50.032 12.19-11.77 29.572-17.075 50.64-16.525 21.07.55 45.786 6.957 72.567 18.56C174.925 69.036 236.653 112.99 293.833 172.2Z"/>
  <path stroke="url(#ae)" d="M295.316 173.763c56.137 60.201 96.8 124.145 117.173 178.847 10.186 27.352 15.291 52.369 14.737 73.44-.553 21.068-6.76 38.148-19.153 49.705-12.393 11.556-29.865 16.557-50.92 15.639-21.058-.917-45.658-7.755-72.233-19.825-53.148-24.138-114.099-69.162-170.237-129.363-56.138-60.2-96.8-124.144-117.173-178.846-10.187-27.352-15.291-52.37-14.738-73.44.554-21.068 6.76-38.149 19.153-49.705 12.393-11.557 29.865-16.557 50.92-15.64 21.058.918 45.659 7.755 72.233 19.825 53.148 24.139 114.1 69.163 170.238 129.363Z"/>
  <path stroke="url(#af)" d="M296.773 175.352c55.078 61.171 94.619 125.815 114.034 180.865 9.707 27.525 14.375 52.628 13.453 73.685-.921 21.056-7.425 38.025-20.018 49.364-12.592 11.338-30.149 16.033-51.185 14.748-21.038-1.285-45.515-8.55-71.876-21.082-52.718-25.063-112.875-71.144-167.953-132.315C58.149 279.446 18.608 214.802-.806 159.753c-9.708-27.526-14.375-52.628-13.454-73.686.921-21.055 7.425-38.024 20.018-49.363 12.593-11.339 30.15-16.033 51.185-14.748 21.039 1.285 45.516 8.55 71.876 21.082 52.718 25.063 112.875 71.144 167.954 132.314Z"/>
  <path stroke="url(#ag)" d="M298.201 176.967c54.003 62.123 92.409 127.447 110.86 182.827 9.226 27.691 13.454 52.871 12.166 73.909-1.289 21.036-8.088 37.89-20.877 49.007-12.788 11.117-30.424 15.504-51.435 13.853-21.012-1.652-45.359-9.344-71.497-22.334-52.273-25.979-111.616-73.103-165.618-135.226C57.797 276.88 19.39 211.556.94 156.177c-9.226-27.692-13.455-52.872-12.166-73.91 1.288-21.036 8.088-37.89 20.876-49.006 12.79-11.117 30.425-15.505 51.435-13.853 21.013 1.652 45.36 9.343 71.497 22.334 52.273 25.978 111.616 73.102 165.619 135.225Z"/>
  <path stroke="url(#ah)" d="M299.601 178.605c52.91 63.056 90.17 129.041 107.652 184.734 8.741 27.848 12.529 53.098 10.874 74.111-1.655 21.01-8.748 37.742-21.729 48.634-12.98 10.892-30.69 14.972-51.669 12.953-20.98-2.018-45.189-10.134-71.096-23.578C221.822 448.572 163.31 400.42 110.4 337.364 57.49 274.308 20.229 208.323 2.747 152.63c-8.74-27.848-12.53-53.098-10.874-74.11C-6.47 57.51.621 40.777 13.602 29.885c12.98-10.892 30.69-14.971 51.669-12.953 20.98 2.018 45.189 10.134 71.096 23.578 51.811 26.887 110.323 75.039 163.234 138.095Z"/>
  <path stroke="url(#ai)" d="M300.972 180.269c51.801 63.97 87.905 130.594 104.412 186.584 8.253 27.997 11.601 53.309 9.579 74.289-2.022 20.978-9.406 37.584-22.574 48.248-13.169 10.664-30.948 14.434-51.887 12.05-20.943-2.385-45.006-10.921-70.674-24.816-51.335-27.787-108.997-76.953-160.799-140.923C57.227 271.732 21.124 205.107 4.617 149.117c-8.254-27.996-11.6-53.309-9.579-74.289C-2.94 53.85 4.443 37.244 17.612 26.58 30.781 15.916 48.56 12.147 69.5 14.53c20.943 2.385 45.006 10.922 70.674 24.816 51.335 27.787 108.997 76.953 160.799 140.923Z"/>
  <path stroke="url(#aj)" d="M302.313 181.956c50.678 64.864 85.612 132.109 101.14 188.378 7.764 28.136 10.669 53.503 8.281 74.445-2.388 20.939-10.06 37.414-23.413 47.847-13.353 10.432-31.194 13.891-52.089 11.142-20.898-2.75-44.808-11.705-70.23-26.045-50.842-28.679-107.638-78.844-158.315-143.708C57.01 269.151 22.075 201.906 6.547 145.636-1.217 117.5-4.12 92.134-1.733 71.192c2.387-20.94 10.06-37.415 23.412-47.847 13.353-10.433 31.194-13.891 52.09-11.142 20.897 2.75 44.808 11.705 70.23 26.045 50.841 28.679 107.637 78.844 158.314 143.708Z"/>
  <path stroke="url(#ak)" d="M303.625 183.665c49.538 65.739 83.294 133.583 97.837 190.115 7.272 28.267 9.733 53.681 6.98 74.578-2.752 20.895-10.711 37.233-24.244 47.431s-31.432 13.344-52.276 10.231c-20.846-3.114-44.597-12.485-69.765-27.267-50.333-29.562-106.244-80.71-155.782-146.449C56.837 266.566 23.081 198.722 8.538 142.19c-7.271-28.267-9.733-53.681-6.98-74.578C4.31 46.717 12.269 30.379 25.802 20.18S57.234 6.836 78.078 9.95c20.846 3.113 44.597 12.485 69.765 27.266 50.333 29.562 106.245 80.711 155.782 146.449Z"/>
  <path stroke="url(#al)" d="M304.907 185.398c48.382 66.593 80.949 135.016 94.503 191.793 6.777 28.39 8.795 53.843 5.678 74.689-3.117 20.843-11.359 37.04-25.068 47-13.709 9.96-31.66 12.794-52.447 9.317-20.788-3.477-44.372-13.261-69.278-28.48-49.81-30.435-104.82-82.552-153.203-149.145-48.383-66.593-80.95-135.016-94.504-191.793-6.777-28.39-8.795-53.843-5.677-74.689 3.116-20.843 11.359-37.04 25.068-47 13.709-9.96 31.66-12.794 52.446-9.318 20.789 3.477 44.373 13.262 69.279 28.48 49.809 30.436 104.82 82.553 153.203 149.146Z"/>
  <path stroke="url(#am)" d="M306.159 187.153c47.213 67.427 78.581 136.408 91.142 193.413 6.281 28.504 7.854 53.988 4.374 74.776-3.48 20.786-12.004 36.837-25.885 46.556-13.88 9.719-31.878 12.239-52.601 8.401-20.725-3.84-44.134-14.034-68.771-29.685-49.271-31.301-103.363-84.37-150.576-151.797C56.628 261.39 25.261 192.409 12.7 135.404 6.419 106.9 4.846 81.416 8.326 60.628c3.48-20.786 12.004-36.837 25.885-46.556 13.88-9.72 31.878-12.24 52.6-8.4 20.726 3.839 44.135 14.033 68.772 29.684 49.271 31.3 103.363 84.369 150.576 151.797Z"/>
  <path stroke="url(#an)" d="M307.38 188.929c46.029 68.241 76.188 137.759 87.753 194.974 5.782 28.609 6.91 54.117 3.068 74.842-3.843 20.721-12.645 36.621-26.694 46.097-14.048 9.475-32.087 11.681-52.739 7.481-20.655-4.201-43.883-14.802-68.243-30.881-48.717-32.155-101.875-86.16-147.904-154.401-46.03-68.241-76.188-137.759-87.753-194.975-5.782-28.609-6.91-54.116-3.068-74.84 3.843-20.723 12.645-36.622 26.694-46.098C52.542 1.653 70.58-.553 91.234 3.647c20.654 4.2 43.882 14.802 68.242 30.88 48.717 32.156 101.875 86.161 147.904 154.402Z"/>
  <path stroke="url(#ao)" d="M308.57 190.726c44.831 69.034 73.772 139.068 84.336 196.476 5.282 28.706 5.965 54.23 1.761 74.884-4.203 20.651-13.282 36.395-27.493 45.624-14.212 9.229-32.287 11.119-52.862 6.56-20.579-4.561-43.618-15.566-67.693-32.067-48.149-33.001-100.356-87.925-145.188-156.959-44.83-69.034-73.772-139.068-84.336-196.477-5.282-28.705-5.965-54.229-1.761-74.883C19.537 33.232 28.616 17.489 42.827 8.26 57.04-.969 75.114-2.86 95.69 1.7c20.578 4.56 43.617 15.566 67.693 32.067 48.148 33.001 100.356 87.925 145.187 156.959Z"/>
  <path stroke="url(#ap)" d="M309.727 192.544c43.619 69.806 71.334 140.334 80.894 197.918 4.781 28.794 5.018 54.325.454 74.903-4.563 20.575-13.915 36.158-28.285 45.137-14.371 8.98-32.476 10.554-52.969 5.636-20.496-4.919-43.339-16.324-67.123-33.243-47.565-33.836-98.806-89.663-142.426-159.469-43.62-69.806-71.334-140.334-80.894-197.918-4.78-28.794-5.018-54.325-.454-74.903C23.486 30.03 32.838 14.447 47.209 5.468c14.37-8.98 32.476-10.555 52.969-5.636 20.496 4.918 43.339 16.324 67.123 33.243 47.565 33.836 98.806 89.663 142.426 159.469Z"/>
  <path stroke="url(#aq)" d="M310.854 194.382c42.394 70.556 68.874 141.557 77.428 199.3 4.277 28.872 4.069 54.404-.853 74.899-4.922 20.492-14.545 35.909-29.07 44.637-14.524 8.727-32.654 9.986-53.059 4.71-20.406-5.275-43.047-17.078-66.532-34.409-46.968-34.661-97.226-91.374-139.621-161.931-42.395-70.556-68.874-141.557-77.428-199.3-4.277-28.872-4.07-54.404.853-74.899 4.922-20.492 14.544-35.91 29.07-44.637 14.524-8.727 32.654-9.985 53.058-4.71 20.407 5.275 43.048 17.078 66.533 34.41 46.967 34.66 97.226 91.373 139.621 161.93Z"/>
  <path stroke="url(#ar)" d="M311.947 196.239c41.157 71.286 66.393 142.738 73.938 200.621 3.773 28.943 3.119 54.467-2.16 74.873-5.278 20.403-15.169 35.65-29.844 44.123-14.674 8.472-32.824 9.414-53.133 3.784-20.311-5.631-42.743-17.827-65.922-35.566-46.355-35.476-95.616-93.057-136.773-164.343-41.157-71.285-66.393-142.738-73.938-200.62-3.773-28.943-3.12-54.467 2.16-74.873C31.553 23.834 41.444 8.588 56.119.115c14.674-8.472 32.824-9.414 53.133-3.784 20.311 5.631 42.743 17.827 65.922 35.566 46.355 35.475 95.617 93.057 136.773 164.342Z"/>
  <path stroke="url(#as)" d="M313.008 198.114c39.907 71.993 63.892 143.875 70.426 201.881 3.267 29.004 2.168 54.513-3.467 74.824-5.633 20.308-15.788 35.38-30.609 43.595-14.82 8.215-32.983 8.84-53.191 2.856-20.21-5.985-42.426-18.57-65.291-36.711-45.73-36.279-93.978-94.711-133.885-166.704C57.085 245.862 33.1 173.98 26.566 115.974c-3.267-29.004-2.168-54.513 3.466-74.824 5.634-20.308 15.789-35.38 30.61-43.595 14.82-8.215 32.983-8.84 53.191-2.856 20.21 5.985 42.425 18.57 65.291 36.71 45.729 36.28 93.978 94.712 133.884 166.705Z"/>
  <path stroke="url(#at)" d="M314.038 200.009c38.644 72.678 61.371 144.968 66.891 203.079 2.76 29.056 1.216 54.543-4.772 74.752-5.987 20.206-16.404 35.099-31.365 43.054-14.962 7.955-33.133 8.263-53.233 1.927-20.103-6.336-42.095-19.308-64.641-37.844-45.089-37.072-92.311-96.337-130.954-169.016-38.644-72.679-61.372-144.968-66.892-203.079-2.76-29.057-1.216-54.543 4.772-74.752C39.831 17.923 50.248 3.031 65.209-4.924c14.962-7.955 33.133-8.263 53.233-1.928 20.103 6.337 42.095 19.308 64.641 37.845 45.089 37.072 92.311 96.337 130.955 169.016Z"/>
  <path stroke="url(#au)" d="M315.032 201.921c37.369 73.342 58.832 146.017 63.337 204.215 2.253 29.1.264 54.556-6.076 74.657-6.339 20.099-17.014 34.808-32.112 42.501-15.098 7.692-33.272 7.683-53.258.998-19.989-6.687-41.752-20.04-63.971-38.967-44.435-37.853-90.615-97.934-127.985-171.276-37.37-73.342-58.831-146.017-63.337-204.215-2.252-29.1-.264-54.556 6.076-74.657 6.34-20.1 17.014-34.808 32.112-42.5 15.098-7.694 33.272-7.684 53.258-.999 19.989 6.686 41.752 20.04 63.971 38.967 44.435 37.853 90.615 97.934 127.985 171.276Z"/>
  <path stroke="url(#av)" d="M315.994 203.85c36.084 73.983 56.274 147.021 59.763 205.289 1.745 29.136-.688 54.552-7.378 74.54-6.688 19.986-17.618 34.505-32.848 41.933-15.231 7.429-33.401 7.102-53.268.069-19.869-7.034-41.396-20.765-63.281-40.077-43.768-38.623-88.892-99.501-124.976-173.484S37.73 165.099 34.242 106.831c-1.744-29.136.689-54.552 7.378-74.54C48.31 12.305 59.24-2.214 74.47-9.642c15.23-7.429 33.4-7.102 53.267-.069 19.869 7.034 41.395 20.765 63.28 40.077 43.768 38.623 88.893 99.501 124.977 173.484Z"/>
  <path stroke="url(#aw)" d="M316.922 205.794c34.788 74.602 53.7 147.982 56.172 206.302 1.236 29.161-1.64 54.532-8.678 74.4-7.036 19.865-18.218 34.192-33.575 41.353-15.358 7.162-33.52 6.518-53.261-.861-19.744-7.38-41.027-21.484-62.571-41.176-43.088-39.38-87.143-101.036-121.93-175.637-34.787-74.602-53.7-147.982-56.172-206.302-1.236-29.161 1.64-54.532 8.678-74.4C52.62 9.608 63.803-4.719 79.16-11.88c15.357-7.162 33.519-6.518 53.26.86 19.744 7.38 41.027 21.485 62.572 41.176 43.087 39.381 87.142 101.037 121.929 175.638Z"/>
  <path stroke="url(#ax)" d="M317.817 207.756c33.48 75.197 51.109 148.896 52.562 207.251.727 29.178-2.592 54.494-9.975 74.236-7.382 19.74-18.812 33.87-34.292 40.762-15.48 6.892-33.628 5.932-53.238-1.791-19.611-7.723-40.645-22.197-61.843-42.261-42.393-40.127-85.366-102.542-118.846-177.739-33.48-75.198-51.109-148.896-52.562-207.251-.727-29.178 2.591-54.494 9.975-74.236C56.98 6.987 68.41-7.143 83.89-14.035c15.48-6.892 33.628-5.932 53.238 1.79 19.611 7.724 40.645 22.198 61.843 42.262 42.393 40.127 85.366 102.542 118.846 177.739Z"/>
  <path stroke="url(#ay)" d="M318.675 209.732c32.163 75.771 48.503 149.766 48.938 208.137.217 29.186-3.543 54.441-11.269 74.051-7.726 19.608-19.401 33.536-34.999 40.157-15.598 6.621-33.726 5.344-53.198-2.72-19.474-8.064-40.252-22.903-61.096-43.334-41.687-40.86-83.563-104.016-115.726-179.786-32.162-75.77-48.503-149.765-48.937-208.136-.218-29.187 3.542-54.441 11.269-74.052 7.725-19.608 19.4-33.535 34.998-40.157 15.598-6.62 33.727-5.344 53.198 2.72 19.474 8.064 40.252 22.903 61.096 43.334 41.687 40.86 83.564 104.016 115.726 179.786Z"/>
  <path stroke="url(#az)" d="M319.499 211.724c30.836 76.32 45.882 150.589 45.298 208.959-.292 29.186-4.492 54.371-12.56 73.844-8.066 19.47-19.982 33.192-35.694 39.539-15.711 6.348-33.815 4.755-53.142-3.647-19.33-8.403-39.847-23.602-60.331-44.394-40.967-41.582-81.735-105.459-112.57-181.779-30.836-76.32-45.882-150.589-45.298-208.958.292-29.186 4.492-54.371 12.56-73.844 8.066-19.47 19.982-33.192 35.694-39.54 15.711-6.347 33.814-4.754 53.142 3.648 19.33 8.403 39.846 23.602 60.331 44.394 40.967 41.582 81.735 105.459 112.57 181.778Z"/>
  <path stroke="url(#aA)" d="M320.29 213.729c29.498 76.847 43.246 151.367 41.644 209.718-.802 29.176-5.441 54.284-13.847 73.613-8.405 19.326-20.559 32.838-36.378 38.91-15.82 6.073-33.893 4.164-53.071-4.574-19.181-8.739-39.429-24.294-59.547-45.44-40.235-42.291-79.882-106.869-109.38-183.716-29.5-76.846-43.247-151.366-41.645-209.717.802-29.176 5.44-54.284 13.847-73.613C70.318-.416 82.472-13.928 98.29-20c15.82-6.073 33.893-4.165 53.071 4.574 19.181 8.739 39.428 24.294 59.547 45.44 40.235 42.29 79.882 106.869 109.381 183.715Z"/>
  <path stroke="url(#aB)" d="M321.044 215.748c28.153 77.35 40.598 152.099 37.977 210.413-1.31 29.158-6.387 54.181-15.129 73.36-8.741 19.177-21.129 32.474-37.052 38.27-15.923 5.795-33.96 3.571-52.983-5.5-19.025-9.073-38.998-24.979-58.745-46.473-39.491-42.986-78.005-108.246-106.158-185.596C60.802 222.873 48.356 148.124 50.977 89.81c1.31-29.158 6.387-54.181 15.129-73.36 8.741-19.177 21.129-32.475 37.052-38.27 15.923-5.796 33.96-3.572 52.983 5.5 19.025 9.072 38.998 24.978 58.745 46.472 39.491 42.986 78.005 108.247 106.158 185.596Z"/>
  <path stroke="url(#aC)" d="M321.764 217.78c26.799 77.829 37.938 152.784 34.299 211.043-1.819 29.13-7.331 54.061-16.407 73.085-9.074 19.021-21.692 32.101-37.714 37.617-16.022 5.517-34.017 2.979-52.879-6.423-18.864-9.404-38.556-25.656-57.924-47.491-38.735-43.669-76.104-109.592-102.903-187.421-26.799-77.829-37.938-152.784-34.3-211.043 1.82-29.13 7.332-54.061 16.408-73.085 9.074-19.021 21.692-32.1 37.714-37.617 16.022-5.517 34.017-2.979 52.879 6.423 18.864 9.404 38.556 25.656 57.924 47.491 38.735 43.669 76.104 109.592 102.903 187.421Z"/>
  <path stroke="url(#aD)" d="M322.448 219.824c25.436 78.285 35.265 153.423 30.611 211.61-2.327 29.094-8.274 53.925-17.68 72.787-9.405 18.86-22.249 31.717-38.365 36.954-16.116 5.236-34.064 2.384-52.759-7.346-18.697-9.731-38.103-26.324-57.087-48.494-37.967-44.338-74.18-110.904-99.616-189.188-25.436-78.285-35.265-153.423-30.61-211.61 2.326-29.094 8.273-53.925 17.68-72.787 9.404-18.86 22.249-31.718 38.364-36.954 16.116-5.236 34.064-2.384 52.759 7.346 18.697 9.73 38.103 26.324 57.087 48.494 37.967 44.338 74.18 110.903 99.616 189.188Z"/>
  <path stroke="url(#aE)" d="M323.097 221.88c24.066 78.717 32.582 154.014 26.913 212.111-2.835 29.049-9.214 53.773-18.948 72.468-9.733 18.693-22.799 31.324-39.004 36.278-16.205 4.955-34.101 1.79-52.623-8.265-18.524-10.056-37.637-26.985-56.231-49.483-37.188-44.994-72.233-112.181-96.3-190.898-24.066-78.717-32.582-154.015-26.913-212.112C62.826 52.93 69.205 28.208 78.94 9.513c9.733-18.693 22.799-31.325 39.004-36.279 16.205-4.954 34.101-1.79 52.623 8.265 18.524 10.056 37.637 26.986 56.232 49.484 37.187 44.994 72.233 112.181 96.299 190.898Z"/>
  <path stroke="url(#aF)" d="M323.709 223.946c22.689 79.125 29.89 154.56 23.207 212.549-3.341 28.995-10.15 53.603-20.209 72.126-10.058 18.52-23.343 30.921-39.632 35.592-16.288 4.671-34.126 1.194-52.47-9.182-18.346-10.378-37.161-27.638-55.36-50.458-36.396-45.636-70.264-113.424-92.952-192.549-22.69-79.125-29.89-154.56-23.208-212.549C66.427 50.48 73.236 25.872 83.295 7.35c10.058-18.52 23.343-30.921 39.631-35.592 16.289-4.67 34.127-1.194 52.471 9.182 18.346 10.378 37.16 27.638 55.359 50.457 36.397 45.637 70.264 113.425 92.953 192.55Z"/>
  <path stroke="url(#aG)" d="M324.285 226.023c21.304 79.509 27.187 155.058 19.494 212.922-3.847 28.932-11.085 53.418-21.465 71.762-10.38 18.342-23.879 30.509-40.247 34.895-16.368 4.386-34.142.598-52.302-10.097-18.162-10.696-36.673-28.282-54.471-51.415-35.594-46.265-68.273-114.634-89.578-194.143C64.412 210.439 58.53 134.889 66.222 77.026c3.847-28.933 11.085-53.418 21.465-71.762 10.38-18.342 23.879-30.51 40.247-34.896 16.367-4.385 34.142-.598 52.302 10.097 18.162 10.696 36.673 28.283 54.47 51.416 35.595 46.264 68.274 114.633 89.579 194.142Z"/>
  <path stroke="url(#aH)" d="M324.824 228.11c19.914 79.868 24.478 155.509 15.776 213.229-4.351 28.861-12.015 53.217-22.715 71.377-10.698 18.158-24.407 30.088-40.849 34.187-16.442 4.1-34.148.003-52.118-11.008-17.973-11.011-36.174-28.918-53.565-52.358-34.781-46.879-66.263-115.808-86.176-195.676C65.263 207.992 60.699 132.352 69.4 74.631c4.352-28.86 12.016-53.216 22.715-71.376 10.698-18.158 24.407-30.088 40.849-34.188 16.442-4.1 34.148-.002 52.118 11.008 17.973 11.012 36.174 28.918 53.565 52.359 34.781 46.878 66.263 115.807 86.176 195.676Z"/>
  <path stroke="url(#aI)" d="M325.328 230.205c18.516 80.204 21.759 155.913 12.051 213.472-4.854 28.781-12.942 52.999-23.956 70.97-11.014 17.969-24.93 29.657-41.44 33.469-16.511 3.812-34.143-.593-51.918-11.916-17.778-11.323-35.664-29.545-52.643-53.285-33.958-47.478-64.232-116.946-82.748-197.15-18.517-80.204-21.76-155.913-12.052-213.472 4.854-28.781 12.942-53 23.957-70.97 11.013-17.969 24.929-29.657 41.44-33.47 16.51-3.811 34.142.595 51.917 11.917C207.714-8.907 225.6 9.315 242.579 33.055c33.958 47.479 64.232 116.946 82.749 197.15Z"/>
  <path stroke="url(#aJ)" d="M325.794 232.309c17.114 80.515 19.035 156.269 8.324 213.65-5.356 28.692-13.865 52.765-25.192 70.541-11.325 17.774-25.443 29.218-42.018 32.741-16.574 3.523-34.126-1.19-51.702-12.82-17.577-11.632-35.142-30.163-51.705-54.196-33.124-48.064-62.181-118.05-79.294-198.565-17.114-80.515-19.036-156.268-8.325-213.65 5.356-28.692 13.865-52.765 25.192-70.54 11.325-17.774 25.443-29.218 42.018-32.741 16.575-3.523 34.126 1.19 51.702 12.82 17.577 11.632 35.142 30.163 51.705 54.196 33.124 48.064 62.181 118.049 79.295 198.564Z"/>
  <path stroke="url(#aK)" d="M326.224 234.422c15.706 80.801 16.304 156.576 4.594 213.762-5.856 28.594-14.784 52.515-26.419 70.09-11.634 17.574-25.949 28.77-42.583 32.003-16.634 3.233-34.101-1.785-51.47-13.72-17.372-11.938-34.611-30.772-50.752-55.09-32.28-48.635-60.11-119.117-75.817-199.919-15.706-80.801-16.305-156.576-4.594-213.762 5.856-28.594 14.784-52.515 26.419-70.09 11.633-17.574 25.949-28.77 42.582-32.003 16.634-3.233 34.101 1.785 51.471 13.72 17.371 11.937 34.61 30.772 50.751 55.09 32.28 48.635 60.111 119.117 75.818 199.919Z"/>
  <path stroke="url(#aL)" d="M326.617 236.541c14.293 81.063 13.57 156.837.863 213.81-6.354 28.487-15.699 52.249-27.638 69.618-11.939 17.368-26.447 28.312-43.135 31.255-16.688 2.942-34.065-2.38-51.223-14.617-17.161-12.238-34.069-31.371-49.782-55.967-31.427-49.191-58.024-120.148-72.317-201.211-14.294-81.063-13.57-156.838-.863-213.81C88.876 37.13 98.22 13.369 110.16-4c11.939-17.367 26.447-28.312 43.135-31.254 16.688-2.943 34.064 2.38 51.223 14.616C221.679-8.399 238.586 10.733 254.3 35.33c31.427 49.19 58.023 120.147 72.317 201.211Z"/>
  <path stroke="url(#aM)" d="M326.971 238.667c12.877 81.3 10.83 157.05-2.869 213.792-6.85 28.373-16.608 51.967-28.849 69.126-12.24 17.157-26.937 27.846-43.673 30.497-16.737 2.651-34.018-2.974-50.961-15.508-16.944-12.536-33.515-31.961-48.797-56.828-30.564-49.732-55.918-121.142-68.795-202.442-12.876-81.301-10.83-157.051 2.87-213.793 6.85-28.372 16.607-51.967 28.848-69.126 12.24-17.156 26.937-27.846 43.674-30.497 16.736-2.65 34.018 2.974 50.96 15.509 16.944 12.536 33.516 31.96 48.798 56.827 30.563 49.732 55.917 121.142 68.794 202.443Z"/>
  <path stroke="url(#aN)" d="M327.291 240.798c11.456 81.513 8.088 157.216-6.6 213.71-7.344 28.249-17.512 51.67-30.05 68.612-12.538 16.94-27.419 27.372-44.2 29.73-16.78 2.359-33.96-3.567-50.681-16.395-16.724-12.83-32.953-32.541-47.799-57.671-29.691-50.257-53.795-122.099-65.25-203.612-11.457-81.513-8.089-157.216 6.6-213.71 7.343-28.248 17.511-51.67 30.05-68.612 12.537-16.94 27.419-27.372 44.199-29.73 16.78-2.358 33.961 3.567 50.682 16.396 16.723 12.83 32.953 32.54 47.799 57.67 29.69 50.258 53.794 122.1 65.25 203.612Z"/>
  <path stroke="url(#aO)" d="M327.571 242.935c10.031 81.7 5.343 157.332-10.329 213.562-7.836 28.116-18.411 51.356-31.243 68.077-12.832 16.719-27.893 26.889-44.712 28.954-16.819 2.065-33.893-4.159-50.388-17.278-16.496-13.119-32.379-33.111-46.785-58.496-28.809-50.768-51.655-123.02-61.687-204.72-10.031-81.7-5.343-157.332 10.329-213.562C100.592 31.356 111.167 8.116 124-8.605c12.831-16.719 27.892-26.889 44.711-28.954 16.819-2.065 33.893 4.16 50.388 17.278 16.496 13.12 32.38 33.11 46.785 58.496 28.809 50.768 51.655 123.019 61.687 204.72Z"/>
  <path stroke="url(#aP)" d="M327.815 245.076c8.604 81.863 2.597 157.402-14.054 213.35-8.325 27.975-19.304 51.026-32.427 67.521-13.121 16.492-28.357 26.398-45.21 28.169-16.852 1.772-33.815-4.75-50.078-18.154-16.265-13.406-31.797-33.671-45.757-59.304-27.919-51.263-49.5-123.902-58.105-205.765-8.604-81.863-2.596-157.402 14.054-213.35 8.326-27.974 19.305-51.026 32.427-67.52 13.121-16.493 28.358-26.399 45.21-28.17 16.852-1.771 33.815 4.75 50.079 18.154 16.265 13.406 31.797 33.671 45.756 59.304 27.919 51.263 49.501 123.902 58.105 205.765Z"/>
  <path stroke="url(#aQ)" d="M328.022 247.222c7.174 82.001-.151 157.424-17.775 213.072-8.813 27.825-20.192 50.682-33.601 66.945-13.406 16.261-28.814 25.899-45.694 27.376-16.881 1.477-33.728-5.339-49.754-19.025-16.029-13.688-31.205-34.221-44.715-60.094-27.02-51.742-47.331-124.747-54.505-206.748-7.174-82 .15-157.423 17.775-213.071 8.813-27.826 20.192-50.682 33.601-66.945 13.406-16.261 28.814-25.9 45.694-27.377 16.881-1.476 33.728 5.34 49.755 19.026 16.028 13.687 31.204 34.22 44.714 60.093 27.02 51.743 47.331 124.748 54.505 206.748Z"/>
  <path stroke="url(#aR)" d="M328.191 249.371c5.742 82.113-2.898 157.397-21.491 212.729-9.297 27.668-21.074 50.322-34.764 66.349-13.688 16.024-29.261 25.392-46.165 26.574-16.904 1.182-33.629-5.927-49.415-19.891-15.787-13.965-30.602-34.76-43.659-60.864C106.584 422.062 87.55 348.713 81.808 266.6c-5.742-82.113 2.899-157.397 21.492-212.729 9.296-27.667 21.073-50.322 34.763-66.348 13.689-16.025 29.262-25.393 46.166-26.575 16.904-1.182 33.629 5.928 49.415 19.891 15.787 13.965 30.602 34.76 43.659 60.865 26.112 52.206 45.146 125.554 50.888 207.667Z"/>
  <path stroke="url(#aS)" d="M328.323 251.522c4.308 82.201-5.645 157.322-25.2 212.322-9.778 27.5-21.949 49.946-35.917 65.731-13.966 15.783-29.7 24.878-46.622 25.765-16.922.887-33.52-6.514-49.06-20.751-15.541-14.238-29.991-35.289-42.59-61.617-25.198-52.654-42.948-126.323-47.257-208.524-4.307-82.201 5.646-157.322 25.201-212.322 9.778-27.5 21.949-49.946 35.917-65.731 13.966-15.783 29.7-24.878 46.622-25.765 16.922-.887 33.52 6.514 49.06 20.75 15.541 14.239 29.991 35.29 42.59 61.618 25.198 52.654 42.948 126.323 47.256 208.524Z"/>
  <path stroke="url(#aT)" d="M328.417 253.675c2.872 82.264-8.39 157.2-28.903 211.85-10.256 27.325-22.817 49.555-37.058 65.094-14.239 15.537-30.13 24.356-47.065 24.947-16.934.592-33.401-7.097-48.69-21.603-15.29-14.508-29.371-35.807-41.508-62.351-24.275-53.086-40.737-127.054-43.61-209.317-2.873-82.264 8.39-157.2 28.902-211.85C120.742 23.12 133.302.89 147.543-14.649c14.24-15.537 30.13-24.356 47.065-24.948 16.935-.591 33.402 7.098 48.69 21.604 15.291 14.507 29.371 35.807 41.509 62.35 24.274 53.087 40.737 127.055 43.61 209.318Z"/>
  <path stroke="url(#aU)" d="M328.474 255.829c1.437 82.301-11.132 157.03-32.595 211.313-10.732 27.143-23.678 49.15-38.188 64.438-14.509 15.286-30.551 23.826-47.493 24.122-16.943.296-33.273-7.679-48.306-22.45-15.035-14.772-28.742-36.314-40.414-63.066-23.345-53.501-38.514-127.745-39.95-210.046-1.437-82.301 11.132-157.03 32.595-211.313 10.732-27.143 23.678-49.15 38.188-64.438 14.509-15.286 30.551-23.826 47.493-24.122 16.943-.296 33.273 7.68 48.306 22.45 15.035 14.772 28.741 36.314 40.414 63.066 23.345 53.501 38.514 127.745 39.95 210.046Z"/>
  <path stroke="url(#aV)" d="M328.492 257.985c0 82.313-13.871 156.811-36.278 210.711-11.204 26.952-24.533 48.73-39.307 63.762-14.773 15.031-30.962 23.289-47.907 23.289-16.945 0-33.134-8.258-47.907-23.289-14.774-15.032-28.103-36.81-39.307-63.762-22.407-53.9-36.278-128.398-36.278-210.711 0-82.314 13.87-156.812 36.278-210.712 11.204-26.952 24.533-48.73 39.307-63.762 14.773-15.03 30.962-23.29 47.907-23.29 16.945 0 33.134 8.26 47.907 23.29 14.774 15.033 28.103 36.81 39.307 63.762 22.407 53.9 36.278 128.398 36.278 210.712Z"/>
  <defs>
    <linearGradient id="a" x1="216.928" x2="193.856" y1="329.346" y2="183.674" gradientUnits="userSpaceOnUse">
      <stop stop-color="#FF1CF7"/>
      <stop offset="1" stop-color="#00F0FF"/>
    </linearGradient>
    <linearGradient id="b" x1="215.681" x2="195.154" y1="329.543" y2="183.491" gradientUnits="userSpaceOnUse">
      <stop stop-color="#FF1CF7"/>
      <stop offset="1" stop-color="#00F0FF"/>
    </linearGradient>
    <linearGradient id="c" x1="214.429" x2="196.455" y1="329.719" y2="183.33" gradientUnits="userSpaceOnUse">
      <stop stop-color="#FF1CF7"/>
      <stop offset="1" stop-color="#00F0FF"/>
    </linearGradient>
    <linearGradient id="d" x1="213.177" x2="197.76" y1="329.872" y2="183.193" gradientUnits="userSpaceOnUse">
      <stop stop-color="#FF1CF7"/>
      <stop offset="1" stop-color="#00F0FF"/>
    </linearGradient>
    <linearGradient id="e" x1="211.92" x2="199.065" y1="330.004" y2="183.078" gradientUnits="userSpaceOnUse">
      <stop stop-color="#FF1CF7"/>
      <stop offset="1" stop-color="#00F0FF"/>
    </linearGradient>
    <linearGradient id="f" x1="210.663" x2="200.375" y1="330.114" y2="182.985" gradientUnits="userSpaceOnUse">
      <stop stop-color="#FF1CF7"/>
      <stop offset="1" stop-color="#00F0FF"/>
    </linearGradient>
    <linearGradient id="g" x1="209.403" x2="201.684" y1="330.202" y2="182.916" gradientUnits="userSpaceOnUse">
      <stop stop-color="#FF1CF7"/>
      <stop offset="1" stop-color="#00F0FF"/>
    </linearGradient>
    <linearGradient id="h" x1="208.142" x2="202.995" y1="330.267" y2="182.869" gradientUnits="userSpaceOnUse">
      <stop stop-color="#FF1CF7"/>
      <stop offset="1" stop-color="#00F0FF"/>
    </linearGradient>
    <linearGradient id="i" x1="206.881" x2="204.307" y1="330.311" y2="182.846" gradientUnits="userSpaceOnUse">
      <stop stop-color="#FF1CF7"/>
      <stop offset="1" stop-color="#00F0FF"/>
    </linearGradient>
    <linearGradient id="j" x1="205.617" x2="205.617" y1="330.333" y2="182.845" gradientUnits="userSpaceOnUse">
      <stop stop-color="#FF1CF7"/>
      <stop offset="1" stop-color="#00F0FF"/>
    </linearGradient>
    <linearGradient id="k" x1="204.355" x2="206.929" y1="330.333" y2="182.868" gradientUnits="userSpaceOnUse">
      <stop stop-color="#FF1CF7"/>
      <stop offset="1" stop-color="#00F0FF"/>
    </linearGradient>
    <linearGradient id="l" x1="203.092" x2="208.24" y1="330.31" y2="182.912" gradientUnits="userSpaceOnUse">
      <stop stop-color="#FF1CF7"/>
      <stop offset="1" stop-color="#00F0FF"/>
    </linearGradient>
    <linearGradient id="m" x1="201.83" x2="209.549" y1="330.266" y2="182.98" gradientUnits="userSpaceOnUse">
      <stop stop-color="#FF1CF7"/>
      <stop offset="1" stop-color="#00F0FF"/>
    </linearGradient>
    <linearGradient id="n" x1="200.569" x2="210.857" y1="330.2" y2="183.071" gradientUnits="userSpaceOnUse">
      <stop stop-color="#FF1CF7"/>
      <stop offset="1" stop-color="#00F0FF"/>
    </linearGradient>
    <linearGradient id="o" x1="199.311" x2="212.165" y1="330.111" y2="183.185" gradientUnits="userSpaceOnUse">
      <stop stop-color="#FF1CF7"/>
      <stop offset="1" stop-color="#00F0FF"/>
    </linearGradient>
    <linearGradient id="p" x1="198.051" x2="213.468" y1="330.001" y2="183.321" gradientUnits="userSpaceOnUse">
      <stop stop-color="#FF1CF7"/>
      <stop offset="1" stop-color="#00F0FF"/>
    </linearGradient>
    <linearGradient id="q" x1="196.796" x2="214.77" y1="329.869" y2="183.48" gradientUnits="userSpaceOnUse">
      <stop stop-color="#FF1CF7"/>
      <stop offset="1" stop-color="#00F0FF"/>
    </linearGradient>
    <linearGradient id="r" x1="195.542" x2="216.068" y1="329.715" y2="183.662" gradientUnits="userSpaceOnUse">
      <stop stop-color="#FF1CF7"/>
      <stop offset="1" stop-color="#00F0FF"/>
    </linearGradient>
    <linearGradient id="s" x1="194.291" x2="217.363" y1="329.539" y2="183.867" gradientUnits="userSpaceOnUse">
      <stop stop-color="#FF1CF7"/>
      <stop offset="1" stop-color="#00F0FF"/>
    </linearGradient>
    <linearGradient id="t" x1="193.046" x2="218.657" y1="329.341" y2="184.094" gradientUnits="userSpaceOnUse">
      <stop stop-color="#FF1CF7"/>
      <stop offset="1" stop-color="#00F0FF"/>
    </linearGradient>
    <linearGradient id="u" x1="191.802" x2="219.944" y1="329.121" y2="184.343" gradientUnits="userSpaceOnUse">
      <stop stop-color="#FF1CF7"/>
      <stop offset="1" stop-color="#00F0FF"/>
    </linearGradient>
    <linearGradient id="v" x1="190.561" x2="221.226" y1="328.88" y2="184.616" gradientUnits="userSpaceOnUse">
      <stop stop-color="#FF1CF7"/>
      <stop offset="1" stop-color="#00F0FF"/>
    </linearGradient>
    <linearGradient id="w" x1="189.328" x2="222.505" y1="328.618" y2="184.91" gradientUnits="userSpaceOnUse">
      <stop stop-color="#FF1CF7"/>
      <stop offset="1" stop-color="#00F0FF"/>
    </linearGradient>
    <linearGradient id="x" x1="188.096" x2="223.776" y1="328.333" y2="185.226" gradientUnits="userSpaceOnUse">
      <stop stop-color="#FF1CF7"/>
      <stop offset="1" stop-color="#00F0FF"/>
    </linearGradient>
    <linearGradient id="y" x1="186.871" x2="225.044" y1="328.028" y2="185.565" gradientUnits="userSpaceOnUse">
      <stop stop-color="#FF1CF7"/>
      <stop offset="1" stop-color="#00F0FF"/>
    </linearGradient>
    <linearGradient id="z" x1="185.652" x2="226.306" y1="327.701" y2="185.926" gradientUnits="userSpaceOnUse">
      <stop stop-color="#FF1CF7"/>
      <stop offset="1" stop-color="#00F0FF"/>
    </linearGradient>
    <linearGradient id="A" x1="184.438" x2="227.559" y1="327.352" y2="186.309" gradientUnits="userSpaceOnUse">
      <stop stop-color="#FF1CF7"/>
      <stop offset="1" stop-color="#00F0FF"/>
    </linearGradient>
    <linearGradient id="B" x1="183.231" x2="228.807" y1="326.983" y2="186.713" gradientUnits="userSpaceOnUse">
      <stop stop-color="#FF1CF7"/>
      <stop offset="1" stop-color="#00F0FF"/>
    </linearGradient>
    <linearGradient id="C" x1="182.03" x2="230.047" y1="326.592" y2="187.14" gradientUnits="userSpaceOnUse">
      <stop stop-color="#FF1CF7"/>
      <stop offset="1" stop-color="#00F0FF"/>
    </linearGradient>
    <linearGradient id="D" x1="180.835" x2="231.279" y1="326.181" y2="187.588" gradientUnits="userSpaceOnUse">
      <stop stop-color="#FF1CF7"/>
      <stop offset="1" stop-color="#00F0FF"/>
    </linearGradient>
    <linearGradient id="E" x1="179.65" x2="232.505" y1="325.749" y2="188.057" gradientUnits="userSpaceOnUse">
      <stop stop-color="#FF1CF7"/>
      <stop offset="1" stop-color="#00F0FF"/>
    </linearGradient>
    <linearGradient id="F" x1="178.471" x2="233.721" y1="325.296" y2="188.548" gradientUnits="userSpaceOnUse">
      <stop stop-color="#FF1CF7"/>
      <stop offset="1" stop-color="#00F0FF"/>
    </linearGradient>
    <linearGradient id="G" x1="177.3" x2="234.928" y1="324.823" y2="189.06" gradientUnits="userSpaceOnUse">
      <stop stop-color="#FF1CF7"/>
      <stop offset="1" stop-color="#00F0FF"/>
    </linearGradient>
    <linearGradient id="H" x1="176.138" x2="236.127" y1="324.329" y2="189.592" gradientUnits="userSpaceOnUse">
      <stop stop-color="#FF1CF7"/>
      <stop offset="1" stop-color="#00F0FF"/>
    </linearGradient>
    <linearGradient id="I" x1="174.985" x2="237.316" y1="323.815" y2="190.146" gradientUnits="userSpaceOnUse">
      <stop stop-color="#FF1CF7"/>
      <stop offset="1" stop-color="#00F0FF"/>
    </linearGradient>
    <linearGradient id="J" x1="173.839" x2="238.494" y1="323.282" y2="190.72" gradientUnits="userSpaceOnUse">
      <stop stop-color="#FF1CF7"/>
      <stop offset="1" stop-color="#00F0FF"/>
    </linearGradient>
    <linearGradient id="K" x1="172.705" x2="239.663" y1="322.728" y2="191.316" gradientUnits="userSpaceOnUse">
      <stop stop-color="#FF1CF7"/>
      <stop offset="1" stop-color="#00F0FF"/>
    </linearGradient>
    <linearGradient id="L" x1="171.581" x2="240.822" y1="322.154" y2="191.93" gradientUnits="userSpaceOnUse">
      <stop stop-color="#FF1CF7"/>
      <stop offset="1" stop-color="#00F0FF"/>
    </linearGradient>
    <linearGradient id="M" x1="170.466" x2="241.969" y1="321.561" y2="192.565" gradientUnits="userSpaceOnUse">
      <stop stop-color="#FF1CF7"/>
      <stop offset="1" stop-color="#00F0FF"/>
    </linearGradient>
    <linearGradient id="N" x1="169.361" x2="243.105" y1="320.949" y2="193.221" gradientUnits="userSpaceOnUse">
      <stop stop-color="#FF1CF7"/>
      <stop offset="1" stop-color="#00F0FF"/>
    </linearGradient>
    <linearGradient id="O" x1="168.268" x2="244.229" y1="320.317" y2="193.896" gradientUnits="userSpaceOnUse">
      <stop stop-color="#FF1CF7"/>
      <stop offset="1" stop-color="#00F0FF"/>
    </linearGradient>
    <linearGradient id="P" x1="167.186" x2="245.342" y1="319.666" y2="194.59" gradientUnits="userSpaceOnUse">
      <stop stop-color="#FF1CF7"/>
      <stop offset="1" stop-color="#00F0FF"/>
    </linearGradient>
    <linearGradient id="Q" x1="166.114" x2="246.441" y1="318.997" y2="195.303" gradientUnits="userSpaceOnUse">
      <stop stop-color="#FF1CF7"/>
      <stop offset="1" stop-color="#00F0FF"/>
    </linearGradient>
    <linearGradient id="R" x1="165.055" x2="247.529" y1="318.309" y2="196.036" gradientUnits="userSpaceOnUse">
      <stop stop-color="#FF1CF7"/>
      <stop offset="1" stop-color="#00F0FF"/>
    </linearGradient>
    <linearGradient id="S" x1="164.009" x2="248.604" y1="317.603" y2="196.788" gradientUnits="userSpaceOnUse">
      <stop stop-color="#FF1CF7"/>
      <stop offset="1" stop-color="#00F0FF"/>
    </linearGradient>
    <linearGradient id="T" x1="162.975" x2="249.666" y1="316.879" y2="197.559" gradientUnits="userSpaceOnUse">
      <stop stop-color="#FF1CF7"/>
      <stop offset="1" stop-color="#00F0FF"/>
    </linearGradient>
    <linearGradient id="U" x1="161.952" x2="250.713" y1="316.136" y2="198.347" gradientUnits="userSpaceOnUse">
      <stop stop-color="#FF1CF7"/>
      <stop offset="1" stop-color="#00F0FF"/>
    </linearGradient>
    <linearGradient id="V" x1="160.945" x2="251.748" y1="315.376" y2="199.154" gradientUnits="userSpaceOnUse">
      <stop stop-color="#FF1CF7"/>
      <stop offset="1" stop-color="#00F0FF"/>
    </linearGradient>
    <linearGradient id="W" x1="159.95" x2="252.767" y1="314.599" y2="199.979" gradientUnits="userSpaceOnUse">
      <stop stop-color="#FF1CF7"/>
      <stop offset="1" stop-color="#00F0FF"/>
    </linearGradient>
    <linearGradient id="X" x1="158.968" x2="253.772" y1="313.804" y2="200.822" gradientUnits="userSpaceOnUse">
      <stop stop-color="#FF1CF7"/>
      <stop offset="1" stop-color="#00F0FF"/>
    </linearGradient>
    <linearGradient id="Y" x1="158.002" x2="254.763" y1="312.992" y2="201.681" gradientUnits="userSpaceOnUse">
      <stop stop-color="#FF1CF7"/>
      <stop offset="1" stop-color="#00F0FF"/>
    </linearGradient>
    <linearGradient id="Z" x1="157.049" x2="255.737" y1="312.163" y2="202.558" gradientUnits="userSpaceOnUse">
      <stop stop-color="#FF1CF7"/>
      <stop offset="1" stop-color="#00F0FF"/>
    </linearGradient>
    <linearGradient id="aa" x1="156.111" x2="256.698" y1="311.318" y2="203.453" gradientUnits="userSpaceOnUse">
      <stop stop-color="#FF1CF7"/>
      <stop offset="1" stop-color="#00F0FF"/>
    </linearGradient>
    <linearGradient id="ab" x1="155.186" x2="257.64" y1="310.456" y2="204.363" gradientUnits="userSpaceOnUse">
      <stop stop-color="#FF1CF7"/>
      <stop offset="1" stop-color="#00F0FF"/>
    </linearGradient>
    <linearGradient id="ac" x1="154.278" x2="258.568" y1="309.579" y2="205.29" gradientUnits="userSpaceOnUse">
      <stop stop-color="#FF1CF7"/>
      <stop offset="1" stop-color="#00F0FF"/>
    </linearGradient>
    <linearGradient id="ad" x1="153.387" x2="259.48" y1="308.687" y2="206.233" gradientUnits="userSpaceOnUse">
      <stop stop-color="#FF1CF7"/>
      <stop offset="1" stop-color="#00F0FF"/>
    </linearGradient>
    <linearGradient id="ae" x1="152.508" x2="260.374" y1="307.778" y2="207.191" gradientUnits="userSpaceOnUse">
      <stop stop-color="#FF1CF7"/>
      <stop offset="1" stop-color="#00F0FF"/>
    </linearGradient>
    <linearGradient id="af" x1="151.648" x2="261.253" y1="306.854" y2="208.165" gradientUnits="userSpaceOnUse">
      <stop stop-color="#FF1CF7"/>
      <stop offset="1" stop-color="#00F0FF"/>
    </linearGradient>
    <linearGradient id="ag" x1="150.804" x2="262.114" y1="305.916" y2="209.155" gradientUnits="userSpaceOnUse">
      <stop stop-color="#FF1CF7"/>
      <stop offset="1" stop-color="#00F0FF"/>
    </linearGradient>
    <linearGradient id="ah" x1="149.975" x2="262.957" y1="304.962" y2="210.159" gradientUnits="userSpaceOnUse">
      <stop stop-color="#FF1CF7"/>
      <stop offset="1" stop-color="#00F0FF"/>
    </linearGradient>
    <linearGradient id="ai" x1="149.164" x2="263.784" y1="303.995" y2="211.178" gradientUnits="userSpaceOnUse">
      <stop stop-color="#FF1CF7"/>
      <stop offset="1" stop-color="#00F0FF"/>
    </linearGradient>
    <linearGradient id="aj" x1="148.369" x2="264.591" y1="303.014" y2="212.211" gradientUnits="userSpaceOnUse">
      <stop stop-color="#FF1CF7"/>
      <stop offset="1" stop-color="#00F0FF"/>
    </linearGradient>
    <linearGradient id="ak" x1="147.592" x2="265.381" y1="302.018" y2="213.258" gradientUnits="userSpaceOnUse">
      <stop stop-color="#FF1CF7"/>
      <stop offset="1" stop-color="#00F0FF"/>
    </linearGradient>
    <linearGradient id="al" x1="146.831" x2="266.152" y1="301.01" y2="214.318" gradientUnits="userSpaceOnUse">
      <stop stop-color="#FF1CF7"/>
      <stop offset="1" stop-color="#00F0FF"/>
    </linearGradient>
    <linearGradient id="am" x1="146.09" x2="266.905" y1="299.988" y2="215.392" gradientUnits="userSpaceOnUse">
      <stop stop-color="#FF1CF7"/>
      <stop offset="1" stop-color="#00F0FF"/>
    </linearGradient>
    <linearGradient id="an" x1="145.367" x2="267.64" y1="298.953" y2="216.479" gradientUnits="userSpaceOnUse">
      <stop stop-color="#FF1CF7"/>
      <stop offset="1" stop-color="#00F0FF"/>
    </linearGradient>
    <linearGradient id="ao" x1="144.661" x2="268.354" y1="297.906" y2="217.579" gradientUnits="userSpaceOnUse">
      <stop stop-color="#FF1CF7"/>
      <stop offset="1" stop-color="#00F0FF"/>
    </linearGradient>
    <linearGradient id="ap" x1="143.972" x2="269.049" y1="296.847" y2="218.691" gradientUnits="userSpaceOnUse">
      <stop stop-color="#FF1CF7"/>
      <stop offset="1" stop-color="#00F0FF"/>
    </linearGradient>
    <linearGradient id="aq" x1="143.304" x2="269.726" y1="295.776" y2="219.815" gradientUnits="userSpaceOnUse">
      <stop stop-color="#FF1CF7"/>
      <stop offset="1" stop-color="#00F0FF"/>
    </linearGradient>
    <linearGradient id="ar" x1="142.653" x2="270.382" y1="294.694" y2="220.95" gradientUnits="userSpaceOnUse">
      <stop stop-color="#FF1CF7"/>
      <stop offset="1" stop-color="#00F0FF"/>
    </linearGradient>
    <linearGradient id="as" x1="142.022" x2="271.018" y1="293.6" y2="222.096" gradientUnits="userSpaceOnUse">
      <stop stop-color="#FF1CF7"/>
      <stop offset="1" stop-color="#00F0FF"/>
    </linearGradient>
    <linearGradient id="at" x1="141.411" x2="271.635" y1="292.496" y2="223.254" gradientUnits="userSpaceOnUse">
      <stop stop-color="#FF1CF7"/>
      <stop offset="1" stop-color="#00F0FF"/>
    </linearGradient>
    <linearGradient id="au" x1="140.817" x2="272.23" y1="291.38" y2="224.422" gradientUnits="userSpaceOnUse">
      <stop stop-color="#FF1CF7"/>
      <stop offset="1" stop-color="#00F0FF"/>
    </linearGradient>
    <linearGradient id="av" x1="140.244" x2="272.806" y1="290.255" y2="225.601" gradientUnits="userSpaceOnUse">
      <stop stop-color="#FF1CF7"/>
      <stop offset="1" stop-color="#00F0FF"/>
    </linearGradient>
    <linearGradient id="aw" x1="139.692" x2="273.361" y1="289.12" y2="226.789" gradientUnits="userSpaceOnUse">
      <stop stop-color="#FF1CF7"/>
      <stop offset="1" stop-color="#00F0FF"/>
    </linearGradient>
    <linearGradient id="ax" x1="139.159" x2="273.896" y1="287.976" y2="227.987" gradientUnits="userSpaceOnUse">
      <stop stop-color="#FF1CF7"/>
      <stop offset="1" stop-color="#00F0FF"/>
    </linearGradient>
    <linearGradient id="ay" x1="138.645" x2="274.408" y1="286.822" y2="229.194" gradientUnits="userSpaceOnUse">
      <stop stop-color="#FF1CF7"/>
      <stop offset="1" stop-color="#00F0FF"/>
    </linearGradient>
    <linearGradient id="az" x1="138.151" x2="274.899" y1="285.66" y2="230.41" gradientUnits="userSpaceOnUse">
      <stop stop-color="#FF1CF7"/>
      <stop offset="1" stop-color="#00F0FF"/>
    </linearGradient>
    <linearGradient id="aA" x1="137.678" x2="275.37" y1="284.489" y2="231.634" gradientUnits="userSpaceOnUse">
      <stop stop-color="#FF1CF7"/>
      <stop offset="1" stop-color="#00F0FF"/>
    </linearGradient>
    <linearGradient id="aB" x1="137.225" x2="275.818" y1="283.31" y2="232.866" gradientUnits="userSpaceOnUse">
      <stop stop-color="#FF1CF7"/>
      <stop offset="1" stop-color="#00F0FF"/>
    </linearGradient>
    <linearGradient id="aC" x1="136.795" x2="276.247" y1="282.123" y2="234.106" gradientUnits="userSpaceOnUse">
      <stop stop-color="#FF1CF7"/>
      <stop offset="1" stop-color="#00F0FF"/>
    </linearGradient>
    <linearGradient id="aD" x1="136.384" x2="276.653" y1="280.929" y2="235.353" gradientUnits="userSpaceOnUse">
      <stop stop-color="#FF1CF7"/>
      <stop offset="1" stop-color="#00F0FF"/>
    </linearGradient>
    <linearGradient id="aE" x1="135.994" x2="277.038" y1="279.728" y2="236.607" gradientUnits="userSpaceOnUse">
      <stop stop-color="#FF1CF7"/>
      <stop offset="1" stop-color="#00F0FF"/>
    </linearGradient>
    <linearGradient id="aF" x1="135.626" x2="277.4" y1="278.52" y2="237.867" gradientUnits="userSpaceOnUse">
      <stop stop-color="#FF1CF7"/>
      <stop offset="1" stop-color="#00F0FF"/>
    </linearGradient>
    <linearGradient id="aG" x1="135.277" x2="277.74" y1="277.307" y2="239.134" gradientUnits="userSpaceOnUse">
      <stop stop-color="#FF1CF7"/>
      <stop offset="1" stop-color="#00F0FF"/>
    </linearGradient>
    <linearGradient id="aH" x1="134.951" x2="278.058" y1="276.087" y2="240.407" gradientUnits="userSpaceOnUse">
      <stop stop-color="#FF1CF7"/>
      <stop offset="1" stop-color="#00F0FF"/>
    </linearGradient>
    <linearGradient id="aI" x1="134.646" x2="278.353" y1="274.861" y2="241.684" gradientUnits="userSpaceOnUse">
      <stop stop-color="#FF1CF7"/>
      <stop offset="1" stop-color="#00F0FF"/>
    </linearGradient>
    <linearGradient id="aJ" x1="134.361" x2="278.626" y1="273.631" y2="242.966" gradientUnits="userSpaceOnUse">
      <stop stop-color="#FF1CF7"/>
      <stop offset="1" stop-color="#00F0FF"/>
    </linearGradient>
    <linearGradient id="aK" x1="134.099" x2="278.877" y1="272.396" y2="244.254" gradientUnits="userSpaceOnUse">
      <stop stop-color="#FF1CF7"/>
      <stop offset="1" stop-color="#00F0FF"/>
    </linearGradient>
    <linearGradient id="aL" x1="133.859" x2="279.106" y1="271.156" y2="245.545" gradientUnits="userSpaceOnUse">
      <stop stop-color="#FF1CF7"/>
      <stop offset="1" stop-color="#00F0FF"/>
    </linearGradient>
    <linearGradient id="aM" x1="133.638" x2="279.31" y1="269.913" y2="246.841" gradientUnits="userSpaceOnUse">
      <stop stop-color="#FF1CF7"/>
      <stop offset="1" stop-color="#00F0FF"/>
    </linearGradient>
    <linearGradient id="aN" x1="133.443" x2="279.495" y1="268.666" y2="248.139" gradientUnits="userSpaceOnUse">
      <stop stop-color="#FF1CF7"/>
      <stop offset="1" stop-color="#00F0FF"/>
    </linearGradient>
    <linearGradient id="aO" x1="133.265" x2="279.654" y1="267.414" y2="249.44" gradientUnits="userSpaceOnUse">
      <stop stop-color="#FF1CF7"/>
      <stop offset="1" stop-color="#00F0FF"/>
    </linearGradient>
    <linearGradient id="aP" x1="133.112" x2="279.792" y1="266.161" y2="250.745" gradientUnits="userSpaceOnUse">
      <stop stop-color="#FF1CF7"/>
      <stop offset="1" stop-color="#00F0FF"/>
    </linearGradient>
    <linearGradient id="aQ" x1="132.981" x2="279.908" y1="264.906" y2="252.052" gradientUnits="userSpaceOnUse">
      <stop stop-color="#FF1CF7"/>
      <stop offset="1" stop-color="#00F0FF"/>
    </linearGradient>
    <linearGradient id="aR" x1="132.871" x2="280" y1="263.648" y2="253.36" gradientUnits="userSpaceOnUse">
      <stop stop-color="#FF1CF7"/>
      <stop offset="1" stop-color="#00F0FF"/>
    </linearGradient>
    <linearGradient id="aS" x1="132.784" x2="280.069" y1="262.388" y2="254.669" gradientUnits="userSpaceOnUse">
      <stop stop-color="#FF1CF7"/>
      <stop offset="1" stop-color="#00F0FF"/>
    </linearGradient>
    <linearGradient id="aT" x1="132.717" x2="280.115" y1="261.127" y2="255.98" gradientUnits="userSpaceOnUse">
      <stop stop-color="#FF1CF7"/>
      <stop offset="1" stop-color="#00F0FF"/>
    </linearGradient>
    <linearGradient id="aU" x1="132.675" x2="280.14" y1="259.865" y2="257.291" gradientUnits="userSpaceOnUse">
      <stop stop-color="#FF1CF7"/>
      <stop offset="1" stop-color="#00F0FF"/>
    </linearGradient>
    <linearGradient id="aV" x1="132.652" x2="280.14" y1="258.602" y2="258.602" gradientUnits="userSpaceOnUse">
      <stop stop-color="#FF1CF7"/>
      <stop offset="1" stop-color="#00F0FF"/>
    </linearGradient>
  </defs>
</svg>
