 <svg width="45" height="49" viewBox="0 0 45 49" fill="none" xmlns="http://www.w3.org/2000/svg">
                            <path d="M44.5 25C44.5 38.0096 34.6204 48.5 22.5 48.5C10.3796 48.5 0.5 38.0096 0.5 25C0.5 11.9904 10.3796 1.5 22.5 1.5C34.6204 1.5 44.5 11.9904 44.5 25Z" fill="black" fill-opacity="0.7" stroke="black" />
                            <circle cx="22.5" cy="22.5" r="22" fill="white" stroke="black" />
                            <path d="M16.2688 19.75C16.2675 18.8609 16.4422 17.9802 16.7827 17.1589C17.1233 16.3375 17.623 15.5917 18.2529 14.9643C18.8829 14.3369 19.6309 13.8403 20.4536 13.5031C21.2765 13.166 22.1578 12.995 23.047 13C26.7594 13.0281 29.7312 16.1125 29.7312 19.8343V20.5C29.7312 23.8562 30.4343 25.8062 31.0531 26.875C31.1188 26.9888 31.1536 27.1179 31.1536 27.2493C31.1538 27.3808 31.1193 27.5099 31.0538 27.6238C30.9882 27.7378 30.8939 27.8325 30.7804 27.8985C30.6667 27.9645 30.5376 27.9995 30.4063 28H15.5938C15.4624 27.9995 15.3333 27.9645 15.2197 27.8985C15.106 27.8325 15.0117 27.7378 14.9462 27.6238C14.8806 27.5099 14.8462 27.3808 14.8464 27.2493C14.8466 27.1179 14.8812 26.9888 14.9469 26.875C15.5656 25.8062 16.2688 23.8562 16.2688 20.5V19.75Z" fill="black" fill-opacity="0.1" />
                            <path fill-rule="evenodd" clip-rule="evenodd" d="M15.5187 20.5V19.75C15.5187 19.75 15.5166 18.2543 16.0899 16.8716C16.0899 16.8716 16.6631 15.489 17.7237 14.4328C17.7237 14.4328 18.7843 13.3766 20.1693 12.8091C20.1693 12.8091 21.5543 12.2416 23.051 12.25C23.051 12.25 24.573 12.2615 25.9588 12.8695C25.9588 12.8695 27.2922 13.4544 28.3186 14.5088C28.3186 14.5088 29.3411 15.5591 29.9018 16.9133C29.9018 16.9133 30.4812 18.3127 30.4812 19.8343V20.5C30.4812 20.5 30.4812 24.3903 31.7022 26.4992C31.7022 26.4992 31.9032 26.8474 31.9036 27.2486C31.9036 27.2486 31.904 27.6499 31.704 27.9977C31.704 27.9977 31.504 28.3455 31.157 28.547C31.157 28.547 30.8101 28.7485 30.4089 28.75L15.5937 28.75C15.5937 28.75 15.1899 28.7485 14.843 28.547C14.843 28.547 14.496 28.3455 14.296 27.9977C14.296 27.9977 14.096 27.6499 14.0964 27.2486C14.0964 27.2486 14.0967 26.8474 14.2974 26.5C14.2974 26.5 15.5187 24.3903 15.5187 20.5ZM17.0187 20.5C17.0187 20.5 17.0187 24.7932 15.5964 27.25L30.4036 27.25C30.4036 27.25 28.9812 24.7925 28.9812 20.5V19.8343C28.9812 19.8343 28.9812 17.3398 27.2439 15.5552C27.2439 15.5552 25.5046 13.7686 23.0427 13.7499C23.0427 13.7499 21.8457 13.7433 20.738 14.1971C20.738 14.1971 19.6304 14.651 18.7822 15.4957C18.7822 15.4957 17.934 16.3403 17.4755 17.4461C17.4755 17.4461 17.0171 18.5519 17.0187 19.75V20.5Z" fill="#1C1C1C" />
                            <path d="M26.75 28.75V28C26.75 27.5858 26.4142 27.25 26 27.25C25.5858 27.25 25.25 27.5858 25.25 28V28.75C25.25 29.682 24.591 30.341 24.591 30.341C23.932 31 23 31 23 31C22.068 31 21.409 30.341 21.409 30.341C20.75 29.682 20.75 28.75 20.75 28.75V28C20.75 27.5858 20.4142 27.25 20 27.25C19.5858 27.25 19.25 27.5858 19.25 28L19.25 28.75C19.25 30.3033 20.3483 31.4016 20.3483 31.4016C21.4467 32.5 23 32.5 23 32.5C24.5533 32.5 25.6516 31.4017 25.6516 31.4017C26.75 30.3033 26.75 28.75 26.75 28.75Z" fill="#1C1C1C" />
                        </svg>