<svg width="500" height="379" viewBox="0 0 500 379" fill="none" xmlns="http://www.w3.org/2000/svg">
<path d="M500 360.295H0V360.545H500V360.295Z" fill="#EBEBEB"/>
<path d="M449.899 376.385H416.779V376.635H449.899V376.385Z" fill="#EBEBEB"/>
<path d="M273.22 373.255H260.33V373.505H273.22V373.255Z" fill="#EBEBEB"/>
<path d="M349.669 374.315H322.529V374.565H349.669V374.315Z" fill="#EBEBEB"/>
<path d="M415.78 367.105H359.67V367.355H415.78V367.105Z" fill="#EBEBEB"/>
<path d="M78.9909 378.675H52.4609V378.925H78.9909V378.675Z" fill="#EBEBEB"/>
<path d="M110.891 378.675H87.8906V378.925H110.891V378.675Z" fill="#EBEBEB"/>
<path d="M191.81 373.135H131V373.385H191.81V373.135Z" fill="#EBEBEB"/>
<path d="M237.001 315.695H43.9109C42.3983 315.692 40.9485 315.089 39.8798 314.019C38.8112 312.948 38.2109 311.497 38.2109 309.985V38.5548C38.2241 37.0508 38.8301 35.6128 39.8974 34.553C40.9646 33.4932 42.4069 32.8974 43.9109 32.8948H237.001C238.515 32.8948 239.968 33.4964 241.039 34.5672C242.109 35.638 242.711 37.0904 242.711 38.6048V309.985C242.711 311.499 242.109 312.952 241.039 314.022C239.968 315.093 238.515 315.695 237.001 315.695ZM43.9109 33.0948C42.4646 33.0974 41.0784 33.6738 40.0566 34.6975C39.0348 35.7212 38.4609 37.1084 38.4609 38.5548V309.985C38.4609 311.431 39.0348 312.818 40.0566 313.842C41.0784 314.866 42.4646 315.442 43.9109 315.445H237.001C238.448 315.442 239.835 314.866 240.859 313.843C241.882 312.819 242.458 311.432 242.461 309.985V38.5548C242.458 37.1075 241.882 35.7203 240.859 34.6969C239.835 33.6735 238.448 33.0974 237.001 33.0948H43.9109Z" fill="#EBEBEB"/>
<path d="M453.31 315.695H260.21C258.696 315.692 257.246 315.09 256.175 314.019C255.105 312.949 254.503 311.498 254.5 309.985V38.5548C254.516 37.0499 255.124 35.6119 256.193 34.5524C257.262 33.4929 258.705 32.8973 260.21 32.8948H453.31C454.812 32.9 456.252 33.497 457.317 34.5565C458.382 35.616 458.987 37.0525 459 38.5548V309.985C459 311.496 458.401 312.945 457.335 314.015C456.268 315.086 454.821 315.689 453.31 315.695ZM260.21 33.0948C258.763 33.0974 257.375 33.6735 256.352 34.6969C255.329 35.7203 254.753 37.1075 254.75 38.5548V309.985C254.753 311.432 255.329 312.819 256.352 313.843C257.375 314.866 258.763 315.442 260.21 315.445H453.31C454.757 315.442 456.145 314.866 457.168 313.843C458.191 312.819 458.767 311.432 458.77 309.985V38.5548C458.767 37.1075 458.191 35.7203 457.168 34.6969C456.145 33.6735 454.757 33.0974 453.31 33.0948H260.21Z" fill="#EBEBEB"/>
<path d="M467.06 172.065C470.194 161.232 469.844 149.688 466.06 139.065C470.079 133.312 472.743 126.724 473.853 119.795C474.963 112.866 474.49 105.776 472.47 99.056C470.449 92.3358 466.934 86.1602 462.187 80.9921C457.44 75.8241 451.585 71.7977 445.06 69.2148C443.152 55.4608 437.708 42.4372 429.259 31.4177C420.81 20.3981 409.646 11.7596 396.859 6.347C384.071 0.934355 370.098 -1.06723 356.305 0.537971C342.513 2.14317 329.373 7.30019 318.17 15.5048C312.539 9.59178 305.271 5.49465 297.297 3.73842C289.323 1.98219 281.007 2.64685 273.413 5.64723C265.819 8.64761 259.294 13.847 254.674 20.5793C250.053 27.3116 247.549 35.27 247.48 43.4348C236.929 45.5513 227.111 50.3817 218.996 57.4495C210.881 64.5173 204.748 73.5785 201.202 83.7393C197.657 93.9001 196.821 104.81 198.778 115.392C200.735 125.974 205.416 135.864 212.36 144.085C208.963 150.21 206.991 157.021 206.59 164.013C206.19 171.005 207.37 177.998 210.044 184.471C212.719 190.943 216.818 196.73 222.037 201.4C227.256 206.07 233.461 209.504 240.19 211.445C248.046 213.721 256.363 213.879 264.3 211.905C275.056 226.728 291.061 236.891 309.052 240.321C327.043 243.751 345.664 240.19 361.12 230.365C368.65 247.855 374.83 274.095 361.52 299.825C409.87 295.085 444.78 248.715 437.66 206.225C444.732 202.984 451.02 198.254 456.094 192.359C461.169 186.463 464.909 179.54 467.06 172.065Z" fill="#EBEBEB"/>
<path d="M374.321 290.225C374.189 290.226 374.059 290.2 373.937 290.151C373.815 290.101 373.704 290.027 373.611 289.935C373.482 289.807 373.391 289.646 373.347 289.47C373.303 289.293 373.308 289.108 373.361 288.935C380.171 265.215 373.961 242.475 367.561 227.575L364.311 220.025L357.371 224.435C343.425 233.303 326.623 236.519 310.389 233.427C294.154 230.335 279.71 221.168 270.001 207.795L267.221 203.965L262.641 205.105C255.158 206.967 247.294 206.602 240.015 204.054C232.737 201.506 226.362 196.887 221.675 190.764C216.987 184.641 214.191 177.281 213.631 169.59C213.071 161.9 214.77 154.213 218.521 147.475L220.851 143.255L217.741 139.575C211.579 132.285 207.425 123.515 205.686 114.13C203.948 104.745 204.686 95.0686 207.827 86.0556C210.969 77.0426 216.406 69.0042 223.601 62.7331C230.797 56.4621 239.503 52.1751 248.861 50.2948L254.421 49.1748L254.481 43.5148C254.532 36.7405 256.606 30.1359 260.436 24.5482C264.267 18.9606 269.679 14.6445 275.979 12.1537C282.279 9.66297 289.18 9.111 295.795 10.5686C302.411 12.0263 308.441 15.4271 313.111 20.3348L317.351 24.7748L322.351 21.1548C332.574 13.656 344.569 8.93988 357.161 7.4679C369.754 5.99593 382.513 7.81856 394.19 12.7574C405.867 17.6963 416.062 25.5822 423.776 35.6434C431.491 45.7046 436.461 57.5963 438.201 70.1548L438.771 74.1548L442.561 75.6548C448.103 77.8487 453.076 81.2693 457.107 85.6599C461.138 90.0505 464.123 95.2971 465.837 101.006C467.55 106.715 467.949 112.738 467.002 118.622C466.056 124.507 463.788 130.101 460.371 134.985L458.311 137.935L459.521 141.335C463.46 152.427 463.101 164.592 458.514 175.432C453.927 186.272 445.445 195 434.741 199.895L429.871 202.135L430.761 207.415C433.761 225.545 428.331 245.345 415.761 261.745C405.382 275.342 390.968 285.308 374.581 290.215C374.495 290.231 374.408 290.234 374.321 290.225ZM364.771 217.575C364.867 217.561 364.965 217.561 365.061 217.575C365.198 217.618 365.325 217.69 365.432 217.787C365.539 217.884 365.624 218.002 365.681 218.135L369.391 226.755C375.771 241.585 381.941 264.045 375.761 287.685C391.039 282.717 404.443 273.215 414.191 260.445C426.411 244.445 431.731 225.245 428.791 207.665L427.791 201.665C427.752 201.448 427.786 201.225 427.888 201.03C427.989 200.835 428.152 200.678 428.351 200.585L433.911 198.035C444.14 193.346 452.244 184.998 456.628 174.634C461.013 164.271 461.36 152.641 457.601 142.035L456.221 138.155C456.168 138.004 456.152 137.842 456.175 137.684C456.198 137.526 456.258 137.375 456.351 137.245L458.701 133.865C461.947 129.23 464.1 123.92 465 118.334C465.9 112.747 465.523 107.03 463.896 101.61C462.27 96.1906 459.437 91.2098 455.61 87.0418C451.783 82.8738 447.062 79.6269 441.801 77.5448L437.461 75.8248C437.297 75.7595 437.153 75.652 437.044 75.5133C436.936 75.3745 436.865 75.2095 436.841 75.0348L436.191 70.4248C434.505 58.2041 429.674 46.6309 422.17 36.8392C414.666 27.0474 404.747 19.3731 393.385 14.5681C382.022 9.76314 369.607 7.99234 357.354 9.42922C345.102 10.8661 333.433 15.4614 323.491 22.7648L317.821 26.8948C317.626 27.0379 317.386 27.1055 317.145 27.0853C316.904 27.0651 316.679 26.9583 316.511 26.7848L311.661 21.7148C308.666 18.5907 305.07 16.1035 301.091 14.4024C297.111 12.7012 292.829 11.8211 288.501 11.8148C280.064 11.8145 271.968 15.146 265.975 21.0846C259.982 27.0232 256.577 35.0882 256.501 43.5248L256.431 50.0048C256.436 50.2388 256.358 50.467 256.212 50.6497C256.066 50.8324 255.86 50.9581 255.631 51.0048L249.281 52.2848C240.268 54.0974 231.883 58.2271 224.952 64.2671C218.02 70.307 212.783 78.0487 209.755 86.7292C206.727 95.4097 206.013 104.729 207.683 113.77C209.354 122.81 213.351 131.26 219.281 138.285L222.831 142.495C222.962 142.65 223.042 142.841 223.062 143.043C223.081 143.244 223.039 143.448 222.941 143.625L220.281 148.445C218.907 150.919 217.813 153.538 217.021 156.255C215.191 162.595 215.063 169.304 216.649 175.709C218.234 182.115 221.478 187.989 226.054 192.744C230.63 197.498 236.376 200.964 242.716 202.793C249.056 204.622 255.766 204.751 262.171 203.165L267.411 201.865C267.604 201.817 267.807 201.827 267.994 201.895C268.181 201.962 268.343 202.084 268.461 202.245L271.631 206.615C281.031 219.598 295.035 228.501 310.78 231.502C326.526 234.504 342.823 231.379 356.341 222.765L364.271 217.765C364.417 217.657 364.59 217.592 364.771 217.575Z" fill="white"/>
<path d="M304.189 124.085L277.389 119.895L277.799 117.215C278.268 113.432 279.377 109.756 281.079 106.345C282.572 103.645 284.552 101.244 286.919 99.2648C289.326 97.2648 294.566 93.8448 302.639 89.0048C306.929 86.4848 309.279 83.9448 309.639 81.3548C309.876 80.2547 309.879 79.1169 309.646 78.0158C309.413 76.9147 308.951 75.875 308.289 74.9648C306.989 73.2948 304.779 72.2148 301.679 71.7348C300.152 71.4449 298.582 71.4728 297.066 71.817C295.55 72.1611 294.122 72.8139 292.869 73.7348C290.336 75.6081 288.336 79.2481 286.869 84.6548L260.029 77.0048C262.536 67.0915 267.456 59.5615 274.789 54.4148C282.123 49.2681 292.369 47.7215 305.529 49.7748C315.783 51.3681 323.726 54.7948 329.359 60.0548C337.013 67.1748 340.089 75.5548 338.589 85.1948C337.918 89.2578 336.151 93.0609 333.479 96.1948C330.693 99.5681 325.469 103.401 317.809 107.695C312.476 110.728 309.009 113.285 307.409 115.365C305.62 117.955 304.513 120.954 304.189 124.085ZM275.359 126.895L304.069 131.365L300.129 156.685L271.419 152.215L275.359 126.895Z" fill="white"/>
<path d="M372.589 163.315L357.709 151.315L358.919 149.825C360.547 147.685 362.525 145.835 364.769 144.355C366.638 143.241 368.696 142.478 370.839 142.105C375.233 141.593 379.656 141.362 384.079 141.415C387.586 141.415 389.919 140.691 391.079 139.245C391.619 138.66 392.026 137.967 392.275 137.211C392.523 136.455 392.607 135.655 392.519 134.865C392.146 133.107 391.111 131.561 389.629 130.545C388.799 129.828 387.829 129.29 386.781 128.967C385.733 128.643 384.629 128.54 383.539 128.665C381.326 128.905 378.816 130.415 376.009 133.195L362.339 119.005C367.379 113.845 373.046 110.995 379.339 110.455C385.633 109.915 392.439 112.605 399.759 118.525C405.453 123.131 409.083 128.041 410.649 133.255C412.796 140.315 411.706 146.518 407.379 151.865C405.539 154.117 403.118 155.825 400.379 156.805C397.479 157.865 392.933 158.351 386.739 158.265C382.409 158.265 379.389 158.545 377.669 159.265C375.669 160.178 373.925 161.569 372.589 163.315ZM353.999 154.805L369.939 167.715L358.549 181.775L342.609 168.895L353.999 154.805Z" fill="white"/>
<path d="M376.749 76.6948L370.309 67.8948L371.189 67.2448C372.394 66.3089 373.746 65.5791 375.189 65.0848C376.381 64.7417 377.625 64.623 378.859 64.7348C381.351 65.0844 383.816 65.5989 386.239 66.2748C388.179 66.7748 389.569 66.7148 390.419 66.0948C390.799 65.8495 391.123 65.5267 391.37 65.1476C391.616 64.7684 391.779 64.3415 391.849 63.8948C391.888 62.8676 391.53 61.865 390.849 61.0948C390.494 60.5814 390.038 60.1461 389.508 59.8159C388.979 59.4857 388.387 59.2675 387.769 59.1748C386.519 58.9948 384.919 59.4548 382.969 60.5748L377.499 50.7848C380.638 48.7537 384.418 47.9558 388.109 48.5448C391.656 49.1648 395.013 51.6315 398.179 55.9448C400.639 59.3181 401.926 62.5481 402.039 65.6348C402.199 67.5159 401.867 69.4063 401.077 71.1207C400.286 72.8351 399.064 74.3148 397.529 75.4148C396.201 76.3803 394.635 76.9678 392.999 77.1148C390.378 77.1665 387.768 76.7708 385.279 75.9448C383.626 75.3815 381.886 75.1173 380.139 75.1648C378.9 75.3861 377.735 75.9119 376.749 76.6948ZM367.749 69.3148L374.649 78.7348L366.339 84.8148L359.439 75.4048L367.749 69.3148Z" fill="white"/>
<path d="M128.339 201.465C119.886 201.45 111.594 199.152 104.339 194.815C94.1891 188.815 87.0191 179.395 84.5791 169.025C77.5026 168.532 70.8509 165.467 65.8775 160.409C60.9041 155.351 57.9525 148.649 57.5791 141.565C55.4488 140.087 53.5655 138.281 51.9991 136.215C48.1942 131.366 46.3143 125.283 46.7204 119.134C47.1264 112.984 49.7898 107.201 54.1991 102.895C52.5259 95.7844 52.7021 88.3639 54.711 81.3408C56.7198 74.3178 60.4943 67.9265 65.6745 62.7764C70.8547 57.6263 77.2679 53.8891 84.3025 51.9212C91.3371 49.9533 98.7585 49.8203 105.859 51.5349C107.408 47.9965 109.851 44.9221 112.949 42.614C116.046 40.3058 119.69 38.8433 123.524 38.3701C127.357 37.897 131.248 38.4296 134.813 39.9154C138.379 41.4013 141.496 43.7893 143.859 46.8449C144.956 48.2632 145.879 49.8074 146.609 51.4449C152.2 50.5261 157.933 51.0553 163.262 52.982C168.59 54.9087 173.336 58.1686 177.047 62.4507C180.757 66.7329 183.309 71.8944 184.457 77.4428C185.606 82.9912 185.314 88.7414 183.609 94.1449C187.27 97.2634 189.96 101.366 191.362 105.966C192.763 110.567 192.817 115.472 191.516 120.102C190.216 124.732 187.615 128.892 184.023 132.09C180.431 135.287 175.998 137.389 171.249 138.145C169.107 146.251 164.347 153.422 157.709 158.545C153.531 161.788 148.73 164.135 143.604 165.44C138.478 166.744 133.139 166.977 127.919 166.125C127.819 175.835 130.069 189.005 140.919 198.425C141.024 198.518 141.102 198.638 141.146 198.771C141.19 198.905 141.198 199.047 141.169 199.185C141.139 199.323 141.072 199.45 140.975 199.552C140.878 199.654 140.755 199.728 140.619 199.765C136.626 200.907 132.492 201.479 128.339 201.465ZM95.7291 51.8949C89.4884 51.9139 83.3336 53.3497 77.7287 56.094C72.1237 58.8383 67.2151 62.8195 63.373 67.7372C59.5309 72.655 56.8555 78.3809 55.5487 84.4832C54.2419 90.5856 54.3378 96.905 55.8291 102.965C55.8634 103.1 55.8601 103.243 55.8196 103.377C55.7791 103.511 55.7029 103.631 55.5991 103.725C51.3289 107.732 48.7134 113.193 48.2674 119.032C47.8213 124.871 49.5771 130.665 53.1891 135.275C54.7775 137.316 56.6895 139.082 58.8491 140.505C58.9537 140.572 59.0409 140.664 59.1035 140.772C59.166 140.879 59.2022 141 59.2091 141.125C59.4801 147.984 62.3077 154.494 67.1358 159.374C71.9639 164.254 78.4431 167.151 85.2991 167.495C85.4706 167.504 85.6342 167.57 85.7644 167.683C85.8946 167.795 85.9841 167.947 86.0191 168.115C88.2291 178.285 95.2191 187.525 105.179 193.465C115.271 199.551 127.36 201.399 138.809 198.605C128.079 188.605 126.079 174.945 126.339 165.145C126.343 165.031 126.372 164.92 126.422 164.818C126.473 164.716 126.544 164.627 126.632 164.555C126.72 164.483 126.823 164.43 126.932 164.401C127.042 164.372 127.157 164.366 127.269 164.385C136.488 166.128 146.024 164.289 153.933 159.242C161.842 154.195 167.527 146.32 169.829 137.225C169.864 137.072 169.946 136.934 170.062 136.828C170.178 136.723 170.324 136.655 170.479 136.635C175.028 136.006 179.294 134.063 182.755 131.045C186.215 128.027 188.72 124.064 189.961 119.643C191.202 115.222 191.126 110.535 189.742 106.157C188.358 101.778 185.726 97.8992 182.169 94.9949C182.046 94.8953 181.956 94.7606 181.912 94.6088C181.867 94.457 181.87 94.2952 181.919 94.1449C183.659 88.9336 184.009 83.3588 182.936 77.9707C181.863 72.5826 179.403 67.5675 175.799 63.4206C172.196 59.2737 167.573 56.1383 162.387 54.324C157.201 52.5096 151.632 52.0791 146.229 53.0749C146.052 53.1091 145.869 53.081 145.71 52.9953C145.551 52.9097 145.427 52.7717 145.359 52.6049C143.793 48.805 141.13 45.5578 137.711 43.2773C134.291 40.9968 130.27 39.7863 126.16 39.8003C122.05 39.8142 118.038 41.052 114.634 43.3556C111.23 45.6593 108.59 48.9245 107.049 52.7349C106.976 52.9093 106.844 53.0522 106.675 53.1383C106.507 53.2243 106.313 53.2479 106.129 53.2049C102.731 52.3328 99.2371 51.8927 95.7291 51.8949Z" fill="#E6E6E6"/>
<path d="M100.591 117.895L86.7808 121.145L86.4608 119.765C85.938 117.838 85.7519 115.835 85.9108 113.845C86.1003 112.246 86.5852 110.696 87.3407 109.275C89.0317 106.467 90.9022 103.771 92.9408 101.205C94.5308 99.1348 95.1708 97.4448 94.8508 96.1148C94.7525 95.5342 94.5313 94.9813 94.2019 94.4932C93.8725 94.0051 93.4425 93.5931 92.9408 93.2848C91.7438 92.7018 90.3675 92.6051 89.1008 93.0148C88.304 93.1761 87.5491 93.5 86.8832 93.9663C86.2173 94.4326 85.6548 95.0312 85.2308 95.7248C84.3708 97.1348 84.1208 99.2848 84.4708 102.195L70.0008 103.735C69.1552 98.9514 70.1022 94.0241 72.6608 89.8948C75.2008 85.9548 79.8674 83.1882 86.6608 81.5948C91.9408 80.3482 96.4641 80.4448 100.231 81.8848C105.337 83.8248 108.477 87.2815 109.651 92.2548C110.139 94.362 110.035 96.5629 109.351 98.6148C108.684 100.795 106.907 103.682 104.021 107.275C102.021 109.795 100.844 111.715 100.491 113.035C100.117 114.638 100.151 116.309 100.591 117.895ZM87.1708 124.895L101.971 121.415L105.001 134.455L90.2508 137.895L87.1708 124.895Z" fill="#EBEBEB"/>
<path d="M135.75 88.6848L126.17 85.7648L126.46 84.7648C126.827 83.4044 127.422 82.1162 128.22 80.9548C128.903 80.0452 129.751 79.2718 130.72 78.6748C132.748 77.5754 134.846 76.6099 137 75.7848C138.7 75.1181 139.7 74.3081 140 73.3548C140.147 72.9649 140.208 72.5482 140.181 72.1325C140.153 71.7168 140.037 71.3119 139.84 70.9448C139.313 70.1661 138.508 69.6186 137.59 69.4148C137.046 69.2335 136.471 69.1656 135.9 69.2155C135.329 69.2654 134.774 69.4319 134.27 69.7048C132.971 70.5956 132.001 71.8887 131.51 73.3848L122.09 69.1948C123.28 65.9757 125.616 63.3088 128.65 61.7048C131.597 60.1915 135.423 60.1548 140.13 61.5948C143.301 62.3927 146.154 64.1366 148.31 66.5948C149.469 67.8838 150.27 69.4535 150.635 71.148C151 72.8426 150.916 74.6031 150.39 76.2548C149.938 77.7143 149.094 79.0218 147.95 80.0348C146.045 81.5149 143.905 82.6642 141.62 83.4348C140.099 83.9383 138.678 84.7031 137.42 85.6948C136.624 86.5378 136.05 87.5652 135.75 88.6848ZM125.07 88.2148L135.33 91.3348L132.58 100.395L122.31 97.2748L125.07 88.2148Z" fill="#EBEBEB"/>
</svg>
