  <svg
  width="23"
  height="23"
  viewBox="0 0 23 23"
  fill="black"
  xmlns="http://www.w3.org/2000/svg"
  className="bookmark-svg"
>
  <path
    id="f991d79d"
    d="M11.8951 17.133L16.4231 20.008C17.0071 20.3763 17.7259 19.8283 17.5552 19.1545L16.2435 13.9974C16.208 13.8545 16.2136 13.7044 16.2598 13.5645C16.3058 13.4247 16.3905 13.3007 16.504 13.2068L20.565 9.8197C21.095 9.37948 20.8255 8.49003 20.1337 8.44511L14.8329 8.10368C14.6883 8.09526 14.5492 8.0449 14.4328 7.95874C14.3163 7.87258 14.2274 7.75435 14.1771 7.61853L12.2005 2.6412C12.1482 2.49735 12.0528 2.37311 11.9275 2.28529C11.8022 2.19751 11.6527 2.15039 11.4997 2.15039C11.3466 2.15039 11.1973 2.19751 11.0719 2.28529C10.9465 2.37311 10.8513 2.49735 10.799 2.6412L8.8224 7.61853C8.77204 7.75435 8.68316 7.87258 8.56664 7.95874C8.45021 8.0449 8.31115 8.09526 8.16656 8.10368L2.86578 8.44511C2.17396 8.49003 1.90443 9.37948 2.43446 9.8197L6.49541 13.2068C6.60894 13.3007 6.69361 13.4247 6.73967 13.5645C6.78582 13.7044 6.79144 13.8545 6.75599 13.9974L5.5431 18.7771C5.33648 19.5857 6.19894 20.2416 6.89076 19.8014L11.1044 17.133C11.2226 17.0578 11.3597 17.018 11.4997 17.018C11.6398 17.018 11.7769 17.0578 11.8951 17.133V17.133Z"
    fill="blue"
    fillOpacity="0.1"
  ></path>
  <path
    id="2070ed08"
    fillRule="evenodd"
    clipRule="evenodd"
    d="M11.5095 17.7395C11.5095 17.7395 11.5051 17.7367 11.4999 17.7367C11.4999 17.7367 11.4947 17.7367 11.4902 17.7395L7.27544 20.4086C7.27544 20.4086 6.82709 20.6939 6.30936 20.6577C6.30936 20.6577 5.83293 20.6245 5.4452 20.3297C5.4452 20.3297 5.06232 20.0387 4.89571 19.5908C4.89571 19.5908 4.71655 19.1091 4.84688 18.5992L6.05947 13.8206C6.05947 13.8206 6.06291 13.8067 6.05723 13.7895C6.05723 13.7895 6.05156 13.7723 6.03758 13.7607L1.97428 10.3717C1.97428 10.3717 1.6067 10.0664 1.4861 9.60862C1.4861 9.60862 1.37588 9.19029 1.50547 8.77163C1.50547 8.77163 1.6365 8.3483 1.96816 8.06798C1.96816 8.06798 2.33323 7.75942 2.81933 7.72785L8.12049 7.38642C8.12049 7.38642 8.13295 7.38568 8.1394 7.38091C8.1394 7.38091 8.14585 7.37614 8.14864 7.36861L8.15454 7.35326L10.1278 2.3842C10.1278 2.3842 10.2865 1.95804 10.6598 1.69657C10.6598 1.69657 11.0381 1.43164 11.4999 1.43164C11.4999 1.43164 11.9617 1.43164 12.34 1.69657C12.34 1.69657 12.7133 1.95804 12.872 2.3842L14.8452 7.35326L14.8511 7.36861C14.8511 7.36861 14.8539 7.37614 14.8604 7.38091C14.8604 7.38091 14.8668 7.38568 14.8748 7.38615L20.1801 7.72783C20.1801 7.72783 20.6665 7.75942 21.0316 8.06798C21.0316 8.06798 21.3633 8.3483 21.4943 8.77163C21.4943 8.77163 21.6239 9.19029 21.5137 9.60863C21.5137 9.60863 21.3931 10.0664 21.0243 10.3726L16.9646 13.7588C16.9646 13.7588 16.9482 13.7723 16.9425 13.7895C16.9425 13.7895 16.9369 13.8067 16.9412 13.8243L18.2519 18.9773C18.2519 18.9773 18.369 19.4394 18.2058 19.8757C18.2058 19.8757 18.054 20.2817 17.7063 20.545C17.7063 20.545 17.3538 20.812 16.9199 20.8418C16.9199 20.8418 16.4494 20.8742 16.0399 20.6159L11.5105 17.7401L11.5099 17.7398L11.5095 17.7395ZM16.8068 19.4001L12.281 16.5266L12.2805 16.5262C12.2805 16.5262 11.9232 16.2992 11.4999 16.2992C11.4999 16.2992 11.0763 16.2992 10.7189 16.5265L6.50637 19.1941C6.50637 19.1941 6.40854 19.2564 6.31513 19.1853C6.31513 19.1853 6.20263 19.0998 6.23962 18.9551L7.45281 14.1742C7.45281 14.1742 7.55794 13.7506 7.42251 13.3396C7.42251 13.3396 7.28708 12.9286 6.95361 12.6529L2.89503 9.26774C2.89503 9.26774 2.86453 9.24241 2.87869 9.19668C2.87869 9.19668 2.88885 9.16387 2.91248 9.16233L8.21288 8.82095C8.21288 8.82095 8.64374 8.79589 8.99429 8.53658C8.99429 8.53658 9.34102 8.28009 9.49312 7.87732L11.4671 2.90646L11.4746 2.88688C11.4746 2.88688 11.4775 2.87889 11.4844 2.87402C11.4844 2.87402 11.4914 2.86914 11.4999 2.86914C11.4999 2.86914 11.5084 2.86914 11.5154 2.87402C11.5154 2.87402 11.5223 2.87889 11.5252 2.88688L11.5327 2.90646L13.5067 7.87732C13.5067 7.87732 13.6588 8.28009 14.0055 8.53658C14.0055 8.53658 14.356 8.79589 14.7913 8.82122L20.0877 9.16235C20.0877 9.16235 20.1109 9.16387 20.1211 9.19668C20.1211 9.19668 20.1352 9.24241 20.1059 9.26677L16.0438 12.6549C16.0438 12.6549 15.7127 12.9286 15.5773 13.3396C15.5773 13.3396 15.4418 13.7506 15.546 14.1705L16.8588 19.3316C16.8588 19.3316 16.8698 19.3753 16.8384 19.3991C16.8384 19.3991 16.8233 19.4105 16.8068 19.4001Z"
    fill="#e2e2e2"
  ></path>
</svg>