  <svg
              width="23"
              height="23"
              viewBox="0 0 24 24"
              fill="none"
              xmlns="http://www.w3.org/2000/svg"
            >
              <path
                d="M17.627 12.5015C17.627 15.608 15.1085 18.1265 12.002 18.1265C8.89539 18.1265 6.37695 15.608 6.37695 12.5015C6.37695 9.3949 8.89539 6.87646 12.002 6.87646C15.1085 6.87646 17.627 9.3949 17.627 12.5015Z"
                fill="var(--primary-color)"
                fillOpacity="0.1"
              />
              <path
                fillRule="evenodd"
                clipRule="evenodd"
                d="M12.002 6.12646C12.002 6.12646 13.2984 6.12646 14.4836 6.62775C14.4836 6.62775 15.6278 7.1117 16.5098 7.99366C16.5098 7.99366 17.3917 8.87562 17.8757 10.0198C17.8757 10.0198 18.377 11.205 18.377 12.5015C18.377 12.5015 18.377 13.798 17.8757 14.9831C17.8757 14.9831 17.3917 16.1273 16.5098 17.0093C16.5098 17.0093 15.6278 17.8912 14.4836 18.3752C14.4836 18.3752 13.2984 18.8765 12.002 18.8765C12.002 18.8765 10.7055 18.8765 9.52029 18.3752C9.52029 18.3752 8.37611 17.8912 7.49415 17.0093C7.49415 17.0093 6.61219 16.1273 6.12824 14.9831C6.12824 14.9831 5.62695 13.798 5.62695 12.5015C5.62695 12.5015 5.62695 11.205 6.12824 10.0198C6.12824 10.0198 6.61219 8.87562 7.49415 7.99366C7.49415 7.99366 8.37611 7.1117 9.52029 6.62775C9.52029 6.62775 10.7055 6.12646 12.002 6.12646ZM12.002 7.62646C12.002 7.62646 9.98266 7.62646 8.55481 9.05432C8.55481 9.05432 7.12695 10.4822 7.12695 12.5015C7.12695 12.5015 7.12695 14.5208 8.55481 15.9486C8.55481 15.9486 9.98266 17.3765 12.002 17.3765C12.002 17.3765 14.0212 17.3765 15.4491 15.9486C15.4491 15.9486 16.877 14.5208 16.877 12.5015C16.877 12.5015 16.877 10.4822 15.4491 9.05432C15.4491 9.05432 14.0212 7.62646 12.002 7.62646Z"
                fill="var(--primary-color)"
              />
              <path
                d="M12.752 3.87646V2.00146C12.752 1.58725 12.4162 1.25146 12.002 1.25146C11.5877 1.25146 11.252 1.58725 11.252 2.00146V3.87646C11.252 4.29068 11.5877 4.62646 12.002 4.62646C12.4162 4.62646 12.752 4.29068 12.752 3.87646Z"
                fill="var(--primary-color)"
              />
              <path
                d="M5.10723 4.54633C4.96658 4.40568 4.77582 4.32666 4.5769 4.32666C4.37799 4.32666 4.18723 4.40568 4.04657 4.54633C3.90592 4.68698 3.8269 4.87775 3.8269 5.07666C3.8269 5.27557 3.90592 5.46634 4.04657 5.60699L5.36845 6.92887C5.5091 7.06952 5.69987 7.14854 5.89878 7.14854C6.09769 7.14854 6.28846 7.06952 6.42911 6.92887C6.56976 6.78821 6.64878 6.59745 6.64878 6.39854C6.64878 6.19962 6.56976 6.00886 6.42911 5.86821L5.10723 4.54633Z"
                fill="var(--primary-color)"
              />
              <path
                d="M3.37695 11.7515H1.50195C1.08774 11.7515 0.751953 12.0873 0.751953 12.5015C0.751953 12.9157 1.08774 13.2515 1.50195 13.2515H3.37695C3.79117 13.2515 4.12695 12.9157 4.12695 12.5015C4.12695 12.0873 3.79117 11.7515 3.37695 11.7515Z"
                fill="var(--primary-color)"
              />
              <path
                d="M4.04657 19.396C3.90592 19.5367 3.8269 19.7275 3.8269 19.9264C3.8269 19.9393 3.82724 19.9522 3.82791 19.9652C3.83751 20.1504 3.91541 20.3255 4.04657 20.4567C4.18723 20.5973 4.37799 20.6764 4.5769 20.6764C4.77582 20.6764 4.96658 20.5973 5.10723 20.4567L6.42911 19.1348C6.56976 18.9942 6.64878 18.8034 6.64878 18.6045C6.64878 18.4056 6.56976 18.2148 6.42911 18.0742C6.28846 17.9335 6.09769 17.8545 5.89878 17.8545C5.88584 17.8545 5.8729 17.8548 5.85997 17.8555C5.67473 17.8651 5.49961 17.943 5.36845 18.0742L4.04657 19.396Z"
                fill="var(--primary-color)"
              />
              <path
                d="M11.252 21.1265V23.0015C11.252 23.4157 11.5877 23.7515 12.002 23.7515C12.4162 23.7515 12.752 23.4157 12.752 23.0015V21.1265C12.752 20.7123 12.4162 20.3765 12.002 20.3765C11.5877 20.3765 11.252 20.7123 11.252 21.1265Z"
                fill="var(--primary-color)"
              />
              <path
                d="M17.5747 19.1349L18.8965 20.4567C19.0372 20.5973 19.2279 20.6764 19.4269 20.6764C19.6258 20.6764 19.8165 20.5973 19.9572 20.4567C20.0978 20.316 20.1769 20.1253 20.1769 19.9264C20.1769 19.7275 20.0978 19.5367 19.9572 19.396L18.6354 18.0743C18.4947 17.9335 18.3039 17.8545 18.105 17.8545C17.9061 17.8545 17.7153 17.9335 17.5747 18.0742C17.434 18.2148 17.355 18.4056 17.355 18.6045C17.355 18.8034 17.434 18.9942 17.5747 19.1349Z"
                fill="var(--primary-color)"
              />
              <path
                d="M20.627 13.2515H22.502C22.9162 13.2515 23.252 12.9157 23.252 12.5015C23.252 12.0873 22.9162 11.7515 22.502 11.7515H20.627C20.2127 11.7515 19.877 12.0873 19.877 12.5015C19.877 12.9157 20.2127 13.2515 20.627 13.2515Z"
                fill="var(--primary-color)"
              />
              <path
                d="M19.9572 5.60699C20.0978 5.46634 20.1769 5.27557 20.1769 5.07666C20.1769 4.87775 20.0978 4.68698 19.9572 4.54633C19.8165 4.40568 19.6258 4.32666 19.4269 4.32666C19.2279 4.32666 19.0372 4.40568 18.8965 4.54633L17.5747 5.86812C17.434 6.00886 17.355 6.19962 17.355 6.39854C17.355 6.59745 17.434 6.78821 17.5747 6.92887C17.7153 7.06952 17.9061 7.14854 18.105 7.14854C18.3039 7.14854 18.4947 7.06952 18.6353 6.92887L19.9572 5.60699Z"
                fill="var(--primary-color)"
              />
            </svg>