   <svg
                    width="18"
                    height="18"
                    viewBox="0 0 32 32"
                    fill="none"
                    xmlns="http://www.w3.org/2000/svg"
                  >
                    <path
                      d="M23.5 16C23.5 20.1421 20.1421 23.5 16 23.5C11.8579 23.5 8.5 20.1421 8.5 16C8.5 11.8579 11.8579 8.5 16 8.5C20.1421 8.5 23.5 11.8579 23.5 16Z"
                      fill="black"
                      fillOpacity="1"
                    />
                    <path
                      clipRule="evenodd"
                      d="M16 7.5C16 7.5 17.7287 7.5 19.3089 8.16838C19.3089 8.16838 20.8345 8.81364 22.0104 9.98959C22.0104 9.98959 23.1864 11.1655 23.8316 12.6911C23.8316 12.6911 24.5 14.2713 24.5 16C24.5 16 24.5 17.7287 23.8316 19.3089C23.8316 19.3089 23.1864 20.8345 22.0104 22.0104C22.0104 22.0104 20.8345 23.1864 19.3089 23.8316C19.3089 23.8316 17.7287 24.5 16 24.5C16 24.5 14.2713 24.5 12.6911 23.8316C12.6911 23.8316 11.1655 23.1864 9.98959 22.0104C9.98959 22.0104 8.81364 20.8345 8.16838 19.3089C8.16838 19.3089 7.5 17.7287 7.5 16C7.5 16 7.5 14.2713 8.16838 12.6911C8.16838 12.6911 8.81364 11.1655 9.98959 9.98959C9.98959 9.98959 11.1655 8.81364 12.6911 8.16838C12.6911 8.16838 14.2713 7.5 16 7.5ZM16 9.5C16 9.5 13.3076 9.5 11.4038 11.4038C11.4038 11.4038 9.5 13.3076 9.5 16C9.5 16 9.5 18.6924 11.4038 20.5962C11.4038 20.5962 13.3076 22.5 16 22.5C16 22.5 18.6924 22.5 20.5962 20.5962C20.5962 20.5962 22.5 18.6924 22.5 16C22.5 16 22.5 13.3076 20.5962 11.4038C20.5962 11.4038 18.6924 9.5 16 9.5Z"
                      fill="#ffffff"
                    />
                    <path
                      d="M17 4.5V2C17 1.44772 16.5523 1 16 1C15.4477 1 15 1.44772 15 2V4.5C15 5.05228 15.4477 5.5 16 5.5C16.5523 5.5 17 5.05228 17 4.5Z"
                      fill="#1C1C1C"
                    />
                    <path
                      d="M6.8072 5.3929C6.61967 5.20536 6.36531 5.10001 6.1001 5.10001C5.83488 5.10001 5.58053 5.20536 5.39299 5.3929C5.20545 5.58044 5.1001 5.83479 5.1001 6.10001C5.1001 6.36522 5.20545 6.61958 5.39299 6.80711L7.15549 8.56961C7.34303 8.75715 7.59738 8.86251 7.8626 8.86251C8.12781 8.86251 8.38217 8.75715 8.5697 8.56961C8.75724 8.38208 8.8626 8.12772 8.8626 7.86251C8.8626 7.59729 8.75724 7.34294 8.5697 7.1554L6.8072 5.3929Z"
                      fill="#ffffff"
                    />
                    <path
                      d="M4.5 15H2C1.44772 15 1 15.4477 1 16C1 16.5523 1.44772 17 2 17H4.5C5.05228 17 5.5 16.5523 5.5 16C5.5 15.4477 5.05228 15 4.5 15Z"
                      fill="#1C1C1C"
                    />
                    <path
                      d="M5.39299 25.1929C5.20545 25.3804 5.1001 25.6348 5.1001 25.9C5.1001 25.9173 5.10054 25.9345 5.10144 25.9517C5.11423 26.1987 5.21811 26.4322 5.39299 26.6071C5.58053 26.7946 5.83488 26.9 6.1001 26.9C6.36531 26.9 6.61967 26.7946 6.8072 26.6071L8.5697 24.8446C8.75724 24.6571 8.8626 24.4027 8.8626 24.1375C8.8626 23.8723 8.75724 23.6179 8.56971 23.4304C8.38217 23.2429 8.12781 23.1375 7.8626 23.1375C7.84534 23.1375 7.82809 23.1379 7.81086 23.1388C7.56386 23.1516 7.33038 23.2555 7.15549 23.4304L5.39299 25.1929Z"
                      fill="#ffffff"
                    />
                    <path
                      d="M15 27.5V30C15 30.5523 15.4477 31 16 31C16.5523 31 17 30.5523 17 30V27.5C17 26.9477 16.5523 26.5 16 26.5C15.4477 26.5 15 26.9477 15 27.5Z"
                      fill="#1C1C1C"
                    />
                    <path
                      d="M23.4307 24.8447L25.1931 26.6071C25.3806 26.7946 25.635 26.9 25.9002 26.9C26.1654 26.9 26.4198 26.7946 26.6073 26.6071C26.7948 26.4196 26.9002 26.1652 26.9002 25.9C26.9002 25.6348 26.7948 25.3804 26.6073 25.1929L24.8449 23.4305C24.6573 23.2429 24.4029 23.1375 24.1377 23.1375C23.8725 23.1375 23.6181 23.2429 23.4306 23.4304C23.2431 23.6179 23.1377 23.8723 23.1377 24.1375C23.1377 24.4027 23.2431 24.6571 23.4307 24.8447Z"
                      fill="#ffffff"
                    />
                    <path
                      d="M27.5 17H30C30.5523 17 31 16.5523 31 16C31 15.4477 30.5523 15 30 15H27.5C26.9477 15 26.5 15.4477 26.5 16C26.5 16.5523 26.9477 17 27.5 17Z"
                      fill="#1C1C1C"
                    />
                    <path
                      d="M26.6073 6.80711C26.7948 6.61958 26.9002 6.36522 26.9002 6.10001C26.9002 5.83479 26.7948 5.58044 26.6073 5.3929C26.4198 5.20536 26.1654 5.10001 25.9002 5.10001C25.635 5.10001 25.3806 5.20536 25.1931 5.3929L23.4307 7.15528C23.2431 7.34294 23.1377 7.59729 23.1377 7.86251C23.1377 8.12772 23.2431 8.38208 23.4306 8.56961C23.6181 8.75715 23.8725 8.86251 24.1377 8.86251C24.4029 8.86251 24.6573 8.75715 24.8448 8.56961L26.6073 6.80711Z"
                      fill="#ffffff"
                    />
                  </svg>