<svg width="32" height="32" viewBox="0 0 32 32" fill="none" xmlns="http://www.w3.org/2000/svg">
<path fill-rule="evenodd" clip-rule="evenodd" d="M6 17C6 17 6 14.9289 7.46447 13.4645C7.46447 13.4645 8.92893 12 11 12H21C21 12 23.0711 12 24.5355 13.4645C24.5355 13.4645 26 14.9289 26 17V18C26 18 26 20.0711 24.5355 21.5355C24.5355 21.5355 23.0711 23 21 23H11C11 23 8.92893 23 7.46447 21.5355C7.46447 21.5355 6 20.0711 6 18V17ZM8 17L8 18C8 18 8 19.2426 8.87868 20.1213C8.87868 20.1213 9.75736 21 11 21H21C21 21 22.2426 21 23.1213 20.1213C23.1213 20.1213 24 19.2426 24 18V17C24 17 24 15.7574 23.1213 14.8787C23.1213 14.8787 22.2426 14 21 14H11C11 14 9.75736 14 8.87868 14.8787C8.87868 14.8787 8 15.7574 8 17Z" fill="black"/>
<path fill-rule="evenodd" clip-rule="evenodd" d="M2 8C2 8 2 6.34315 3.17157 5.17157C3.17157 5.17157 4.34315 4 6 4C6 4 7.65685 4 8.82843 5.17157C8.82843 5.17157 9.62927 5.97241 9.88268 7H22.1173C22.1173 7 22.3707 5.97241 23.1716 5.17157C23.1716 5.17157 24.3431 4 26 4C26 4 27.6569 4 28.8284 5.17157C28.8284 5.17157 30 6.34315 30 8V18C30 18 29.9972 19.7906 29.3113 21.4429C29.3113 21.4429 28.6254 23.0953 27.3603 24.3603C27.3603 24.3603 26.0953 25.6254 24.4429 26.3113C24.4429 26.3113 22.7906 26.9972 21.0016 27L11 27C11 27 9.20939 26.9972 7.55707 26.3113C7.55707 26.3113 5.90473 25.6254 4.63969 24.3603C4.63969 24.3603 3.37464 23.0953 2.68872 21.4429C2.68872 21.4429 2.00279 19.7906 2 18.0016V8ZM4 18C4 18 4.00507 20.8973 6.0539 22.9461C6.0539 22.9461 8.10329 24.9955 11 25L20.9984 25C20.9984 25 23.8967 24.9955 25.9461 22.9461C25.9461 22.9461 27.9955 20.8967 28 18V8C28 8 28 7.17157 27.4142 6.58579C27.4142 6.58579 26.8284 6 26 6C26 6 25.1716 6 24.5858 6.58579C24.5858 6.58579 24 7.17157 24 8C24 8.55228 23.5523 9 23 9H9C8.44772 9 8 8.55228 8 8C8 8 8 7.17157 7.41421 6.58579C7.41421 6.58579 6.82843 6 6 6C6 6 5.17157 6 4.58579 6.58579C4.58579 6.58579 4 7.17157 4 8V18Z" fill="black"/>
<path d="M13 17.5C13 18.3284 12.3284 19 11.5 19C10.6716 19 10 18.3284 10 17.5C10 16.6716 10.6716 16 11.5 16C12.3284 16 13 16.6716 13 17.5Z" fill="black"/>
<path d="M22 17.5C22 18.3284 21.3284 19 20.5 19C19.6716 19 19 18.3284 19 17.5C19 16.6716 19.6716 16 20.5 16C21.3284 16 22 16.6716 22 17.5Z" fill="black"/>
</svg>
