<svg width="45" height="49" viewBox="0 0 45 49" fill="none" xmlns="http://www.w3.org/2000/svg">
                            <path d="M44.5 25C44.5 38.0096 34.6204 48.5 22.5 48.5C10.3796 48.5 0.5 38.0096 0.5 25C0.5 11.9904 10.3796 1.5 22.5 1.5C34.6204 1.5 44.5 11.9904 44.5 25Z" fill="black" fill-opacity="0.7" stroke="black" />
                            <circle cx="22.5" cy="22.5" r="22" fill="white" stroke="black" />
                            <path d="M28.625 22C28.625 25.1066 26.1066 27.625 23 27.625C19.8934 27.625 17.375 25.1066 17.375 22C17.375 18.8934 19.8934 16.375 23 16.375C26.1066 16.375 28.625 18.8934 28.625 22Z" fill="black" fill-opacity="0.1" />
                            <path fill-rule="evenodd" clip-rule="evenodd" d="M23 15.625C23 15.625 24.2965 15.625 25.4817 16.1263C25.4817 16.1263 26.6258 16.6102 27.5078 17.4922C27.5078 17.4922 28.3898 18.3742 28.8737 19.5183C28.8737 19.5183 29.375 20.7035 29.375 22C29.375 22 29.375 23.2965 28.8737 24.4817C28.8737 24.4817 28.3898 25.6258 27.5078 26.5078C27.5078 26.5078 26.6258 27.3898 25.4817 27.8737C25.4817 27.8737 24.2965 28.375 23 28.375C23 28.375 21.7035 28.375 20.5183 27.8737C20.5183 27.8737 19.3742 27.3898 18.4922 26.5078C18.4922 26.5078 17.6102 25.6258 17.1263 24.4817C17.1263 24.4817 16.625 23.2965 16.625 22C16.625 22 16.625 20.7035 17.1263 19.5183C17.1263 19.5183 17.6102 18.3742 18.4922 17.4922C18.4922 17.4922 19.3742 16.6102 20.5183 16.1263C20.5183 16.1263 21.7035 15.625 23 15.625ZM23 17.125C23 17.125 20.9807 17.125 19.5529 18.5529C19.5529 18.5529 18.125 19.9807 18.125 22C18.125 22 18.125 24.0193 19.5529 25.4471C19.5529 25.4471 20.9807 26.875 23 26.875C23 26.875 25.0193 26.875 26.4471 25.4471C26.4471 25.4471 27.875 24.0193 27.875 22C27.875 22 27.875 19.9807 26.4471 18.5529C26.4471 18.5529 25.0193 17.125 23 17.125Z" fill="#1C1C1C" />
                            <path d="M23.75 13.375V11.5C23.75 11.0858 23.4142 10.75 23 10.75C22.5858 10.75 22.25 11.0858 22.25 11.5V13.375C22.25 13.7892 22.5858 14.125 23 14.125C23.4142 14.125 23.75 13.7892 23.75 13.375Z" fill="#1C1C1C" />
                            <path d="M16.1053 14.0446C15.9647 13.904 15.7739 13.825 15.575 13.825C15.3761 13.825 15.1853 13.904 15.0447 14.0446C14.904 14.1853 14.825 14.376 14.825 14.575C14.825 14.7739 14.904 14.9646 15.0447 15.1053L16.3665 16.4272C16.5072 16.5678 16.698 16.6468 16.8969 16.6468C17.0958 16.6468 17.2866 16.5678 17.4272 16.4272C17.5679 16.2865 17.6469 16.0957 17.6469 15.8968C17.6469 15.6979 17.5679 15.5071 17.4272 15.3665L16.1053 14.0446Z" fill="#1C1C1C" />
                            <path d="M14.375 21.25H12.5C12.0858 21.25 11.75 21.5858 11.75 22C11.75 22.4142 12.0858 22.75 12.5 22.75H14.375C14.7892 22.75 15.125 22.4142 15.125 22C15.125 21.5858 14.7892 21.25 14.375 21.25Z" fill="#1C1C1C" />
                            <path d="M15.0447 28.8947C14.904 29.0353 14.825 29.2261 14.825 29.425C14.825 29.438 14.8253 29.4509 14.826 29.4638C14.8356 29.6491 14.9135 29.8242 15.0447 29.9554C15.1853 30.096 15.3761 30.175 15.575 30.175C15.7739 30.175 15.9647 30.096 16.1053 29.9554L17.4272 28.6335C17.5679 28.4928 17.6469 28.3021 17.6469 28.1031C17.6469 27.9042 17.5679 27.7135 17.4272 27.5728C17.2866 27.4322 17.0958 27.3531 16.8969 27.3531C16.8839 27.3531 16.871 27.3535 16.8581 27.3542C16.6728 27.3638 16.4977 27.4417 16.3665 27.5728L15.0447 28.8947Z" fill="#1C1C1C" />
                            <path d="M22.25 30.625V32.5C22.25 32.9142 22.5858 33.25 23 33.25C23.4142 33.25 23.75 32.9142 23.75 32.5V30.625C23.75 30.2108 23.4142 29.875 23 29.875C22.5858 29.875 22.25 30.2108 22.25 30.625Z" fill="#1C1C1C" />
                            <path d="M28.5729 28.6336L29.8947 29.9554C30.0353 30.096 30.2261 30.175 30.425 30.175C30.6239 30.175 30.8147 30.096 30.9553 29.9554C31.096 29.8147 31.175 29.6239 31.175 29.425C31.175 29.2261 31.096 29.0353 30.9553 28.8947L29.6335 27.5729C29.4928 27.4322 29.302 27.3531 29.1031 27.3531C28.9042 27.3531 28.7134 27.4322 28.5728 27.5728C28.4321 27.7135 28.3531 27.9042 28.3531 28.1031C28.3531 28.3021 28.4321 28.4928 28.5729 28.6336Z" fill="#1C1C1C" />
                            <path d="M31.625 22.75H33.5C33.9142 22.75 34.25 22.4142 34.25 22C34.25 21.5858 33.9142 21.25 33.5 21.25H31.625C31.2108 21.25 30.875 21.5858 30.875 22C30.875 22.4142 31.2108 22.75 31.625 22.75Z" fill="#1C1C1C" />
                            <path d="M30.9553 15.1053C31.096 14.9646 31.175 14.7739 31.175 14.575C31.175 14.376 31.096 14.1853 30.9553 14.0446C30.8147 13.904 30.6239 13.825 30.425 13.825C30.2261 13.825 30.0353 13.904 29.8947 14.0446L28.5729 15.3664C28.4321 15.5071 28.3531 15.6979 28.3531 15.8968C28.3531 16.0957 28.4321 16.2865 28.5728 16.4272C28.7134 16.5678 28.9042 16.6468 29.1031 16.6468C29.302 16.6468 29.4928 16.5678 29.6335 16.4272L30.9553 15.1053Z" fill="#1C1C1C" />
                        </svg>