<svg width="45" height="49" viewBox="0 0 45 49" fill="none" xmlns="http://www.w3.org/2000/svg">
                            <path d="M44.5 25C44.5 38.0096 34.6204 48.5 22.5 48.5C10.3796 48.5 0.5 38.0096 0.5 25C0.5 11.9904 10.3796 1.5 22.5 1.5C34.6204 1.5 44.5 11.9904 44.5 25Z" fill="black" fill-opacity="0.7" stroke="black" />
                            <circle cx="22.5" cy="22.5" r="22" fill="white" stroke="black" />
                            <path d="M29 19C29 22.3137 26.3137 25 23 25C19.6863 25 17 22.3137 17 19C17 15.6863 19.6863 13 23 13C26.3137 13 29 15.6863 29 19Z" fill="black" fill-opacity="0.1" />
                            <path fill-rule="evenodd" clip-rule="evenodd" d="M23 12.25C23 12.25 24.3728 12.25 25.6276 12.7808C25.6276 12.7808 26.8391 13.2932 27.773 14.227C27.773 14.227 28.7068 15.1609 29.2192 16.3724C29.2192 16.3724 29.75 17.6272 29.75 19C29.75 19 29.75 20.3728 29.2192 21.6276C29.2192 21.6276 28.7068 22.8391 27.773 23.773C27.773 23.773 26.8391 24.7068 25.6276 25.2192C25.6276 25.2192 24.3728 25.75 23 25.75C23 25.75 21.6272 25.75 20.3724 25.2192C20.3724 25.2192 19.1609 24.7068 18.227 23.773C18.227 23.773 17.2932 22.8391 16.7808 21.6276C16.7808 21.6276 16.25 20.3728 16.25 19C16.25 19 16.25 17.6272 16.7808 16.3724C16.7808 16.3724 17.2932 15.1609 18.227 14.227C18.227 14.227 19.1609 13.2932 20.3724 12.7808C20.3724 12.7808 21.6272 12.25 23 12.25ZM23 13.75C23 13.75 20.8254 13.75 19.2877 15.2877C19.2877 15.2877 17.75 16.8254 17.75 19C17.75 19 17.75 21.1746 19.2877 22.7123C19.2877 22.7123 20.8254 24.25 23 24.25C23 24.25 25.1746 24.25 26.7123 22.7123C26.7123 22.7123 28.25 21.1746 28.25 19C28.25 19 28.25 16.8254 26.7123 15.2877C26.7123 15.2877 25.1746 13.75 23 13.75Z" fill="#1C1C1C" />
                            <path d="M27.8754 27.0556C30.138 28.3621 31.4442 30.6249 31.4442 30.6249C31.5436 30.7972 31.7074 30.9229 31.8996 30.9744C31.9629 30.9914 32.0282 31 32.0938 31C32.1016 31 32.1095 30.9999 32.1173 30.9996C32.2409 30.9957 32.3616 30.9613 32.4687 30.8995C32.7008 30.7656 32.8438 30.518 32.8438 30.25C32.8438 30.2384 32.8435 30.2268 32.8429 30.2153C32.8374 30.0955 32.8032 29.9789 32.7433 29.875C31.2362 27.2641 28.6254 25.7566 28.6254 25.7566C26.0147 24.2491 23 24.2491 23 24.2491C19.9853 24.2491 17.3746 25.7566 17.3746 25.7566C14.764 27.264 13.2569 29.8746 13.2569 29.8746L13.2567 29.875C13.1909 29.989 13.1562 30.1184 13.1562 30.25L13.1564 30.2636C13.1575 30.3246 13.166 30.3852 13.1818 30.4442C13.2333 30.6363 13.359 30.8001 13.5313 30.8995C13.6453 30.9653 13.7746 31 13.9062 31C13.9201 31 13.934 30.9996 13.9479 30.9988C14.2006 30.9848 14.4292 30.8442 14.5558 30.6249C15.862 28.3621 18.1246 27.0556 18.1246 27.0556C20.3873 25.7491 23 25.7491 23 25.7491C25.6127 25.7491 27.8754 27.0556 27.8754 27.0556Z" fill="#1C1C1C" />
                        </svg>
